{
  "header": {
    "keySignatures": [
      {
        "key": "C",
        "scale": "major",
        "ticks": 0
      },
      {
        "key": "Eb",
        "scale": "major",
        "ticks": 0
      },
      {
        "key": "Eb",
        "scale": "major",
        "ticks": 0
      }
    ],
    "meta": [],
    "name": "",
    "ppq": 480,
    "tempos": [
      {
        "bpm": 150,
        "ticks": 0
      }
    ],
    "timeSignatures": [
      {
        "ticks": 0,
        "timeSignature": [
          4,
          4
        ],
        "measures": 0
      }
    ]
  },
  "tracks": [
    {
      "channel": 0,
      "controlChanges": {
        "7": [
          {
            "number": 7,
            "ticks": 2,
            "time": 0.0016666666666666668,
            "value": 1
          }
        ],
        "10": [
          {
            "number": 10,
            "ticks": 4,
            "time": 0.0033333333333333335,
            "value": 0.5039370078740157
          }
        ],
        "91": [
          {
            "number": 91,
            "ticks": 6,
            "time": 0.005000000000000001,
            "value": 0.23622047244094488
          }
        ],
        "93": [
          {
            "number": 93,
            "ticks": 8,
            "time": 0.006666666666666667,
            "value": 0.23622047244094488
          }
        ]
      },
      "pitchBends": [],
      "instrument": {
        "family": "reed",
        "name": "alto sax",
        "number": 65
      },
      "name": "",
      "notes": [
        {
          "duration": 0.19916666666666671,
          "durationTicks": 239,
          "midi": 58,
          "name": "A#3",
          "ticks": 29520,
          "time": 24.6,
          "velocity": 0.6299212598425197
        },
        {
          "duration": 0.19916666666666671,
          "durationTicks": 239,
          "midi": 63,
          "name": "D#4",
          "ticks": 29760,
          "time": 24.8,
          "velocity": 0.6299212598425197
        },
        {
          "duration": 0.19916666666667027,
          "durationTicks": 239,
          "midi": 65,
          "name": "F4",
          "ticks": 30000,
          "time": 25,
          "velocity": 0.6299212598425197
        },
        {
          "duration": 0.19916666666666671,
          "durationTicks": 239,
          "midi": 67,
          "name": "G4",
          "ticks": 30240,
          "time": 25.200000000000003,
          "velocity": 0.6299212598425197
        },
        {
          "duration": 0.19916666666666671,
          "durationTicks": 239,
          "midi": 68,
          "name": "G#4",
          "ticks": 30480,
          "time": 25.400000000000002,
          "velocity": 0.6299212598425197
        },
        {
          "duration": 0.5991666666666688,
          "durationTicks": 719,
          "midi": 67,
          "name": "G4",
          "ticks": 30720,
          "time": 25.6,
          "velocity": 0.6299212598425197
        },
        {
          "duration": 0.19916666666666671,
          "durationTicks": 239,
          "midi": 65,
          "name": "F4",
          "ticks": 31440,
          "time": 26.200000000000003,
          "velocity": 0.6299212598425197
        },
        {
          "duration": 0.5991666666666653,
          "durationTicks": 719,
          "midi": 65,
          "name": "F4",
          "ticks": 31680,
          "time": 26.400000000000002,
          "velocity": 0.6299212598425197
        },
        {
          "duration": 0.19916666666667027,
          "durationTicks": 239,
          "midi": 63,
          "name": "D#4",
          "ticks": 32400,
          "time": 27,
          "velocity": 0.6299212598425197
        },
        {
          "duration": 0.5991666666666653,
          "durationTicks": 719,
          "midi": 63,
          "name": "D#4",
          "ticks": 32640,
          "time": 27.200000000000003,
          "velocity": 0.6299212598425197
        },
        {
          "duration": 0.19916666666666671,
          "durationTicks": 239,
          "midi": 63,
          "name": "D#4",
          "ticks": 33360,
          "time": 27.8,
          "velocity": 0.6299212598425197
        },
        {
          "duration": 0.19916666666667027,
          "durationTicks": 239,
          "midi": 65,
          "name": "F4",
          "ticks": 33600,
          "time": 28,
          "velocity": 0.6299212598425197
        },
        {
          "duration": 0.19916666666666671,
          "durationTicks": 239,
          "midi": 63,
          "name": "D#4",
          "ticks": 33840,
          "time": 28.200000000000003,
          "velocity": 0.6299212598425197
        },
        {
          "duration": 0.19916666666666671,
          "durationTicks": 239,
          "midi": 62,
          "name": "D4",
          "ticks": 34080,
          "time": 28.400000000000002,
          "velocity": 0.6299212598425197
        },
        {
          "duration": 0.399166666666666,
          "durationTicks": 479,
          "midi": 63,
          "name": "D#4",
          "ticks": 34320,
          "time": 28.6,
          "velocity": 0.6299212598425197
        },
        {
          "duration": 0.19916666666667027,
          "durationTicks": 239,
          "midi": 58,
          "name": "A#3",
          "ticks": 34800,
          "time": 29,
          "velocity": 0.6299212598425197
        },
        {
          "duration": 1.1991666666666667,
          "durationTicks": 1439,
          "midi": 58,
          "name": "A#3",
          "ticks": 35040,
          "time": 29.200000000000003,
          "velocity": 0.6299212598425197
        },
        {
          "duration": 0.19916666666667027,
          "durationTicks": 239,
          "midi": 58,
          "name": "A#3",
          "ticks": 37200,
          "time": 31,
          "velocity": 0.6299212598425197
        },
        {
          "duration": 0.399166666666666,
          "durationTicks": 479,
          "midi": 70,
          "name": "A#4",
          "ticks": 37440,
          "time": 31.200000000000003,
          "velocity": 0.6299212598425197
        },
        {
          "duration": 0.19916666666666671,
          "durationTicks": 239,
          "midi": 70,
          "name": "A#4",
          "ticks": 37920,
          "time": 31.6,
          "velocity": 0.6299212598425197
        },
        {
          "duration": 0.39916666666666956,
          "durationTicks": 479,
          "midi": 70,
          "name": "A#4",
          "ticks": 38160,
          "time": 31.8,
          "velocity": 0.6299212598425197
        },
        {
          "duration": 0.19916666666666316,
          "durationTicks": 239,
          "midi": 63,
          "name": "D#4",
          "ticks": 38640,
          "time": 32.2,
          "velocity": 0.6299212598425197
        },
        {
          "duration": 0.7991666666666717,
          "durationTicks": 959,
          "midi": 63,
          "name": "D#4",
          "ticks": 38880,
          "time": 32.4,
          "velocity": 0.6299212598425197
        },
        {
          "duration": 0.19916666666667027,
          "durationTicks": 239,
          "midi": 63,
          "name": "D#4",
          "ticks": 40080,
          "time": 33.4,
          "velocity": 0.6299212598425197
        },
        {
          "duration": 0.399166666666666,
          "durationTicks": 479,
          "midi": 65,
          "name": "F4",
          "ticks": 40320,
          "time": 33.6,
          "velocity": 0.6299212598425197
        },
        {
          "duration": 0.399166666666666,
          "durationTicks": 479,
          "midi": 67,
          "name": "G4",
          "ticks": 40800,
          "time": 34,
          "velocity": 0.6299212598425197
        },
        {
          "duration": 0.19916666666667027,
          "durationTicks": 239,
          "midi": 65,
          "name": "F4",
          "ticks": 41280,
          "time": 34.4,
          "velocity": 0.6299212598425197
        },
        {
          "duration": 0.09916666666666885,
          "durationTicks": 119,
          "midi": 66,
          "name": "F#4",
          "ticks": 41520,
          "time": 34.6,
          "velocity": 0.6299212598425197
        },
        {
          "duration": 0.09916666666666885,
          "durationTicks": 119,
          "midi": 65,
          "name": "F4",
          "ticks": 41640,
          "time": 34.7,
          "velocity": 0.6299212598425197
        },
        {
          "duration": 0.399166666666666,
          "durationTicks": 479,
          "midi": 63,
          "name": "D#4",
          "ticks": 41760,
          "time": 34.800000000000004,
          "velocity": 0.6299212598425197
        },
        {
          "duration": 0.7991666666666646,
          "durationTicks": 959,
          "midi": 63,
          "name": "D#4",
          "ticks": 42240,
          "time": 35.2,
          "velocity": 0.6299212598425197
        },
        {
          "duration": 0.5991666666666688,
          "durationTicks": 719,
          "midi": 63,
          "name": "D#4",
          "ticks": 43200,
          "time": 36,
          "velocity": 0.6299212598425197
        },
        {
          "duration": 0.19916666666667027,
          "durationTicks": 239,
          "midi": 65,
          "name": "F4",
          "ticks": 43920,
          "time": 36.6,
          "velocity": 0.6299212598425197
        },
        {
          "duration": 0.399166666666666,
          "durationTicks": 479,
          "midi": 65,
          "name": "F4",
          "ticks": 44160,
          "time": 36.800000000000004,
          "velocity": 0.6299212598425197
        },
        {
          "duration": 0.19916666666667027,
          "durationTicks": 239,
          "midi": 58,
          "name": "A#3",
          "ticks": 44880,
          "time": 37.4,
          "velocity": 0.6299212598425197
        },
        {
          "duration": 0.19916666666667027,
          "durationTicks": 239,
          "midi": 63,
          "name": "D#4",
          "ticks": 45120,
          "time": 37.6,
          "velocity": 0.6299212598425197
        },
        {
          "duration": 0.19916666666666316,
          "durationTicks": 239,
          "midi": 65,
          "name": "F4",
          "ticks": 45360,
          "time": 37.800000000000004,
          "velocity": 0.6299212598425197
        },
        {
          "duration": 0.19916666666667027,
          "durationTicks": 239,
          "midi": 67,
          "name": "G4",
          "ticks": 45600,
          "time": 38,
          "velocity": 0.6299212598425197
        },
        {
          "duration": 0.19916666666666316,
          "durationTicks": 239,
          "midi": 68,
          "name": "G#4",
          "ticks": 45840,
          "time": 38.2,
          "velocity": 0.6299212598425197
        },
        {
          "duration": 0.5991666666666617,
          "durationTicks": 719,
          "midi": 67,
          "name": "G4",
          "ticks": 46080,
          "time": 38.400000000000006,
          "velocity": 0.6299212598425197
        },
        {
          "duration": 0.19916666666667027,
          "durationTicks": 239,
          "midi": 65,
          "name": "F4",
          "ticks": 46800,
          "time": 39,
          "velocity": 0.6299212598425197
        },
        {
          "duration": 0.5991666666666688,
          "durationTicks": 719,
          "midi": 65,
          "name": "F4",
          "ticks": 47040,
          "time": 39.2,
          "velocity": 0.6299212598425197
        },
        {
          "duration": 0.19916666666666316,
          "durationTicks": 239,
          "midi": 63,
          "name": "D#4",
          "ticks": 47760,
          "time": 39.800000000000004,
          "velocity": 0.6299212598425197
        },
        {
          "duration": 0.5991666666666688,
          "durationTicks": 719,
          "midi": 63,
          "name": "D#4",
          "ticks": 48000,
          "time": 40,
          "velocity": 0.6299212598425197
        },
        {
          "duration": 0.19916666666667027,
          "durationTicks": 239,
          "midi": 63,
          "name": "D#4",
          "ticks": 48720,
          "time": 40.6,
          "velocity": 0.6299212598425197
        },
        {
          "duration": 0.19916666666666316,
          "durationTicks": 239,
          "midi": 65,
          "name": "F4",
          "ticks": 48960,
          "time": 40.800000000000004,
          "velocity": 0.6299212598425197
        },
        {
          "duration": 0.19916666666667027,
          "durationTicks": 239,
          "midi": 63,
          "name": "D#4",
          "ticks": 49200,
          "time": 41,
          "velocity": 0.6299212598425197
        },
        {
          "duration": 0.19916666666667027,
          "durationTicks": 239,
          "midi": 62,
          "name": "D4",
          "ticks": 49440,
          "time": 41.2,
          "velocity": 0.6299212598425197
        },
        {
          "duration": 0.399166666666666,
          "durationTicks": 479,
          "midi": 63,
          "name": "D#4",
          "ticks": 49680,
          "time": 41.400000000000006,
          "velocity": 0.6299212598425197
        },
        {
          "duration": 0.19916666666666316,
          "durationTicks": 239,
          "midi": 58,
          "name": "A#3",
          "ticks": 50160,
          "time": 41.800000000000004,
          "velocity": 0.6299212598425197
        },
        {
          "duration": 1.1991666666666703,
          "durationTicks": 1439,
          "midi": 58,
          "name": "A#3",
          "ticks": 50400,
          "time": 42,
          "velocity": 0.6299212598425197
        },
        {
          "duration": 0.19916666666666316,
          "durationTicks": 239,
          "midi": 58,
          "name": "A#3",
          "ticks": 52560,
          "time": 43.800000000000004,
          "velocity": 0.6299212598425197
        },
        {
          "duration": 0.3991666666666731,
          "durationTicks": 479,
          "midi": 70,
          "name": "A#4",
          "ticks": 52800,
          "time": 44,
          "velocity": 0.6299212598425197
        },
        {
          "duration": 0.19916666666666316,
          "durationTicks": 239,
          "midi": 70,
          "name": "A#4",
          "ticks": 53280,
          "time": 44.400000000000006,
          "velocity": 0.6299212598425197
        },
        {
          "duration": 0.399166666666666,
          "durationTicks": 479,
          "midi": 70,
          "name": "A#4",
          "ticks": 53520,
          "time": 44.6,
          "velocity": 0.6299212598425197
        },
        {
          "duration": 0.19916666666667027,
          "durationTicks": 239,
          "midi": 63,
          "name": "D#4",
          "ticks": 54000,
          "time": 45,
          "velocity": 0.6299212598425197
        },
        {
          "duration": 0.7991666666666646,
          "durationTicks": 959,
          "midi": 63,
          "name": "D#4",
          "ticks": 54240,
          "time": 45.2,
          "velocity": 0.6299212598425197
        },
        {
          "duration": 0.19916666666667027,
          "durationTicks": 239,
          "midi": 63,
          "name": "D#4",
          "ticks": 55440,
          "time": 46.2,
          "velocity": 0.6299212598425197
        },
        {
          "duration": 0.399166666666666,
          "durationTicks": 479,
          "midi": 65,
          "name": "F4",
          "ticks": 55680,
          "time": 46.400000000000006,
          "velocity": 0.6299212598425197
        },
        {
          "duration": 0.19916666666666316,
          "durationTicks": 239,
          "midi": 67,
          "name": "G4",
          "ticks": 56160,
          "time": 46.800000000000004,
          "velocity": 0.6299212598425197
        },
        {
          "duration": 0.3991666666666731,
          "durationTicks": 479,
          "midi": 65,
          "name": "F4",
          "ticks": 56400,
          "time": 47,
          "velocity": 0.6299212598425197
        },
        {
          "duration": 0.19916666666666316,
          "durationTicks": 239,
          "midi": 63,
          "name": "D#4",
          "ticks": 56880,
          "time": 47.400000000000006,
          "velocity": 0.6299212598425197
        },
        {
          "duration": 0.19916666666666316,
          "durationTicks": 239,
          "midi": 63,
          "name": "D#4",
          "ticks": 57360,
          "time": 47.800000000000004,
          "velocity": 0.6299212598425197
        },
        {
          "duration": 0.5991666666666688,
          "durationTicks": 719,
          "midi": 68,
          "name": "G#4",
          "ticks": 57600,
          "time": 48,
          "velocity": 0.6299212598425197
        },
        {
          "duration": 0.19916666666667027,
          "durationTicks": 239,
          "midi": 67,
          "name": "G4",
          "ticks": 58320,
          "time": 48.6,
          "velocity": 0.6299212598425197
        },
        {
          "duration": 0.5991666666666688,
          "durationTicks": 719,
          "midi": 67,
          "name": "G4",
          "ticks": 58560,
          "time": 48.800000000000004,
          "velocity": 0.6299212598425197
        },
        {
          "duration": 0.19916666666666316,
          "durationTicks": 239,
          "midi": 65,
          "name": "F4",
          "ticks": 59280,
          "time": 49.400000000000006,
          "velocity": 0.6299212598425197
        },
        {
          "duration": 0.399166666666666,
          "durationTicks": 479,
          "midi": 65,
          "name": "F4",
          "ticks": 59520,
          "time": 49.6,
          "velocity": 0.6299212598425197
        },
        {
          "duration": 0.3991666666666731,
          "durationTicks": 479,
          "midi": 63,
          "name": "D#4",
          "ticks": 60000,
          "time": 50,
          "velocity": 0.6299212598425197
        },
        {
          "duration": 0.399166666666666,
          "durationTicks": 479,
          "midi": 70,
          "name": "A#4",
          "ticks": 60480,
          "time": 50.400000000000006,
          "velocity": 0.6299212598425197
        },
        {
          "duration": 0.7991666666666646,
          "durationTicks": 959,
          "midi": 68,
          "name": "G#4",
          "ticks": 60960,
          "time": 50.800000000000004,
          "velocity": 0.6299212598425197
        },
        {
          "duration": 0.19916666666666316,
          "durationTicks": 239,
          "midi": 63,
          "name": "D#4",
          "ticks": 62160,
          "time": 51.800000000000004,
          "velocity": 0.6299212598425197
        },
        {
          "duration": 0.19916666666667027,
          "durationTicks": 239,
          "midi": 75,
          "name": "D#5",
          "ticks": 62400,
          "time": 52,
          "velocity": 0.6299212598425197
        },
        {
          "duration": 0.19916666666667027,
          "durationTicks": 239,
          "midi": 74,
          "name": "D5",
          "ticks": 62640,
          "time": 52.2,
          "velocity": 0.6299212598425197
        },
        {
          "duration": 0.19916666666666316,
          "durationTicks": 239,
          "midi": 72,
          "name": "C5",
          "ticks": 62880,
          "time": 52.400000000000006,
          "velocity": 0.6299212598425197
        },
        {
          "duration": 0.19916666666667027,
          "durationTicks": 239,
          "midi": 70,
          "name": "A#4",
          "ticks": 63120,
          "time": 52.6,
          "velocity": 0.6299212598425197
        },
        {
          "duration": 0.399166666666666,
          "durationTicks": 479,
          "midi": 72,
          "name": "C5",
          "ticks": 63360,
          "time": 52.800000000000004,
          "velocity": 0.6299212598425197
        },
        {
          "duration": 0.19916666666667027,
          "durationTicks": 239,
          "midi": 63,
          "name": "D#4",
          "ticks": 63840,
          "time": 53.2,
          "velocity": 0.6299212598425197
        },
        {
          "duration": 0.399166666666666,
          "durationTicks": 479,
          "midi": 63,
          "name": "D#4",
          "ticks": 64080,
          "time": 53.400000000000006,
          "velocity": 0.6299212598425197
        },
        {
          "duration": 0.399166666666666,
          "durationTicks": 479,
          "midi": 67,
          "name": "G4",
          "ticks": 64560,
          "time": 53.800000000000004,
          "velocity": 0.6299212598425197
        },
        {
          "duration": 0.399166666666666,
          "durationTicks": 479,
          "midi": 65,
          "name": "F4",
          "ticks": 65040,
          "time": 54.2,
          "velocity": 0.6299212598425197
        },
        {
          "duration": 0.19916666666667027,
          "durationTicks": 239,
          "midi": 67,
          "name": "G4",
          "ticks": 65520,
          "time": 54.6,
          "velocity": 0.6299212598425197
        },
        {
          "duration": 0.19916666666667027,
          "durationTicks": 239,
          "midi": 63,
          "name": "D#4",
          "ticks": 66000,
          "time": 55,
          "velocity": 0.6299212598425197
        },
        {
          "duration": 0.19916666666667027,
          "durationTicks": 239,
          "midi": 75,
          "name": "D#5",
          "ticks": 66240,
          "time": 55.2,
          "velocity": 0.6299212598425197
        },
        {
          "duration": 0.19916666666666316,
          "durationTicks": 239,
          "midi": 74,
          "name": "D5",
          "ticks": 66480,
          "time": 55.400000000000006,
          "velocity": 0.6299212598425197
        },
        {
          "duration": 0.19916666666667027,
          "durationTicks": 239,
          "midi": 75,
          "name": "D#5",
          "ticks": 66720,
          "time": 55.6,
          "velocity": 0.6299212598425197
        },
        {
          "duration": 0.19916666666666316,
          "durationTicks": 239,
          "midi": 77,
          "name": "F5",
          "ticks": 66960,
          "time": 55.800000000000004,
          "velocity": 0.6299212598425197
        },
        {
          "duration": 0.3991666666666731,
          "durationTicks": 479,
          "midi": 77,
          "name": "F5",
          "ticks": 67200,
          "time": 56,
          "velocity": 0.6299212598425197
        },
        {
          "duration": 0.19916666666666316,
          "durationTicks": 239,
          "midi": 75,
          "name": "D#5",
          "ticks": 67680,
          "time": 56.400000000000006,
          "velocity": 0.6299212598425197
        },
        {
          "duration": 0.399166666666666,
          "durationTicks": 479,
          "midi": 77,
          "name": "F5",
          "ticks": 67920,
          "time": 56.6,
          "velocity": 0.6299212598425197
        },
        {
          "duration": 0.3991666666666731,
          "durationTicks": 479,
          "midi": 79,
          "name": "G5",
          "ticks": 68400,
          "time": 57,
          "velocity": 0.6299212598425197
        },
        {
          "duration": 0.19916666666666316,
          "durationTicks": 239,
          "midi": 77,
          "name": "F5",
          "ticks": 68880,
          "time": 57.400000000000006,
          "velocity": 0.6299212598425197
        },
        {
          "duration": 0.19916666666667027,
          "durationTicks": 239,
          "midi": 75,
          "name": "D#5",
          "ticks": 69120,
          "time": 57.6,
          "velocity": 0.6299212598425197
        },
        {
          "duration": 0.19916666666666316,
          "durationTicks": 239,
          "midi": 75,
          "name": "D#5",
          "ticks": 69360,
          "time": 57.800000000000004,
          "velocity": 0.6299212598425197
        },
        {
          "duration": 0.19916666666667027,
          "durationTicks": 239,
          "midi": 63,
          "name": "D#4",
          "ticks": 69840,
          "time": 58.2,
          "velocity": 0.6299212598425197
        },
        {
          "duration": 0.19916666666666316,
          "durationTicks": 239,
          "midi": 75,
          "name": "D#5",
          "ticks": 70080,
          "time": 58.400000000000006,
          "velocity": 0.6299212598425197
        },
        {
          "duration": 0.19916666666667027,
          "durationTicks": 239,
          "midi": 74,
          "name": "D5",
          "ticks": 70320,
          "time": 58.6,
          "velocity": 0.6299212598425197
        },
        {
          "duration": 0.19916666666666316,
          "durationTicks": 239,
          "midi": 72,
          "name": "C5",
          "ticks": 70560,
          "time": 58.800000000000004,
          "velocity": 0.6299212598425197
        },
        {
          "duration": 0.19916666666667027,
          "durationTicks": 239,
          "midi": 70,
          "name": "A#4",
          "ticks": 70800,
          "time": 59,
          "velocity": 0.6299212598425197
        },
        {
          "duration": 0.399166666666666,
          "durationTicks": 479,
          "midi": 72,
          "name": "C5",
          "ticks": 71040,
          "time": 59.2,
          "velocity": 0.6299212598425197
        },
        {
          "duration": 0.19916666666667027,
          "durationTicks": 239,
          "midi": 63,
          "name": "D#4",
          "ticks": 71520,
          "time": 59.6,
          "velocity": 0.6299212598425197
        },
        {
          "duration": 0.399166666666666,
          "durationTicks": 479,
          "midi": 63,
          "name": "D#4",
          "ticks": 71760,
          "time": 59.800000000000004,
          "velocity": 0.6299212598425197
        },
        {
          "duration": 0.399166666666666,
          "durationTicks": 479,
          "midi": 60,
          "name": "C4",
          "ticks": 72240,
          "time": 60.2,
          "velocity": 0.6299212598425197
        },
        {
          "duration": 0.399166666666666,
          "durationTicks": 479,
          "midi": 58,
          "name": "A#3",
          "ticks": 72720,
          "time": 60.6,
          "velocity": 0.6299212598425197
        },
        {
          "duration": 0.19916666666667027,
          "durationTicks": 239,
          "midi": 63,
          "name": "D#4",
          "ticks": 73200,
          "time": 61,
          "velocity": 0.6299212598425197
        },
        {
          "duration": 0.19916666666666316,
          "durationTicks": 239,
          "midi": 63,
          "name": "D#4",
          "ticks": 73680,
          "time": 61.400000000000006,
          "velocity": 0.6299212598425197
        },
        {
          "duration": 0.19916666666667027,
          "durationTicks": 239,
          "midi": 63,
          "name": "D#4",
          "ticks": 73920,
          "time": 61.6,
          "velocity": 0.6299212598425197
        },
        {
          "duration": 0.19916666666666316,
          "durationTicks": 239,
          "midi": 65,
          "name": "F4",
          "ticks": 74160,
          "time": 61.800000000000004,
          "velocity": 0.6299212598425197
        },
        {
          "duration": 0.19916666666667027,
          "durationTicks": 239,
          "midi": 67,
          "name": "G4",
          "ticks": 74400,
          "time": 62,
          "velocity": 0.6299212598425197
        },
        {
          "duration": 0.19916666666667027,
          "durationTicks": 239,
          "midi": 68,
          "name": "G#4",
          "ticks": 74640,
          "time": 62.2,
          "velocity": 0.6299212598425197
        },
        {
          "duration": 0.5991666666666617,
          "durationTicks": 719,
          "midi": 70,
          "name": "A#4",
          "ticks": 74880,
          "time": 62.400000000000006,
          "velocity": 0.6299212598425197
        },
        {
          "duration": 0.19916666666667027,
          "durationTicks": 239,
          "midi": 65,
          "name": "F4",
          "ticks": 75600,
          "time": 63,
          "velocity": 0.6299212598425197
        },
        {
          "duration": 0.399166666666666,
          "durationTicks": 479,
          "midi": 65,
          "name": "F4",
          "ticks": 75840,
          "time": 63.2,
          "velocity": 0.6299212598425197
        },
        {
          "duration": 0.19916666666667027,
          "durationTicks": 239,
          "midi": 63,
          "name": "D#4",
          "ticks": 76320,
          "time": 63.6,
          "velocity": 0.6299212598425197
        },
        {
          "duration": 0.399166666666666,
          "durationTicks": 479,
          "midi": 65,
          "name": "F4",
          "ticks": 76560,
          "time": 63.800000000000004,
          "velocity": 0.6299212598425197
        },
        {
          "duration": 0.09916666666666174,
          "durationTicks": 119,
          "midi": 67,
          "name": "G4",
          "ticks": 77040,
          "time": 64.2,
          "velocity": 0.6299212598425197
        },
        {
          "duration": 0.19916666666665606,
          "durationTicks": 239,
          "midi": 63,
          "name": "D#4",
          "ticks": 77520,
          "time": 64.60000000000001,
          "velocity": 0.6299212598425197
        },
        {
          "duration": 0.19916666666667027,
          "durationTicks": 239,
          "midi": 75,
          "name": "D#5",
          "ticks": 77760,
          "time": 64.8,
          "velocity": 0.6299212598425197
        },
        {
          "duration": 0.19916666666667027,
          "durationTicks": 239,
          "midi": 74,
          "name": "D5",
          "ticks": 78000,
          "time": 65,
          "velocity": 0.6299212598425197
        },
        {
          "duration": 0.19916666666667027,
          "durationTicks": 239,
          "midi": 72,
          "name": "C5",
          "ticks": 78240,
          "time": 65.2,
          "velocity": 0.6299212598425197
        },
        {
          "duration": 0.19916666666667027,
          "durationTicks": 239,
          "midi": 70,
          "name": "A#4",
          "ticks": 78480,
          "time": 65.4,
          "velocity": 0.6299212598425197
        },
        {
          "duration": 0.3991666666666589,
          "durationTicks": 479,
          "midi": 72,
          "name": "C5",
          "ticks": 78720,
          "time": 65.60000000000001,
          "velocity": 0.6299212598425197
        },
        {
          "duration": 0.19916666666667027,
          "durationTicks": 239,
          "midi": 63,
          "name": "D#4",
          "ticks": 79200,
          "time": 66,
          "velocity": 0.6299212598425197
        },
        {
          "duration": 0.3991666666666731,
          "durationTicks": 479,
          "midi": 63,
          "name": "D#4",
          "ticks": 79440,
          "time": 66.2,
          "velocity": 0.6299212598425197
        },
        {
          "duration": 0.3991666666666589,
          "durationTicks": 479,
          "midi": 67,
          "name": "G4",
          "ticks": 79920,
          "time": 66.60000000000001,
          "velocity": 0.6299212598425197
        },
        {
          "duration": 0.3991666666666731,
          "durationTicks": 479,
          "midi": 65,
          "name": "F4",
          "ticks": 80400,
          "time": 67,
          "velocity": 0.6299212598425197
        },
        {
          "duration": 0.19916666666667027,
          "durationTicks": 239,
          "midi": 67,
          "name": "G4",
          "ticks": 80880,
          "time": 67.4,
          "velocity": 0.6299212598425197
        },
        {
          "duration": 0.19916666666667027,
          "durationTicks": 239,
          "midi": 63,
          "name": "D#4",
          "ticks": 81360,
          "time": 67.8,
          "velocity": 0.6299212598425197
        },
        {
          "duration": 0.19916666666667027,
          "durationTicks": 239,
          "midi": 75,
          "name": "D#5",
          "ticks": 81600,
          "time": 68,
          "velocity": 0.6299212598425197
        },
        {
          "duration": 0.19916666666667027,
          "durationTicks": 239,
          "midi": 74,
          "name": "D5",
          "ticks": 81840,
          "time": 68.2,
          "velocity": 0.6299212598425197
        },
        {
          "duration": 0.19916666666667027,
          "durationTicks": 239,
          "midi": 75,
          "name": "D#5",
          "ticks": 82080,
          "time": 68.4,
          "velocity": 0.6299212598425197
        },
        {
          "duration": 0.19916666666665606,
          "durationTicks": 239,
          "midi": 77,
          "name": "F5",
          "ticks": 82320,
          "time": 68.60000000000001,
          "velocity": 0.6299212598425197
        },
        {
          "duration": 0.3991666666666731,
          "durationTicks": 479,
          "midi": 77,
          "name": "F5",
          "ticks": 82560,
          "time": 68.8,
          "velocity": 0.6299212598425197
        },
        {
          "duration": 0.19916666666667027,
          "durationTicks": 239,
          "midi": 75,
          "name": "D#5",
          "ticks": 83040,
          "time": 69.2,
          "velocity": 0.6299212598425197
        },
        {
          "duration": 0.3991666666666589,
          "durationTicks": 479,
          "midi": 77,
          "name": "F5",
          "ticks": 83280,
          "time": 69.4,
          "velocity": 0.6299212598425197
        },
        {
          "duration": 0.3991666666666731,
          "durationTicks": 479,
          "midi": 79,
          "name": "G5",
          "ticks": 83760,
          "time": 69.8,
          "velocity": 0.6299212598425197
        },
        {
          "duration": 0.19916666666667027,
          "durationTicks": 239,
          "midi": 77,
          "name": "F5",
          "ticks": 84240,
          "time": 70.2,
          "velocity": 0.6299212598425197
        },
        {
          "duration": 0.19916666666667027,
          "durationTicks": 239,
          "midi": 75,
          "name": "D#5",
          "ticks": 84480,
          "time": 70.4,
          "velocity": 0.6299212598425197
        },
        {
          "duration": 0.09916666666666174,
          "durationTicks": 119,
          "midi": 75,
          "name": "D#5",
          "ticks": 84720,
          "time": 70.60000000000001,
          "velocity": 0.6299212598425197
        },
        {
          "duration": 0.19916666666667027,
          "durationTicks": 239,
          "midi": 63,
          "name": "D#4",
          "ticks": 85200,
          "time": 71,
          "velocity": 0.6299212598425197
        },
        {
          "duration": 0.19916666666667027,
          "durationTicks": 239,
          "midi": 75,
          "name": "D#5",
          "ticks": 85440,
          "time": 71.2,
          "velocity": 0.6299212598425197
        },
        {
          "duration": 0.19916666666667027,
          "durationTicks": 239,
          "midi": 74,
          "name": "D5",
          "ticks": 85680,
          "time": 71.4,
          "velocity": 0.6299212598425197
        },
        {
          "duration": 0.19916666666665606,
          "durationTicks": 239,
          "midi": 72,
          "name": "C5",
          "ticks": 85920,
          "time": 71.60000000000001,
          "velocity": 0.6299212598425197
        },
        {
          "duration": 0.19916666666667027,
          "durationTicks": 239,
          "midi": 70,
          "name": "A#4",
          "ticks": 86160,
          "time": 71.8,
          "velocity": 0.6299212598425197
        },
        {
          "duration": 0.3991666666666731,
          "durationTicks": 479,
          "midi": 72,
          "name": "C5",
          "ticks": 86400,
          "time": 72,
          "velocity": 0.6299212598425197
        },
        {
          "duration": 0.19916666666667027,
          "durationTicks": 239,
          "midi": 63,
          "name": "D#4",
          "ticks": 86880,
          "time": 72.4,
          "velocity": 0.6299212598425197
        },
        {
          "duration": 0.3991666666666589,
          "durationTicks": 479,
          "midi": 63,
          "name": "D#4",
          "ticks": 87120,
          "time": 72.60000000000001,
          "velocity": 0.6299212598425197
        },
        {
          "duration": 0.3991666666666731,
          "durationTicks": 479,
          "midi": 60,
          "name": "C4",
          "ticks": 87600,
          "time": 73,
          "velocity": 0.6299212598425197
        },
        {
          "duration": 0.3991666666666589,
          "durationTicks": 479,
          "midi": 58,
          "name": "A#3",
          "ticks": 88080,
          "time": 73.4,
          "velocity": 0.6299212598425197
        },
        {
          "duration": 0.19916666666667027,
          "durationTicks": 239,
          "midi": 63,
          "name": "D#4",
          "ticks": 88560,
          "time": 73.8,
          "velocity": 0.6299212598425197
        },
        {
          "duration": 0.19916666666667027,
          "durationTicks": 239,
          "midi": 63,
          "name": "D#4",
          "ticks": 89040,
          "time": 74.2,
          "velocity": 0.6299212598425197
        },
        {
          "duration": 0.19916666666667027,
          "durationTicks": 239,
          "midi": 63,
          "name": "D#4",
          "ticks": 89280,
          "time": 74.4,
          "velocity": 0.6299212598425197
        },
        {
          "duration": 0.19916666666665606,
          "durationTicks": 239,
          "midi": 65,
          "name": "F4",
          "ticks": 89520,
          "time": 74.60000000000001,
          "velocity": 0.6299212598425197
        },
        {
          "duration": 0.19916666666667027,
          "durationTicks": 239,
          "midi": 67,
          "name": "G4",
          "ticks": 89760,
          "time": 74.8,
          "velocity": 0.6299212598425197
        },
        {
          "duration": 0.19916666666667027,
          "durationTicks": 239,
          "midi": 68,
          "name": "G#4",
          "ticks": 90000,
          "time": 75,
          "velocity": 0.6299212598425197
        },
        {
          "duration": 0.5991666666666617,
          "durationTicks": 719,
          "midi": 70,
          "name": "A#4",
          "ticks": 90240,
          "time": 75.2,
          "velocity": 0.6299212598425197
        },
        {
          "duration": 0.19916666666667027,
          "durationTicks": 239,
          "midi": 72,
          "name": "C5",
          "ticks": 90960,
          "time": 75.8,
          "velocity": 0.6299212598425197
        },
        {
          "duration": 0.3991666666666731,
          "durationTicks": 479,
          "midi": 70,
          "name": "A#4",
          "ticks": 91200,
          "time": 76,
          "velocity": 0.6299212598425197
        },
        {
          "duration": 0.19916666666665606,
          "durationTicks": 239,
          "midi": 70,
          "name": "A#4",
          "ticks": 91920,
          "time": 76.60000000000001,
          "velocity": 0.6299212598425197
        },
        {
          "duration": 0.3991666666666589,
          "durationTicks": 479,
          "midi": 70,
          "name": "A#4",
          "ticks": 92160,
          "time": 76.80000000000001,
          "velocity": 0.6299212598425197
        },
        {
          "duration": 0.3991666666666731,
          "durationTicks": 479,
          "midi": 75,
          "name": "D#5",
          "ticks": 92640,
          "time": 77.2,
          "velocity": 0.6299212598425197
        },
        {
          "duration": 0.3991666666666589,
          "durationTicks": 479,
          "midi": 77,
          "name": "F5",
          "ticks": 93120,
          "time": 77.60000000000001,
          "velocity": 0.6299212598425197
        },
        {
          "duration": 0.3991666666666731,
          "durationTicks": 479,
          "midi": 79,
          "name": "G5",
          "ticks": 93600,
          "time": 78,
          "velocity": 0.6299212598425197
        },
        {
          "duration": 2.399166666666673,
          "durationTicks": 2879,
          "midi": 79,
          "name": "G5",
          "ticks": 94080,
          "time": 78.4,
          "velocity": 0.6299212598425197
        },
        {
          "duration": 0.5991666666666617,
          "durationTicks": 719,
          "midi": 77,
          "name": "F5",
          "ticks": 96960,
          "time": 80.80000000000001,
          "velocity": 0.6299212598425197
        },
        {
          "duration": 0.09916666666666174,
          "durationTicks": 119,
          "midi": 79,
          "name": "G5",
          "ticks": 97680,
          "time": 81.4,
          "velocity": 0.6299212598425197
        },
        {
          "duration": 0.09916666666667595,
          "durationTicks": 119,
          "midi": 77,
          "name": "F5",
          "ticks": 97800,
          "time": 81.5,
          "velocity": 0.6299212598425197
        },
        {
          "duration": 2.399166666666659,
          "durationTicks": 2879,
          "midi": 75,
          "name": "D#5",
          "ticks": 97920,
          "time": 81.60000000000001,
          "velocity": 0.6299212598425197
        },
        {
          "duration": 0.19916666666667027,
          "durationTicks": 239,
          "midi": 58,
          "name": "A#3",
          "ticks": 115920,
          "time": 96.60000000000001,
          "velocity": 0.6299212598425197
        },
        {
          "duration": 0.19916666666665606,
          "durationTicks": 239,
          "midi": 63,
          "name": "D#4",
          "ticks": 116160,
          "time": 96.80000000000001,
          "velocity": 0.6299212598425197
        },
        {
          "duration": 0.19916666666667027,
          "durationTicks": 239,
          "midi": 65,
          "name": "F4",
          "ticks": 116400,
          "time": 97,
          "velocity": 0.6299212598425197
        },
        {
          "duration": 0.19916666666667027,
          "durationTicks": 239,
          "midi": 67,
          "name": "G4",
          "ticks": 116640,
          "time": 97.2,
          "velocity": 0.6299212598425197
        },
        {
          "duration": 0.19916666666667027,
          "durationTicks": 239,
          "midi": 68,
          "name": "G#4",
          "ticks": 116880,
          "time": 97.4,
          "velocity": 0.6299212598425197
        },
        {
          "duration": 0.5991666666666617,
          "durationTicks": 719,
          "midi": 67,
          "name": "G4",
          "ticks": 117120,
          "time": 97.60000000000001,
          "velocity": 0.6299212598425197
        },
        {
          "duration": 0.19916666666667027,
          "durationTicks": 239,
          "midi": 65,
          "name": "F4",
          "ticks": 117840,
          "time": 98.2,
          "velocity": 0.6299212598425197
        },
        {
          "duration": 0.5991666666666617,
          "durationTicks": 719,
          "midi": 65,
          "name": "F4",
          "ticks": 118080,
          "time": 98.4,
          "velocity": 0.6299212598425197
        },
        {
          "duration": 0.19916666666667027,
          "durationTicks": 239,
          "midi": 63,
          "name": "D#4",
          "ticks": 118800,
          "time": 99,
          "velocity": 0.6299212598425197
        },
        {
          "duration": 0.599166666666676,
          "durationTicks": 719,
          "midi": 63,
          "name": "D#4",
          "ticks": 119040,
          "time": 99.2,
          "velocity": 0.6299212598425197
        },
        {
          "duration": 0.19916666666665606,
          "durationTicks": 239,
          "midi": 63,
          "name": "D#4",
          "ticks": 119760,
          "time": 99.80000000000001,
          "velocity": 0.6299212598425197
        },
        {
          "duration": 0.19916666666667027,
          "durationTicks": 239,
          "midi": 65,
          "name": "F4",
          "ticks": 120000,
          "time": 100,
          "velocity": 0.6299212598425197
        },
        {
          "duration": 0.19916666666667027,
          "durationTicks": 239,
          "midi": 63,
          "name": "D#4",
          "ticks": 120240,
          "time": 100.2,
          "velocity": 0.6299212598425197
        },
        {
          "duration": 0.19916666666667027,
          "durationTicks": 239,
          "midi": 62,
          "name": "D4",
          "ticks": 120480,
          "time": 100.4,
          "velocity": 0.6299212598425197
        },
        {
          "duration": 0.3991666666666589,
          "durationTicks": 479,
          "midi": 63,
          "name": "D#4",
          "ticks": 120720,
          "time": 100.60000000000001,
          "velocity": 0.6299212598425197
        },
        {
          "duration": 0.19916666666667027,
          "durationTicks": 239,
          "midi": 58,
          "name": "A#3",
          "ticks": 121200,
          "time": 101,
          "velocity": 0.6299212598425197
        },
        {
          "duration": 1.1991666666666703,
          "durationTicks": 1439,
          "midi": 58,
          "name": "A#3",
          "ticks": 121440,
          "time": 101.2,
          "velocity": 0.6299212598425197
        },
        {
          "duration": 0.19916666666665606,
          "durationTicks": 239,
          "midi": 58,
          "name": "A#3",
          "ticks": 123600,
          "time": 103,
          "velocity": 0.6299212598425197
        },
        {
          "duration": 0.3991666666666589,
          "durationTicks": 479,
          "midi": 70,
          "name": "A#4",
          "ticks": 123840,
          "time": 103.2,
          "velocity": 0.6299212598425197
        },
        {
          "duration": 0.19916666666665606,
          "durationTicks": 239,
          "midi": 70,
          "name": "A#4",
          "ticks": 124320,
          "time": 103.60000000000001,
          "velocity": 0.6299212598425197
        },
        {
          "duration": 0.3991666666666447,
          "durationTicks": 479,
          "midi": 70,
          "name": "A#4",
          "ticks": 124560,
          "time": 103.80000000000001,
          "velocity": 0.6299212598425197
        },
        {
          "duration": 0.19916666666665606,
          "durationTicks": 239,
          "midi": 63,
          "name": "D#4",
          "ticks": 125040,
          "time": 104.2,
          "velocity": 0.6299212598425197
        },
        {
          "duration": 0.7991666666666504,
          "durationTicks": 959,
          "midi": 63,
          "name": "D#4",
          "ticks": 125280,
          "time": 104.4,
          "velocity": 0.6299212598425197
        },
        {
          "duration": 0.19916666666665606,
          "durationTicks": 239,
          "midi": 63,
          "name": "D#4",
          "ticks": 126480,
          "time": 105.4,
          "velocity": 0.6299212598425197
        },
        {
          "duration": 0.3991666666666589,
          "durationTicks": 479,
          "midi": 65,
          "name": "F4",
          "ticks": 126720,
          "time": 105.60000000000001,
          "velocity": 0.6299212598425197
        },
        {
          "duration": 0.3991666666666589,
          "durationTicks": 479,
          "midi": 67,
          "name": "G4",
          "ticks": 127200,
          "time": 106,
          "velocity": 0.6299212598425197
        },
        {
          "duration": 0.19916666666665606,
          "durationTicks": 239,
          "midi": 65,
          "name": "F4",
          "ticks": 127680,
          "time": 106.4,
          "velocity": 0.6299212598425197
        },
        {
          "duration": 0.09916666666664753,
          "durationTicks": 119,
          "midi": 66,
          "name": "F#4",
          "ticks": 127920,
          "time": 106.60000000000001,
          "velocity": 0.6299212598425197
        },
        {
          "duration": 0.09916666666666174,
          "durationTicks": 119,
          "midi": 65,
          "name": "F4",
          "ticks": 128040,
          "time": 106.7,
          "velocity": 0.6299212598425197
        },
        {
          "duration": 0.3991666666666447,
          "durationTicks": 479,
          "midi": 63,
          "name": "D#4",
          "ticks": 128160,
          "time": 106.80000000000001,
          "velocity": 0.6299212598425197
        },
        {
          "duration": 0.3991666666666589,
          "durationTicks": 479,
          "midi": 63,
          "name": "D#4",
          "ticks": 128640,
          "time": 107.2,
          "velocity": 0.6299212598425197
        },
        {
          "duration": 0.5991666666666617,
          "durationTicks": 719,
          "midi": 63,
          "name": "D#4",
          "ticks": 129600,
          "time": 108,
          "velocity": 0.6299212598425197
        },
        {
          "duration": 0.19916666666665606,
          "durationTicks": 239,
          "midi": 65,
          "name": "F4",
          "ticks": 130320,
          "time": 108.60000000000001,
          "velocity": 0.6299212598425197
        },
        {
          "duration": 0.3991666666666447,
          "durationTicks": 479,
          "midi": 65,
          "name": "F4",
          "ticks": 130560,
          "time": 108.80000000000001,
          "velocity": 0.6299212598425197
        },
        {
          "duration": 0.19916666666665606,
          "durationTicks": 239,
          "midi": 58,
          "name": "A#3",
          "ticks": 131280,
          "time": 109.4,
          "velocity": 0.6299212598425197
        },
        {
          "duration": 0.19916666666665606,
          "durationTicks": 239,
          "midi": 63,
          "name": "D#4",
          "ticks": 131520,
          "time": 109.60000000000001,
          "velocity": 0.6299212598425197
        },
        {
          "duration": 0.19916666666665606,
          "durationTicks": 239,
          "midi": 65,
          "name": "F4",
          "ticks": 131760,
          "time": 109.80000000000001,
          "velocity": 0.6299212598425197
        },
        {
          "duration": 0.19916666666665606,
          "durationTicks": 239,
          "midi": 67,
          "name": "G4",
          "ticks": 132000,
          "time": 110,
          "velocity": 0.6299212598425197
        },
        {
          "duration": 0.19916666666665606,
          "durationTicks": 239,
          "midi": 68,
          "name": "G#4",
          "ticks": 132240,
          "time": 110.2,
          "velocity": 0.6299212598425197
        },
        {
          "duration": 0.5991666666666617,
          "durationTicks": 719,
          "midi": 67,
          "name": "G4",
          "ticks": 132480,
          "time": 110.4,
          "velocity": 0.6299212598425197
        },
        {
          "duration": 0.19916666666665606,
          "durationTicks": 239,
          "midi": 65,
          "name": "F4",
          "ticks": 133200,
          "time": 111,
          "velocity": 0.6299212598425197
        },
        {
          "duration": 0.5991666666666617,
          "durationTicks": 719,
          "midi": 65,
          "name": "F4",
          "ticks": 133440,
          "time": 111.2,
          "velocity": 0.6299212598425197
        },
        {
          "duration": 0.19916666666665606,
          "durationTicks": 239,
          "midi": 63,
          "name": "D#4",
          "ticks": 134160,
          "time": 111.80000000000001,
          "velocity": 0.6299212598425197
        },
        {
          "duration": 0.5991666666666617,
          "durationTicks": 719,
          "midi": 63,
          "name": "D#4",
          "ticks": 134400,
          "time": 112,
          "velocity": 0.6299212598425197
        },
        {
          "duration": 0.19916666666665606,
          "durationTicks": 239,
          "midi": 63,
          "name": "D#4",
          "ticks": 135120,
          "time": 112.60000000000001,
          "velocity": 0.6299212598425197
        },
        {
          "duration": 0.19916666666665606,
          "durationTicks": 239,
          "midi": 65,
          "name": "F4",
          "ticks": 135360,
          "time": 112.80000000000001,
          "velocity": 0.6299212598425197
        },
        {
          "duration": 0.19916666666665606,
          "durationTicks": 239,
          "midi": 63,
          "name": "D#4",
          "ticks": 135600,
          "time": 113,
          "velocity": 0.6299212598425197
        },
        {
          "duration": 0.19916666666665606,
          "durationTicks": 239,
          "midi": 62,
          "name": "D4",
          "ticks": 135840,
          "time": 113.2,
          "velocity": 0.6299212598425197
        },
        {
          "duration": 0.3991666666666589,
          "durationTicks": 479,
          "midi": 63,
          "name": "D#4",
          "ticks": 136080,
          "time": 113.4,
          "velocity": 0.6299212598425197
        },
        {
          "duration": 0.19916666666665606,
          "durationTicks": 239,
          "midi": 58,
          "name": "A#3",
          "ticks": 136560,
          "time": 113.80000000000001,
          "velocity": 0.6299212598425197
        },
        {
          "duration": 1.199166666666656,
          "durationTicks": 1439,
          "midi": 58,
          "name": "A#3",
          "ticks": 136800,
          "time": 114,
          "velocity": 0.6299212598425197
        },
        {
          "duration": 0.19916666666665606,
          "durationTicks": 239,
          "midi": 58,
          "name": "A#3",
          "ticks": 138960,
          "time": 115.80000000000001,
          "velocity": 0.6299212598425197
        },
        {
          "duration": 0.5991666666666617,
          "durationTicks": 719,
          "midi": 70,
          "name": "A#4",
          "ticks": 139200,
          "time": 116,
          "velocity": 0.6299212598425197
        },
        {
          "duration": 0.3991666666666589,
          "durationTicks": 479,
          "midi": 75,
          "name": "D#5",
          "ticks": 139920,
          "time": 116.60000000000001,
          "velocity": 0.6299212598425197
        },
        {
          "duration": 0.19916666666665606,
          "durationTicks": 239,
          "midi": 63,
          "name": "D#4",
          "ticks": 140400,
          "time": 117,
          "velocity": 0.6299212598425197
        },
        {
          "duration": 0.7991666666666646,
          "durationTicks": 959,
          "midi": 63,
          "name": "D#4",
          "ticks": 140640,
          "time": 117.2,
          "velocity": 0.6299212598425197
        },
        {
          "duration": 0.19916666666665606,
          "durationTicks": 239,
          "midi": 63,
          "name": "D#4",
          "ticks": 141840,
          "time": 118.2,
          "velocity": 0.6299212598425197
        },
        {
          "duration": 0.3991666666666589,
          "durationTicks": 479,
          "midi": 65,
          "name": "F4",
          "ticks": 142080,
          "time": 118.4,
          "velocity": 0.6299212598425197
        },
        {
          "duration": 0.09916666666664753,
          "durationTicks": 119,
          "midi": 67,
          "name": "G4",
          "ticks": 142560,
          "time": 118.80000000000001,
          "velocity": 0.6299212598425197
        },
        {
          "duration": 0.3991666666666589,
          "durationTicks": 479,
          "midi": 65,
          "name": "F4",
          "ticks": 142800,
          "time": 119,
          "velocity": 0.6299212598425197
        },
        {
          "duration": 0.09916666666666174,
          "durationTicks": 119,
          "midi": 63,
          "name": "D#4",
          "ticks": 143280,
          "time": 119.4,
          "velocity": 0.6299212598425197
        },
        {
          "duration": 0.19916666666665606,
          "durationTicks": 239,
          "midi": 63,
          "name": "D#4",
          "ticks": 143760,
          "time": 119.80000000000001,
          "velocity": 0.6299212598425197
        },
        {
          "duration": 0.5991666666666617,
          "durationTicks": 719,
          "midi": 68,
          "name": "G#4",
          "ticks": 144000,
          "time": 120,
          "velocity": 0.6299212598425197
        },
        {
          "duration": 0.19916666666665606,
          "durationTicks": 239,
          "midi": 67,
          "name": "G4",
          "ticks": 144720,
          "time": 120.60000000000001,
          "velocity": 0.6299212598425197
        },
        {
          "duration": 0.5991666666666475,
          "durationTicks": 719,
          "midi": 67,
          "name": "G4",
          "ticks": 144960,
          "time": 120.80000000000001,
          "velocity": 0.6299212598425197
        },
        {
          "duration": 0.19916666666665606,
          "durationTicks": 239,
          "midi": 65,
          "name": "F4",
          "ticks": 145680,
          "time": 121.4,
          "velocity": 0.6299212598425197
        },
        {
          "duration": 0.3991666666666589,
          "durationTicks": 479,
          "midi": 65,
          "name": "F4",
          "ticks": 145920,
          "time": 121.60000000000001,
          "velocity": 0.6299212598425197
        },
        {
          "duration": 0.3991666666666589,
          "durationTicks": 479,
          "midi": 63,
          "name": "D#4",
          "ticks": 146400,
          "time": 122,
          "velocity": 0.6299212598425197
        },
        {
          "duration": 0.3991666666666589,
          "durationTicks": 479,
          "midi": 70,
          "name": "A#4",
          "ticks": 146880,
          "time": 122.4,
          "velocity": 0.6299212598425197
        },
        {
          "duration": 0.7991666666666504,
          "durationTicks": 959,
          "midi": 68,
          "name": "G#4",
          "ticks": 147360,
          "time": 122.80000000000001,
          "velocity": 0.6299212598425197
        },
        {
          "duration": 0.19916666666665606,
          "durationTicks": 239,
          "midi": 63,
          "name": "D#4",
          "ticks": 148560,
          "time": 123.80000000000001,
          "velocity": 0.6299212598425197
        },
        {
          "duration": 0.19916666666665606,
          "durationTicks": 239,
          "midi": 75,
          "name": "D#5",
          "ticks": 148800,
          "time": 124,
          "velocity": 0.6299212598425197
        },
        {
          "duration": 0.19916666666665606,
          "durationTicks": 239,
          "midi": 74,
          "name": "D5",
          "ticks": 149040,
          "time": 124.2,
          "velocity": 0.6299212598425197
        },
        {
          "duration": 0.19916666666665606,
          "durationTicks": 239,
          "midi": 72,
          "name": "C5",
          "ticks": 149280,
          "time": 124.4,
          "velocity": 0.6299212598425197
        },
        {
          "duration": 0.19916666666665606,
          "durationTicks": 239,
          "midi": 70,
          "name": "A#4",
          "ticks": 149520,
          "time": 124.60000000000001,
          "velocity": 0.6299212598425197
        },
        {
          "duration": 0.3991666666666447,
          "durationTicks": 479,
          "midi": 72,
          "name": "C5",
          "ticks": 149760,
          "time": 124.80000000000001,
          "velocity": 0.6299212598425197
        },
        {
          "duration": 0.19916666666665606,
          "durationTicks": 239,
          "midi": 63,
          "name": "D#4",
          "ticks": 150240,
          "time": 125.2,
          "velocity": 0.6299212598425197
        },
        {
          "duration": 0.3991666666666589,
          "durationTicks": 479,
          "midi": 63,
          "name": "D#4",
          "ticks": 150480,
          "time": 125.4,
          "velocity": 0.6299212598425197
        },
        {
          "duration": 0.3991666666666447,
          "durationTicks": 479,
          "midi": 67,
          "name": "G4",
          "ticks": 150960,
          "time": 125.80000000000001,
          "velocity": 0.6299212598425197
        },
        {
          "duration": 0.3991666666666589,
          "durationTicks": 479,
          "midi": 65,
          "name": "F4",
          "ticks": 151440,
          "time": 126.2,
          "velocity": 0.6299212598425197
        },
        {
          "duration": 0.19916666666665606,
          "durationTicks": 239,
          "midi": 67,
          "name": "G4",
          "ticks": 151920,
          "time": 126.60000000000001,
          "velocity": 0.6299212598425197
        },
        {
          "duration": 0.19916666666665606,
          "durationTicks": 239,
          "midi": 63,
          "name": "D#4",
          "ticks": 152400,
          "time": 127,
          "velocity": 0.6299212598425197
        },
        {
          "duration": 0.19916666666665606,
          "durationTicks": 239,
          "midi": 75,
          "name": "D#5",
          "ticks": 152640,
          "time": 127.2,
          "velocity": 0.6299212598425197
        },
        {
          "duration": 0.19916666666665606,
          "durationTicks": 239,
          "midi": 74,
          "name": "D5",
          "ticks": 152880,
          "time": 127.4,
          "velocity": 0.6299212598425197
        },
        {
          "duration": 0.19916666666665606,
          "durationTicks": 239,
          "midi": 75,
          "name": "D#5",
          "ticks": 153120,
          "time": 127.60000000000001,
          "velocity": 0.6299212598425197
        },
        {
          "duration": 0.19916666666665606,
          "durationTicks": 239,
          "midi": 77,
          "name": "F5",
          "ticks": 153360,
          "time": 127.80000000000001,
          "velocity": 0.6299212598425197
        },
        {
          "duration": 0.3991666666666731,
          "durationTicks": 479,
          "midi": 77,
          "name": "F5",
          "ticks": 153600,
          "time": 128,
          "velocity": 0.6299212598425197
        },
        {
          "duration": 0.19916666666665606,
          "durationTicks": 239,
          "midi": 75,
          "name": "D#5",
          "ticks": 154080,
          "time": 128.4,
          "velocity": 0.6299212598425197
        },
        {
          "duration": 0.3991666666666731,
          "durationTicks": 479,
          "midi": 77,
          "name": "F5",
          "ticks": 154320,
          "time": 128.6,
          "velocity": 0.6299212598425197
        },
        {
          "duration": 0.3991666666666731,
          "durationTicks": 479,
          "midi": 79,
          "name": "G5",
          "ticks": 154800,
          "time": 129,
          "velocity": 0.6299212598425197
        },
        {
          "duration": 0.19916666666665606,
          "durationTicks": 239,
          "midi": 77,
          "name": "F5",
          "ticks": 155280,
          "time": 129.4,
          "velocity": 0.6299212598425197
        },
        {
          "duration": 0.19916666666665606,
          "durationTicks": 239,
          "midi": 75,
          "name": "D#5",
          "ticks": 155520,
          "time": 129.6,
          "velocity": 0.6299212598425197
        },
        {
          "duration": 0.19916666666665606,
          "durationTicks": 239,
          "midi": 75,
          "name": "D#5",
          "ticks": 155760,
          "time": 129.8,
          "velocity": 0.6299212598425197
        },
        {
          "duration": 0.19916666666665606,
          "durationTicks": 239,
          "midi": 63,
          "name": "D#4",
          "ticks": 156240,
          "time": 130.20000000000002,
          "velocity": 0.6299212598425197
        },
        {
          "duration": 0.19916666666665606,
          "durationTicks": 239,
          "midi": 75,
          "name": "D#5",
          "ticks": 156480,
          "time": 130.4,
          "velocity": 0.6299212598425197
        },
        {
          "duration": 0.19916666666665606,
          "durationTicks": 239,
          "midi": 74,
          "name": "D5",
          "ticks": 156720,
          "time": 130.6,
          "velocity": 0.6299212598425197
        },
        {
          "duration": 0.19916666666665606,
          "durationTicks": 239,
          "midi": 72,
          "name": "C5",
          "ticks": 156960,
          "time": 130.8,
          "velocity": 0.6299212598425197
        },
        {
          "duration": 0.19916666666665606,
          "durationTicks": 239,
          "midi": 70,
          "name": "A#4",
          "ticks": 157200,
          "time": 131,
          "velocity": 0.6299212598425197
        },
        {
          "duration": 0.3991666666666447,
          "durationTicks": 479,
          "midi": 72,
          "name": "C5",
          "ticks": 157440,
          "time": 131.20000000000002,
          "velocity": 0.6299212598425197
        },
        {
          "duration": 0.19916666666665606,
          "durationTicks": 239,
          "midi": 63,
          "name": "D#4",
          "ticks": 157920,
          "time": 131.6,
          "velocity": 0.6299212598425197
        },
        {
          "duration": 0.3991666666666447,
          "durationTicks": 479,
          "midi": 63,
          "name": "D#4",
          "ticks": 158160,
          "time": 131.8,
          "velocity": 0.6299212598425197
        },
        {
          "duration": 0.3991666666666447,
          "durationTicks": 479,
          "midi": 60,
          "name": "C4",
          "ticks": 158640,
          "time": 132.20000000000002,
          "velocity": 0.6299212598425197
        },
        {
          "duration": 0.3991666666666731,
          "durationTicks": 479,
          "midi": 58,
          "name": "A#3",
          "ticks": 159120,
          "time": 132.6,
          "velocity": 0.6299212598425197
        },
        {
          "duration": 0.19916666666665606,
          "durationTicks": 239,
          "midi": 63,
          "name": "D#4",
          "ticks": 159600,
          "time": 133,
          "velocity": 0.6299212598425197
        },
        {
          "duration": 0.19916666666665606,
          "durationTicks": 239,
          "midi": 63,
          "name": "D#4",
          "ticks": 160080,
          "time": 133.4,
          "velocity": 0.6299212598425197
        },
        {
          "duration": 0.19916666666665606,
          "durationTicks": 239,
          "midi": 63,
          "name": "D#4",
          "ticks": 160320,
          "time": 133.6,
          "velocity": 0.6299212598425197
        },
        {
          "duration": 0.19916666666665606,
          "durationTicks": 239,
          "midi": 65,
          "name": "F4",
          "ticks": 160560,
          "time": 133.8,
          "velocity": 0.6299212598425197
        },
        {
          "duration": 0.19916666666665606,
          "durationTicks": 239,
          "midi": 67,
          "name": "G4",
          "ticks": 160800,
          "time": 134,
          "velocity": 0.6299212598425197
        },
        {
          "duration": 0.19916666666665606,
          "durationTicks": 239,
          "midi": 68,
          "name": "G#4",
          "ticks": 161040,
          "time": 134.20000000000002,
          "velocity": 0.6299212598425197
        },
        {
          "duration": 0.5991666666666617,
          "durationTicks": 719,
          "midi": 70,
          "name": "A#4",
          "ticks": 161280,
          "time": 134.4,
          "velocity": 0.6299212598425197
        },
        {
          "duration": 0.19916666666665606,
          "durationTicks": 239,
          "midi": 65,
          "name": "F4",
          "ticks": 162000,
          "time": 135,
          "velocity": 0.6299212598425197
        },
        {
          "duration": 0.3991666666666447,
          "durationTicks": 479,
          "midi": 65,
          "name": "F4",
          "ticks": 162240,
          "time": 135.20000000000002,
          "velocity": 0.6299212598425197
        },
        {
          "duration": 0.19916666666665606,
          "durationTicks": 239,
          "midi": 63,
          "name": "D#4",
          "ticks": 162720,
          "time": 135.6,
          "velocity": 0.6299212598425197
        },
        {
          "duration": 0.3991666666666447,
          "durationTicks": 479,
          "midi": 65,
          "name": "F4",
          "ticks": 162960,
          "time": 135.8,
          "velocity": 0.6299212598425197
        },
        {
          "duration": 0.09916666666663332,
          "durationTicks": 119,
          "midi": 67,
          "name": "G4",
          "ticks": 163440,
          "time": 136.20000000000002,
          "velocity": 0.6299212598425197
        },
        {
          "duration": 0.19916666666665606,
          "durationTicks": 239,
          "midi": 63,
          "name": "D#4",
          "ticks": 163920,
          "time": 136.6,
          "velocity": 0.6299212598425197
        },
        {
          "duration": 0.19916666666665606,
          "durationTicks": 239,
          "midi": 75,
          "name": "D#5",
          "ticks": 164160,
          "time": 136.8,
          "velocity": 0.6299212598425197
        },
        {
          "duration": 0.19916666666665606,
          "durationTicks": 239,
          "midi": 74,
          "name": "D5",
          "ticks": 164400,
          "time": 137,
          "velocity": 0.6299212598425197
        },
        {
          "duration": 0.19916666666665606,
          "durationTicks": 239,
          "midi": 72,
          "name": "C5",
          "ticks": 164640,
          "time": 137.20000000000002,
          "velocity": 0.6299212598425197
        },
        {
          "duration": 0.19916666666665606,
          "durationTicks": 239,
          "midi": 70,
          "name": "A#4",
          "ticks": 164880,
          "time": 137.4,
          "velocity": 0.6299212598425197
        },
        {
          "duration": 0.3991666666666731,
          "durationTicks": 479,
          "midi": 72,
          "name": "C5",
          "ticks": 165120,
          "time": 137.6,
          "velocity": 0.6299212598425197
        },
        {
          "duration": 0.19916666666665606,
          "durationTicks": 239,
          "midi": 63,
          "name": "D#4",
          "ticks": 165600,
          "time": 138,
          "velocity": 0.6299212598425197
        },
        {
          "duration": 0.3991666666666447,
          "durationTicks": 479,
          "midi": 63,
          "name": "D#4",
          "ticks": 165840,
          "time": 138.20000000000002,
          "velocity": 0.6299212598425197
        },
        {
          "duration": 0.3991666666666731,
          "durationTicks": 479,
          "midi": 67,
          "name": "G4",
          "ticks": 166320,
          "time": 138.6,
          "velocity": 0.6299212598425197
        },
        {
          "duration": 0.3991666666666731,
          "durationTicks": 479,
          "midi": 65,
          "name": "F4",
          "ticks": 166800,
          "time": 139,
          "velocity": 0.6299212598425197
        },
        {
          "duration": 0.19916666666665606,
          "durationTicks": 239,
          "midi": 67,
          "name": "G4",
          "ticks": 167280,
          "time": 139.4,
          "velocity": 0.6299212598425197
        },
        {
          "duration": 0.19916666666665606,
          "durationTicks": 239,
          "midi": 63,
          "name": "D#4",
          "ticks": 167760,
          "time": 139.8,
          "velocity": 0.6299212598425197
        },
        {
          "duration": 0.19916666666665606,
          "durationTicks": 239,
          "midi": 75,
          "name": "D#5",
          "ticks": 168000,
          "time": 140,
          "velocity": 0.6299212598425197
        },
        {
          "duration": 0.19916666666665606,
          "durationTicks": 239,
          "midi": 74,
          "name": "D5",
          "ticks": 168240,
          "time": 140.20000000000002,
          "velocity": 0.6299212598425197
        },
        {
          "duration": 0.19916666666665606,
          "durationTicks": 239,
          "midi": 75,
          "name": "D#5",
          "ticks": 168480,
          "time": 140.4,
          "velocity": 0.6299212598425197
        },
        {
          "duration": 0.19916666666665606,
          "durationTicks": 239,
          "midi": 77,
          "name": "F5",
          "ticks": 168720,
          "time": 140.6,
          "velocity": 0.6299212598425197
        },
        {
          "duration": 0.3991666666666447,
          "durationTicks": 479,
          "midi": 77,
          "name": "F5",
          "ticks": 168960,
          "time": 140.8,
          "velocity": 0.6299212598425197
        },
        {
          "duration": 0.19916666666665606,
          "durationTicks": 239,
          "midi": 75,
          "name": "D#5",
          "ticks": 169440,
          "time": 141.20000000000002,
          "velocity": 0.6299212598425197
        },
        {
          "duration": 0.3991666666666447,
          "durationTicks": 479,
          "midi": 77,
          "name": "F5",
          "ticks": 169680,
          "time": 141.4,
          "velocity": 0.6299212598425197
        },
        {
          "duration": 0.3991666666666447,
          "durationTicks": 479,
          "midi": 79,
          "name": "G5",
          "ticks": 170160,
          "time": 141.8,
          "velocity": 0.6299212598425197
        },
        {
          "duration": 0.19916666666665606,
          "durationTicks": 239,
          "midi": 77,
          "name": "F5",
          "ticks": 170640,
          "time": 142.20000000000002,
          "velocity": 0.6299212598425197
        },
        {
          "duration": 0.19916666666665606,
          "durationTicks": 239,
          "midi": 75,
          "name": "D#5",
          "ticks": 170880,
          "time": 142.4,
          "velocity": 0.6299212598425197
        },
        {
          "duration": 0.09916666666666174,
          "durationTicks": 119,
          "midi": 75,
          "name": "D#5",
          "ticks": 171120,
          "time": 142.6,
          "velocity": 0.6299212598425197
        },
        {
          "duration": 0.19916666666665606,
          "durationTicks": 239,
          "midi": 63,
          "name": "D#4",
          "ticks": 171600,
          "time": 143,
          "velocity": 0.6299212598425197
        },
        {
          "duration": 0.19916666666665606,
          "durationTicks": 239,
          "midi": 75,
          "name": "D#5",
          "ticks": 171840,
          "time": 143.20000000000002,
          "velocity": 0.6299212598425197
        },
        {
          "duration": 0.19916666666665606,
          "durationTicks": 239,
          "midi": 74,
          "name": "D5",
          "ticks": 172080,
          "time": 143.4,
          "velocity": 0.6299212598425197
        },
        {
          "duration": 0.19916666666665606,
          "durationTicks": 239,
          "midi": 72,
          "name": "C5",
          "ticks": 172320,
          "time": 143.6,
          "velocity": 0.6299212598425197
        },
        {
          "duration": 0.19916666666665606,
          "durationTicks": 239,
          "midi": 70,
          "name": "A#4",
          "ticks": 172560,
          "time": 143.8,
          "velocity": 0.6299212598425197
        },
        {
          "duration": 0.3991666666666731,
          "durationTicks": 479,
          "midi": 72,
          "name": "C5",
          "ticks": 172800,
          "time": 144,
          "velocity": 0.6299212598425197
        },
        {
          "duration": 0.19916666666665606,
          "durationTicks": 239,
          "midi": 63,
          "name": "D#4",
          "ticks": 173280,
          "time": 144.4,
          "velocity": 0.6299212598425197
        },
        {
          "duration": 0.3991666666666731,
          "durationTicks": 479,
          "midi": 63,
          "name": "D#4",
          "ticks": 173520,
          "time": 144.6,
          "velocity": 0.6299212598425197
        },
        {
          "duration": 0.3991666666666731,
          "durationTicks": 479,
          "midi": 60,
          "name": "C4",
          "ticks": 174000,
          "time": 145,
          "velocity": 0.6299212598425197
        },
        {
          "duration": 0.3991666666666447,
          "durationTicks": 479,
          "midi": 58,
          "name": "A#3",
          "ticks": 174480,
          "time": 145.4,
          "velocity": 0.6299212598425197
        },
        {
          "duration": 0.19916666666665606,
          "durationTicks": 239,
          "midi": 63,
          "name": "D#4",
          "ticks": 174960,
          "time": 145.8,
          "velocity": 0.6299212598425197
        },
        {
          "duration": 0.19916666666665606,
          "durationTicks": 239,
          "midi": 63,
          "name": "D#4",
          "ticks": 175440,
          "time": 146.20000000000002,
          "velocity": 0.6299212598425197
        },
        {
          "duration": 0.19916666666665606,
          "durationTicks": 239,
          "midi": 63,
          "name": "D#4",
          "ticks": 175680,
          "time": 146.4,
          "velocity": 0.6299212598425197
        },
        {
          "duration": 0.19916666666665606,
          "durationTicks": 239,
          "midi": 65,
          "name": "F4",
          "ticks": 175920,
          "time": 146.6,
          "velocity": 0.6299212598425197
        },
        {
          "duration": 0.19916666666665606,
          "durationTicks": 239,
          "midi": 67,
          "name": "G4",
          "ticks": 176160,
          "time": 146.8,
          "velocity": 0.6299212598425197
        },
        {
          "duration": 0.19916666666665606,
          "durationTicks": 239,
          "midi": 68,
          "name": "G#4",
          "ticks": 176400,
          "time": 147,
          "velocity": 0.6299212598425197
        },
        {
          "duration": 0.5991666666666333,
          "durationTicks": 719,
          "midi": 70,
          "name": "A#4",
          "ticks": 176640,
          "time": 147.20000000000002,
          "velocity": 0.6299212598425197
        },
        {
          "duration": 0.19916666666665606,
          "durationTicks": 239,
          "midi": 72,
          "name": "C5",
          "ticks": 177360,
          "time": 147.8,
          "velocity": 0.6299212598425197
        },
        {
          "duration": 0.3991666666666731,
          "durationTicks": 479,
          "midi": 70,
          "name": "A#4",
          "ticks": 177600,
          "time": 148,
          "velocity": 0.6299212598425197
        },
        {
          "duration": 0.19916666666665606,
          "durationTicks": 239,
          "midi": 70,
          "name": "A#4",
          "ticks": 178320,
          "time": 148.6,
          "velocity": 0.6299212598425197
        },
        {
          "duration": 0.3991666666666447,
          "durationTicks": 479,
          "midi": 70,
          "name": "A#4",
          "ticks": 178560,
          "time": 148.8,
          "velocity": 0.6299212598425197
        },
        {
          "duration": 0.3991666666666447,
          "durationTicks": 479,
          "midi": 75,
          "name": "D#5",
          "ticks": 179040,
          "time": 149.20000000000002,
          "velocity": 0.6299212598425197
        },
        {
          "duration": 0.3991666666666731,
          "durationTicks": 479,
          "midi": 77,
          "name": "F5",
          "ticks": 179520,
          "time": 149.6,
          "velocity": 0.6299212598425197
        },
        {
          "duration": 0.3991666666666731,
          "durationTicks": 479,
          "midi": 79,
          "name": "G5",
          "ticks": 180000,
          "time": 150,
          "velocity": 0.6299212598425197
        },
        {
          "duration": 2.3991666666666447,
          "durationTicks": 2879,
          "midi": 79,
          "name": "G5",
          "ticks": 180480,
          "time": 150.4,
          "velocity": 0.6299212598425197
        },
        {
          "duration": 0.5991666666666617,
          "durationTicks": 719,
          "midi": 75,
          "name": "D#5",
          "ticks": 183360,
          "time": 152.8,
          "velocity": 0.6299212598425197
        },
        {
          "duration": 0.09916666666666174,
          "durationTicks": 119,
          "midi": 72,
          "name": "C5",
          "ticks": 184080,
          "time": 153.4,
          "velocity": 0.6299212598425197
        },
        {
          "duration": 0.09916666666666174,
          "durationTicks": 119,
          "midi": 70,
          "name": "A#4",
          "ticks": 184200,
          "time": 153.5,
          "velocity": 0.6299212598425197
        },
        {
          "duration": 2.3991666666666447,
          "durationTicks": 2879,
          "midi": 75,
          "name": "D#5",
          "ticks": 184320,
          "time": 153.60000000000002,
          "velocity": 0.6299212598425197
        },
        {
          "duration": 0.7991666666666788,
          "durationTicks": 959,
          "midi": 77,
          "name": "F5",
          "ticks": 187200,
          "time": 156,
          "velocity": 0.6299212598425197
        },
        {
          "duration": 2.3991666666666447,
          "durationTicks": 2879,
          "midi": 75,
          "name": "D#5",
          "ticks": 188160,
          "time": 156.8,
          "velocity": 0.6299212598425197
        },
        {
          "duration": 0.7991666666666504,
          "durationTicks": 959,
          "midi": 80,
          "name": "G#5",
          "ticks": 191040,
          "time": 159.20000000000002,
          "velocity": 0.6299212598425197
        },
        {
          "duration": 0.19916666666665606,
          "durationTicks": 239,
          "midi": 79,
          "name": "G5",
          "ticks": 192000,
          "time": 160,
          "velocity": 0.6299212598425197
        },
        {
          "duration": 0.19916666666665606,
          "durationTicks": 239,
          "midi": 77,
          "name": "F5",
          "ticks": 192240,
          "time": 160.20000000000002,
          "velocity": 0.6299212598425197
        },
        {
          "duration": 1.7991666666666504,
          "durationTicks": 2159,
          "midi": 75,
          "name": "D#5",
          "ticks": 192480,
          "time": 160.4,
          "velocity": 0.6299212598425197
        },
        {
          "duration": 0.19916666666665606,
          "durationTicks": 239,
          "midi": 58,
          "name": "A#3",
          "ticks": 194640,
          "time": 162.20000000000002,
          "velocity": 0.6299212598425197
        },
        {
          "duration": 0.19916666666665606,
          "durationTicks": 239,
          "midi": 63,
          "name": "D#4",
          "ticks": 194880,
          "time": 162.4,
          "velocity": 0.6299212598425197
        },
        {
          "duration": 0.19916666666665606,
          "durationTicks": 239,
          "midi": 63,
          "name": "D#4",
          "ticks": 195120,
          "time": 162.60000000000002,
          "velocity": 0.6299212598425197
        },
        {
          "duration": 0.19916666666665606,
          "durationTicks": 239,
          "midi": 65,
          "name": "F4",
          "ticks": 195360,
          "time": 162.8,
          "velocity": 0.6299212598425197
        },
        {
          "duration": 0.19916666666665606,
          "durationTicks": 239,
          "midi": 63,
          "name": "D#4",
          "ticks": 195600,
          "time": 163,
          "velocity": 0.6299212598425197
        },
        {
          "duration": 0.3991666666666447,
          "durationTicks": 479,
          "midi": 63,
          "name": "D#4",
          "ticks": 195840,
          "time": 163.20000000000002,
          "velocity": 0.6299212598425197
        },
        {
          "duration": 0.19916666666665606,
          "durationTicks": 239,
          "midi": 58,
          "name": "A#3",
          "ticks": 196560,
          "time": 163.8,
          "velocity": 0.6299212598425197
        },
        {
          "duration": 0.3991666666666731,
          "durationTicks": 479,
          "midi": 63,
          "name": "D#4",
          "ticks": 196800,
          "time": 164,
          "velocity": 0.6299212598425197
        },
        {
          "duration": 0.19916666666665606,
          "durationTicks": 239,
          "midi": 65,
          "name": "F4",
          "ticks": 197280,
          "time": 164.4,
          "velocity": 0.6299212598425197
        },
        {
          "duration": 0.19916666666665606,
          "durationTicks": 239,
          "midi": 67,
          "name": "G4",
          "ticks": 197520,
          "time": 164.60000000000002,
          "velocity": 0.6299212598425197
        },
        {
          "duration": 0.3991666666666447,
          "durationTicks": 479,
          "midi": 67,
          "name": "G4",
          "ticks": 197760,
          "time": 164.8,
          "velocity": 0.6299212598425197
        },
        {
          "duration": 0.19916666666665606,
          "durationTicks": 239,
          "midi": 67,
          "name": "G4",
          "ticks": 198480,
          "time": 165.4,
          "velocity": 0.6299212598425197
        },
        {
          "duration": 0.3991666666666447,
          "durationTicks": 479,
          "midi": 67,
          "name": "G4",
          "ticks": 198720,
          "time": 165.60000000000002,
          "velocity": 0.6299212598425197
        },
        {
          "duration": 0.19916666666665606,
          "durationTicks": 239,
          "midi": 68,
          "name": "G#4",
          "ticks": 199200,
          "time": 166,
          "velocity": 0.6299212598425197
        },
        {
          "duration": 0.19916666666665606,
          "durationTicks": 239,
          "midi": 67,
          "name": "G4",
          "ticks": 199440,
          "time": 166.20000000000002,
          "velocity": 0.6299212598425197
        },
        {
          "duration": 0.3991666666666731,
          "durationTicks": 479,
          "midi": 67,
          "name": "G4",
          "ticks": 199680,
          "time": 166.4,
          "velocity": 0.6299212598425197
        },
        {
          "duration": 0.19916666666665606,
          "durationTicks": 239,
          "midi": 65,
          "name": "F4",
          "ticks": 200160,
          "time": 166.8,
          "velocity": 0.6299212598425197
        },
        {
          "duration": 0.3991666666666731,
          "durationTicks": 479,
          "midi": 63,
          "name": "D#4",
          "ticks": 200400,
          "time": 167,
          "velocity": 0.6299212598425197
        },
        {
          "duration": 0.3991666666666731,
          "durationTicks": 479,
          "midi": 70,
          "name": "A#4",
          "ticks": 200880,
          "time": 167.4,
          "velocity": 0.6299212598425197
        },
        {
          "duration": 0.5991666666666617,
          "durationTicks": 719,
          "midi": 70,
          "name": "A#4",
          "ticks": 201360,
          "time": 167.8,
          "velocity": 0.6299212598425197
        },
        {
          "duration": 0.3991666666666447,
          "durationTicks": 479,
          "midi": 70,
          "name": "A#4",
          "ticks": 202560,
          "time": 168.8,
          "velocity": 0.6299212598425197
        },
        {
          "duration": 0.3991666666666447,
          "durationTicks": 479,
          "midi": 75,
          "name": "D#5",
          "ticks": 203040,
          "time": 169.20000000000002,
          "velocity": 0.6299212598425197
        },
        {
          "duration": 0.3991666666666447,
          "durationTicks": 479,
          "midi": 74,
          "name": "D5",
          "ticks": 203520,
          "time": 169.60000000000002,
          "velocity": 0.6299212598425197
        },
        {
          "duration": 0.19916666666665606,
          "durationTicks": 239,
          "midi": 72,
          "name": "C5",
          "ticks": 204000,
          "time": 170,
          "velocity": 0.6299212598425197
        },
        {
          "duration": 0.3991666666666447,
          "durationTicks": 479,
          "midi": 70,
          "name": "A#4",
          "ticks": 204240,
          "time": 170.20000000000002,
          "velocity": 0.6299212598425197
        },
        {
          "duration": 0.3991666666666447,
          "durationTicks": 479,
          "midi": 68,
          "name": "G#4",
          "ticks": 204720,
          "time": 170.60000000000002,
          "velocity": 0.6299212598425197
        },
        {
          "duration": 0.3991666666666731,
          "durationTicks": 479,
          "midi": 70,
          "name": "A#4",
          "ticks": 205200,
          "time": 171,
          "velocity": 0.6299212598425197
        },
        {
          "duration": 0.19916666666665606,
          "durationTicks": 239,
          "midi": 63,
          "name": "D#4",
          "ticks": 205680,
          "time": 171.4,
          "velocity": 0.6299212598425197
        },
        {
          "duration": 0.3991666666666447,
          "durationTicks": 479,
          "midi": 63,
          "name": "D#4",
          "ticks": 205920,
          "time": 171.60000000000002,
          "velocity": 0.6299212598425197
        },
        {
          "duration": 0.19916666666665606,
          "durationTicks": 239,
          "midi": 63,
          "name": "D#4",
          "ticks": 206400,
          "time": 172,
          "velocity": 0.6299212598425197
        },
        {
          "duration": 0.19916666666665606,
          "durationTicks": 239,
          "midi": 65,
          "name": "F4",
          "ticks": 206640,
          "time": 172.20000000000002,
          "velocity": 0.6299212598425197
        },
        {
          "duration": 0.19916666666665606,
          "durationTicks": 239,
          "midi": 67,
          "name": "G4",
          "ticks": 206880,
          "time": 172.4,
          "velocity": 0.6299212598425197
        },
        {
          "duration": 0.19916666666665606,
          "durationTicks": 239,
          "midi": 68,
          "name": "G#4",
          "ticks": 207120,
          "time": 172.60000000000002,
          "velocity": 0.6299212598425197
        },
        {
          "duration": 0.3991666666666447,
          "durationTicks": 479,
          "midi": 67,
          "name": "G4",
          "ticks": 207360,
          "time": 172.8,
          "velocity": 0.6299212598425197
        },
        {
          "duration": 0.19916666666665606,
          "durationTicks": 239,
          "midi": 68,
          "name": "G#4",
          "ticks": 207840,
          "time": 173.20000000000002,
          "velocity": 0.6299212598425197
        },
        {
          "duration": 0.3991666666666731,
          "durationTicks": 479,
          "midi": 67,
          "name": "G4",
          "ticks": 208080,
          "time": 173.4,
          "velocity": 0.6299212598425197
        },
        {
          "duration": 0.3991666666666447,
          "durationTicks": 479,
          "midi": 65,
          "name": "F4",
          "ticks": 208560,
          "time": 173.8,
          "velocity": 0.6299212598425197
        },
        {
          "duration": 0.5991666666666617,
          "durationTicks": 719,
          "midi": 63,
          "name": "D#4",
          "ticks": 209040,
          "time": 174.20000000000002,
          "velocity": 0.6299212598425197
        },
        {
          "duration": 0.19916666666665606,
          "durationTicks": 239,
          "midi": 58,
          "name": "A#3",
          "ticks": 210000,
          "time": 175,
          "velocity": 0.6299212598425197
        },
        {
          "duration": 0.19916666666665606,
          "durationTicks": 239,
          "midi": 63,
          "name": "D#4",
          "ticks": 210240,
          "time": 175.20000000000002,
          "velocity": 0.6299212598425197
        },
        {
          "duration": 0.19916666666665606,
          "durationTicks": 239,
          "midi": 63,
          "name": "D#4",
          "ticks": 210480,
          "time": 175.4,
          "velocity": 0.6299212598425197
        },
        {
          "duration": 0.19916666666665606,
          "durationTicks": 239,
          "midi": 65,
          "name": "F4",
          "ticks": 210720,
          "time": 175.60000000000002,
          "velocity": 0.6299212598425197
        },
        {
          "duration": 0.19916666666665606,
          "durationTicks": 239,
          "midi": 63,
          "name": "D#4",
          "ticks": 210960,
          "time": 175.8,
          "velocity": 0.6299212598425197
        },
        {
          "duration": 0.3991666666666731,
          "durationTicks": 479,
          "midi": 63,
          "name": "D#4",
          "ticks": 211200,
          "time": 176,
          "velocity": 0.6299212598425197
        },
        {
          "duration": 0.19916666666665606,
          "durationTicks": 239,
          "midi": 58,
          "name": "A#3",
          "ticks": 211920,
          "time": 176.60000000000002,
          "velocity": 0.6299212598425197
        },
        {
          "duration": 0.19916666666665606,
          "durationTicks": 239,
          "midi": 63,
          "name": "D#4",
          "ticks": 212160,
          "time": 176.8,
          "velocity": 0.6299212598425197
        },
        {
          "duration": 0.19916666666665606,
          "durationTicks": 239,
          "midi": 63,
          "name": "D#4",
          "ticks": 212400,
          "time": 177,
          "velocity": 0.6299212598425197
        },
        {
          "duration": 0.19916666666665606,
          "durationTicks": 239,
          "midi": 65,
          "name": "F4",
          "ticks": 212640,
          "time": 177.20000000000002,
          "velocity": 0.6299212598425197
        },
        {
          "duration": 0.19916666666665606,
          "durationTicks": 239,
          "midi": 67,
          "name": "G4",
          "ticks": 212880,
          "time": 177.4,
          "velocity": 0.6299212598425197
        },
        {
          "duration": 0.3991666666666447,
          "durationTicks": 479,
          "midi": 67,
          "name": "G4",
          "ticks": 213120,
          "time": 177.60000000000002,
          "velocity": 0.6299212598425197
        },
        {
          "duration": 0.19916666666665606,
          "durationTicks": 239,
          "midi": 67,
          "name": "G4",
          "ticks": 213840,
          "time": 178.20000000000002,
          "velocity": 0.6299212598425197
        },
        {
          "duration": 0.3991666666666731,
          "durationTicks": 479,
          "midi": 67,
          "name": "G4",
          "ticks": 214080,
          "time": 178.4,
          "velocity": 0.6299212598425197
        },
        {
          "duration": 0.3991666666666447,
          "durationTicks": 479,
          "midi": 68,
          "name": "G#4",
          "ticks": 214560,
          "time": 178.8,
          "velocity": 0.6299212598425197
        },
        {
          "duration": 0.3991666666666447,
          "durationTicks": 479,
          "midi": 67,
          "name": "G4",
          "ticks": 215040,
          "time": 179.20000000000002,
          "velocity": 0.6299212598425197
        },
        {
          "duration": 0.19916666666665606,
          "durationTicks": 239,
          "midi": 65,
          "name": "F4",
          "ticks": 215520,
          "time": 179.60000000000002,
          "velocity": 0.6299212598425197
        },
        {
          "duration": 0.3991666666666447,
          "durationTicks": 479,
          "midi": 63,
          "name": "D#4",
          "ticks": 215760,
          "time": 179.8,
          "velocity": 0.6299212598425197
        },
        {
          "duration": 0.3991666666666447,
          "durationTicks": 479,
          "midi": 67,
          "name": "G4",
          "ticks": 216240,
          "time": 180.20000000000002,
          "velocity": 0.6299212598425197
        },
        {
          "duration": 0.5991666666666333,
          "durationTicks": 719,
          "midi": 67,
          "name": "G4",
          "ticks": 216720,
          "time": 180.60000000000002,
          "velocity": 0.6299212598425197
        },
        {
          "duration": 0.3991666666666447,
          "durationTicks": 479,
          "midi": 70,
          "name": "A#4",
          "ticks": 217920,
          "time": 181.60000000000002,
          "velocity": 0.6299212598425197
        },
        {
          "duration": 0.3991666666666731,
          "durationTicks": 479,
          "midi": 77,
          "name": "F5",
          "ticks": 218400,
          "time": 182,
          "velocity": 0.6299212598425197
        },
        {
          "duration": 0.19916666666665606,
          "durationTicks": 239,
          "midi": 77,
          "name": "F5",
          "ticks": 218880,
          "time": 182.4,
          "velocity": 0.6299212598425197
        },
        {
          "duration": 0.19916666666665606,
          "durationTicks": 239,
          "midi": 75,
          "name": "D#5",
          "ticks": 219120,
          "time": 182.60000000000002,
          "velocity": 0.6299212598425197
        },
        {
          "duration": 0.19916666666665606,
          "durationTicks": 239,
          "midi": 75,
          "name": "D#5",
          "ticks": 219360,
          "time": 182.8,
          "velocity": 0.6299212598425197
        },
        {
          "duration": 0.9991666666666674,
          "durationTicks": 1199,
          "midi": 75,
          "name": "D#5",
          "ticks": 219600,
          "time": 183,
          "velocity": 0.6299212598425197
        },
        {
          "duration": 0.3991666666666731,
          "durationTicks": 479,
          "midi": 75,
          "name": "D#5",
          "ticks": 221280,
          "time": 184.4,
          "velocity": 0.6299212598425197
        },
        {
          "duration": 0.19916666666665606,
          "durationTicks": 239,
          "midi": 74,
          "name": "D5",
          "ticks": 221760,
          "time": 184.8,
          "velocity": 0.6299212598425197
        },
        {
          "duration": 0.19916666666665606,
          "durationTicks": 239,
          "midi": 70,
          "name": "A#4",
          "ticks": 222000,
          "time": 185,
          "velocity": 0.6299212598425197
        },
        {
          "duration": 0.3991666666666447,
          "durationTicks": 479,
          "midi": 70,
          "name": "A#4",
          "ticks": 222240,
          "time": 185.20000000000002,
          "velocity": 0.6299212598425197
        },
        {
          "duration": 1.199166666666656,
          "durationTicks": 1439,
          "midi": 67,
          "name": "G4",
          "ticks": 222720,
          "time": 185.60000000000002,
          "velocity": 0.6299212598425197
        },
        {
          "duration": 0.3991666666666447,
          "durationTicks": 479,
          "midi": 67,
          "name": "G4",
          "ticks": 224160,
          "time": 186.8,
          "velocity": 0.6299212598425197
        },
        {
          "duration": 0.7991666666666504,
          "durationTicks": 959,
          "midi": 65,
          "name": "F4",
          "ticks": 224640,
          "time": 187.20000000000002,
          "velocity": 0.6299212598425197
        },
        {
          "duration": 0.7991666666666788,
          "durationTicks": 959,
          "midi": 63,
          "name": "D#4",
          "ticks": 225600,
          "time": 188,
          "velocity": 0.6299212598425197
        },
        {
          "duration": 1.5991666666666617,
          "durationTicks": 1919,
          "midi": 63,
          "name": "D#4",
          "ticks": 226560,
          "time": 188.8,
          "velocity": 0.6299212598425197
        },
        {
          "duration": 0.19916666666665606,
          "durationTicks": 239,
          "midi": 63,
          "name": "D#4",
          "ticks": 229200,
          "time": 191,
          "velocity": 0.6299212598425197
        },
        {
          "duration": 0.19916666666665606,
          "durationTicks": 239,
          "midi": 75,
          "name": "D#5",
          "ticks": 229440,
          "time": 191.20000000000002,
          "velocity": 0.6299212598425197
        },
        {
          "duration": 0.19916666666665606,
          "durationTicks": 239,
          "midi": 74,
          "name": "D5",
          "ticks": 229680,
          "time": 191.4,
          "velocity": 0.6299212598425197
        },
        {
          "duration": 0.19916666666665606,
          "durationTicks": 239,
          "midi": 72,
          "name": "C5",
          "ticks": 229920,
          "time": 191.60000000000002,
          "velocity": 0.6299212598425197
        },
        {
          "duration": 0.19916666666665606,
          "durationTicks": 239,
          "midi": 70,
          "name": "A#4",
          "ticks": 230160,
          "time": 191.8,
          "velocity": 0.6299212598425197
        },
        {
          "duration": 0.3991666666666731,
          "durationTicks": 479,
          "midi": 72,
          "name": "C5",
          "ticks": 230400,
          "time": 192,
          "velocity": 0.6299212598425197
        },
        {
          "duration": 0.19916666666665606,
          "durationTicks": 239,
          "midi": 63,
          "name": "D#4",
          "ticks": 230880,
          "time": 192.4,
          "velocity": 0.6299212598425197
        },
        {
          "duration": 0.3991666666666447,
          "durationTicks": 479,
          "midi": 63,
          "name": "D#4",
          "ticks": 231120,
          "time": 192.60000000000002,
          "velocity": 0.6299212598425197
        },
        {
          "duration": 0.3991666666666731,
          "durationTicks": 479,
          "midi": 67,
          "name": "G4",
          "ticks": 231600,
          "time": 193,
          "velocity": 0.6299212598425197
        },
        {
          "duration": 0.3991666666666731,
          "durationTicks": 479,
          "midi": 65,
          "name": "F4",
          "ticks": 232080,
          "time": 193.4,
          "velocity": 0.6299212598425197
        },
        {
          "duration": 0.19916666666665606,
          "durationTicks": 239,
          "midi": 67,
          "name": "G4",
          "ticks": 232560,
          "time": 193.8,
          "velocity": 0.6299212598425197
        },
        {
          "duration": 0.19916666666665606,
          "durationTicks": 239,
          "midi": 63,
          "name": "D#4",
          "ticks": 233040,
          "time": 194.20000000000002,
          "velocity": 0.6299212598425197
        },
        {
          "duration": 0.19916666666665606,
          "durationTicks": 239,
          "midi": 75,
          "name": "D#5",
          "ticks": 233280,
          "time": 194.4,
          "velocity": 0.6299212598425197
        },
        {
          "duration": 0.19916666666665606,
          "durationTicks": 239,
          "midi": 74,
          "name": "D5",
          "ticks": 233520,
          "time": 194.60000000000002,
          "velocity": 0.6299212598425197
        },
        {
          "duration": 0.19916666666665606,
          "durationTicks": 239,
          "midi": 75,
          "name": "D#5",
          "ticks": 233760,
          "time": 194.8,
          "velocity": 0.6299212598425197
        },
        {
          "duration": 0.19916666666665606,
          "durationTicks": 239,
          "midi": 77,
          "name": "F5",
          "ticks": 234000,
          "time": 195,
          "velocity": 0.6299212598425197
        },
        {
          "duration": 0.3991666666666447,
          "durationTicks": 479,
          "midi": 77,
          "name": "F5",
          "ticks": 234240,
          "time": 195.20000000000002,
          "velocity": 0.6299212598425197
        },
        {
          "duration": 0.19916666666665606,
          "durationTicks": 239,
          "midi": 75,
          "name": "D#5",
          "ticks": 234720,
          "time": 195.60000000000002,
          "velocity": 0.6299212598425197
        },
        {
          "duration": 0.3991666666666447,
          "durationTicks": 479,
          "midi": 77,
          "name": "F5",
          "ticks": 234960,
          "time": 195.8,
          "velocity": 0.6299212598425197
        },
        {
          "duration": 0.3991666666666447,
          "durationTicks": 479,
          "midi": 79,
          "name": "G5",
          "ticks": 235440,
          "time": 196.20000000000002,
          "velocity": 0.6299212598425197
        },
        {
          "duration": 0.19916666666665606,
          "durationTicks": 239,
          "midi": 77,
          "name": "F5",
          "ticks": 235920,
          "time": 196.60000000000002,
          "velocity": 0.6299212598425197
        },
        {
          "duration": 0.19916666666665606,
          "durationTicks": 239,
          "midi": 75,
          "name": "D#5",
          "ticks": 236160,
          "time": 196.8,
          "velocity": 0.6299212598425197
        },
        {
          "duration": 0.19916666666665606,
          "durationTicks": 239,
          "midi": 75,
          "name": "D#5",
          "ticks": 236400,
          "time": 197,
          "velocity": 0.6299212598425197
        },
        {
          "duration": 0.19916666666665606,
          "durationTicks": 239,
          "midi": 63,
          "name": "D#4",
          "ticks": 236880,
          "time": 197.4,
          "velocity": 0.6299212598425197
        },
        {
          "duration": 0.19916666666665606,
          "durationTicks": 239,
          "midi": 75,
          "name": "D#5",
          "ticks": 237120,
          "time": 197.60000000000002,
          "velocity": 0.6299212598425197
        },
        {
          "duration": 0.19916666666665606,
          "durationTicks": 239,
          "midi": 74,
          "name": "D5",
          "ticks": 237360,
          "time": 197.8,
          "velocity": 0.6299212598425197
        },
        {
          "duration": 0.19916666666665606,
          "durationTicks": 239,
          "midi": 72,
          "name": "C5",
          "ticks": 237600,
          "time": 198,
          "velocity": 0.6299212598425197
        },
        {
          "duration": 0.19916666666665606,
          "durationTicks": 239,
          "midi": 70,
          "name": "A#4",
          "ticks": 237840,
          "time": 198.20000000000002,
          "velocity": 0.6299212598425197
        },
        {
          "duration": 0.3991666666666731,
          "durationTicks": 479,
          "midi": 72,
          "name": "C5",
          "ticks": 238080,
          "time": 198.4,
          "velocity": 0.6299212598425197
        },
        {
          "duration": 0.19916666666665606,
          "durationTicks": 239,
          "midi": 63,
          "name": "D#4",
          "ticks": 238560,
          "time": 198.8,
          "velocity": 0.6299212598425197
        },
        {
          "duration": 0.3991666666666731,
          "durationTicks": 479,
          "midi": 63,
          "name": "D#4",
          "ticks": 238800,
          "time": 199,
          "velocity": 0.6299212598425197
        },
        {
          "duration": 0.3991666666666731,
          "durationTicks": 479,
          "midi": 60,
          "name": "C4",
          "ticks": 239280,
          "time": 199.4,
          "velocity": 0.6299212598425197
        },
        {
          "duration": 0.3991666666666447,
          "durationTicks": 479,
          "midi": 58,
          "name": "A#3",
          "ticks": 239760,
          "time": 199.8,
          "velocity": 0.6299212598425197
        },
        {
          "duration": 0.19916666666665606,
          "durationTicks": 239,
          "midi": 63,
          "name": "D#4",
          "ticks": 240240,
          "time": 200.20000000000002,
          "velocity": 0.6299212598425197
        },
        {
          "duration": 0.19916666666665606,
          "durationTicks": 239,
          "midi": 63,
          "name": "D#4",
          "ticks": 240720,
          "time": 200.60000000000002,
          "velocity": 0.6299212598425197
        },
        {
          "duration": 0.19916666666665606,
          "durationTicks": 239,
          "midi": 63,
          "name": "D#4",
          "ticks": 240960,
          "time": 200.8,
          "velocity": 0.6299212598425197
        },
        {
          "duration": 0.19916666666665606,
          "durationTicks": 239,
          "midi": 65,
          "name": "F4",
          "ticks": 241200,
          "time": 201,
          "velocity": 0.6299212598425197
        },
        {
          "duration": 0.19916666666665606,
          "durationTicks": 239,
          "midi": 67,
          "name": "G4",
          "ticks": 241440,
          "time": 201.20000000000002,
          "velocity": 0.6299212598425197
        },
        {
          "duration": 0.19916666666665606,
          "durationTicks": 239,
          "midi": 68,
          "name": "G#4",
          "ticks": 241680,
          "time": 201.4,
          "velocity": 0.6299212598425197
        },
        {
          "duration": 0.5991666666666333,
          "durationTicks": 719,
          "midi": 70,
          "name": "A#4",
          "ticks": 241920,
          "time": 201.60000000000002,
          "velocity": 0.6299212598425197
        },
        {
          "duration": 0.19916666666665606,
          "durationTicks": 239,
          "midi": 65,
          "name": "F4",
          "ticks": 242640,
          "time": 202.20000000000002,
          "velocity": 0.6299212598425197
        },
        {
          "duration": 0.3991666666666731,
          "durationTicks": 479,
          "midi": 65,
          "name": "F4",
          "ticks": 242880,
          "time": 202.4,
          "velocity": 0.6299212598425197
        },
        {
          "duration": 0.19916666666665606,
          "durationTicks": 239,
          "midi": 63,
          "name": "D#4",
          "ticks": 243360,
          "time": 202.8,
          "velocity": 0.6299212598425197
        },
        {
          "duration": 0.3991666666666731,
          "durationTicks": 479,
          "midi": 65,
          "name": "F4",
          "ticks": 243600,
          "time": 203,
          "velocity": 0.6299212598425197
        },
        {
          "duration": 0.09916666666666174,
          "durationTicks": 119,
          "midi": 67,
          "name": "G4",
          "ticks": 244080,
          "time": 203.4,
          "velocity": 0.6299212598425197
        },
        {
          "duration": 0.19916666666665606,
          "durationTicks": 239,
          "midi": 63,
          "name": "D#4",
          "ticks": 244560,
          "time": 203.8,
          "velocity": 0.6299212598425197
        },
        {
          "duration": 0.19916666666665606,
          "durationTicks": 239,
          "midi": 75,
          "name": "D#5",
          "ticks": 244800,
          "time": 204,
          "velocity": 0.6299212598425197
        },
        {
          "duration": 0.19916666666665606,
          "durationTicks": 239,
          "midi": 74,
          "name": "D5",
          "ticks": 245040,
          "time": 204.20000000000002,
          "velocity": 0.6299212598425197
        },
        {
          "duration": 0.19916666666665606,
          "durationTicks": 239,
          "midi": 72,
          "name": "C5",
          "ticks": 245280,
          "time": 204.4,
          "velocity": 0.6299212598425197
        },
        {
          "duration": 0.19916666666665606,
          "durationTicks": 239,
          "midi": 70,
          "name": "A#4",
          "ticks": 245520,
          "time": 204.60000000000002,
          "velocity": 0.6299212598425197
        },
        {
          "duration": 0.3991666666666731,
          "durationTicks": 479,
          "midi": 72,
          "name": "C5",
          "ticks": 245760,
          "time": 204.8,
          "velocity": 0.6299212598425197
        },
        {
          "duration": 0.19916666666668448,
          "durationTicks": 239,
          "midi": 63,
          "name": "D#4",
          "ticks": 246240,
          "time": 205.20000000000002,
          "velocity": 0.6299212598425197
        },
        {
          "duration": 0.3991666666666731,
          "durationTicks": 479,
          "midi": 63,
          "name": "D#4",
          "ticks": 246480,
          "time": 205.4,
          "velocity": 0.6299212598425197
        },
        {
          "duration": 0.3991666666666731,
          "durationTicks": 479,
          "midi": 67,
          "name": "G4",
          "ticks": 246960,
          "time": 205.8,
          "velocity": 0.6299212598425197
        },
        {
          "duration": 0.3991666666666731,
          "durationTicks": 479,
          "midi": 65,
          "name": "F4",
          "ticks": 247440,
          "time": 206.20000000000002,
          "velocity": 0.6299212598425197
        },
        {
          "duration": 0.19916666666665606,
          "durationTicks": 239,
          "midi": 67,
          "name": "G4",
          "ticks": 247920,
          "time": 206.60000000000002,
          "velocity": 0.6299212598425197
        },
        {
          "duration": 0.19916666666668448,
          "durationTicks": 239,
          "midi": 63,
          "name": "D#4",
          "ticks": 248400,
          "time": 207,
          "velocity": 0.6299212598425197
        },
        {
          "duration": 0.19916666666668448,
          "durationTicks": 239,
          "midi": 75,
          "name": "D#5",
          "ticks": 248640,
          "time": 207.20000000000002,
          "velocity": 0.6299212598425197
        },
        {
          "duration": 0.19916666666668448,
          "durationTicks": 239,
          "midi": 74,
          "name": "D5",
          "ticks": 248880,
          "time": 207.4,
          "velocity": 0.6299212598425197
        },
        {
          "duration": 0.19916666666665606,
          "durationTicks": 239,
          "midi": 75,
          "name": "D#5",
          "ticks": 249120,
          "time": 207.60000000000002,
          "velocity": 0.6299212598425197
        },
        {
          "duration": 0.19916666666668448,
          "durationTicks": 239,
          "midi": 77,
          "name": "F5",
          "ticks": 249360,
          "time": 207.8,
          "velocity": 0.6299212598425197
        },
        {
          "duration": 0.39916666666670153,
          "durationTicks": 479,
          "midi": 77,
          "name": "F5",
          "ticks": 249600,
          "time": 208,
          "velocity": 0.6299212598425197
        },
        {
          "duration": 0.19916666666668448,
          "durationTicks": 239,
          "midi": 75,
          "name": "D#5",
          "ticks": 250080,
          "time": 208.4,
          "velocity": 0.6299212598425197
        },
        {
          "duration": 0.3991666666666731,
          "durationTicks": 479,
          "midi": 77,
          "name": "F5",
          "ticks": 250320,
          "time": 208.60000000000002,
          "velocity": 0.6299212598425197
        },
        {
          "duration": 0.39916666666670153,
          "durationTicks": 479,
          "midi": 79,
          "name": "G5",
          "ticks": 250800,
          "time": 209,
          "velocity": 0.6299212598425197
        },
        {
          "duration": 0.19916666666668448,
          "durationTicks": 239,
          "midi": 77,
          "name": "F5",
          "ticks": 251280,
          "time": 209.4,
          "velocity": 0.6299212598425197
        },
        {
          "duration": 0.19916666666665606,
          "durationTicks": 239,
          "midi": 75,
          "name": "D#5",
          "ticks": 251520,
          "time": 209.60000000000002,
          "velocity": 0.6299212598425197
        },
        {
          "duration": 0.09916666666669016,
          "durationTicks": 119,
          "midi": 75,
          "name": "D#5",
          "ticks": 251760,
          "time": 209.8,
          "velocity": 0.6299212598425197
        },
        {
          "duration": 0.19916666666668448,
          "durationTicks": 239,
          "midi": 63,
          "name": "D#4",
          "ticks": 252240,
          "time": 210.20000000000002,
          "velocity": 0.6299212598425197
        },
        {
          "duration": 0.19916666666668448,
          "durationTicks": 239,
          "midi": 75,
          "name": "D#5",
          "ticks": 252480,
          "time": 210.4,
          "velocity": 0.6299212598425197
        },
        {
          "duration": 0.19916666666665606,
          "durationTicks": 239,
          "midi": 74,
          "name": "D5",
          "ticks": 252720,
          "time": 210.60000000000002,
          "velocity": 0.6299212598425197
        },
        {
          "duration": 0.19916666666668448,
          "durationTicks": 239,
          "midi": 72,
          "name": "C5",
          "ticks": 252960,
          "time": 210.8,
          "velocity": 0.6299212598425197
        },
        {
          "duration": 0.19916666666668448,
          "durationTicks": 239,
          "midi": 70,
          "name": "A#4",
          "ticks": 253200,
          "time": 211,
          "velocity": 0.6299212598425197
        },
        {
          "duration": 0.3991666666666731,
          "durationTicks": 479,
          "midi": 72,
          "name": "C5",
          "ticks": 253440,
          "time": 211.20000000000002,
          "velocity": 0.6299212598425197
        },
        {
          "duration": 0.19916666666665606,
          "durationTicks": 239,
          "midi": 63,
          "name": "D#4",
          "ticks": 253920,
          "time": 211.60000000000002,
          "velocity": 0.6299212598425197
        },
        {
          "duration": 0.3991666666666731,
          "durationTicks": 479,
          "midi": 63,
          "name": "D#4",
          "ticks": 254160,
          "time": 211.8,
          "velocity": 0.6299212598425197
        },
        {
          "duration": 0.3991666666666731,
          "durationTicks": 479,
          "midi": 60,
          "name": "C4",
          "ticks": 254640,
          "time": 212.20000000000002,
          "velocity": 0.6299212598425197
        },
        {
          "duration": 0.3991666666666731,
          "durationTicks": 479,
          "midi": 58,
          "name": "A#3",
          "ticks": 255120,
          "time": 212.60000000000002,
          "velocity": 0.6299212598425197
        },
        {
          "duration": 0.19916666666668448,
          "durationTicks": 239,
          "midi": 63,
          "name": "D#4",
          "ticks": 255600,
          "time": 213,
          "velocity": 0.6299212598425197
        },
        {
          "duration": 0.19916666666668448,
          "durationTicks": 239,
          "midi": 63,
          "name": "D#4",
          "ticks": 256080,
          "time": 213.4,
          "velocity": 0.6299212598425197
        },
        {
          "duration": 0.19916666666665606,
          "durationTicks": 239,
          "midi": 63,
          "name": "D#4",
          "ticks": 256320,
          "time": 213.60000000000002,
          "velocity": 0.6299212598425197
        },
        {
          "duration": 0.19916666666668448,
          "durationTicks": 239,
          "midi": 65,
          "name": "F4",
          "ticks": 256560,
          "time": 213.8,
          "velocity": 0.6299212598425197
        },
        {
          "duration": 0.19916666666668448,
          "durationTicks": 239,
          "midi": 67,
          "name": "G4",
          "ticks": 256800,
          "time": 214,
          "velocity": 0.6299212598425197
        },
        {
          "duration": 0.19916666666668448,
          "durationTicks": 239,
          "midi": 68,
          "name": "G#4",
          "ticks": 257040,
          "time": 214.20000000000002,
          "velocity": 0.6299212598425197
        },
        {
          "duration": 0.5991666666666902,
          "durationTicks": 719,
          "midi": 70,
          "name": "A#4",
          "ticks": 257280,
          "time": 214.4,
          "velocity": 0.6299212598425197
        },
        {
          "duration": 0.19916666666668448,
          "durationTicks": 239,
          "midi": 72,
          "name": "C5",
          "ticks": 258000,
          "time": 215,
          "velocity": 0.6299212598425197
        },
        {
          "duration": 0.3991666666666731,
          "durationTicks": 479,
          "midi": 70,
          "name": "A#4",
          "ticks": 258240,
          "time": 215.20000000000002,
          "velocity": 0.6299212598425197
        },
        {
          "duration": 0.19916666666668448,
          "durationTicks": 239,
          "midi": 70,
          "name": "A#4",
          "ticks": 258960,
          "time": 215.8,
          "velocity": 0.6299212598425197
        },
        {
          "duration": 0.39916666666670153,
          "durationTicks": 479,
          "midi": 70,
          "name": "A#4",
          "ticks": 259200,
          "time": 216,
          "velocity": 0.6299212598425197
        },
        {
          "duration": 0.3991666666666731,
          "durationTicks": 479,
          "midi": 75,
          "name": "D#5",
          "ticks": 259680,
          "time": 216.4,
          "velocity": 0.6299212598425197
        },
        {
          "duration": 0.3991666666666731,
          "durationTicks": 479,
          "midi": 77,
          "name": "F5",
          "ticks": 260160,
          "time": 216.8,
          "velocity": 0.6299212598425197
        },
        {
          "duration": 0.3991666666666731,
          "durationTicks": 479,
          "midi": 79,
          "name": "G5",
          "ticks": 260640,
          "time": 217.20000000000002,
          "velocity": 0.6299212598425197
        },
        {
          "duration": 2.399166666666673,
          "durationTicks": 2879,
          "midi": 79,
          "name": "G5",
          "ticks": 261120,
          "time": 217.60000000000002,
          "velocity": 0.6299212598425197
        },
        {
          "duration": 0.5991666666666902,
          "durationTicks": 719,
          "midi": 77,
          "name": "F5",
          "ticks": 264000,
          "time": 220,
          "velocity": 0.6299212598425197
        },
        {
          "duration": 0.09916666666666174,
          "durationTicks": 119,
          "midi": 79,
          "name": "G5",
          "ticks": 264720,
          "time": 220.60000000000002,
          "velocity": 0.6299212598425197
        },
        {
          "duration": 0.09916666666666174,
          "durationTicks": 119,
          "midi": 77,
          "name": "F5",
          "ticks": 264840,
          "time": 220.70000000000002,
          "velocity": 0.6299212598425197
        },
        {
          "duration": 2.399166666666673,
          "durationTicks": 2879,
          "midi": 75,
          "name": "D#5",
          "ticks": 264960,
          "time": 220.8,
          "velocity": 0.6299212598425197
        },
        {
          "duration": 1.5991666666666902,
          "durationTicks": 1919,
          "midi": 75,
          "name": "D#5",
          "ticks": 268800,
          "time": 224,
          "velocity": 0.6299212598425197
        },
        {
          "duration": 0.7991666666666788,
          "durationTicks": 959,
          "midi": 77,
          "name": "F5",
          "ticks": 270720,
          "time": 225.60000000000002,
          "velocity": 0.6299212598425197
        },
        {
          "duration": 0.7991666666666788,
          "durationTicks": 959,
          "midi": 80,
          "name": "G#5",
          "ticks": 271680,
          "time": 226.4,
          "velocity": 0.6299212598425197
        },
        {
          "duration": 2.399166666666673,
          "durationTicks": 2879,
          "midi": 79,
          "name": "G5",
          "ticks": 272640,
          "time": 227.20000000000002,
          "velocity": 0.6299212598425197
        },
        {
          "duration": 0.7991666666666788,
          "durationTicks": 959,
          "midi": 77,
          "name": "F5",
          "ticks": 275520,
          "time": 229.60000000000002,
          "velocity": 0.6299212598425197
        },
        {
          "duration": 3.1991666666666845,
          "durationTicks": 3839,
          "midi": 75,
          "name": "D#5",
          "ticks": 276480,
          "time": 230.4,
          "velocity": 0.6299212598425197
        }
      ],
      "endOfTrackTicks": 280320
    },
    {
      "channel": 1,
      "controlChanges": {
        "7": [
          {
            "number": 7,
            "ticks": 2,
            "time": 0.0016666666666666668,
            "value": 1
          }
        ],
        "10": [
          {
            "number": 10,
            "ticks": 4,
            "time": 0.0033333333333333335,
            "value": 0.5039370078740157
          }
        ],
        "91": [
          {
            "number": 91,
            "ticks": 6,
            "time": 0.005000000000000001,
            "value": 0.23622047244094488
          }
        ],
        "93": [
          {
            "number": 93,
            "ticks": 8,
            "time": 0.006666666666666667,
            "value": 0.23622047244094488
          }
        ]
      },
      "pitchBends": [],
      "instrument": {
        "family": "piano",
        "name": "acoustic grand piano",
        "number": 0
      },
      "name": "",
      "notes": [
        {
          "duration": 0.1991666666666667,
          "durationTicks": 239,
          "midi": 79,
          "name": "G5",
          "ticks": 0,
          "time": 0,
          "velocity": 0.5039370078740157
        },
        {
          "duration": 0.1991666666666667,
          "durationTicks": 239,
          "midi": 75,
          "name": "D#5",
          "ticks": 0,
          "time": 0,
          "velocity": 0.5039370078740157
        },
        {
          "duration": 0.19916666666666666,
          "durationTicks": 239,
          "midi": 70,
          "name": "A#4",
          "ticks": 240,
          "time": 0.2,
          "velocity": 0.5039370078740157
        },
        {
          "duration": 0.1991666666666666,
          "durationTicks": 239,
          "midi": 75,
          "name": "D#5",
          "ticks": 480,
          "time": 0.4,
          "velocity": 0.5039370078740157
        },
        {
          "duration": 0.39916666666666667,
          "durationTicks": 479,
          "midi": 79,
          "name": "G5",
          "ticks": 720,
          "time": 0.6000000000000001,
          "velocity": 0.5039370078740157
        },
        {
          "duration": 0.19916666666666671,
          "durationTicks": 239,
          "midi": 70,
          "name": "A#4",
          "ticks": 1200,
          "time": 1,
          "velocity": 0.5039370078740157
        },
        {
          "duration": 0.19916666666666671,
          "durationTicks": 239,
          "midi": 75,
          "name": "D#5",
          "ticks": 1440,
          "time": 1.2000000000000002,
          "velocity": 0.5039370078740157
        },
        {
          "duration": 0.39916666666666667,
          "durationTicks": 479,
          "midi": 79,
          "name": "G5",
          "ticks": 1680,
          "time": 1.4000000000000001,
          "velocity": 0.5039370078740157
        },
        {
          "duration": 0.19916666666666671,
          "durationTicks": 239,
          "midi": 70,
          "name": "A#4",
          "ticks": 2160,
          "time": 1.8,
          "velocity": 0.5039370078740157
        },
        {
          "duration": 0.19916666666666671,
          "durationTicks": 239,
          "midi": 75,
          "name": "D#5",
          "ticks": 2400,
          "time": 2,
          "velocity": 0.5039370078740157
        },
        {
          "duration": 0.3991666666666669,
          "durationTicks": 479,
          "midi": 79,
          "name": "G5",
          "ticks": 2640,
          "time": 2.2,
          "velocity": 0.5039370078740157
        },
        {
          "duration": 0.19916666666666671,
          "durationTicks": 239,
          "midi": 70,
          "name": "A#4",
          "ticks": 3120,
          "time": 2.6,
          "velocity": 0.5039370078740157
        },
        {
          "duration": 0.19916666666666671,
          "durationTicks": 239,
          "midi": 75,
          "name": "D#5",
          "ticks": 3360,
          "time": 2.8000000000000003,
          "velocity": 0.5039370078740157
        },
        {
          "duration": 0.19916666666666671,
          "durationTicks": 239,
          "midi": 79,
          "name": "G5",
          "ticks": 3600,
          "time": 3,
          "velocity": 0.5039370078740157
        },
        {
          "duration": 0.19916666666666671,
          "durationTicks": 239,
          "midi": 79,
          "name": "G5",
          "ticks": 3840,
          "time": 3.2,
          "velocity": 0.5039370078740157
        },
        {
          "duration": 0.19916666666666671,
          "durationTicks": 239,
          "midi": 75,
          "name": "D#5",
          "ticks": 3840,
          "time": 3.2,
          "velocity": 0.5039370078740157
        },
        {
          "duration": 0.19916666666666671,
          "durationTicks": 239,
          "midi": 70,
          "name": "A#4",
          "ticks": 4080,
          "time": 3.4000000000000004,
          "velocity": 0.5039370078740157
        },
        {
          "duration": 0.19916666666666671,
          "durationTicks": 239,
          "midi": 75,
          "name": "D#5",
          "ticks": 4320,
          "time": 3.6,
          "velocity": 0.5039370078740157
        },
        {
          "duration": 0.39916666666666645,
          "durationTicks": 479,
          "midi": 79,
          "name": "G5",
          "ticks": 4560,
          "time": 3.8000000000000003,
          "velocity": 0.5039370078740157
        },
        {
          "duration": 0.19916666666666671,
          "durationTicks": 239,
          "midi": 70,
          "name": "A#4",
          "ticks": 5040,
          "time": 4.2,
          "velocity": 0.5039370078740157
        },
        {
          "duration": 0.19916666666666671,
          "durationTicks": 239,
          "midi": 75,
          "name": "D#5",
          "ticks": 5280,
          "time": 4.4,
          "velocity": 0.5039370078740157
        },
        {
          "duration": 0.3991666666666669,
          "durationTicks": 479,
          "midi": 79,
          "name": "G5",
          "ticks": 5520,
          "time": 4.6000000000000005,
          "velocity": 0.5039370078740157
        },
        {
          "duration": 0.19916666666666671,
          "durationTicks": 239,
          "midi": 70,
          "name": "A#4",
          "ticks": 6000,
          "time": 5,
          "velocity": 0.5039370078740157
        },
        {
          "duration": 0.19916666666666671,
          "durationTicks": 239,
          "midi": 75,
          "name": "D#5",
          "ticks": 6240,
          "time": 5.2,
          "velocity": 0.5039370078740157
        },
        {
          "duration": 0.3991666666666669,
          "durationTicks": 479,
          "midi": 79,
          "name": "G5",
          "ticks": 6480,
          "time": 5.4,
          "velocity": 0.5039370078740157
        },
        {
          "duration": 0.19916666666666671,
          "durationTicks": 239,
          "midi": 70,
          "name": "A#4",
          "ticks": 6960,
          "time": 5.800000000000001,
          "velocity": 0.5039370078740157
        },
        {
          "duration": 0.19916666666666671,
          "durationTicks": 239,
          "midi": 75,
          "name": "D#5",
          "ticks": 7200,
          "time": 6,
          "velocity": 0.5039370078740157
        },
        {
          "duration": 0.19916666666666671,
          "durationTicks": 239,
          "midi": 79,
          "name": "G5",
          "ticks": 7440,
          "time": 6.2,
          "velocity": 0.5039370078740157
        },
        {
          "duration": 0.19916666666666583,
          "durationTicks": 239,
          "midi": 79,
          "name": "G5",
          "ticks": 7680,
          "time": 6.4,
          "velocity": 0.5039370078740157
        },
        {
          "duration": 0.19916666666666583,
          "durationTicks": 239,
          "midi": 75,
          "name": "D#5",
          "ticks": 7680,
          "time": 6.4,
          "velocity": 0.5039370078740157
        },
        {
          "duration": 0.19916666666666583,
          "durationTicks": 239,
          "midi": 70,
          "name": "A#4",
          "ticks": 7920,
          "time": 6.6000000000000005,
          "velocity": 0.5039370078740157
        },
        {
          "duration": 0.19916666666666583,
          "durationTicks": 239,
          "midi": 75,
          "name": "D#5",
          "ticks": 8160,
          "time": 6.800000000000001,
          "velocity": 0.5039370078740157
        },
        {
          "duration": 0.399166666666666,
          "durationTicks": 479,
          "midi": 79,
          "name": "G5",
          "ticks": 8400,
          "time": 7,
          "velocity": 0.5039370078740157
        },
        {
          "duration": 0.19916666666666583,
          "durationTicks": 239,
          "midi": 70,
          "name": "A#4",
          "ticks": 8880,
          "time": 7.4,
          "velocity": 0.5039370078740157
        },
        {
          "duration": 0.19916666666666583,
          "durationTicks": 239,
          "midi": 75,
          "name": "D#5",
          "ticks": 9120,
          "time": 7.6000000000000005,
          "velocity": 0.5039370078740157
        },
        {
          "duration": 0.399166666666666,
          "durationTicks": 479,
          "midi": 79,
          "name": "G5",
          "ticks": 9360,
          "time": 7.800000000000001,
          "velocity": 0.5039370078740157
        },
        {
          "duration": 0.19916666666666494,
          "durationTicks": 239,
          "midi": 70,
          "name": "A#4",
          "ticks": 9840,
          "time": 8.200000000000001,
          "velocity": 0.5039370078740157
        },
        {
          "duration": 0.19916666666666671,
          "durationTicks": 239,
          "midi": 75,
          "name": "D#5",
          "ticks": 10080,
          "time": 8.4,
          "velocity": 0.5039370078740157
        },
        {
          "duration": 0.399166666666666,
          "durationTicks": 479,
          "midi": 79,
          "name": "G5",
          "ticks": 10320,
          "time": 8.6,
          "velocity": 0.5039370078740157
        },
        {
          "duration": 0.19916666666666671,
          "durationTicks": 239,
          "midi": 70,
          "name": "A#4",
          "ticks": 10800,
          "time": 9,
          "velocity": 0.5039370078740157
        },
        {
          "duration": 0.19916666666666494,
          "durationTicks": 239,
          "midi": 75,
          "name": "D#5",
          "ticks": 11040,
          "time": 9.200000000000001,
          "velocity": 0.5039370078740157
        },
        {
          "duration": 0.19916666666666671,
          "durationTicks": 239,
          "midi": 79,
          "name": "G5",
          "ticks": 11280,
          "time": 9.4,
          "velocity": 0.5039370078740157
        },
        {
          "duration": 0.19916666666666494,
          "durationTicks": 239,
          "midi": 79,
          "name": "G5",
          "ticks": 11520,
          "time": 9.600000000000001,
          "velocity": 0.5039370078740157
        },
        {
          "duration": 0.19916666666666494,
          "durationTicks": 239,
          "midi": 75,
          "name": "D#5",
          "ticks": 11520,
          "time": 9.600000000000001,
          "velocity": 0.5039370078740157
        },
        {
          "duration": 0.19916666666666671,
          "durationTicks": 239,
          "midi": 70,
          "name": "A#4",
          "ticks": 11760,
          "time": 9.8,
          "velocity": 0.5039370078740157
        },
        {
          "duration": 0.19916666666666671,
          "durationTicks": 239,
          "midi": 75,
          "name": "D#5",
          "ticks": 12000,
          "time": 10,
          "velocity": 0.5039370078740157
        },
        {
          "duration": 0.399166666666666,
          "durationTicks": 479,
          "midi": 79,
          "name": "G5",
          "ticks": 12240,
          "time": 10.200000000000001,
          "velocity": 0.5039370078740157
        },
        {
          "duration": 0.19916666666666494,
          "durationTicks": 239,
          "midi": 70,
          "name": "A#4",
          "ticks": 12720,
          "time": 10.600000000000001,
          "velocity": 0.5039370078740157
        },
        {
          "duration": 0.19916666666666671,
          "durationTicks": 239,
          "midi": 75,
          "name": "D#5",
          "ticks": 12960,
          "time": 10.8,
          "velocity": 0.5039370078740157
        },
        {
          "duration": 0.399166666666666,
          "durationTicks": 479,
          "midi": 79,
          "name": "G5",
          "ticks": 13200,
          "time": 11,
          "velocity": 0.5039370078740157
        },
        {
          "duration": 0.19916666666666671,
          "durationTicks": 239,
          "midi": 70,
          "name": "A#4",
          "ticks": 13680,
          "time": 11.4,
          "velocity": 0.5039370078740157
        },
        {
          "duration": 0.19916666666666494,
          "durationTicks": 239,
          "midi": 75,
          "name": "D#5",
          "ticks": 13920,
          "time": 11.600000000000001,
          "velocity": 0.5039370078740157
        },
        {
          "duration": 0.19916666666666671,
          "durationTicks": 239,
          "midi": 79,
          "name": "G5",
          "ticks": 14160,
          "time": 11.8,
          "velocity": 0.5039370078740157
        },
        {
          "duration": 0.19916666666666671,
          "durationTicks": 239,
          "midi": 87,
          "name": "D#6",
          "ticks": 14400,
          "time": 12,
          "velocity": 0.5039370078740157
        },
        {
          "duration": 0.19916666666666671,
          "durationTicks": 239,
          "midi": 80,
          "name": "G#5",
          "ticks": 14400,
          "time": 12,
          "velocity": 0.5039370078740157
        },
        {
          "duration": 0.19916666666666494,
          "durationTicks": 239,
          "midi": 79,
          "name": "G5",
          "ticks": 14640,
          "time": 12.200000000000001,
          "velocity": 0.5039370078740157
        },
        {
          "duration": 0.399166666666666,
          "durationTicks": 479,
          "midi": 75,
          "name": "D#5",
          "ticks": 14880,
          "time": 12.4,
          "velocity": 0.5039370078740157
        },
        {
          "duration": 0.19916666666666671,
          "durationTicks": 239,
          "midi": 94,
          "name": "A#6",
          "ticks": 15360,
          "time": 12.8,
          "velocity": 0.5039370078740157
        },
        {
          "duration": 0.1991666666666685,
          "durationTicks": 239,
          "midi": 94,
          "name": "A#6",
          "ticks": 15600,
          "time": 13,
          "velocity": 0.5039370078740157
        },
        {
          "duration": 0.19916666666666671,
          "durationTicks": 239,
          "midi": 94,
          "name": "A#6",
          "ticks": 15840,
          "time": 13.200000000000001,
          "velocity": 0.5039370078740157
        },
        {
          "duration": 0.1991666666666685,
          "durationTicks": 239,
          "midi": 92,
          "name": "G#6",
          "ticks": 16080,
          "time": 13.4,
          "velocity": 0.5039370078740157
        },
        {
          "duration": 0.19916666666666671,
          "durationTicks": 239,
          "midi": 92,
          "name": "G#6",
          "ticks": 16320,
          "time": 13.600000000000001,
          "velocity": 0.5039370078740157
        },
        {
          "duration": 0.19916666666666671,
          "durationTicks": 239,
          "midi": 92,
          "name": "G#6",
          "ticks": 16560,
          "time": 13.8,
          "velocity": 0.5039370078740157
        },
        {
          "duration": 0.1991666666666685,
          "durationTicks": 239,
          "midi": 91,
          "name": "G6",
          "ticks": 16800,
          "time": 14,
          "velocity": 0.5039370078740157
        },
        {
          "duration": 0.19916666666666671,
          "durationTicks": 239,
          "midi": 91,
          "name": "G6",
          "ticks": 17040,
          "time": 14.200000000000001,
          "velocity": 0.5039370078740157
        },
        {
          "duration": 0.1991666666666685,
          "durationTicks": 239,
          "midi": 91,
          "name": "G6",
          "ticks": 17280,
          "time": 14.4,
          "velocity": 0.5039370078740157
        },
        {
          "duration": 0.19916666666666671,
          "durationTicks": 239,
          "midi": 89,
          "name": "F6",
          "ticks": 17520,
          "time": 14.600000000000001,
          "velocity": 0.5039370078740157
        },
        {
          "duration": 0.19916666666666671,
          "durationTicks": 239,
          "midi": 89,
          "name": "F6",
          "ticks": 17760,
          "time": 14.8,
          "velocity": 0.5039370078740157
        },
        {
          "duration": 0.1991666666666685,
          "durationTicks": 239,
          "midi": 89,
          "name": "F6",
          "ticks": 18000,
          "time": 15,
          "velocity": 0.5039370078740157
        },
        {
          "duration": 0.19916666666666671,
          "durationTicks": 239,
          "midi": 87,
          "name": "D#6",
          "ticks": 18240,
          "time": 15.200000000000001,
          "velocity": 0.5039370078740157
        },
        {
          "duration": 0.1991666666666685,
          "durationTicks": 239,
          "midi": 87,
          "name": "D#6",
          "ticks": 18480,
          "time": 15.4,
          "velocity": 0.5039370078740157
        },
        {
          "duration": 0.19916666666666671,
          "durationTicks": 239,
          "midi": 89,
          "name": "F6",
          "ticks": 18720,
          "time": 15.600000000000001,
          "velocity": 0.5039370078740157
        },
        {
          "duration": 0.19916666666666671,
          "durationTicks": 239,
          "midi": 89,
          "name": "F6",
          "ticks": 18960,
          "time": 15.8,
          "velocity": 0.5039370078740157
        },
        {
          "duration": 0.19916666666666671,
          "durationTicks": 239,
          "midi": 94,
          "name": "A#6",
          "ticks": 19200,
          "time": 16,
          "velocity": 0.5039370078740157
        },
        {
          "duration": 0.19916666666667027,
          "durationTicks": 239,
          "midi": 94,
          "name": "A#6",
          "ticks": 19440,
          "time": 16.2,
          "velocity": 0.5039370078740157
        },
        {
          "duration": 0.19916666666666671,
          "durationTicks": 239,
          "midi": 94,
          "name": "A#6",
          "ticks": 19680,
          "time": 16.400000000000002,
          "velocity": 0.5039370078740157
        },
        {
          "duration": 0.19916666666666671,
          "durationTicks": 239,
          "midi": 92,
          "name": "G#6",
          "ticks": 19920,
          "time": 16.6,
          "velocity": 0.5039370078740157
        },
        {
          "duration": 0.19916666666666671,
          "durationTicks": 239,
          "midi": 92,
          "name": "G#6",
          "ticks": 20160,
          "time": 16.8,
          "velocity": 0.5039370078740157
        },
        {
          "duration": 0.19916666666666671,
          "durationTicks": 239,
          "midi": 92,
          "name": "G#6",
          "ticks": 20400,
          "time": 17,
          "velocity": 0.5039370078740157
        },
        {
          "duration": 0.19916666666667027,
          "durationTicks": 239,
          "midi": 91,
          "name": "G6",
          "ticks": 20640,
          "time": 17.2,
          "velocity": 0.5039370078740157
        },
        {
          "duration": 0.19916666666666671,
          "durationTicks": 239,
          "midi": 91,
          "name": "G6",
          "ticks": 20880,
          "time": 17.400000000000002,
          "velocity": 0.5039370078740157
        },
        {
          "duration": 0.19916666666666671,
          "durationTicks": 239,
          "midi": 91,
          "name": "G6",
          "ticks": 21120,
          "time": 17.6,
          "velocity": 0.5039370078740157
        },
        {
          "duration": 0.19916666666666671,
          "durationTicks": 239,
          "midi": 89,
          "name": "F6",
          "ticks": 21360,
          "time": 17.8,
          "velocity": 0.5039370078740157
        },
        {
          "duration": 0.19916666666666671,
          "durationTicks": 239,
          "midi": 89,
          "name": "F6",
          "ticks": 21600,
          "time": 18,
          "velocity": 0.5039370078740157
        },
        {
          "duration": 0.19916666666667027,
          "durationTicks": 239,
          "midi": 89,
          "name": "F6",
          "ticks": 21840,
          "time": 18.2,
          "velocity": 0.5039370078740157
        },
        {
          "duration": 0.19916666666666671,
          "durationTicks": 239,
          "midi": 87,
          "name": "D#6",
          "ticks": 22080,
          "time": 18.400000000000002,
          "velocity": 0.5039370078740157
        },
        {
          "duration": 0.19916666666666671,
          "durationTicks": 239,
          "midi": 87,
          "name": "D#6",
          "ticks": 22320,
          "time": 18.6,
          "velocity": 0.5039370078740157
        },
        {
          "duration": 0.19916666666666671,
          "durationTicks": 239,
          "midi": 89,
          "name": "F6",
          "ticks": 22560,
          "time": 18.8,
          "velocity": 0.5039370078740157
        },
        {
          "duration": 0.19916666666666671,
          "durationTicks": 239,
          "midi": 89,
          "name": "F6",
          "ticks": 22800,
          "time": 19,
          "velocity": 0.5039370078740157
        },
        {
          "duration": 0.19916666666666671,
          "durationTicks": 239,
          "midi": 94,
          "name": "A#6",
          "ticks": 23040,
          "time": 19.200000000000003,
          "velocity": 0.5039370078740157
        },
        {
          "duration": 0.19916666666666671,
          "durationTicks": 239,
          "midi": 94,
          "name": "A#6",
          "ticks": 23280,
          "time": 19.400000000000002,
          "velocity": 0.5039370078740157
        },
        {
          "duration": 0.19916666666666671,
          "durationTicks": 239,
          "midi": 94,
          "name": "A#6",
          "ticks": 23520,
          "time": 19.6,
          "velocity": 0.5039370078740157
        },
        {
          "duration": 0.19916666666666671,
          "durationTicks": 239,
          "midi": 92,
          "name": "G#6",
          "ticks": 23760,
          "time": 19.8,
          "velocity": 0.5039370078740157
        },
        {
          "duration": 0.19916666666667027,
          "durationTicks": 239,
          "midi": 92,
          "name": "G#6",
          "ticks": 24000,
          "time": 20,
          "velocity": 0.5039370078740157
        },
        {
          "duration": 0.19916666666666671,
          "durationTicks": 239,
          "midi": 92,
          "name": "G#6",
          "ticks": 24240,
          "time": 20.200000000000003,
          "velocity": 0.5039370078740157
        },
        {
          "duration": 0.19916666666666671,
          "durationTicks": 239,
          "midi": 91,
          "name": "G6",
          "ticks": 24480,
          "time": 20.400000000000002,
          "velocity": 0.5039370078740157
        },
        {
          "duration": 0.19916666666666671,
          "durationTicks": 239,
          "midi": 91,
          "name": "G6",
          "ticks": 24720,
          "time": 20.6,
          "velocity": 0.5039370078740157
        },
        {
          "duration": 0.19916666666666671,
          "durationTicks": 239,
          "midi": 91,
          "name": "G6",
          "ticks": 24960,
          "time": 20.8,
          "velocity": 0.5039370078740157
        },
        {
          "duration": 0.19916666666667027,
          "durationTicks": 239,
          "midi": 89,
          "name": "F6",
          "ticks": 25200,
          "time": 21,
          "velocity": 0.5039370078740157
        },
        {
          "duration": 0.19916666666666671,
          "durationTicks": 239,
          "midi": 89,
          "name": "F6",
          "ticks": 25440,
          "time": 21.200000000000003,
          "velocity": 0.5039370078740157
        },
        {
          "duration": 0.19916666666666671,
          "durationTicks": 239,
          "midi": 89,
          "name": "F6",
          "ticks": 25680,
          "time": 21.400000000000002,
          "velocity": 0.5039370078740157
        },
        {
          "duration": 0.19916666666666671,
          "durationTicks": 239,
          "midi": 87,
          "name": "D#6",
          "ticks": 25920,
          "time": 21.6,
          "velocity": 0.5039370078740157
        },
        {
          "duration": 0.19916666666666671,
          "durationTicks": 239,
          "midi": 87,
          "name": "D#6",
          "ticks": 26160,
          "time": 21.8,
          "velocity": 0.5039370078740157
        },
        {
          "duration": 0.19916666666667027,
          "durationTicks": 239,
          "midi": 89,
          "name": "F6",
          "ticks": 26400,
          "time": 22,
          "velocity": 0.5039370078740157
        },
        {
          "duration": 0.19916666666666671,
          "durationTicks": 239,
          "midi": 89,
          "name": "F6",
          "ticks": 26640,
          "time": 22.200000000000003,
          "velocity": 0.5039370078740157
        },
        {
          "duration": 0.19916666666666671,
          "durationTicks": 239,
          "midi": 94,
          "name": "A#6",
          "ticks": 26880,
          "time": 22.400000000000002,
          "velocity": 0.5039370078740157
        },
        {
          "duration": 0.19916666666666671,
          "durationTicks": 239,
          "midi": 94,
          "name": "A#6",
          "ticks": 27120,
          "time": 22.6,
          "velocity": 0.5039370078740157
        },
        {
          "duration": 0.19916666666666671,
          "durationTicks": 239,
          "midi": 94,
          "name": "A#6",
          "ticks": 27360,
          "time": 22.8,
          "velocity": 0.5039370078740157
        },
        {
          "duration": 0.19916666666667027,
          "durationTicks": 239,
          "midi": 92,
          "name": "G#6",
          "ticks": 27600,
          "time": 23,
          "velocity": 0.5039370078740157
        },
        {
          "duration": 0.19916666666666671,
          "durationTicks": 239,
          "midi": 91,
          "name": "G6",
          "ticks": 27840,
          "time": 23.200000000000003,
          "velocity": 0.5039370078740157
        },
        {
          "duration": 0.19916666666666671,
          "durationTicks": 239,
          "midi": 92,
          "name": "G#6",
          "ticks": 28080,
          "time": 23.400000000000002,
          "velocity": 0.5039370078740157
        },
        {
          "duration": 0.19916666666666671,
          "durationTicks": 239,
          "midi": 94,
          "name": "A#6",
          "ticks": 28320,
          "time": 23.6,
          "velocity": 0.5039370078740157
        },
        {
          "duration": 1.7991666666666681,
          "durationTicks": 2159,
          "midi": 99,
          "name": "D#7",
          "ticks": 28560,
          "time": 23.8,
          "velocity": 0.5039370078740157
        },
        {
          "duration": 1.7991666666666681,
          "durationTicks": 2159,
          "midi": 94,
          "name": "A#6",
          "ticks": 28560,
          "time": 23.8,
          "velocity": 0.5039370078740157
        },
        {
          "duration": 1.7991666666666681,
          "durationTicks": 2159,
          "midi": 89,
          "name": "F6",
          "ticks": 28560,
          "time": 23.8,
          "velocity": 0.5039370078740157
        },
        {
          "duration": 0.19916666666666671,
          "durationTicks": 239,
          "midi": 70,
          "name": "A#4",
          "ticks": 30960,
          "time": 25.8,
          "velocity": 0.5039370078740157
        },
        {
          "duration": 0.19916666666667027,
          "durationTicks": 239,
          "midi": 75,
          "name": "D#5",
          "ticks": 31200,
          "time": 26,
          "velocity": 0.5039370078740157
        },
        {
          "duration": 0.399166666666666,
          "durationTicks": 479,
          "midi": 79,
          "name": "G5",
          "ticks": 31440,
          "time": 26.200000000000003,
          "velocity": 0.5039370078740157
        },
        {
          "duration": 0.19916666666666671,
          "durationTicks": 239,
          "midi": 70,
          "name": "A#4",
          "ticks": 31920,
          "time": 26.6,
          "velocity": 0.5039370078740157
        },
        {
          "duration": 0.19916666666666671,
          "durationTicks": 239,
          "midi": 75,
          "name": "D#5",
          "ticks": 32160,
          "time": 26.8,
          "velocity": 0.5039370078740157
        },
        {
          "duration": 0.39916666666666956,
          "durationTicks": 479,
          "midi": 79,
          "name": "G5",
          "ticks": 32400,
          "time": 27,
          "velocity": 0.5039370078740157
        },
        {
          "duration": 0.19916666666666671,
          "durationTicks": 239,
          "midi": 70,
          "name": "A#4",
          "ticks": 32880,
          "time": 27.400000000000002,
          "velocity": 0.5039370078740157
        },
        {
          "duration": 0.19916666666666671,
          "durationTicks": 239,
          "midi": 75,
          "name": "D#5",
          "ticks": 33120,
          "time": 27.6,
          "velocity": 0.5039370078740157
        },
        {
          "duration": 0.39916666666666956,
          "durationTicks": 479,
          "midi": 79,
          "name": "G5",
          "ticks": 33360,
          "time": 27.8,
          "velocity": 0.5039370078740157
        },
        {
          "duration": 0.19916666666666671,
          "durationTicks": 239,
          "midi": 70,
          "name": "A#4",
          "ticks": 33840,
          "time": 28.200000000000003,
          "velocity": 0.5039370078740157
        },
        {
          "duration": 0.19916666666666671,
          "durationTicks": 239,
          "midi": 75,
          "name": "D#5",
          "ticks": 34080,
          "time": 28.400000000000002,
          "velocity": 0.5039370078740157
        },
        {
          "duration": 0.399166666666666,
          "durationTicks": 479,
          "midi": 79,
          "name": "G5",
          "ticks": 34320,
          "time": 28.6,
          "velocity": 0.5039370078740157
        },
        {
          "duration": 0.19916666666667027,
          "durationTicks": 239,
          "midi": 70,
          "name": "A#4",
          "ticks": 34800,
          "time": 29,
          "velocity": 0.5039370078740157
        },
        {
          "duration": 0.19916666666666671,
          "durationTicks": 239,
          "midi": 75,
          "name": "D#5",
          "ticks": 35040,
          "time": 29.200000000000003,
          "velocity": 0.5039370078740157
        },
        {
          "duration": 0.399166666666666,
          "durationTicks": 479,
          "midi": 79,
          "name": "G5",
          "ticks": 35280,
          "time": 29.400000000000002,
          "velocity": 0.5039370078740157
        },
        {
          "duration": 0.19916666666666671,
          "durationTicks": 239,
          "midi": 70,
          "name": "A#4",
          "ticks": 35760,
          "time": 29.8,
          "velocity": 0.5039370078740157
        },
        {
          "duration": 0.19916666666667027,
          "durationTicks": 239,
          "midi": 75,
          "name": "D#5",
          "ticks": 36000,
          "time": 30,
          "velocity": 0.5039370078740157
        },
        {
          "duration": 0.399166666666666,
          "durationTicks": 479,
          "midi": 79,
          "name": "G5",
          "ticks": 36240,
          "time": 30.200000000000003,
          "velocity": 0.5039370078740157
        },
        {
          "duration": 0.19916666666666671,
          "durationTicks": 239,
          "midi": 70,
          "name": "A#4",
          "ticks": 36720,
          "time": 30.6,
          "velocity": 0.5039370078740157
        },
        {
          "duration": 0.19916666666666671,
          "durationTicks": 239,
          "midi": 75,
          "name": "D#5",
          "ticks": 36960,
          "time": 30.8,
          "velocity": 0.5039370078740157
        },
        {
          "duration": 0.39916666666666956,
          "durationTicks": 479,
          "midi": 79,
          "name": "G5",
          "ticks": 37200,
          "time": 31,
          "velocity": 0.5039370078740157
        },
        {
          "duration": 0.19916666666666671,
          "durationTicks": 239,
          "midi": 70,
          "name": "A#4",
          "ticks": 37680,
          "time": 31.400000000000002,
          "velocity": 0.5039370078740157
        },
        {
          "duration": 0.19916666666666671,
          "durationTicks": 239,
          "midi": 75,
          "name": "D#5",
          "ticks": 37920,
          "time": 31.6,
          "velocity": 0.5039370078740157
        },
        {
          "duration": 0.39916666666666956,
          "durationTicks": 479,
          "midi": 79,
          "name": "G5",
          "ticks": 38160,
          "time": 31.8,
          "velocity": 0.5039370078740157
        },
        {
          "duration": 0.19916666666666316,
          "durationTicks": 239,
          "midi": 70,
          "name": "A#4",
          "ticks": 38640,
          "time": 32.2,
          "velocity": 0.5039370078740157
        },
        {
          "duration": 0.19916666666667027,
          "durationTicks": 239,
          "midi": 75,
          "name": "D#5",
          "ticks": 38880,
          "time": 32.4,
          "velocity": 0.5039370078740157
        },
        {
          "duration": 0.399166666666666,
          "durationTicks": 479,
          "midi": 79,
          "name": "G5",
          "ticks": 39120,
          "time": 32.6,
          "velocity": 0.5039370078740157
        },
        {
          "duration": 0.19916666666667027,
          "durationTicks": 239,
          "midi": 70,
          "name": "A#4",
          "ticks": 39600,
          "time": 33,
          "velocity": 0.5039370078740157
        },
        {
          "duration": 0.19916666666666316,
          "durationTicks": 239,
          "midi": 75,
          "name": "D#5",
          "ticks": 39840,
          "time": 33.2,
          "velocity": 0.5039370078740157
        },
        {
          "duration": 0.19916666666667027,
          "durationTicks": 239,
          "midi": 79,
          "name": "G5",
          "ticks": 40080,
          "time": 33.4,
          "velocity": 0.5039370078740157
        },
        {
          "duration": 0.19916666666667027,
          "durationTicks": 239,
          "midi": 77,
          "name": "F5",
          "ticks": 40320,
          "time": 33.6,
          "velocity": 0.5039370078740157
        },
        {
          "duration": 0.19916666666666316,
          "durationTicks": 239,
          "midi": 70,
          "name": "A#4",
          "ticks": 40560,
          "time": 33.800000000000004,
          "velocity": 0.5039370078740157
        },
        {
          "duration": 0.19916666666667027,
          "durationTicks": 239,
          "midi": 75,
          "name": "D#5",
          "ticks": 40800,
          "time": 34,
          "velocity": 0.5039370078740157
        },
        {
          "duration": 0.399166666666666,
          "durationTicks": 479,
          "midi": 77,
          "name": "F5",
          "ticks": 41040,
          "time": 34.2,
          "velocity": 0.5039370078740157
        },
        {
          "duration": 0.19916666666667027,
          "durationTicks": 239,
          "midi": 70,
          "name": "A#4",
          "ticks": 41520,
          "time": 34.6,
          "velocity": 0.5039370078740157
        },
        {
          "duration": 0.19916666666666316,
          "durationTicks": 239,
          "midi": 75,
          "name": "D#5",
          "ticks": 41760,
          "time": 34.800000000000004,
          "velocity": 0.5039370078740157
        },
        {
          "duration": 0.19916666666667027,
          "durationTicks": 239,
          "midi": 82,
          "name": "A#5",
          "ticks": 42000,
          "time": 35,
          "velocity": 0.5039370078740157
        },
        {
          "duration": 0.19916666666666316,
          "durationTicks": 239,
          "midi": 75,
          "name": "D#5",
          "ticks": 42240,
          "time": 35.2,
          "velocity": 0.5039370078740157
        },
        {
          "duration": 0.19916666666667027,
          "durationTicks": 239,
          "midi": 70,
          "name": "A#4",
          "ticks": 42480,
          "time": 35.4,
          "velocity": 0.5039370078740157
        },
        {
          "duration": 0.19916666666667027,
          "durationTicks": 239,
          "midi": 75,
          "name": "D#5",
          "ticks": 42720,
          "time": 35.6,
          "velocity": 0.5039370078740157
        },
        {
          "duration": 0.399166666666666,
          "durationTicks": 479,
          "midi": 82,
          "name": "A#5",
          "ticks": 42960,
          "time": 35.800000000000004,
          "velocity": 0.5039370078740157
        },
        {
          "duration": 0.19916666666666316,
          "durationTicks": 239,
          "midi": 70,
          "name": "A#4",
          "ticks": 43440,
          "time": 36.2,
          "velocity": 0.5039370078740157
        },
        {
          "duration": 0.19916666666667027,
          "durationTicks": 239,
          "midi": 75,
          "name": "D#5",
          "ticks": 43680,
          "time": 36.4,
          "velocity": 0.5039370078740157
        },
        {
          "duration": 0.19916666666667027,
          "durationTicks": 239,
          "midi": 82,
          "name": "A#5",
          "ticks": 43920,
          "time": 36.6,
          "velocity": 0.5039370078740157
        },
        {
          "duration": 0.19916666666666316,
          "durationTicks": 239,
          "midi": 75,
          "name": "D#5",
          "ticks": 44160,
          "time": 36.800000000000004,
          "velocity": 0.5039370078740157
        },
        {
          "duration": 0.19916666666667027,
          "durationTicks": 239,
          "midi": 70,
          "name": "A#4",
          "ticks": 44400,
          "time": 37,
          "velocity": 0.5039370078740157
        },
        {
          "duration": 0.19916666666666316,
          "durationTicks": 239,
          "midi": 75,
          "name": "D#5",
          "ticks": 44640,
          "time": 37.2,
          "velocity": 0.5039370078740157
        },
        {
          "duration": 0.19916666666667027,
          "durationTicks": 239,
          "midi": 77,
          "name": "F5",
          "ticks": 44880,
          "time": 37.4,
          "velocity": 0.5039370078740157
        },
        {
          "duration": 0.19916666666667027,
          "durationTicks": 239,
          "midi": 82,
          "name": "A#5",
          "ticks": 45120,
          "time": 37.6,
          "velocity": 0.5039370078740157
        },
        {
          "duration": 0.19916666666666316,
          "durationTicks": 239,
          "midi": 87,
          "name": "D#6",
          "ticks": 45360,
          "time": 37.800000000000004,
          "velocity": 0.5039370078740157
        },
        {
          "duration": 0.19916666666667027,
          "durationTicks": 239,
          "midi": 89,
          "name": "F6",
          "ticks": 45600,
          "time": 38,
          "velocity": 0.5039370078740157
        },
        {
          "duration": 0.19916666666666316,
          "durationTicks": 239,
          "midi": 94,
          "name": "A#6",
          "ticks": 45840,
          "time": 38.2,
          "velocity": 0.5039370078740157
        },
        {
          "duration": 0.19916666666667027,
          "durationTicks": 239,
          "midi": 70,
          "name": "A#4",
          "ticks": 46320,
          "time": 38.6,
          "velocity": 0.5039370078740157
        },
        {
          "duration": 0.19916666666666316,
          "durationTicks": 239,
          "midi": 75,
          "name": "D#5",
          "ticks": 46560,
          "time": 38.800000000000004,
          "velocity": 0.5039370078740157
        },
        {
          "duration": 0.3991666666666731,
          "durationTicks": 479,
          "midi": 79,
          "name": "G5",
          "ticks": 46800,
          "time": 39,
          "velocity": 0.5039370078740157
        },
        {
          "duration": 0.19916666666666316,
          "durationTicks": 239,
          "midi": 70,
          "name": "A#4",
          "ticks": 47280,
          "time": 39.400000000000006,
          "velocity": 0.5039370078740157
        },
        {
          "duration": 0.19916666666667027,
          "durationTicks": 239,
          "midi": 75,
          "name": "D#5",
          "ticks": 47520,
          "time": 39.6,
          "velocity": 0.5039370078740157
        },
        {
          "duration": 0.399166666666666,
          "durationTicks": 479,
          "midi": 79,
          "name": "G5",
          "ticks": 47760,
          "time": 39.800000000000004,
          "velocity": 0.5039370078740157
        },
        {
          "duration": 0.19916666666667027,
          "durationTicks": 239,
          "midi": 70,
          "name": "A#4",
          "ticks": 48240,
          "time": 40.2,
          "velocity": 0.5039370078740157
        },
        {
          "duration": 0.19916666666666316,
          "durationTicks": 239,
          "midi": 75,
          "name": "D#5",
          "ticks": 48480,
          "time": 40.400000000000006,
          "velocity": 0.5039370078740157
        },
        {
          "duration": 0.399166666666666,
          "durationTicks": 479,
          "midi": 79,
          "name": "G5",
          "ticks": 48720,
          "time": 40.6,
          "velocity": 0.5039370078740157
        },
        {
          "duration": 0.19916666666667027,
          "durationTicks": 239,
          "midi": 70,
          "name": "A#4",
          "ticks": 49200,
          "time": 41,
          "velocity": 0.5039370078740157
        },
        {
          "duration": 0.19916666666667027,
          "durationTicks": 239,
          "midi": 75,
          "name": "D#5",
          "ticks": 49440,
          "time": 41.2,
          "velocity": 0.5039370078740157
        },
        {
          "duration": 0.399166666666666,
          "durationTicks": 479,
          "midi": 79,
          "name": "G5",
          "ticks": 49680,
          "time": 41.400000000000006,
          "velocity": 0.5039370078740157
        },
        {
          "duration": 0.19916666666666316,
          "durationTicks": 239,
          "midi": 70,
          "name": "A#4",
          "ticks": 50160,
          "time": 41.800000000000004,
          "velocity": 0.5039370078740157
        },
        {
          "duration": 0.19916666666667027,
          "durationTicks": 239,
          "midi": 75,
          "name": "D#5",
          "ticks": 50400,
          "time": 42,
          "velocity": 0.5039370078740157
        },
        {
          "duration": 0.399166666666666,
          "durationTicks": 479,
          "midi": 79,
          "name": "G5",
          "ticks": 50640,
          "time": 42.2,
          "velocity": 0.5039370078740157
        },
        {
          "duration": 0.19916666666667027,
          "durationTicks": 239,
          "midi": 70,
          "name": "A#4",
          "ticks": 51120,
          "time": 42.6,
          "velocity": 0.5039370078740157
        },
        {
          "duration": 0.19916666666666316,
          "durationTicks": 239,
          "midi": 75,
          "name": "D#5",
          "ticks": 51360,
          "time": 42.800000000000004,
          "velocity": 0.5039370078740157
        },
        {
          "duration": 0.3991666666666731,
          "durationTicks": 479,
          "midi": 79,
          "name": "G5",
          "ticks": 51600,
          "time": 43,
          "velocity": 0.5039370078740157
        },
        {
          "duration": 0.19916666666666316,
          "durationTicks": 239,
          "midi": 70,
          "name": "A#4",
          "ticks": 52080,
          "time": 43.400000000000006,
          "velocity": 0.5039370078740157
        },
        {
          "duration": 0.19916666666667027,
          "durationTicks": 239,
          "midi": 75,
          "name": "D#5",
          "ticks": 52320,
          "time": 43.6,
          "velocity": 0.5039370078740157
        },
        {
          "duration": 0.399166666666666,
          "durationTicks": 479,
          "midi": 79,
          "name": "G5",
          "ticks": 52560,
          "time": 43.800000000000004,
          "velocity": 0.5039370078740157
        },
        {
          "duration": 0.19916666666667027,
          "durationTicks": 239,
          "midi": 70,
          "name": "A#4",
          "ticks": 53040,
          "time": 44.2,
          "velocity": 0.5039370078740157
        },
        {
          "duration": 0.19916666666666316,
          "durationTicks": 239,
          "midi": 75,
          "name": "D#5",
          "ticks": 53280,
          "time": 44.400000000000006,
          "velocity": 0.5039370078740157
        },
        {
          "duration": 0.399166666666666,
          "durationTicks": 479,
          "midi": 79,
          "name": "G5",
          "ticks": 53520,
          "time": 44.6,
          "velocity": 0.5039370078740157
        },
        {
          "duration": 0.19916666666667027,
          "durationTicks": 239,
          "midi": 70,
          "name": "A#4",
          "ticks": 54000,
          "time": 45,
          "velocity": 0.5039370078740157
        },
        {
          "duration": 0.19916666666667027,
          "durationTicks": 239,
          "midi": 75,
          "name": "D#5",
          "ticks": 54240,
          "time": 45.2,
          "velocity": 0.5039370078740157
        },
        {
          "duration": 0.399166666666666,
          "durationTicks": 479,
          "midi": 79,
          "name": "G5",
          "ticks": 54480,
          "time": 45.400000000000006,
          "velocity": 0.5039370078740157
        },
        {
          "duration": 0.19916666666666316,
          "durationTicks": 239,
          "midi": 70,
          "name": "A#4",
          "ticks": 54960,
          "time": 45.800000000000004,
          "velocity": 0.5039370078740157
        },
        {
          "duration": 0.19916666666667027,
          "durationTicks": 239,
          "midi": 75,
          "name": "D#5",
          "ticks": 55200,
          "time": 46,
          "velocity": 0.5039370078740157
        },
        {
          "duration": 0.19916666666667027,
          "durationTicks": 239,
          "midi": 79,
          "name": "G5",
          "ticks": 55440,
          "time": 46.2,
          "velocity": 0.5039370078740157
        },
        {
          "duration": 0.19916666666666316,
          "durationTicks": 239,
          "midi": 77,
          "name": "F5",
          "ticks": 55680,
          "time": 46.400000000000006,
          "velocity": 0.5039370078740157
        },
        {
          "duration": 0.19916666666667027,
          "durationTicks": 239,
          "midi": 70,
          "name": "A#4",
          "ticks": 55920,
          "time": 46.6,
          "velocity": 0.5039370078740157
        },
        {
          "duration": 0.19916666666666316,
          "durationTicks": 239,
          "midi": 75,
          "name": "D#5",
          "ticks": 56160,
          "time": 46.800000000000004,
          "velocity": 0.5039370078740157
        },
        {
          "duration": 0.3991666666666731,
          "durationTicks": 479,
          "midi": 77,
          "name": "F5",
          "ticks": 56400,
          "time": 47,
          "velocity": 0.5039370078740157
        },
        {
          "duration": 0.19916666666666316,
          "durationTicks": 239,
          "midi": 70,
          "name": "A#4",
          "ticks": 56880,
          "time": 47.400000000000006,
          "velocity": 0.5039370078740157
        },
        {
          "duration": 0.19916666666667027,
          "durationTicks": 239,
          "midi": 75,
          "name": "D#5",
          "ticks": 57120,
          "time": 47.6,
          "velocity": 0.5039370078740157
        },
        {
          "duration": 0.19916666666666316,
          "durationTicks": 239,
          "midi": 82,
          "name": "A#5",
          "ticks": 57360,
          "time": 47.800000000000004,
          "velocity": 0.5039370078740157
        },
        {
          "duration": 0.19916666666667027,
          "durationTicks": 239,
          "midi": 75,
          "name": "D#5",
          "ticks": 57600,
          "time": 48,
          "velocity": 0.5039370078740157
        },
        {
          "duration": 0.19916666666667027,
          "durationTicks": 239,
          "midi": 70,
          "name": "A#4",
          "ticks": 57840,
          "time": 48.2,
          "velocity": 0.5039370078740157
        },
        {
          "duration": 0.19916666666666316,
          "durationTicks": 239,
          "midi": 75,
          "name": "D#5",
          "ticks": 58080,
          "time": 48.400000000000006,
          "velocity": 0.5039370078740157
        },
        {
          "duration": 0.399166666666666,
          "durationTicks": 479,
          "midi": 82,
          "name": "A#5",
          "ticks": 58320,
          "time": 48.6,
          "velocity": 0.5039370078740157
        },
        {
          "duration": 0.19916666666667027,
          "durationTicks": 239,
          "midi": 70,
          "name": "A#4",
          "ticks": 58800,
          "time": 49,
          "velocity": 0.5039370078740157
        },
        {
          "duration": 0.19916666666667027,
          "durationTicks": 239,
          "midi": 75,
          "name": "D#5",
          "ticks": 59040,
          "time": 49.2,
          "velocity": 0.5039370078740157
        },
        {
          "duration": 0.19916666666666316,
          "durationTicks": 239,
          "midi": 82,
          "name": "A#5",
          "ticks": 59280,
          "time": 49.400000000000006,
          "velocity": 0.5039370078740157
        },
        {
          "duration": 0.19916666666667027,
          "durationTicks": 239,
          "midi": 82,
          "name": "A#5",
          "ticks": 59520,
          "time": 49.6,
          "velocity": 0.5039370078740157
        },
        {
          "duration": 0.19916666666666316,
          "durationTicks": 239,
          "midi": 70,
          "name": "A#4",
          "ticks": 59760,
          "time": 49.800000000000004,
          "velocity": 0.5039370078740157
        },
        {
          "duration": 0.19916666666667027,
          "durationTicks": 239,
          "midi": 75,
          "name": "D#5",
          "ticks": 60000,
          "time": 50,
          "velocity": 0.5039370078740157
        },
        {
          "duration": 0.399166666666666,
          "durationTicks": 479,
          "midi": 77,
          "name": "F5",
          "ticks": 60240,
          "time": 50.2,
          "velocity": 0.5039370078740157
        },
        {
          "duration": 0.19916666666667027,
          "durationTicks": 239,
          "midi": 75,
          "name": "D#5",
          "ticks": 60720,
          "time": 50.6,
          "velocity": 0.5039370078740157
        },
        {
          "duration": 0.19916666666666316,
          "durationTicks": 239,
          "midi": 82,
          "name": "A#5",
          "ticks": 60960,
          "time": 50.800000000000004,
          "velocity": 0.5039370078740157
        },
        {
          "duration": 0.19916666666667027,
          "durationTicks": 239,
          "midi": 87,
          "name": "D#6",
          "ticks": 61200,
          "time": 51,
          "velocity": 0.5039370078740157
        },
        {
          "duration": 0.399166666666666,
          "durationTicks": 479,
          "midi": 82,
          "name": "A#5",
          "ticks": 61440,
          "time": 51.2,
          "velocity": 0.5039370078740157
        },
        {
          "duration": 0.5991666666666688,
          "durationTicks": 719,
          "midi": 75,
          "name": "D#5",
          "ticks": 63360,
          "time": 52.800000000000004,
          "velocity": 0.7559055118110236
        },
        {
          "duration": 0.5991666666666688,
          "durationTicks": 719,
          "midi": 70,
          "name": "A#4",
          "ticks": 63360,
          "time": 52.800000000000004,
          "velocity": 0.7559055118110236
        },
        {
          "duration": 0.5991666666666688,
          "durationTicks": 719,
          "midi": 67,
          "name": "G4",
          "ticks": 63360,
          "time": 52.800000000000004,
          "velocity": 0.7559055118110236
        },
        {
          "duration": 0.19916666666666316,
          "durationTicks": 239,
          "midi": 75,
          "name": "D#5",
          "ticks": 64080,
          "time": 53.400000000000006,
          "velocity": 0.7559055118110236
        },
        {
          "duration": 0.19916666666666316,
          "durationTicks": 239,
          "midi": 70,
          "name": "A#4",
          "ticks": 64080,
          "time": 53.400000000000006,
          "velocity": 0.7559055118110236
        },
        {
          "duration": 0.19916666666666316,
          "durationTicks": 239,
          "midi": 67,
          "name": "G4",
          "ticks": 64080,
          "time": 53.400000000000006,
          "velocity": 0.7559055118110236
        },
        {
          "duration": 0.399166666666666,
          "durationTicks": 479,
          "midi": 75,
          "name": "D#5",
          "ticks": 64560,
          "time": 53.800000000000004,
          "velocity": 0.7559055118110236
        },
        {
          "duration": 0.399166666666666,
          "durationTicks": 479,
          "midi": 70,
          "name": "A#4",
          "ticks": 64560,
          "time": 53.800000000000004,
          "velocity": 0.7559055118110236
        },
        {
          "duration": 0.399166666666666,
          "durationTicks": 479,
          "midi": 67,
          "name": "G4",
          "ticks": 64560,
          "time": 53.800000000000004,
          "velocity": 0.7559055118110236
        },
        {
          "duration": 0.399166666666666,
          "durationTicks": 479,
          "midi": 75,
          "name": "D#5",
          "ticks": 65040,
          "time": 54.2,
          "velocity": 0.7559055118110236
        },
        {
          "duration": 0.399166666666666,
          "durationTicks": 479,
          "midi": 70,
          "name": "A#4",
          "ticks": 65040,
          "time": 54.2,
          "velocity": 0.7559055118110236
        },
        {
          "duration": 0.399166666666666,
          "durationTicks": 479,
          "midi": 67,
          "name": "G4",
          "ticks": 65040,
          "time": 54.2,
          "velocity": 0.7559055118110236
        },
        {
          "duration": 0.399166666666666,
          "durationTicks": 479,
          "midi": 75,
          "name": "D#5",
          "ticks": 65520,
          "time": 54.6,
          "velocity": 0.7559055118110236
        },
        {
          "duration": 0.399166666666666,
          "durationTicks": 479,
          "midi": 70,
          "name": "A#4",
          "ticks": 65520,
          "time": 54.6,
          "velocity": 0.7559055118110236
        },
        {
          "duration": 0.399166666666666,
          "durationTicks": 479,
          "midi": 67,
          "name": "G4",
          "ticks": 65520,
          "time": 54.6,
          "velocity": 0.7559055118110236
        },
        {
          "duration": 0.19916666666667027,
          "durationTicks": 239,
          "midi": 75,
          "name": "D#5",
          "ticks": 66000,
          "time": 55,
          "velocity": 0.7559055118110236
        },
        {
          "duration": 0.19916666666667027,
          "durationTicks": 239,
          "midi": 70,
          "name": "A#4",
          "ticks": 66000,
          "time": 55,
          "velocity": 0.7559055118110236
        },
        {
          "duration": 0.19916666666667027,
          "durationTicks": 239,
          "midi": 67,
          "name": "G4",
          "ticks": 66000,
          "time": 55,
          "velocity": 0.7559055118110236
        },
        {
          "duration": 0.399166666666666,
          "durationTicks": 479,
          "midi": 75,
          "name": "D#5",
          "ticks": 66240,
          "time": 55.2,
          "velocity": 0.7559055118110236
        },
        {
          "duration": 0.399166666666666,
          "durationTicks": 479,
          "midi": 70,
          "name": "A#4",
          "ticks": 66240,
          "time": 55.2,
          "velocity": 0.7559055118110236
        },
        {
          "duration": 0.399166666666666,
          "durationTicks": 479,
          "midi": 67,
          "name": "G4",
          "ticks": 66240,
          "time": 55.2,
          "velocity": 0.7559055118110236
        },
        {
          "duration": 0.399166666666666,
          "durationTicks": 479,
          "midi": 74,
          "name": "D5",
          "ticks": 66720,
          "time": 55.6,
          "velocity": 0.7559055118110236
        },
        {
          "duration": 0.399166666666666,
          "durationTicks": 479,
          "midi": 70,
          "name": "A#4",
          "ticks": 66720,
          "time": 55.6,
          "velocity": 0.7559055118110236
        },
        {
          "duration": 0.399166666666666,
          "durationTicks": 479,
          "midi": 65,
          "name": "F4",
          "ticks": 66720,
          "time": 55.6,
          "velocity": 0.7559055118110236
        },
        {
          "duration": 0.5991666666666688,
          "durationTicks": 719,
          "midi": 75,
          "name": "D#5",
          "ticks": 67200,
          "time": 56,
          "velocity": 0.7559055118110236
        },
        {
          "duration": 0.5991666666666688,
          "durationTicks": 719,
          "midi": 70,
          "name": "A#4",
          "ticks": 67200,
          "time": 56,
          "velocity": 0.7559055118110236
        },
        {
          "duration": 0.5991666666666688,
          "durationTicks": 719,
          "midi": 67,
          "name": "G4",
          "ticks": 67200,
          "time": 56,
          "velocity": 0.7559055118110236
        },
        {
          "duration": 0.19916666666667027,
          "durationTicks": 239,
          "midi": 75,
          "name": "D#5",
          "ticks": 67920,
          "time": 56.6,
          "velocity": 0.7559055118110236
        },
        {
          "duration": 0.19916666666667027,
          "durationTicks": 239,
          "midi": 70,
          "name": "A#4",
          "ticks": 67920,
          "time": 56.6,
          "velocity": 0.7559055118110236
        },
        {
          "duration": 0.19916666666667027,
          "durationTicks": 239,
          "midi": 67,
          "name": "G4",
          "ticks": 67920,
          "time": 56.6,
          "velocity": 0.7559055118110236
        },
        {
          "duration": 0.3991666666666731,
          "durationTicks": 479,
          "midi": 75,
          "name": "D#5",
          "ticks": 68400,
          "time": 57,
          "velocity": 0.7559055118110236
        },
        {
          "duration": 0.3991666666666731,
          "durationTicks": 479,
          "midi": 70,
          "name": "A#4",
          "ticks": 68400,
          "time": 57,
          "velocity": 0.7559055118110236
        },
        {
          "duration": 0.3991666666666731,
          "durationTicks": 479,
          "midi": 67,
          "name": "G4",
          "ticks": 68400,
          "time": 57,
          "velocity": 0.7559055118110236
        },
        {
          "duration": 0.399166666666666,
          "durationTicks": 479,
          "midi": 75,
          "name": "D#5",
          "ticks": 68880,
          "time": 57.400000000000006,
          "velocity": 0.7559055118110236
        },
        {
          "duration": 0.399166666666666,
          "durationTicks": 479,
          "midi": 70,
          "name": "A#4",
          "ticks": 68880,
          "time": 57.400000000000006,
          "velocity": 0.7559055118110236
        },
        {
          "duration": 0.399166666666666,
          "durationTicks": 479,
          "midi": 67,
          "name": "G4",
          "ticks": 68880,
          "time": 57.400000000000006,
          "velocity": 0.7559055118110236
        },
        {
          "duration": 0.399166666666666,
          "durationTicks": 479,
          "midi": 75,
          "name": "D#5",
          "ticks": 69360,
          "time": 57.800000000000004,
          "velocity": 0.7559055118110236
        },
        {
          "duration": 0.399166666666666,
          "durationTicks": 479,
          "midi": 70,
          "name": "A#4",
          "ticks": 69360,
          "time": 57.800000000000004,
          "velocity": 0.7559055118110236
        },
        {
          "duration": 0.399166666666666,
          "durationTicks": 479,
          "midi": 67,
          "name": "G4",
          "ticks": 69360,
          "time": 57.800000000000004,
          "velocity": 0.7559055118110236
        },
        {
          "duration": 0.19916666666667027,
          "durationTicks": 239,
          "midi": 75,
          "name": "D#5",
          "ticks": 69840,
          "time": 58.2,
          "velocity": 0.7559055118110236
        },
        {
          "duration": 0.19916666666667027,
          "durationTicks": 239,
          "midi": 70,
          "name": "A#4",
          "ticks": 69840,
          "time": 58.2,
          "velocity": 0.7559055118110236
        },
        {
          "duration": 0.19916666666667027,
          "durationTicks": 239,
          "midi": 67,
          "name": "G4",
          "ticks": 69840,
          "time": 58.2,
          "velocity": 0.7559055118110236
        },
        {
          "duration": 0.399166666666666,
          "durationTicks": 479,
          "midi": 75,
          "name": "D#5",
          "ticks": 70080,
          "time": 58.400000000000006,
          "velocity": 0.7559055118110236
        },
        {
          "duration": 0.399166666666666,
          "durationTicks": 479,
          "midi": 70,
          "name": "A#4",
          "ticks": 70080,
          "time": 58.400000000000006,
          "velocity": 0.7559055118110236
        },
        {
          "duration": 0.399166666666666,
          "durationTicks": 479,
          "midi": 67,
          "name": "G4",
          "ticks": 70080,
          "time": 58.400000000000006,
          "velocity": 0.7559055118110236
        },
        {
          "duration": 0.399166666666666,
          "durationTicks": 479,
          "midi": 74,
          "name": "D5",
          "ticks": 70560,
          "time": 58.800000000000004,
          "velocity": 0.7559055118110236
        },
        {
          "duration": 0.399166666666666,
          "durationTicks": 479,
          "midi": 70,
          "name": "A#4",
          "ticks": 70560,
          "time": 58.800000000000004,
          "velocity": 0.7559055118110236
        },
        {
          "duration": 0.399166666666666,
          "durationTicks": 479,
          "midi": 65,
          "name": "F4",
          "ticks": 70560,
          "time": 58.800000000000004,
          "velocity": 0.7559055118110236
        },
        {
          "duration": 0.5991666666666688,
          "durationTicks": 719,
          "midi": 75,
          "name": "D#5",
          "ticks": 71040,
          "time": 59.2,
          "velocity": 0.7559055118110236
        },
        {
          "duration": 0.5991666666666688,
          "durationTicks": 719,
          "midi": 70,
          "name": "A#4",
          "ticks": 71040,
          "time": 59.2,
          "velocity": 0.7559055118110236
        },
        {
          "duration": 0.5991666666666688,
          "durationTicks": 719,
          "midi": 67,
          "name": "G4",
          "ticks": 71040,
          "time": 59.2,
          "velocity": 0.7559055118110236
        },
        {
          "duration": 0.19916666666666316,
          "durationTicks": 239,
          "midi": 75,
          "name": "D#5",
          "ticks": 71760,
          "time": 59.800000000000004,
          "velocity": 0.7559055118110236
        },
        {
          "duration": 0.19916666666666316,
          "durationTicks": 239,
          "midi": 70,
          "name": "A#4",
          "ticks": 71760,
          "time": 59.800000000000004,
          "velocity": 0.7559055118110236
        },
        {
          "duration": 0.19916666666666316,
          "durationTicks": 239,
          "midi": 67,
          "name": "G4",
          "ticks": 71760,
          "time": 59.800000000000004,
          "velocity": 0.7559055118110236
        },
        {
          "duration": 0.399166666666666,
          "durationTicks": 479,
          "midi": 75,
          "name": "D#5",
          "ticks": 72240,
          "time": 60.2,
          "velocity": 0.7559055118110236
        },
        {
          "duration": 0.399166666666666,
          "durationTicks": 479,
          "midi": 70,
          "name": "A#4",
          "ticks": 72240,
          "time": 60.2,
          "velocity": 0.7559055118110236
        },
        {
          "duration": 0.399166666666666,
          "durationTicks": 479,
          "midi": 67,
          "name": "G4",
          "ticks": 72240,
          "time": 60.2,
          "velocity": 0.7559055118110236
        },
        {
          "duration": 0.399166666666666,
          "durationTicks": 479,
          "midi": 75,
          "name": "D#5",
          "ticks": 72720,
          "time": 60.6,
          "velocity": 0.7559055118110236
        },
        {
          "duration": 0.399166666666666,
          "durationTicks": 479,
          "midi": 70,
          "name": "A#4",
          "ticks": 72720,
          "time": 60.6,
          "velocity": 0.7559055118110236
        },
        {
          "duration": 0.399166666666666,
          "durationTicks": 479,
          "midi": 67,
          "name": "G4",
          "ticks": 72720,
          "time": 60.6,
          "velocity": 0.7559055118110236
        },
        {
          "duration": 0.3991666666666731,
          "durationTicks": 479,
          "midi": 75,
          "name": "D#5",
          "ticks": 73200,
          "time": 61,
          "velocity": 0.7559055118110236
        },
        {
          "duration": 0.3991666666666731,
          "durationTicks": 479,
          "midi": 70,
          "name": "A#4",
          "ticks": 73200,
          "time": 61,
          "velocity": 0.7559055118110236
        },
        {
          "duration": 0.3991666666666731,
          "durationTicks": 479,
          "midi": 67,
          "name": "G4",
          "ticks": 73200,
          "time": 61,
          "velocity": 0.7559055118110236
        },
        {
          "duration": 0.19916666666666316,
          "durationTicks": 239,
          "midi": 75,
          "name": "D#5",
          "ticks": 73680,
          "time": 61.400000000000006,
          "velocity": 0.7559055118110236
        },
        {
          "duration": 0.19916666666666316,
          "durationTicks": 239,
          "midi": 70,
          "name": "A#4",
          "ticks": 73680,
          "time": 61.400000000000006,
          "velocity": 0.7559055118110236
        },
        {
          "duration": 0.19916666666666316,
          "durationTicks": 239,
          "midi": 67,
          "name": "G4",
          "ticks": 73680,
          "time": 61.400000000000006,
          "velocity": 0.7559055118110236
        },
        {
          "duration": 0.399166666666666,
          "durationTicks": 479,
          "midi": 75,
          "name": "D#5",
          "ticks": 73920,
          "time": 61.6,
          "velocity": 0.7559055118110236
        },
        {
          "duration": 0.399166666666666,
          "durationTicks": 479,
          "midi": 70,
          "name": "A#4",
          "ticks": 73920,
          "time": 61.6,
          "velocity": 0.7559055118110236
        },
        {
          "duration": 0.399166666666666,
          "durationTicks": 479,
          "midi": 67,
          "name": "G4",
          "ticks": 73920,
          "time": 61.6,
          "velocity": 0.7559055118110236
        },
        {
          "duration": 0.3991666666666731,
          "durationTicks": 479,
          "midi": 74,
          "name": "D5",
          "ticks": 74400,
          "time": 62,
          "velocity": 0.7559055118110236
        },
        {
          "duration": 0.3991666666666731,
          "durationTicks": 479,
          "midi": 70,
          "name": "A#4",
          "ticks": 74400,
          "time": 62,
          "velocity": 0.7559055118110236
        },
        {
          "duration": 0.3991666666666731,
          "durationTicks": 479,
          "midi": 65,
          "name": "F4",
          "ticks": 74400,
          "time": 62,
          "velocity": 0.7559055118110236
        },
        {
          "duration": 0.5991666666666617,
          "durationTicks": 719,
          "midi": 75,
          "name": "D#5",
          "ticks": 74880,
          "time": 62.400000000000006,
          "velocity": 0.7559055118110236
        },
        {
          "duration": 0.5991666666666617,
          "durationTicks": 719,
          "midi": 70,
          "name": "A#4",
          "ticks": 74880,
          "time": 62.400000000000006,
          "velocity": 0.7559055118110236
        },
        {
          "duration": 0.5991666666666617,
          "durationTicks": 719,
          "midi": 67,
          "name": "G4",
          "ticks": 74880,
          "time": 62.400000000000006,
          "velocity": 0.7559055118110236
        },
        {
          "duration": 0.19916666666667027,
          "durationTicks": 239,
          "midi": 75,
          "name": "D#5",
          "ticks": 75600,
          "time": 63,
          "velocity": 0.7559055118110236
        },
        {
          "duration": 0.19916666666667027,
          "durationTicks": 239,
          "midi": 70,
          "name": "A#4",
          "ticks": 75600,
          "time": 63,
          "velocity": 0.7559055118110236
        },
        {
          "duration": 0.19916666666667027,
          "durationTicks": 239,
          "midi": 67,
          "name": "G4",
          "ticks": 75600,
          "time": 63,
          "velocity": 0.7559055118110236
        },
        {
          "duration": 0.399166666666666,
          "durationTicks": 479,
          "midi": 75,
          "name": "D#5",
          "ticks": 76080,
          "time": 63.400000000000006,
          "velocity": 0.7559055118110236
        },
        {
          "duration": 0.399166666666666,
          "durationTicks": 479,
          "midi": 70,
          "name": "A#4",
          "ticks": 76080,
          "time": 63.400000000000006,
          "velocity": 0.7559055118110236
        },
        {
          "duration": 0.399166666666666,
          "durationTicks": 479,
          "midi": 67,
          "name": "G4",
          "ticks": 76080,
          "time": 63.400000000000006,
          "velocity": 0.7559055118110236
        },
        {
          "duration": 0.19916666666666316,
          "durationTicks": 239,
          "midi": 75,
          "name": "D#5",
          "ticks": 76560,
          "time": 63.800000000000004,
          "velocity": 0.7559055118110236
        },
        {
          "duration": 0.19916666666666316,
          "durationTicks": 239,
          "midi": 70,
          "name": "A#4",
          "ticks": 76560,
          "time": 63.800000000000004,
          "velocity": 0.7559055118110236
        },
        {
          "duration": 0.19916666666666316,
          "durationTicks": 239,
          "midi": 67,
          "name": "G4",
          "ticks": 76560,
          "time": 63.800000000000004,
          "velocity": 0.7559055118110236
        },
        {
          "duration": 0.19916666666667027,
          "durationTicks": 239,
          "midi": 70,
          "name": "A#4",
          "ticks": 77040,
          "time": 64.2,
          "velocity": 0.7559055118110236
        },
        {
          "duration": 0.19916666666667027,
          "durationTicks": 239,
          "midi": 65,
          "name": "F4",
          "ticks": 77040,
          "time": 64.2,
          "velocity": 0.7559055118110236
        },
        {
          "duration": 0.19916666666667027,
          "durationTicks": 239,
          "midi": 63,
          "name": "D#4",
          "ticks": 77040,
          "time": 64.2,
          "velocity": 0.7559055118110236
        },
        {
          "duration": 0.19916666666667027,
          "durationTicks": 239,
          "midi": 70,
          "name": "A#4",
          "ticks": 77280,
          "time": 64.4,
          "velocity": 0.7559055118110236
        },
        {
          "duration": 0.19916666666667027,
          "durationTicks": 239,
          "midi": 65,
          "name": "F4",
          "ticks": 77280,
          "time": 64.4,
          "velocity": 0.7559055118110236
        },
        {
          "duration": 0.19916666666667027,
          "durationTicks": 239,
          "midi": 63,
          "name": "D#4",
          "ticks": 77280,
          "time": 64.4,
          "velocity": 0.7559055118110236
        },
        {
          "duration": 0.19916666666665606,
          "durationTicks": 239,
          "midi": 70,
          "name": "A#4",
          "ticks": 77520,
          "time": 64.60000000000001,
          "velocity": 0.7559055118110236
        },
        {
          "duration": 0.19916666666665606,
          "durationTicks": 239,
          "midi": 65,
          "name": "F4",
          "ticks": 77520,
          "time": 64.60000000000001,
          "velocity": 0.7559055118110236
        },
        {
          "duration": 0.19916666666665606,
          "durationTicks": 239,
          "midi": 63,
          "name": "D#4",
          "ticks": 77520,
          "time": 64.60000000000001,
          "velocity": 0.7559055118110236
        },
        {
          "duration": 0.19916666666667027,
          "durationTicks": 239,
          "midi": 70,
          "name": "A#4",
          "ticks": 77760,
          "time": 64.8,
          "velocity": 0.7559055118110236
        },
        {
          "duration": 0.19916666666667027,
          "durationTicks": 239,
          "midi": 65,
          "name": "F4",
          "ticks": 77760,
          "time": 64.8,
          "velocity": 0.7559055118110236
        },
        {
          "duration": 0.19916666666667027,
          "durationTicks": 239,
          "midi": 63,
          "name": "D#4",
          "ticks": 77760,
          "time": 64.8,
          "velocity": 0.7559055118110236
        },
        {
          "duration": 0.19916666666667027,
          "durationTicks": 239,
          "midi": 70,
          "name": "A#4",
          "ticks": 78000,
          "time": 65,
          "velocity": 0.7559055118110236
        },
        {
          "duration": 0.19916666666667027,
          "durationTicks": 239,
          "midi": 65,
          "name": "F4",
          "ticks": 78000,
          "time": 65,
          "velocity": 0.7559055118110236
        },
        {
          "duration": 0.19916666666667027,
          "durationTicks": 239,
          "midi": 63,
          "name": "D#4",
          "ticks": 78000,
          "time": 65,
          "velocity": 0.7559055118110236
        },
        {
          "duration": 0.5991666666666617,
          "durationTicks": 719,
          "midi": 75,
          "name": "D#5",
          "ticks": 78720,
          "time": 65.60000000000001,
          "velocity": 0.7559055118110236
        },
        {
          "duration": 0.5991666666666617,
          "durationTicks": 719,
          "midi": 70,
          "name": "A#4",
          "ticks": 78720,
          "time": 65.60000000000001,
          "velocity": 0.7559055118110236
        },
        {
          "duration": 0.5991666666666617,
          "durationTicks": 719,
          "midi": 67,
          "name": "G4",
          "ticks": 78720,
          "time": 65.60000000000001,
          "velocity": 0.7559055118110236
        },
        {
          "duration": 0.19916666666667027,
          "durationTicks": 239,
          "midi": 75,
          "name": "D#5",
          "ticks": 79440,
          "time": 66.2,
          "velocity": 0.7559055118110236
        },
        {
          "duration": 0.19916666666667027,
          "durationTicks": 239,
          "midi": 70,
          "name": "A#4",
          "ticks": 79440,
          "time": 66.2,
          "velocity": 0.7559055118110236
        },
        {
          "duration": 0.19916666666667027,
          "durationTicks": 239,
          "midi": 67,
          "name": "G4",
          "ticks": 79440,
          "time": 66.2,
          "velocity": 0.7559055118110236
        },
        {
          "duration": 0.3991666666666589,
          "durationTicks": 479,
          "midi": 75,
          "name": "D#5",
          "ticks": 79920,
          "time": 66.60000000000001,
          "velocity": 0.7559055118110236
        },
        {
          "duration": 0.3991666666666589,
          "durationTicks": 479,
          "midi": 70,
          "name": "A#4",
          "ticks": 79920,
          "time": 66.60000000000001,
          "velocity": 0.7559055118110236
        },
        {
          "duration": 0.3991666666666589,
          "durationTicks": 479,
          "midi": 67,
          "name": "G4",
          "ticks": 79920,
          "time": 66.60000000000001,
          "velocity": 0.7559055118110236
        },
        {
          "duration": 0.3991666666666731,
          "durationTicks": 479,
          "midi": 75,
          "name": "D#5",
          "ticks": 80400,
          "time": 67,
          "velocity": 0.7559055118110236
        },
        {
          "duration": 0.3991666666666731,
          "durationTicks": 479,
          "midi": 70,
          "name": "A#4",
          "ticks": 80400,
          "time": 67,
          "velocity": 0.7559055118110236
        },
        {
          "duration": 0.3991666666666731,
          "durationTicks": 479,
          "midi": 67,
          "name": "G4",
          "ticks": 80400,
          "time": 67,
          "velocity": 0.7559055118110236
        },
        {
          "duration": 0.3991666666666589,
          "durationTicks": 479,
          "midi": 75,
          "name": "D#5",
          "ticks": 80880,
          "time": 67.4,
          "velocity": 0.7559055118110236
        },
        {
          "duration": 0.3991666666666589,
          "durationTicks": 479,
          "midi": 70,
          "name": "A#4",
          "ticks": 80880,
          "time": 67.4,
          "velocity": 0.7559055118110236
        },
        {
          "duration": 0.3991666666666589,
          "durationTicks": 479,
          "midi": 67,
          "name": "G4",
          "ticks": 80880,
          "time": 67.4,
          "velocity": 0.7559055118110236
        },
        {
          "duration": 0.19916666666667027,
          "durationTicks": 239,
          "midi": 75,
          "name": "D#5",
          "ticks": 81360,
          "time": 67.8,
          "velocity": 0.7559055118110236
        },
        {
          "duration": 0.19916666666667027,
          "durationTicks": 239,
          "midi": 70,
          "name": "A#4",
          "ticks": 81360,
          "time": 67.8,
          "velocity": 0.7559055118110236
        },
        {
          "duration": 0.19916666666667027,
          "durationTicks": 239,
          "midi": 67,
          "name": "G4",
          "ticks": 81360,
          "time": 67.8,
          "velocity": 0.7559055118110236
        },
        {
          "duration": 0.3991666666666731,
          "durationTicks": 479,
          "midi": 75,
          "name": "D#5",
          "ticks": 81600,
          "time": 68,
          "velocity": 0.7559055118110236
        },
        {
          "duration": 0.3991666666666731,
          "durationTicks": 479,
          "midi": 70,
          "name": "A#4",
          "ticks": 81600,
          "time": 68,
          "velocity": 0.7559055118110236
        },
        {
          "duration": 0.3991666666666731,
          "durationTicks": 479,
          "midi": 67,
          "name": "G4",
          "ticks": 81600,
          "time": 68,
          "velocity": 0.7559055118110236
        },
        {
          "duration": 0.3991666666666589,
          "durationTicks": 479,
          "midi": 74,
          "name": "D5",
          "ticks": 82080,
          "time": 68.4,
          "velocity": 0.7559055118110236
        },
        {
          "duration": 0.3991666666666589,
          "durationTicks": 479,
          "midi": 70,
          "name": "A#4",
          "ticks": 82080,
          "time": 68.4,
          "velocity": 0.7559055118110236
        },
        {
          "duration": 0.3991666666666589,
          "durationTicks": 479,
          "midi": 65,
          "name": "F4",
          "ticks": 82080,
          "time": 68.4,
          "velocity": 0.7559055118110236
        },
        {
          "duration": 0.599166666666676,
          "durationTicks": 719,
          "midi": 75,
          "name": "D#5",
          "ticks": 82560,
          "time": 68.8,
          "velocity": 0.7559055118110236
        },
        {
          "duration": 0.599166666666676,
          "durationTicks": 719,
          "midi": 70,
          "name": "A#4",
          "ticks": 82560,
          "time": 68.8,
          "velocity": 0.7559055118110236
        },
        {
          "duration": 0.599166666666676,
          "durationTicks": 719,
          "midi": 67,
          "name": "G4",
          "ticks": 82560,
          "time": 68.8,
          "velocity": 0.7559055118110236
        },
        {
          "duration": 0.19916666666667027,
          "durationTicks": 239,
          "midi": 75,
          "name": "D#5",
          "ticks": 83280,
          "time": 69.4,
          "velocity": 0.7559055118110236
        },
        {
          "duration": 0.19916666666667027,
          "durationTicks": 239,
          "midi": 70,
          "name": "A#4",
          "ticks": 83280,
          "time": 69.4,
          "velocity": 0.7559055118110236
        },
        {
          "duration": 0.19916666666667027,
          "durationTicks": 239,
          "midi": 67,
          "name": "G4",
          "ticks": 83280,
          "time": 69.4,
          "velocity": 0.7559055118110236
        },
        {
          "duration": 0.3991666666666731,
          "durationTicks": 479,
          "midi": 75,
          "name": "D#5",
          "ticks": 83760,
          "time": 69.8,
          "velocity": 0.7559055118110236
        },
        {
          "duration": 0.3991666666666731,
          "durationTicks": 479,
          "midi": 70,
          "name": "A#4",
          "ticks": 83760,
          "time": 69.8,
          "velocity": 0.7559055118110236
        },
        {
          "duration": 0.3991666666666731,
          "durationTicks": 479,
          "midi": 67,
          "name": "G4",
          "ticks": 83760,
          "time": 69.8,
          "velocity": 0.7559055118110236
        },
        {
          "duration": 0.3991666666666731,
          "durationTicks": 479,
          "midi": 75,
          "name": "D#5",
          "ticks": 84240,
          "time": 70.2,
          "velocity": 0.7559055118110236
        },
        {
          "duration": 0.3991666666666731,
          "durationTicks": 479,
          "midi": 70,
          "name": "A#4",
          "ticks": 84240,
          "time": 70.2,
          "velocity": 0.7559055118110236
        },
        {
          "duration": 0.3991666666666731,
          "durationTicks": 479,
          "midi": 67,
          "name": "G4",
          "ticks": 84240,
          "time": 70.2,
          "velocity": 0.7559055118110236
        },
        {
          "duration": 0.3991666666666589,
          "durationTicks": 479,
          "midi": 75,
          "name": "D#5",
          "ticks": 84720,
          "time": 70.60000000000001,
          "velocity": 0.7559055118110236
        },
        {
          "duration": 0.3991666666666589,
          "durationTicks": 479,
          "midi": 70,
          "name": "A#4",
          "ticks": 84720,
          "time": 70.60000000000001,
          "velocity": 0.7559055118110236
        },
        {
          "duration": 0.3991666666666589,
          "durationTicks": 479,
          "midi": 67,
          "name": "G4",
          "ticks": 84720,
          "time": 70.60000000000001,
          "velocity": 0.7559055118110236
        },
        {
          "duration": 0.19916666666667027,
          "durationTicks": 239,
          "midi": 75,
          "name": "D#5",
          "ticks": 85200,
          "time": 71,
          "velocity": 0.7559055118110236
        },
        {
          "duration": 0.19916666666667027,
          "durationTicks": 239,
          "midi": 70,
          "name": "A#4",
          "ticks": 85200,
          "time": 71,
          "velocity": 0.7559055118110236
        },
        {
          "duration": 0.19916666666667027,
          "durationTicks": 239,
          "midi": 67,
          "name": "G4",
          "ticks": 85200,
          "time": 71,
          "velocity": 0.7559055118110236
        },
        {
          "duration": 0.3991666666666731,
          "durationTicks": 479,
          "midi": 75,
          "name": "D#5",
          "ticks": 85440,
          "time": 71.2,
          "velocity": 0.7559055118110236
        },
        {
          "duration": 0.3991666666666731,
          "durationTicks": 479,
          "midi": 70,
          "name": "A#4",
          "ticks": 85440,
          "time": 71.2,
          "velocity": 0.7559055118110236
        },
        {
          "duration": 0.3991666666666731,
          "durationTicks": 479,
          "midi": 67,
          "name": "G4",
          "ticks": 85440,
          "time": 71.2,
          "velocity": 0.7559055118110236
        },
        {
          "duration": 0.3991666666666589,
          "durationTicks": 479,
          "midi": 74,
          "name": "D5",
          "ticks": 85920,
          "time": 71.60000000000001,
          "velocity": 0.7559055118110236
        },
        {
          "duration": 0.3991666666666589,
          "durationTicks": 479,
          "midi": 70,
          "name": "A#4",
          "ticks": 85920,
          "time": 71.60000000000001,
          "velocity": 0.7559055118110236
        },
        {
          "duration": 0.3991666666666589,
          "durationTicks": 479,
          "midi": 65,
          "name": "F4",
          "ticks": 85920,
          "time": 71.60000000000001,
          "velocity": 0.7559055118110236
        },
        {
          "duration": 0.599166666666676,
          "durationTicks": 719,
          "midi": 75,
          "name": "D#5",
          "ticks": 86400,
          "time": 72,
          "velocity": 0.7559055118110236
        },
        {
          "duration": 0.599166666666676,
          "durationTicks": 719,
          "midi": 70,
          "name": "A#4",
          "ticks": 86400,
          "time": 72,
          "velocity": 0.7559055118110236
        },
        {
          "duration": 0.599166666666676,
          "durationTicks": 719,
          "midi": 67,
          "name": "G4",
          "ticks": 86400,
          "time": 72,
          "velocity": 0.7559055118110236
        },
        {
          "duration": 0.19916666666665606,
          "durationTicks": 239,
          "midi": 75,
          "name": "D#5",
          "ticks": 87120,
          "time": 72.60000000000001,
          "velocity": 0.7559055118110236
        },
        {
          "duration": 0.19916666666665606,
          "durationTicks": 239,
          "midi": 70,
          "name": "A#4",
          "ticks": 87120,
          "time": 72.60000000000001,
          "velocity": 0.7559055118110236
        },
        {
          "duration": 0.19916666666665606,
          "durationTicks": 239,
          "midi": 67,
          "name": "G4",
          "ticks": 87120,
          "time": 72.60000000000001,
          "velocity": 0.7559055118110236
        },
        {
          "duration": 0.3991666666666731,
          "durationTicks": 479,
          "midi": 75,
          "name": "D#5",
          "ticks": 87600,
          "time": 73,
          "velocity": 0.7559055118110236
        },
        {
          "duration": 0.3991666666666731,
          "durationTicks": 479,
          "midi": 70,
          "name": "A#4",
          "ticks": 87600,
          "time": 73,
          "velocity": 0.7559055118110236
        },
        {
          "duration": 0.3991666666666731,
          "durationTicks": 479,
          "midi": 67,
          "name": "G4",
          "ticks": 87600,
          "time": 73,
          "velocity": 0.7559055118110236
        },
        {
          "duration": 0.3991666666666589,
          "durationTicks": 479,
          "midi": 75,
          "name": "D#5",
          "ticks": 88080,
          "time": 73.4,
          "velocity": 0.7559055118110236
        },
        {
          "duration": 0.3991666666666589,
          "durationTicks": 479,
          "midi": 70,
          "name": "A#4",
          "ticks": 88080,
          "time": 73.4,
          "velocity": 0.7559055118110236
        },
        {
          "duration": 0.3991666666666589,
          "durationTicks": 479,
          "midi": 67,
          "name": "G4",
          "ticks": 88080,
          "time": 73.4,
          "velocity": 0.7559055118110236
        },
        {
          "duration": 0.3991666666666731,
          "durationTicks": 479,
          "midi": 75,
          "name": "D#5",
          "ticks": 88560,
          "time": 73.8,
          "velocity": 0.7559055118110236
        },
        {
          "duration": 0.3991666666666731,
          "durationTicks": 479,
          "midi": 70,
          "name": "A#4",
          "ticks": 88560,
          "time": 73.8,
          "velocity": 0.7559055118110236
        },
        {
          "duration": 0.3991666666666731,
          "durationTicks": 479,
          "midi": 67,
          "name": "G4",
          "ticks": 88560,
          "time": 73.8,
          "velocity": 0.7559055118110236
        },
        {
          "duration": 0.19916666666667027,
          "durationTicks": 239,
          "midi": 75,
          "name": "D#5",
          "ticks": 89040,
          "time": 74.2,
          "velocity": 0.7559055118110236
        },
        {
          "duration": 0.19916666666667027,
          "durationTicks": 239,
          "midi": 70,
          "name": "A#4",
          "ticks": 89040,
          "time": 74.2,
          "velocity": 0.7559055118110236
        },
        {
          "duration": 0.19916666666667027,
          "durationTicks": 239,
          "midi": 67,
          "name": "G4",
          "ticks": 89040,
          "time": 74.2,
          "velocity": 0.7559055118110236
        },
        {
          "duration": 0.3991666666666589,
          "durationTicks": 479,
          "midi": 75,
          "name": "D#5",
          "ticks": 89280,
          "time": 74.4,
          "velocity": 0.7559055118110236
        },
        {
          "duration": 0.3991666666666589,
          "durationTicks": 479,
          "midi": 70,
          "name": "A#4",
          "ticks": 89280,
          "time": 74.4,
          "velocity": 0.7559055118110236
        },
        {
          "duration": 0.3991666666666589,
          "durationTicks": 479,
          "midi": 67,
          "name": "G4",
          "ticks": 89280,
          "time": 74.4,
          "velocity": 0.7559055118110236
        },
        {
          "duration": 0.3991666666666731,
          "durationTicks": 479,
          "midi": 74,
          "name": "D5",
          "ticks": 89760,
          "time": 74.8,
          "velocity": 0.7559055118110236
        },
        {
          "duration": 0.3991666666666731,
          "durationTicks": 479,
          "midi": 70,
          "name": "A#4",
          "ticks": 89760,
          "time": 74.8,
          "velocity": 0.7559055118110236
        },
        {
          "duration": 0.3991666666666731,
          "durationTicks": 479,
          "midi": 65,
          "name": "F4",
          "ticks": 89760,
          "time": 74.8,
          "velocity": 0.7559055118110236
        },
        {
          "duration": 0.5991666666666617,
          "durationTicks": 719,
          "midi": 75,
          "name": "D#5",
          "ticks": 90240,
          "time": 75.2,
          "velocity": 0.7559055118110236
        },
        {
          "duration": 0.5991666666666617,
          "durationTicks": 719,
          "midi": 70,
          "name": "A#4",
          "ticks": 90240,
          "time": 75.2,
          "velocity": 0.7559055118110236
        },
        {
          "duration": 0.5991666666666617,
          "durationTicks": 719,
          "midi": 67,
          "name": "G4",
          "ticks": 90240,
          "time": 75.2,
          "velocity": 0.7559055118110236
        },
        {
          "duration": 0.19916666666667027,
          "durationTicks": 239,
          "midi": 75,
          "name": "D#5",
          "ticks": 90960,
          "time": 75.8,
          "velocity": 0.7559055118110236
        },
        {
          "duration": 0.19916666666667027,
          "durationTicks": 239,
          "midi": 70,
          "name": "A#4",
          "ticks": 90960,
          "time": 75.8,
          "velocity": 0.7559055118110236
        },
        {
          "duration": 0.19916666666667027,
          "durationTicks": 239,
          "midi": 67,
          "name": "G4",
          "ticks": 90960,
          "time": 75.8,
          "velocity": 0.7559055118110236
        },
        {
          "duration": 0.3991666666666731,
          "durationTicks": 479,
          "midi": 75,
          "name": "D#5",
          "ticks": 91440,
          "time": 76.2,
          "velocity": 0.7559055118110236
        },
        {
          "duration": 0.3991666666666731,
          "durationTicks": 479,
          "midi": 70,
          "name": "A#4",
          "ticks": 91440,
          "time": 76.2,
          "velocity": 0.7559055118110236
        },
        {
          "duration": 0.3991666666666731,
          "durationTicks": 479,
          "midi": 67,
          "name": "G4",
          "ticks": 91440,
          "time": 76.2,
          "velocity": 0.7559055118110236
        },
        {
          "duration": 0.19916666666665606,
          "durationTicks": 239,
          "midi": 75,
          "name": "D#5",
          "ticks": 91920,
          "time": 76.60000000000001,
          "velocity": 0.7559055118110236
        },
        {
          "duration": 0.19916666666665606,
          "durationTicks": 239,
          "midi": 70,
          "name": "A#4",
          "ticks": 91920,
          "time": 76.60000000000001,
          "velocity": 0.7559055118110236
        },
        {
          "duration": 0.19916666666665606,
          "durationTicks": 239,
          "midi": 67,
          "name": "G4",
          "ticks": 91920,
          "time": 76.60000000000001,
          "velocity": 0.7559055118110236
        },
        {
          "duration": 0.19916666666667027,
          "durationTicks": 239,
          "midi": 70,
          "name": "A#4",
          "ticks": 92400,
          "time": 77,
          "velocity": 0.7559055118110236
        },
        {
          "duration": 0.19916666666667027,
          "durationTicks": 239,
          "midi": 65,
          "name": "F4",
          "ticks": 92400,
          "time": 77,
          "velocity": 0.7559055118110236
        },
        {
          "duration": 0.19916666666667027,
          "durationTicks": 239,
          "midi": 63,
          "name": "D#4",
          "ticks": 92400,
          "time": 77,
          "velocity": 0.7559055118110236
        },
        {
          "duration": 0.19916666666667027,
          "durationTicks": 239,
          "midi": 70,
          "name": "A#4",
          "ticks": 92640,
          "time": 77.2,
          "velocity": 0.7559055118110236
        },
        {
          "duration": 0.19916666666667027,
          "durationTicks": 239,
          "midi": 65,
          "name": "F4",
          "ticks": 92640,
          "time": 77.2,
          "velocity": 0.7559055118110236
        },
        {
          "duration": 0.19916666666667027,
          "durationTicks": 239,
          "midi": 63,
          "name": "D#4",
          "ticks": 92640,
          "time": 77.2,
          "velocity": 0.7559055118110236
        },
        {
          "duration": 0.19916666666667027,
          "durationTicks": 239,
          "midi": 70,
          "name": "A#4",
          "ticks": 92880,
          "time": 77.4,
          "velocity": 0.7559055118110236
        },
        {
          "duration": 0.19916666666667027,
          "durationTicks": 239,
          "midi": 65,
          "name": "F4",
          "ticks": 92880,
          "time": 77.4,
          "velocity": 0.7559055118110236
        },
        {
          "duration": 0.19916666666667027,
          "durationTicks": 239,
          "midi": 63,
          "name": "D#4",
          "ticks": 92880,
          "time": 77.4,
          "velocity": 0.7559055118110236
        },
        {
          "duration": 0.19916666666667027,
          "durationTicks": 239,
          "midi": 70,
          "name": "A#4",
          "ticks": 93120,
          "time": 77.60000000000001,
          "velocity": 0.7559055118110236
        },
        {
          "duration": 0.19916666666667027,
          "durationTicks": 239,
          "midi": 65,
          "name": "F4",
          "ticks": 93120,
          "time": 77.60000000000001,
          "velocity": 0.7559055118110236
        },
        {
          "duration": 0.19916666666667027,
          "durationTicks": 239,
          "midi": 63,
          "name": "D#4",
          "ticks": 93120,
          "time": 77.60000000000001,
          "velocity": 0.7559055118110236
        },
        {
          "duration": 0.19916666666665606,
          "durationTicks": 239,
          "midi": 70,
          "name": "A#4",
          "ticks": 93360,
          "time": 77.80000000000001,
          "velocity": 0.7559055118110236
        },
        {
          "duration": 0.19916666666665606,
          "durationTicks": 239,
          "midi": 65,
          "name": "F4",
          "ticks": 93360,
          "time": 77.80000000000001,
          "velocity": 0.7559055118110236
        },
        {
          "duration": 0.19916666666665606,
          "durationTicks": 239,
          "midi": 63,
          "name": "D#4",
          "ticks": 93360,
          "time": 77.80000000000001,
          "velocity": 0.7559055118110236
        },
        {
          "duration": 0.5991666666666617,
          "durationTicks": 719,
          "midi": 75,
          "name": "D#5",
          "ticks": 94080,
          "time": 78.4,
          "velocity": 0.7559055118110236
        },
        {
          "duration": 0.5991666666666617,
          "durationTicks": 719,
          "midi": 70,
          "name": "A#4",
          "ticks": 94080,
          "time": 78.4,
          "velocity": 0.7559055118110236
        },
        {
          "duration": 0.5991666666666617,
          "durationTicks": 719,
          "midi": 67,
          "name": "G4",
          "ticks": 94080,
          "time": 78.4,
          "velocity": 0.7559055118110236
        },
        {
          "duration": 0.19916666666667027,
          "durationTicks": 239,
          "midi": 75,
          "name": "D#5",
          "ticks": 94800,
          "time": 79,
          "velocity": 0.7559055118110236
        },
        {
          "duration": 0.19916666666667027,
          "durationTicks": 239,
          "midi": 70,
          "name": "A#4",
          "ticks": 94800,
          "time": 79,
          "velocity": 0.7559055118110236
        },
        {
          "duration": 0.19916666666667027,
          "durationTicks": 239,
          "midi": 67,
          "name": "G4",
          "ticks": 94800,
          "time": 79,
          "velocity": 0.7559055118110236
        },
        {
          "duration": 0.3991666666666731,
          "durationTicks": 479,
          "midi": 75,
          "name": "D#5",
          "ticks": 95280,
          "time": 79.4,
          "velocity": 0.7559055118110236
        },
        {
          "duration": 0.3991666666666731,
          "durationTicks": 479,
          "midi": 70,
          "name": "A#4",
          "ticks": 95280,
          "time": 79.4,
          "velocity": 0.7559055118110236
        },
        {
          "duration": 0.3991666666666731,
          "durationTicks": 479,
          "midi": 67,
          "name": "G4",
          "ticks": 95280,
          "time": 79.4,
          "velocity": 0.7559055118110236
        },
        {
          "duration": 0.3991666666666589,
          "durationTicks": 479,
          "midi": 75,
          "name": "D#5",
          "ticks": 95760,
          "time": 79.80000000000001,
          "velocity": 0.7559055118110236
        },
        {
          "duration": 0.3991666666666589,
          "durationTicks": 479,
          "midi": 70,
          "name": "A#4",
          "ticks": 95760,
          "time": 79.80000000000001,
          "velocity": 0.7559055118110236
        },
        {
          "duration": 0.3991666666666589,
          "durationTicks": 479,
          "midi": 67,
          "name": "G4",
          "ticks": 95760,
          "time": 79.80000000000001,
          "velocity": 0.7559055118110236
        },
        {
          "duration": 0.3991666666666731,
          "durationTicks": 479,
          "midi": 75,
          "name": "D#5",
          "ticks": 96240,
          "time": 80.2,
          "velocity": 0.7559055118110236
        },
        {
          "duration": 0.3991666666666731,
          "durationTicks": 479,
          "midi": 70,
          "name": "A#4",
          "ticks": 96240,
          "time": 80.2,
          "velocity": 0.7559055118110236
        },
        {
          "duration": 0.3991666666666731,
          "durationTicks": 479,
          "midi": 67,
          "name": "G4",
          "ticks": 96240,
          "time": 80.2,
          "velocity": 0.7559055118110236
        },
        {
          "duration": 0.19916666666667027,
          "durationTicks": 239,
          "midi": 75,
          "name": "D#5",
          "ticks": 96720,
          "time": 80.60000000000001,
          "velocity": 0.7559055118110236
        },
        {
          "duration": 0.19916666666667027,
          "durationTicks": 239,
          "midi": 70,
          "name": "A#4",
          "ticks": 96720,
          "time": 80.60000000000001,
          "velocity": 0.7559055118110236
        },
        {
          "duration": 0.19916666666667027,
          "durationTicks": 239,
          "midi": 67,
          "name": "G4",
          "ticks": 96720,
          "time": 80.60000000000001,
          "velocity": 0.7559055118110236
        },
        {
          "duration": 0.3991666666666589,
          "durationTicks": 479,
          "midi": 75,
          "name": "D#5",
          "ticks": 96960,
          "time": 80.80000000000001,
          "velocity": 0.7559055118110236
        },
        {
          "duration": 0.3991666666666589,
          "durationTicks": 479,
          "midi": 70,
          "name": "A#4",
          "ticks": 96960,
          "time": 80.80000000000001,
          "velocity": 0.7559055118110236
        },
        {
          "duration": 0.3991666666666589,
          "durationTicks": 479,
          "midi": 67,
          "name": "G4",
          "ticks": 96960,
          "time": 80.80000000000001,
          "velocity": 0.7559055118110236
        },
        {
          "duration": 0.3991666666666731,
          "durationTicks": 479,
          "midi": 74,
          "name": "D5",
          "ticks": 97440,
          "time": 81.2,
          "velocity": 0.7559055118110236
        },
        {
          "duration": 0.3991666666666731,
          "durationTicks": 479,
          "midi": 70,
          "name": "A#4",
          "ticks": 97440,
          "time": 81.2,
          "velocity": 0.7559055118110236
        },
        {
          "duration": 0.3991666666666731,
          "durationTicks": 479,
          "midi": 65,
          "name": "F4",
          "ticks": 97440,
          "time": 81.2,
          "velocity": 0.7559055118110236
        },
        {
          "duration": 0.5991666666666617,
          "durationTicks": 719,
          "midi": 75,
          "name": "D#5",
          "ticks": 97920,
          "time": 81.60000000000001,
          "velocity": 0.7559055118110236
        },
        {
          "duration": 0.5991666666666617,
          "durationTicks": 719,
          "midi": 70,
          "name": "A#4",
          "ticks": 97920,
          "time": 81.60000000000001,
          "velocity": 0.7559055118110236
        },
        {
          "duration": 0.5991666666666617,
          "durationTicks": 719,
          "midi": 67,
          "name": "G4",
          "ticks": 97920,
          "time": 81.60000000000001,
          "velocity": 0.7559055118110236
        },
        {
          "duration": 0.19916666666667027,
          "durationTicks": 239,
          "midi": 75,
          "name": "D#5",
          "ticks": 98640,
          "time": 82.2,
          "velocity": 0.7559055118110236
        },
        {
          "duration": 0.19916666666667027,
          "durationTicks": 239,
          "midi": 70,
          "name": "A#4",
          "ticks": 98640,
          "time": 82.2,
          "velocity": 0.7559055118110236
        },
        {
          "duration": 0.19916666666667027,
          "durationTicks": 239,
          "midi": 67,
          "name": "G4",
          "ticks": 98640,
          "time": 82.2,
          "velocity": 0.7559055118110236
        },
        {
          "duration": 0.3991666666666589,
          "durationTicks": 479,
          "midi": 75,
          "name": "D#5",
          "ticks": 99120,
          "time": 82.60000000000001,
          "velocity": 0.7559055118110236
        },
        {
          "duration": 0.3991666666666589,
          "durationTicks": 479,
          "midi": 70,
          "name": "A#4",
          "ticks": 99120,
          "time": 82.60000000000001,
          "velocity": 0.7559055118110236
        },
        {
          "duration": 0.3991666666666589,
          "durationTicks": 479,
          "midi": 67,
          "name": "G4",
          "ticks": 99120,
          "time": 82.60000000000001,
          "velocity": 0.7559055118110236
        },
        {
          "duration": 0.3991666666666731,
          "durationTicks": 479,
          "midi": 75,
          "name": "D#5",
          "ticks": 99600,
          "time": 83,
          "velocity": 0.7559055118110236
        },
        {
          "duration": 0.3991666666666731,
          "durationTicks": 479,
          "midi": 70,
          "name": "A#4",
          "ticks": 99600,
          "time": 83,
          "velocity": 0.7559055118110236
        },
        {
          "duration": 0.3991666666666731,
          "durationTicks": 479,
          "midi": 67,
          "name": "G4",
          "ticks": 99600,
          "time": 83,
          "velocity": 0.7559055118110236
        },
        {
          "duration": 0.3991666666666731,
          "durationTicks": 479,
          "midi": 75,
          "name": "D#5",
          "ticks": 100080,
          "time": 83.4,
          "velocity": 0.7559055118110236
        },
        {
          "duration": 0.3991666666666731,
          "durationTicks": 479,
          "midi": 70,
          "name": "A#4",
          "ticks": 100080,
          "time": 83.4,
          "velocity": 0.7559055118110236
        },
        {
          "duration": 0.3991666666666731,
          "durationTicks": 479,
          "midi": 67,
          "name": "G4",
          "ticks": 100080,
          "time": 83.4,
          "velocity": 0.7559055118110236
        },
        {
          "duration": 0.19916666666665606,
          "durationTicks": 239,
          "midi": 75,
          "name": "D#5",
          "ticks": 100560,
          "time": 83.80000000000001,
          "velocity": 0.7559055118110236
        },
        {
          "duration": 0.19916666666665606,
          "durationTicks": 239,
          "midi": 70,
          "name": "A#4",
          "ticks": 100560,
          "time": 83.80000000000001,
          "velocity": 0.7559055118110236
        },
        {
          "duration": 0.19916666666665606,
          "durationTicks": 239,
          "midi": 67,
          "name": "G4",
          "ticks": 100560,
          "time": 83.80000000000001,
          "velocity": 0.7559055118110236
        },
        {
          "duration": 0.3991666666666731,
          "durationTicks": 479,
          "midi": 75,
          "name": "D#5",
          "ticks": 100800,
          "time": 84,
          "velocity": 0.7559055118110236
        },
        {
          "duration": 0.3991666666666731,
          "durationTicks": 479,
          "midi": 70,
          "name": "A#4",
          "ticks": 100800,
          "time": 84,
          "velocity": 0.7559055118110236
        },
        {
          "duration": 0.3991666666666731,
          "durationTicks": 479,
          "midi": 67,
          "name": "G4",
          "ticks": 100800,
          "time": 84,
          "velocity": 0.7559055118110236
        },
        {
          "duration": 0.3991666666666731,
          "durationTicks": 479,
          "midi": 74,
          "name": "D5",
          "ticks": 101280,
          "time": 84.4,
          "velocity": 0.7559055118110236
        },
        {
          "duration": 0.3991666666666731,
          "durationTicks": 479,
          "midi": 70,
          "name": "A#4",
          "ticks": 101280,
          "time": 84.4,
          "velocity": 0.7559055118110236
        },
        {
          "duration": 0.3991666666666731,
          "durationTicks": 479,
          "midi": 65,
          "name": "F4",
          "ticks": 101280,
          "time": 84.4,
          "velocity": 0.7559055118110236
        },
        {
          "duration": 0.3991666666666589,
          "durationTicks": 479,
          "midi": 75,
          "name": "D#5",
          "ticks": 101760,
          "time": 84.80000000000001,
          "velocity": 0.7559055118110236
        },
        {
          "duration": 0.3991666666666589,
          "durationTicks": 479,
          "midi": 70,
          "name": "A#4",
          "ticks": 101760,
          "time": 84.80000000000001,
          "velocity": 0.7559055118110236
        },
        {
          "duration": 0.3991666666666589,
          "durationTicks": 479,
          "midi": 67,
          "name": "G4",
          "ticks": 101760,
          "time": 84.80000000000001,
          "velocity": 0.7559055118110236
        },
        {
          "duration": 0.3991666666666731,
          "durationTicks": 479,
          "midi": 75,
          "name": "D#5",
          "ticks": 102480,
          "time": 85.4,
          "velocity": 0.7559055118110236
        },
        {
          "duration": 0.3991666666666731,
          "durationTicks": 479,
          "midi": 70,
          "name": "A#4",
          "ticks": 102480,
          "time": 85.4,
          "velocity": 0.7559055118110236
        },
        {
          "duration": 0.3991666666666731,
          "durationTicks": 479,
          "midi": 67,
          "name": "G4",
          "ticks": 102480,
          "time": 85.4,
          "velocity": 0.7559055118110236
        },
        {
          "duration": 0.19916666666665606,
          "durationTicks": 239,
          "midi": 75,
          "name": "D#5",
          "ticks": 102960,
          "time": 85.80000000000001,
          "velocity": 0.7559055118110236
        },
        {
          "duration": 0.19916666666665606,
          "durationTicks": 239,
          "midi": 70,
          "name": "A#4",
          "ticks": 102960,
          "time": 85.80000000000001,
          "velocity": 0.7559055118110236
        },
        {
          "duration": 0.19916666666665606,
          "durationTicks": 239,
          "midi": 67,
          "name": "G4",
          "ticks": 102960,
          "time": 85.80000000000001,
          "velocity": 0.7559055118110236
        },
        {
          "duration": 0.3991666666666731,
          "durationTicks": 479,
          "midi": 75,
          "name": "D#5",
          "ticks": 103200,
          "time": 86,
          "velocity": 0.7559055118110236
        },
        {
          "duration": 0.3991666666666731,
          "durationTicks": 479,
          "midi": 70,
          "name": "A#4",
          "ticks": 103200,
          "time": 86,
          "velocity": 0.7559055118110236
        },
        {
          "duration": 0.3991666666666731,
          "durationTicks": 479,
          "midi": 67,
          "name": "G4",
          "ticks": 103200,
          "time": 86,
          "velocity": 0.7559055118110236
        },
        {
          "duration": 0.3991666666666589,
          "durationTicks": 479,
          "midi": 77,
          "name": "F5",
          "ticks": 103920,
          "time": 86.60000000000001,
          "velocity": 0.7559055118110236
        },
        {
          "duration": 0.3991666666666589,
          "durationTicks": 479,
          "midi": 70,
          "name": "A#4",
          "ticks": 103920,
          "time": 86.60000000000001,
          "velocity": 0.7559055118110236
        },
        {
          "duration": 0.3991666666666589,
          "durationTicks": 479,
          "midi": 67,
          "name": "G4",
          "ticks": 103920,
          "time": 86.60000000000001,
          "velocity": 0.7559055118110236
        },
        {
          "duration": 0.19916666666667027,
          "durationTicks": 239,
          "midi": 77,
          "name": "F5",
          "ticks": 104400,
          "time": 87,
          "velocity": 0.7559055118110236
        },
        {
          "duration": 0.19916666666667027,
          "durationTicks": 239,
          "midi": 70,
          "name": "A#4",
          "ticks": 104400,
          "time": 87,
          "velocity": 0.7559055118110236
        },
        {
          "duration": 0.19916666666667027,
          "durationTicks": 239,
          "midi": 67,
          "name": "G4",
          "ticks": 104400,
          "time": 87,
          "velocity": 0.7559055118110236
        },
        {
          "duration": 0.3991666666666731,
          "durationTicks": 479,
          "midi": 77,
          "name": "F5",
          "ticks": 104640,
          "time": 87.2,
          "velocity": 0.7559055118110236
        },
        {
          "duration": 0.3991666666666731,
          "durationTicks": 479,
          "midi": 70,
          "name": "A#4",
          "ticks": 104640,
          "time": 87.2,
          "velocity": 0.7559055118110236
        },
        {
          "duration": 0.3991666666666731,
          "durationTicks": 479,
          "midi": 67,
          "name": "G4",
          "ticks": 104640,
          "time": 87.2,
          "velocity": 0.7559055118110236
        },
        {
          "duration": 0.19916666666667027,
          "durationTicks": 239,
          "midi": 75,
          "name": "D#5",
          "ticks": 105120,
          "time": 87.60000000000001,
          "velocity": 0.7559055118110236
        },
        {
          "duration": 0.19916666666665606,
          "durationTicks": 239,
          "midi": 77,
          "name": "F5",
          "ticks": 105360,
          "time": 87.80000000000001,
          "velocity": 0.7559055118110236
        },
        {
          "duration": 0.3991666666666731,
          "durationTicks": 479,
          "midi": 79,
          "name": "G5",
          "ticks": 105600,
          "time": 88,
          "velocity": 0.7559055118110236
        },
        {
          "duration": 0.3991666666666731,
          "durationTicks": 479,
          "midi": 75,
          "name": "D#5",
          "ticks": 105600,
          "time": 88,
          "velocity": 0.7559055118110236
        },
        {
          "duration": 0.3991666666666731,
          "durationTicks": 479,
          "midi": 70,
          "name": "A#4",
          "ticks": 105600,
          "time": 88,
          "velocity": 0.7559055118110236
        },
        {
          "duration": 0.3991666666666589,
          "durationTicks": 479,
          "midi": 79,
          "name": "G5",
          "ticks": 106320,
          "time": 88.60000000000001,
          "velocity": 0.7559055118110236
        },
        {
          "duration": 0.19916666666667027,
          "durationTicks": 239,
          "midi": 75,
          "name": "D#5",
          "ticks": 106320,
          "time": 88.60000000000001,
          "velocity": 0.7559055118110236
        },
        {
          "duration": 0.19916666666667027,
          "durationTicks": 239,
          "midi": 70,
          "name": "A#4",
          "ticks": 106320,
          "time": 88.60000000000001,
          "velocity": 0.7559055118110236
        },
        {
          "duration": 0.19916666666665606,
          "durationTicks": 239,
          "midi": 75,
          "name": "D#5",
          "ticks": 106560,
          "time": 88.80000000000001,
          "velocity": 0.7559055118110236
        },
        {
          "duration": 0.19916666666665606,
          "durationTicks": 239,
          "midi": 70,
          "name": "A#4",
          "ticks": 106560,
          "time": 88.80000000000001,
          "velocity": 0.7559055118110236
        },
        {
          "duration": 0.19916666666667027,
          "durationTicks": 239,
          "midi": 79,
          "name": "G5",
          "ticks": 106800,
          "time": 89,
          "velocity": 0.7559055118110236
        },
        {
          "duration": 0.19916666666667027,
          "durationTicks": 239,
          "midi": 75,
          "name": "D#5",
          "ticks": 106800,
          "time": 89,
          "velocity": 0.7559055118110236
        },
        {
          "duration": 0.19916666666667027,
          "durationTicks": 239,
          "midi": 70,
          "name": "A#4",
          "ticks": 106800,
          "time": 89,
          "velocity": 0.7559055118110236
        },
        {
          "duration": 0.3991666666666731,
          "durationTicks": 479,
          "midi": 79,
          "name": "G5",
          "ticks": 107040,
          "time": 89.2,
          "velocity": 0.7559055118110236
        },
        {
          "duration": 0.3991666666666731,
          "durationTicks": 479,
          "midi": 75,
          "name": "D#5",
          "ticks": 107040,
          "time": 89.2,
          "velocity": 0.7559055118110236
        },
        {
          "duration": 0.3991666666666731,
          "durationTicks": 479,
          "midi": 70,
          "name": "A#4",
          "ticks": 107040,
          "time": 89.2,
          "velocity": 0.7559055118110236
        },
        {
          "duration": 0.3991666666666589,
          "durationTicks": 479,
          "midi": 79,
          "name": "G5",
          "ticks": 107760,
          "time": 89.80000000000001,
          "velocity": 0.7559055118110236
        },
        {
          "duration": 0.3991666666666589,
          "durationTicks": 479,
          "midi": 75,
          "name": "D#5",
          "ticks": 107760,
          "time": 89.80000000000001,
          "velocity": 0.7559055118110236
        },
        {
          "duration": 0.3991666666666589,
          "durationTicks": 479,
          "midi": 70,
          "name": "A#4",
          "ticks": 107760,
          "time": 89.80000000000001,
          "velocity": 0.7559055118110236
        },
        {
          "duration": 0.19916666666667027,
          "durationTicks": 239,
          "midi": 79,
          "name": "G5",
          "ticks": 108240,
          "time": 90.2,
          "velocity": 0.7559055118110236
        },
        {
          "duration": 0.9991666666666674,
          "durationTicks": 1199,
          "midi": 75,
          "name": "D#5",
          "ticks": 108240,
          "time": 90.2,
          "velocity": 0.7559055118110236
        },
        {
          "duration": 0.9991666666666674,
          "durationTicks": 1199,
          "midi": 71,
          "name": "B4",
          "ticks": 108240,
          "time": 90.2,
          "velocity": 0.7559055118110236
        },
        {
          "duration": 0.7991666666666646,
          "durationTicks": 959,
          "midi": 77,
          "name": "F5",
          "ticks": 108480,
          "time": 90.4,
          "velocity": 0.7559055118110236
        },
        {
          "duration": 0.19916666666667027,
          "durationTicks": 239,
          "midi": 63,
          "name": "D#4",
          "ticks": 109680,
          "time": 91.4,
          "velocity": 0.7559055118110236
        },
        {
          "duration": 0.19916666666667027,
          "durationTicks": 239,
          "midi": 58,
          "name": "A#3",
          "ticks": 109680,
          "time": 91.4,
          "velocity": 0.7559055118110236
        },
        {
          "duration": 0.19916666666667027,
          "durationTicks": 239,
          "midi": 65,
          "name": "F4",
          "ticks": 109920,
          "time": 91.60000000000001,
          "velocity": 0.7559055118110236
        },
        {
          "duration": 0.3991666666666589,
          "durationTicks": 479,
          "midi": 70,
          "name": "A#4",
          "ticks": 110160,
          "time": 91.80000000000001,
          "velocity": 0.7559055118110236
        },
        {
          "duration": 0.19916666666667027,
          "durationTicks": 239,
          "midi": 63,
          "name": "D#4",
          "ticks": 110640,
          "time": 92.2,
          "velocity": 0.7559055118110236
        },
        {
          "duration": 0.19916666666667027,
          "durationTicks": 239,
          "midi": 65,
          "name": "F4",
          "ticks": 110880,
          "time": 92.4,
          "velocity": 0.7559055118110236
        },
        {
          "duration": 0.3991666666666589,
          "durationTicks": 479,
          "midi": 70,
          "name": "A#4",
          "ticks": 111120,
          "time": 92.60000000000001,
          "velocity": 0.7559055118110236
        },
        {
          "duration": 0.19916666666667027,
          "durationTicks": 239,
          "midi": 63,
          "name": "D#4",
          "ticks": 111600,
          "time": 93,
          "velocity": 0.7559055118110236
        },
        {
          "duration": 0.19916666666667027,
          "durationTicks": 239,
          "midi": 58,
          "name": "A#3",
          "ticks": 111600,
          "time": 93,
          "velocity": 0.7559055118110236
        },
        {
          "duration": 0.19916666666667027,
          "durationTicks": 239,
          "midi": 65,
          "name": "F4",
          "ticks": 111840,
          "time": 93.2,
          "velocity": 0.7559055118110236
        },
        {
          "duration": 0.3991666666666731,
          "durationTicks": 479,
          "midi": 70,
          "name": "A#4",
          "ticks": 112080,
          "time": 93.4,
          "velocity": 0.7559055118110236
        },
        {
          "duration": 0.19916666666665606,
          "durationTicks": 239,
          "midi": 63,
          "name": "D#4",
          "ticks": 112560,
          "time": 93.80000000000001,
          "velocity": 0.7559055118110236
        },
        {
          "duration": 0.19916666666665606,
          "durationTicks": 239,
          "midi": 58,
          "name": "A#3",
          "ticks": 112560,
          "time": 93.80000000000001,
          "velocity": 0.7559055118110236
        },
        {
          "duration": 0.19916666666667027,
          "durationTicks": 239,
          "midi": 65,
          "name": "F4",
          "ticks": 112800,
          "time": 94,
          "velocity": 0.7559055118110236
        },
        {
          "duration": 0.19916666666667027,
          "durationTicks": 239,
          "midi": 70,
          "name": "A#4",
          "ticks": 113040,
          "time": 94.2,
          "velocity": 0.7559055118110236
        },
        {
          "duration": 0.19916666666667027,
          "durationTicks": 239,
          "midi": 70,
          "name": "A#4",
          "ticks": 113280,
          "time": 94.4,
          "velocity": 0.7559055118110236
        },
        {
          "duration": 0.19916666666667027,
          "durationTicks": 239,
          "midi": 63,
          "name": "D#4",
          "ticks": 113280,
          "time": 94.4,
          "velocity": 0.7559055118110236
        },
        {
          "duration": 0.19916666666667027,
          "durationTicks": 239,
          "midi": 63,
          "name": "D#4",
          "ticks": 113520,
          "time": 94.60000000000001,
          "velocity": 0.7559055118110236
        },
        {
          "duration": 0.19916666666665606,
          "durationTicks": 239,
          "midi": 65,
          "name": "F4",
          "ticks": 113760,
          "time": 94.80000000000001,
          "velocity": 0.7559055118110236
        },
        {
          "duration": 0.3991666666666731,
          "durationTicks": 479,
          "midi": 70,
          "name": "A#4",
          "ticks": 114000,
          "time": 95,
          "velocity": 0.7559055118110236
        },
        {
          "duration": 0.19916666666667027,
          "durationTicks": 239,
          "midi": 63,
          "name": "D#4",
          "ticks": 114480,
          "time": 95.4,
          "velocity": 0.7559055118110236
        },
        {
          "duration": 0.19916666666667027,
          "durationTicks": 239,
          "midi": 65,
          "name": "F4",
          "ticks": 114720,
          "time": 95.60000000000001,
          "velocity": 0.7559055118110236
        },
        {
          "duration": 0.3991666666666589,
          "durationTicks": 479,
          "midi": 70,
          "name": "A#4",
          "ticks": 114960,
          "time": 95.80000000000001,
          "velocity": 0.7559055118110236
        },
        {
          "duration": 0.19916666666667027,
          "durationTicks": 239,
          "midi": 63,
          "name": "D#4",
          "ticks": 115440,
          "time": 96.2,
          "velocity": 0.7559055118110236
        },
        {
          "duration": 0.19916666666667027,
          "durationTicks": 239,
          "midi": 58,
          "name": "A#3",
          "ticks": 115440,
          "time": 96.2,
          "velocity": 0.7559055118110236
        },
        {
          "duration": 0.19916666666667027,
          "durationTicks": 239,
          "midi": 65,
          "name": "F4",
          "ticks": 115680,
          "time": 96.4,
          "velocity": 0.7559055118110236
        },
        {
          "duration": 0.3991666666666589,
          "durationTicks": 479,
          "midi": 75,
          "name": "D#5",
          "ticks": 115920,
          "time": 96.60000000000001,
          "velocity": 0.7559055118110236
        },
        {
          "duration": 0.3991666666666589,
          "durationTicks": 479,
          "midi": 70,
          "name": "A#4",
          "ticks": 115920,
          "time": 96.60000000000001,
          "velocity": 0.7559055118110236
        },
        {
          "duration": 0.19916666666667027,
          "durationTicks": 239,
          "midi": 75,
          "name": "D#5",
          "ticks": 116400,
          "time": 97,
          "velocity": 0.7559055118110236
        },
        {
          "duration": 0.19916666666667027,
          "durationTicks": 239,
          "midi": 70,
          "name": "A#4",
          "ticks": 116400,
          "time": 97,
          "velocity": 0.7559055118110236
        },
        {
          "duration": 0.3991666666666731,
          "durationTicks": 479,
          "midi": 75,
          "name": "D#5",
          "ticks": 116640,
          "time": 97.2,
          "velocity": 0.7559055118110236
        },
        {
          "duration": 0.3991666666666731,
          "durationTicks": 479,
          "midi": 70,
          "name": "A#4",
          "ticks": 116640,
          "time": 97.2,
          "velocity": 0.7559055118110236
        },
        {
          "duration": 0.3991666666666589,
          "durationTicks": 479,
          "midi": 67,
          "name": "G4",
          "ticks": 117120,
          "time": 97.60000000000001,
          "velocity": 0.6299212598425197
        },
        {
          "duration": 0.3991666666666589,
          "durationTicks": 479,
          "midi": 63,
          "name": "D#4",
          "ticks": 117120,
          "time": 97.60000000000001,
          "velocity": 0.6299212598425197
        },
        {
          "duration": 0.3991666666666589,
          "durationTicks": 479,
          "midi": 58,
          "name": "A#3",
          "ticks": 117120,
          "time": 97.60000000000001,
          "velocity": 0.6299212598425197
        },
        {
          "duration": 0.599166666666676,
          "durationTicks": 719,
          "midi": 67,
          "name": "G4",
          "ticks": 117840,
          "time": 98.2,
          "velocity": 0.6299212598425197
        },
        {
          "duration": 0.599166666666676,
          "durationTicks": 719,
          "midi": 63,
          "name": "D#4",
          "ticks": 117840,
          "time": 98.2,
          "velocity": 0.6299212598425197
        },
        {
          "duration": 0.599166666666676,
          "durationTicks": 719,
          "midi": 58,
          "name": "A#3",
          "ticks": 117840,
          "time": 98.2,
          "velocity": 0.6299212598425197
        },
        {
          "duration": 0.3991666666666589,
          "durationTicks": 479,
          "midi": 67,
          "name": "G4",
          "ticks": 118560,
          "time": 98.80000000000001,
          "velocity": 0.6299212598425197
        },
        {
          "duration": 0.3991666666666589,
          "durationTicks": 479,
          "midi": 63,
          "name": "D#4",
          "ticks": 118560,
          "time": 98.80000000000001,
          "velocity": 0.6299212598425197
        },
        {
          "duration": 0.3991666666666589,
          "durationTicks": 479,
          "midi": 58,
          "name": "A#3",
          "ticks": 118560,
          "time": 98.80000000000001,
          "velocity": 0.6299212598425197
        },
        {
          "duration": 0.5991666666666617,
          "durationTicks": 719,
          "midi": 67,
          "name": "G4",
          "ticks": 119280,
          "time": 99.4,
          "velocity": 0.6299212598425197
        },
        {
          "duration": 0.5991666666666617,
          "durationTicks": 719,
          "midi": 63,
          "name": "D#4",
          "ticks": 119280,
          "time": 99.4,
          "velocity": 0.6299212598425197
        },
        {
          "duration": 0.5991666666666617,
          "durationTicks": 719,
          "midi": 58,
          "name": "A#3",
          "ticks": 119280,
          "time": 99.4,
          "velocity": 0.6299212598425197
        },
        {
          "duration": 0.3991666666666731,
          "durationTicks": 479,
          "midi": 67,
          "name": "G4",
          "ticks": 120000,
          "time": 100,
          "velocity": 0.6299212598425197
        },
        {
          "duration": 0.3991666666666731,
          "durationTicks": 479,
          "midi": 63,
          "name": "D#4",
          "ticks": 120000,
          "time": 100,
          "velocity": 0.6299212598425197
        },
        {
          "duration": 0.3991666666666731,
          "durationTicks": 479,
          "midi": 58,
          "name": "A#3",
          "ticks": 120000,
          "time": 100,
          "velocity": 0.6299212598425197
        },
        {
          "duration": 0.3991666666666731,
          "durationTicks": 479,
          "midi": 67,
          "name": "G4",
          "ticks": 120480,
          "time": 100.4,
          "velocity": 0.6299212598425197
        },
        {
          "duration": 0.3991666666666731,
          "durationTicks": 479,
          "midi": 63,
          "name": "D#4",
          "ticks": 120480,
          "time": 100.4,
          "velocity": 0.6299212598425197
        },
        {
          "duration": 0.3991666666666731,
          "durationTicks": 479,
          "midi": 58,
          "name": "A#3",
          "ticks": 120480,
          "time": 100.4,
          "velocity": 0.6299212598425197
        },
        {
          "duration": 0.3991666666666589,
          "durationTicks": 479,
          "midi": 67,
          "name": "G4",
          "ticks": 120960,
          "time": 100.80000000000001,
          "velocity": 0.6299212598425197
        },
        {
          "duration": 0.3991666666666589,
          "durationTicks": 479,
          "midi": 63,
          "name": "D#4",
          "ticks": 120960,
          "time": 100.80000000000001,
          "velocity": 0.6299212598425197
        },
        {
          "duration": 0.3991666666666589,
          "durationTicks": 479,
          "midi": 58,
          "name": "A#3",
          "ticks": 120960,
          "time": 100.80000000000001,
          "velocity": 0.6299212598425197
        },
        {
          "duration": 0.5991666666666617,
          "durationTicks": 719,
          "midi": 67,
          "name": "G4",
          "ticks": 121680,
          "time": 101.4,
          "velocity": 0.6299212598425197
        },
        {
          "duration": 0.5991666666666617,
          "durationTicks": 719,
          "midi": 63,
          "name": "D#4",
          "ticks": 121680,
          "time": 101.4,
          "velocity": 0.6299212598425197
        },
        {
          "duration": 0.5991666666666617,
          "durationTicks": 719,
          "midi": 58,
          "name": "A#3",
          "ticks": 121680,
          "time": 101.4,
          "velocity": 0.6299212598425197
        },
        {
          "duration": 0.3991666666666731,
          "durationTicks": 479,
          "midi": 67,
          "name": "G4",
          "ticks": 122400,
          "time": 102,
          "velocity": 0.6299212598425197
        },
        {
          "duration": 0.3991666666666731,
          "durationTicks": 479,
          "midi": 63,
          "name": "D#4",
          "ticks": 122400,
          "time": 102,
          "velocity": 0.6299212598425197
        },
        {
          "duration": 0.3991666666666731,
          "durationTicks": 479,
          "midi": 58,
          "name": "A#3",
          "ticks": 122400,
          "time": 102,
          "velocity": 0.6299212598425197
        },
        {
          "duration": 0.5991666666666475,
          "durationTicks": 719,
          "midi": 67,
          "name": "G4",
          "ticks": 123120,
          "time": 102.60000000000001,
          "velocity": 0.6299212598425197
        },
        {
          "duration": 0.5991666666666475,
          "durationTicks": 719,
          "midi": 63,
          "name": "D#4",
          "ticks": 123120,
          "time": 102.60000000000001,
          "velocity": 0.6299212598425197
        },
        {
          "duration": 0.5991666666666475,
          "durationTicks": 719,
          "midi": 58,
          "name": "A#3",
          "ticks": 123120,
          "time": 102.60000000000001,
          "velocity": 0.6299212598425197
        },
        {
          "duration": 0.3991666666666589,
          "durationTicks": 479,
          "midi": 67,
          "name": "G4",
          "ticks": 123840,
          "time": 103.2,
          "velocity": 0.6299212598425197
        },
        {
          "duration": 0.3991666666666589,
          "durationTicks": 479,
          "midi": 63,
          "name": "D#4",
          "ticks": 123840,
          "time": 103.2,
          "velocity": 0.6299212598425197
        },
        {
          "duration": 0.3991666666666589,
          "durationTicks": 479,
          "midi": 58,
          "name": "A#3",
          "ticks": 123840,
          "time": 103.2,
          "velocity": 0.6299212598425197
        },
        {
          "duration": 0.3991666666666589,
          "durationTicks": 479,
          "midi": 67,
          "name": "G4",
          "ticks": 124320,
          "time": 103.60000000000001,
          "velocity": 0.6299212598425197
        },
        {
          "duration": 0.3991666666666589,
          "durationTicks": 479,
          "midi": 63,
          "name": "D#4",
          "ticks": 124320,
          "time": 103.60000000000001,
          "velocity": 0.6299212598425197
        },
        {
          "duration": 0.3991666666666589,
          "durationTicks": 479,
          "midi": 58,
          "name": "A#3",
          "ticks": 124320,
          "time": 103.60000000000001,
          "velocity": 0.6299212598425197
        },
        {
          "duration": 0.3991666666666589,
          "durationTicks": 479,
          "midi": 67,
          "name": "G4",
          "ticks": 124800,
          "time": 104,
          "velocity": 0.6299212598425197
        },
        {
          "duration": 0.3991666666666589,
          "durationTicks": 479,
          "midi": 63,
          "name": "D#4",
          "ticks": 124800,
          "time": 104,
          "velocity": 0.6299212598425197
        },
        {
          "duration": 0.3991666666666589,
          "durationTicks": 479,
          "midi": 58,
          "name": "A#3",
          "ticks": 124800,
          "time": 104,
          "velocity": 0.6299212598425197
        },
        {
          "duration": 0.5991666666666475,
          "durationTicks": 719,
          "midi": 67,
          "name": "G4",
          "ticks": 125520,
          "time": 104.60000000000001,
          "velocity": 0.6299212598425197
        },
        {
          "duration": 0.5991666666666475,
          "durationTicks": 719,
          "midi": 63,
          "name": "D#4",
          "ticks": 125520,
          "time": 104.60000000000001,
          "velocity": 0.6299212598425197
        },
        {
          "duration": 0.5991666666666475,
          "durationTicks": 719,
          "midi": 58,
          "name": "A#3",
          "ticks": 125520,
          "time": 104.60000000000001,
          "velocity": 0.6299212598425197
        },
        {
          "duration": 0.3991666666666589,
          "durationTicks": 479,
          "midi": 67,
          "name": "G4",
          "ticks": 126240,
          "time": 105.2,
          "velocity": 0.6299212598425197
        },
        {
          "duration": 0.3991666666666589,
          "durationTicks": 479,
          "midi": 63,
          "name": "D#4",
          "ticks": 126240,
          "time": 105.2,
          "velocity": 0.6299212598425197
        },
        {
          "duration": 0.3991666666666589,
          "durationTicks": 479,
          "midi": 58,
          "name": "A#3",
          "ticks": 126240,
          "time": 105.2,
          "velocity": 0.6299212598425197
        },
        {
          "duration": 0.5991666666666475,
          "durationTicks": 719,
          "midi": 67,
          "name": "G4",
          "ticks": 126960,
          "time": 105.80000000000001,
          "velocity": 0.6299212598425197
        },
        {
          "duration": 0.5991666666666475,
          "durationTicks": 719,
          "midi": 63,
          "name": "D#4",
          "ticks": 126960,
          "time": 105.80000000000001,
          "velocity": 0.6299212598425197
        },
        {
          "duration": 0.5991666666666475,
          "durationTicks": 719,
          "midi": 58,
          "name": "A#3",
          "ticks": 126960,
          "time": 105.80000000000001,
          "velocity": 0.6299212598425197
        },
        {
          "duration": 0.3991666666666589,
          "durationTicks": 479,
          "midi": 67,
          "name": "G4",
          "ticks": 127680,
          "time": 106.4,
          "velocity": 0.6299212598425197
        },
        {
          "duration": 0.3991666666666589,
          "durationTicks": 479,
          "midi": 63,
          "name": "D#4",
          "ticks": 127680,
          "time": 106.4,
          "velocity": 0.6299212598425197
        },
        {
          "duration": 0.3991666666666589,
          "durationTicks": 479,
          "midi": 58,
          "name": "A#3",
          "ticks": 127680,
          "time": 106.4,
          "velocity": 0.6299212598425197
        },
        {
          "duration": 0.3991666666666447,
          "durationTicks": 479,
          "midi": 67,
          "name": "G4",
          "ticks": 128160,
          "time": 106.80000000000001,
          "velocity": 0.6299212598425197
        },
        {
          "duration": 0.3991666666666447,
          "durationTicks": 479,
          "midi": 63,
          "name": "D#4",
          "ticks": 128160,
          "time": 106.80000000000001,
          "velocity": 0.6299212598425197
        },
        {
          "duration": 0.3991666666666447,
          "durationTicks": 479,
          "midi": 58,
          "name": "A#3",
          "ticks": 128160,
          "time": 106.80000000000001,
          "velocity": 0.6299212598425197
        },
        {
          "duration": 0.3991666666666589,
          "durationTicks": 479,
          "midi": 67,
          "name": "G4",
          "ticks": 128640,
          "time": 107.2,
          "velocity": 0.6299212598425197
        },
        {
          "duration": 0.3991666666666589,
          "durationTicks": 479,
          "midi": 63,
          "name": "D#4",
          "ticks": 128640,
          "time": 107.2,
          "velocity": 0.6299212598425197
        },
        {
          "duration": 0.3991666666666589,
          "durationTicks": 479,
          "midi": 58,
          "name": "A#3",
          "ticks": 128640,
          "time": 107.2,
          "velocity": 0.6299212598425197
        },
        {
          "duration": 0.5991666666666475,
          "durationTicks": 719,
          "midi": 67,
          "name": "G4",
          "ticks": 129360,
          "time": 107.80000000000001,
          "velocity": 0.6299212598425197
        },
        {
          "duration": 0.5991666666666475,
          "durationTicks": 719,
          "midi": 63,
          "name": "D#4",
          "ticks": 129360,
          "time": 107.80000000000001,
          "velocity": 0.6299212598425197
        },
        {
          "duration": 0.5991666666666475,
          "durationTicks": 719,
          "midi": 58,
          "name": "A#3",
          "ticks": 129360,
          "time": 107.80000000000001,
          "velocity": 0.6299212598425197
        },
        {
          "duration": 0.3991666666666589,
          "durationTicks": 479,
          "midi": 67,
          "name": "G4",
          "ticks": 130080,
          "time": 108.4,
          "velocity": 0.6299212598425197
        },
        {
          "duration": 0.3991666666666589,
          "durationTicks": 479,
          "midi": 63,
          "name": "D#4",
          "ticks": 130080,
          "time": 108.4,
          "velocity": 0.6299212598425197
        },
        {
          "duration": 0.3991666666666589,
          "durationTicks": 479,
          "midi": 58,
          "name": "A#3",
          "ticks": 130080,
          "time": 108.4,
          "velocity": 0.6299212598425197
        },
        {
          "duration": 0.5991666666666617,
          "durationTicks": 719,
          "midi": 65,
          "name": "F4",
          "ticks": 130800,
          "time": 109,
          "velocity": 0.6299212598425197
        },
        {
          "duration": 0.5991666666666617,
          "durationTicks": 719,
          "midi": 63,
          "name": "D#4",
          "ticks": 130800,
          "time": 109,
          "velocity": 0.6299212598425197
        },
        {
          "duration": 0.5991666666666617,
          "durationTicks": 719,
          "midi": 58,
          "name": "A#3",
          "ticks": 130800,
          "time": 109,
          "velocity": 0.6299212598425197
        },
        {
          "duration": 0.3991666666666589,
          "durationTicks": 479,
          "midi": 65,
          "name": "F4",
          "ticks": 131520,
          "time": 109.60000000000001,
          "velocity": 0.6299212598425197
        },
        {
          "duration": 0.3991666666666589,
          "durationTicks": 479,
          "midi": 63,
          "name": "D#4",
          "ticks": 131520,
          "time": 109.60000000000001,
          "velocity": 0.6299212598425197
        },
        {
          "duration": 0.3991666666666589,
          "durationTicks": 479,
          "midi": 58,
          "name": "A#3",
          "ticks": 131520,
          "time": 109.60000000000001,
          "velocity": 0.6299212598425197
        },
        {
          "duration": 0.3991666666666589,
          "durationTicks": 479,
          "midi": 65,
          "name": "F4",
          "ticks": 132000,
          "time": 110,
          "velocity": 0.6299212598425197
        },
        {
          "duration": 0.3991666666666589,
          "durationTicks": 479,
          "midi": 63,
          "name": "D#4",
          "ticks": 132000,
          "time": 110,
          "velocity": 0.6299212598425197
        },
        {
          "duration": 0.3991666666666589,
          "durationTicks": 479,
          "midi": 58,
          "name": "A#3",
          "ticks": 132000,
          "time": 110,
          "velocity": 0.6299212598425197
        },
        {
          "duration": 2.199166666666656,
          "durationTicks": 2639,
          "midi": 67,
          "name": "G4",
          "ticks": 132480,
          "time": 110.4,
          "velocity": 0.6299212598425197
        },
        {
          "duration": 2.199166666666656,
          "durationTicks": 2639,
          "midi": 63,
          "name": "D#4",
          "ticks": 132480,
          "time": 110.4,
          "velocity": 0.6299212598425197
        },
        {
          "duration": 2.199166666666656,
          "durationTicks": 2639,
          "midi": 58,
          "name": "A#3",
          "ticks": 132480,
          "time": 110.4,
          "velocity": 0.6299212598425197
        },
        {
          "duration": 0.3991666666666589,
          "durationTicks": 479,
          "midi": 70,
          "name": "A#4",
          "ticks": 135120,
          "time": 112.60000000000001,
          "velocity": 0.6299212598425197
        },
        {
          "duration": 0.19916666666665606,
          "durationTicks": 239,
          "midi": 75,
          "name": "D#5",
          "ticks": 135600,
          "time": 113,
          "velocity": 0.6299212598425197
        },
        {
          "duration": 0.19916666666665606,
          "durationTicks": 239,
          "midi": 77,
          "name": "F5",
          "ticks": 135840,
          "time": 113.2,
          "velocity": 0.6299212598425197
        },
        {
          "duration": 0.5991666666666617,
          "durationTicks": 719,
          "midi": 82,
          "name": "A#5",
          "ticks": 136080,
          "time": 113.4,
          "velocity": 0.6299212598425197
        },
        {
          "duration": 0.3991666666666589,
          "durationTicks": 479,
          "midi": 75,
          "name": "D#5",
          "ticks": 136320,
          "time": 113.60000000000001,
          "velocity": 0.6299212598425197
        },
        {
          "duration": 0.5991666666666617,
          "durationTicks": 719,
          "midi": 70,
          "name": "A#4",
          "ticks": 137040,
          "time": 114.2,
          "velocity": 0.6299212598425197
        },
        {
          "duration": 0.19916666666665606,
          "durationTicks": 239,
          "midi": 70,
          "name": "A#4",
          "ticks": 137760,
          "time": 114.80000000000001,
          "velocity": 0.6299212598425197
        },
        {
          "duration": 0.3991666666666589,
          "durationTicks": 479,
          "midi": 80,
          "name": "G#5",
          "ticks": 138000,
          "time": 115,
          "velocity": 0.6299212598425197
        },
        {
          "duration": 0.3991666666666589,
          "durationTicks": 479,
          "midi": 75,
          "name": "D#5",
          "ticks": 138000,
          "time": 115,
          "velocity": 0.6299212598425197
        },
        {
          "duration": 0.3991666666666589,
          "durationTicks": 479,
          "midi": 79,
          "name": "G5",
          "ticks": 138480,
          "time": 115.4,
          "velocity": 0.6299212598425197
        },
        {
          "duration": 0.3991666666666589,
          "durationTicks": 479,
          "midi": 75,
          "name": "D#5",
          "ticks": 138480,
          "time": 115.4,
          "velocity": 0.6299212598425197
        },
        {
          "duration": 0.3991666666666447,
          "durationTicks": 479,
          "midi": 77,
          "name": "F5",
          "ticks": 138960,
          "time": 115.80000000000001,
          "velocity": 0.6299212598425197
        },
        {
          "duration": 0.3991666666666447,
          "durationTicks": 479,
          "midi": 75,
          "name": "D#5",
          "ticks": 138960,
          "time": 115.80000000000001,
          "velocity": 0.6299212598425197
        },
        {
          "duration": 0.5991666666666617,
          "durationTicks": 719,
          "midi": 75,
          "name": "D#5",
          "ticks": 139440,
          "time": 116.2,
          "velocity": 0.6299212598425197
        },
        {
          "duration": 0.5991666666666617,
          "durationTicks": 719,
          "midi": 70,
          "name": "A#4",
          "ticks": 139440,
          "time": 116.2,
          "velocity": 0.6299212598425197
        },
        {
          "duration": 0.7991666666666504,
          "durationTicks": 959,
          "midi": 70,
          "name": "A#4",
          "ticks": 140160,
          "time": 116.80000000000001,
          "velocity": 0.6299212598425197
        },
        {
          "duration": 0.7991666666666504,
          "durationTicks": 959,
          "midi": 63,
          "name": "D#4",
          "ticks": 140160,
          "time": 116.80000000000001,
          "velocity": 0.6299212598425197
        },
        {
          "duration": 0.19916666666665606,
          "durationTicks": 239,
          "midi": 63,
          "name": "D#4",
          "ticks": 141360,
          "time": 117.80000000000001,
          "velocity": 0.6299212598425197
        },
        {
          "duration": 0.19916666666665606,
          "durationTicks": 239,
          "midi": 58,
          "name": "A#3",
          "ticks": 141360,
          "time": 117.80000000000001,
          "velocity": 0.6299212598425197
        },
        {
          "duration": 0.3991666666666589,
          "durationTicks": 479,
          "midi": 65,
          "name": "F4",
          "ticks": 141600,
          "time": 118,
          "velocity": 0.6299212598425197
        },
        {
          "duration": 0.7991666666666504,
          "durationTicks": 959,
          "midi": 65,
          "name": "F4",
          "ticks": 142080,
          "time": 118.4,
          "velocity": 0.6299212598425197
        },
        {
          "duration": 0.7991666666666504,
          "durationTicks": 959,
          "midi": 58,
          "name": "A#3",
          "ticks": 142080,
          "time": 118.4,
          "velocity": 0.6299212598425197
        },
        {
          "duration": 0.19916666666665606,
          "durationTicks": 239,
          "midi": 63,
          "name": "D#4",
          "ticks": 143040,
          "time": 119.2,
          "velocity": 0.6299212598425197
        },
        {
          "duration": 0.19916666666665606,
          "durationTicks": 239,
          "midi": 65,
          "name": "F4",
          "ticks": 143280,
          "time": 119.4,
          "velocity": 0.6299212598425197
        },
        {
          "duration": 0.19916666666665606,
          "durationTicks": 239,
          "midi": 70,
          "name": "A#4",
          "ticks": 143520,
          "time": 119.60000000000001,
          "velocity": 0.6299212598425197
        },
        {
          "duration": 0.19916666666665606,
          "durationTicks": 239,
          "midi": 75,
          "name": "D#5",
          "ticks": 143760,
          "time": 119.80000000000001,
          "velocity": 0.6299212598425197
        },
        {
          "duration": 1.5991666666666617,
          "durationTicks": 1919,
          "midi": 63,
          "name": "D#4",
          "ticks": 144000,
          "time": 120,
          "velocity": 0.6299212598425197
        },
        {
          "duration": 1.5991666666666617,
          "durationTicks": 1919,
          "midi": 58,
          "name": "A#3",
          "ticks": 144000,
          "time": 120,
          "velocity": 0.6299212598425197
        },
        {
          "duration": 0.19916666666665606,
          "durationTicks": 239,
          "midi": 63,
          "name": "D#4",
          "ticks": 145920,
          "time": 121.60000000000001,
          "velocity": 0.6299212598425197
        },
        {
          "duration": 0.19916666666665606,
          "durationTicks": 239,
          "midi": 58,
          "name": "A#3",
          "ticks": 145920,
          "time": 121.60000000000001,
          "velocity": 0.6299212598425197
        },
        {
          "duration": 0.19916666666665606,
          "durationTicks": 239,
          "midi": 65,
          "name": "F4",
          "ticks": 146160,
          "time": 121.80000000000001,
          "velocity": 0.6299212598425197
        },
        {
          "duration": 0.19916666666665606,
          "durationTicks": 239,
          "midi": 70,
          "name": "A#4",
          "ticks": 146400,
          "time": 122,
          "velocity": 0.6299212598425197
        },
        {
          "duration": 0.19916666666665606,
          "durationTicks": 239,
          "midi": 75,
          "name": "D#5",
          "ticks": 146640,
          "time": 122.2,
          "velocity": 0.6299212598425197
        },
        {
          "duration": 0.19916666666665606,
          "durationTicks": 239,
          "midi": 77,
          "name": "F5",
          "ticks": 146880,
          "time": 122.4,
          "velocity": 0.6299212598425197
        },
        {
          "duration": 0.19916666666665606,
          "durationTicks": 239,
          "midi": 82,
          "name": "A#5",
          "ticks": 147120,
          "time": 122.60000000000001,
          "velocity": 0.6299212598425197
        },
        {
          "duration": 0.7991666666666504,
          "durationTicks": 959,
          "midi": 87,
          "name": "D#6",
          "ticks": 147360,
          "time": 122.80000000000001,
          "velocity": 0.6299212598425197
        },
        {
          "duration": 0.5991666666666475,
          "durationTicks": 719,
          "midi": 75,
          "name": "D#5",
          "ticks": 149760,
          "time": 124.80000000000001,
          "velocity": 0.6299212598425197
        },
        {
          "duration": 0.5991666666666475,
          "durationTicks": 719,
          "midi": 70,
          "name": "A#4",
          "ticks": 149760,
          "time": 124.80000000000001,
          "velocity": 0.6299212598425197
        },
        {
          "duration": 0.5991666666666475,
          "durationTicks": 719,
          "midi": 67,
          "name": "G4",
          "ticks": 149760,
          "time": 124.80000000000001,
          "velocity": 0.6299212598425197
        },
        {
          "duration": 0.19916666666665606,
          "durationTicks": 239,
          "midi": 75,
          "name": "D#5",
          "ticks": 150480,
          "time": 125.4,
          "velocity": 0.6299212598425197
        },
        {
          "duration": 0.19916666666665606,
          "durationTicks": 239,
          "midi": 70,
          "name": "A#4",
          "ticks": 150480,
          "time": 125.4,
          "velocity": 0.6299212598425197
        },
        {
          "duration": 0.19916666666665606,
          "durationTicks": 239,
          "midi": 67,
          "name": "G4",
          "ticks": 150480,
          "time": 125.4,
          "velocity": 0.6299212598425197
        },
        {
          "duration": 0.3991666666666447,
          "durationTicks": 479,
          "midi": 75,
          "name": "D#5",
          "ticks": 150960,
          "time": 125.80000000000001,
          "velocity": 0.6299212598425197
        },
        {
          "duration": 0.3991666666666447,
          "durationTicks": 479,
          "midi": 70,
          "name": "A#4",
          "ticks": 150960,
          "time": 125.80000000000001,
          "velocity": 0.6299212598425197
        },
        {
          "duration": 0.3991666666666447,
          "durationTicks": 479,
          "midi": 67,
          "name": "G4",
          "ticks": 150960,
          "time": 125.80000000000001,
          "velocity": 0.6299212598425197
        },
        {
          "duration": 0.3991666666666589,
          "durationTicks": 479,
          "midi": 75,
          "name": "D#5",
          "ticks": 151440,
          "time": 126.2,
          "velocity": 0.6299212598425197
        },
        {
          "duration": 0.3991666666666589,
          "durationTicks": 479,
          "midi": 70,
          "name": "A#4",
          "ticks": 151440,
          "time": 126.2,
          "velocity": 0.6299212598425197
        },
        {
          "duration": 0.3991666666666589,
          "durationTicks": 479,
          "midi": 67,
          "name": "G4",
          "ticks": 151440,
          "time": 126.2,
          "velocity": 0.6299212598425197
        },
        {
          "duration": 0.3991666666666589,
          "durationTicks": 479,
          "midi": 75,
          "name": "D#5",
          "ticks": 151920,
          "time": 126.60000000000001,
          "velocity": 0.6299212598425197
        },
        {
          "duration": 0.3991666666666589,
          "durationTicks": 479,
          "midi": 70,
          "name": "A#4",
          "ticks": 151920,
          "time": 126.60000000000001,
          "velocity": 0.6299212598425197
        },
        {
          "duration": 0.3991666666666589,
          "durationTicks": 479,
          "midi": 67,
          "name": "G4",
          "ticks": 151920,
          "time": 126.60000000000001,
          "velocity": 0.6299212598425197
        },
        {
          "duration": 0.19916666666665606,
          "durationTicks": 239,
          "midi": 75,
          "name": "D#5",
          "ticks": 152400,
          "time": 127,
          "velocity": 0.6299212598425197
        },
        {
          "duration": 0.19916666666665606,
          "durationTicks": 239,
          "midi": 70,
          "name": "A#4",
          "ticks": 152400,
          "time": 127,
          "velocity": 0.6299212598425197
        },
        {
          "duration": 0.19916666666665606,
          "durationTicks": 239,
          "midi": 67,
          "name": "G4",
          "ticks": 152400,
          "time": 127,
          "velocity": 0.6299212598425197
        },
        {
          "duration": 0.3991666666666589,
          "durationTicks": 479,
          "midi": 75,
          "name": "D#5",
          "ticks": 152640,
          "time": 127.2,
          "velocity": 0.6299212598425197
        },
        {
          "duration": 0.3991666666666589,
          "durationTicks": 479,
          "midi": 70,
          "name": "A#4",
          "ticks": 152640,
          "time": 127.2,
          "velocity": 0.6299212598425197
        },
        {
          "duration": 0.3991666666666589,
          "durationTicks": 479,
          "midi": 67,
          "name": "G4",
          "ticks": 152640,
          "time": 127.2,
          "velocity": 0.6299212598425197
        },
        {
          "duration": 0.3991666666666589,
          "durationTicks": 479,
          "midi": 74,
          "name": "D5",
          "ticks": 153120,
          "time": 127.60000000000001,
          "velocity": 0.6299212598425197
        },
        {
          "duration": 0.3991666666666589,
          "durationTicks": 479,
          "midi": 70,
          "name": "A#4",
          "ticks": 153120,
          "time": 127.60000000000001,
          "velocity": 0.6299212598425197
        },
        {
          "duration": 0.3991666666666589,
          "durationTicks": 479,
          "midi": 65,
          "name": "F4",
          "ticks": 153120,
          "time": 127.60000000000001,
          "velocity": 0.6299212598425197
        },
        {
          "duration": 0.5991666666666617,
          "durationTicks": 719,
          "midi": 75,
          "name": "D#5",
          "ticks": 153600,
          "time": 128,
          "velocity": 0.6299212598425197
        },
        {
          "duration": 0.5991666666666617,
          "durationTicks": 719,
          "midi": 70,
          "name": "A#4",
          "ticks": 153600,
          "time": 128,
          "velocity": 0.6299212598425197
        },
        {
          "duration": 0.5991666666666617,
          "durationTicks": 719,
          "midi": 67,
          "name": "G4",
          "ticks": 153600,
          "time": 128,
          "velocity": 0.6299212598425197
        },
        {
          "duration": 0.19916666666665606,
          "durationTicks": 239,
          "midi": 75,
          "name": "D#5",
          "ticks": 154320,
          "time": 128.6,
          "velocity": 0.6299212598425197
        },
        {
          "duration": 0.19916666666665606,
          "durationTicks": 239,
          "midi": 70,
          "name": "A#4",
          "ticks": 154320,
          "time": 128.6,
          "velocity": 0.6299212598425197
        },
        {
          "duration": 0.19916666666665606,
          "durationTicks": 239,
          "midi": 67,
          "name": "G4",
          "ticks": 154320,
          "time": 128.6,
          "velocity": 0.6299212598425197
        },
        {
          "duration": 0.3991666666666731,
          "durationTicks": 479,
          "midi": 75,
          "name": "D#5",
          "ticks": 154800,
          "time": 129,
          "velocity": 0.6299212598425197
        },
        {
          "duration": 0.3991666666666731,
          "durationTicks": 479,
          "midi": 70,
          "name": "A#4",
          "ticks": 154800,
          "time": 129,
          "velocity": 0.6299212598425197
        },
        {
          "duration": 0.3991666666666731,
          "durationTicks": 479,
          "midi": 67,
          "name": "G4",
          "ticks": 154800,
          "time": 129,
          "velocity": 0.6299212598425197
        },
        {
          "duration": 0.3991666666666447,
          "durationTicks": 479,
          "midi": 75,
          "name": "D#5",
          "ticks": 155280,
          "time": 129.4,
          "velocity": 0.6299212598425197
        },
        {
          "duration": 0.3991666666666447,
          "durationTicks": 479,
          "midi": 70,
          "name": "A#4",
          "ticks": 155280,
          "time": 129.4,
          "velocity": 0.6299212598425197
        },
        {
          "duration": 0.3991666666666447,
          "durationTicks": 479,
          "midi": 67,
          "name": "G4",
          "ticks": 155280,
          "time": 129.4,
          "velocity": 0.6299212598425197
        },
        {
          "duration": 0.3991666666666447,
          "durationTicks": 479,
          "midi": 75,
          "name": "D#5",
          "ticks": 155760,
          "time": 129.8,
          "velocity": 0.6299212598425197
        },
        {
          "duration": 0.3991666666666447,
          "durationTicks": 479,
          "midi": 70,
          "name": "A#4",
          "ticks": 155760,
          "time": 129.8,
          "velocity": 0.6299212598425197
        },
        {
          "duration": 0.3991666666666447,
          "durationTicks": 479,
          "midi": 67,
          "name": "G4",
          "ticks": 155760,
          "time": 129.8,
          "velocity": 0.6299212598425197
        },
        {
          "duration": 0.19916666666665606,
          "durationTicks": 239,
          "midi": 75,
          "name": "D#5",
          "ticks": 156240,
          "time": 130.20000000000002,
          "velocity": 0.6299212598425197
        },
        {
          "duration": 0.19916666666665606,
          "durationTicks": 239,
          "midi": 70,
          "name": "A#4",
          "ticks": 156240,
          "time": 130.20000000000002,
          "velocity": 0.6299212598425197
        },
        {
          "duration": 0.19916666666665606,
          "durationTicks": 239,
          "midi": 67,
          "name": "G4",
          "ticks": 156240,
          "time": 130.20000000000002,
          "velocity": 0.6299212598425197
        },
        {
          "duration": 0.3991666666666447,
          "durationTicks": 479,
          "midi": 75,
          "name": "D#5",
          "ticks": 156480,
          "time": 130.4,
          "velocity": 0.6299212598425197
        },
        {
          "duration": 0.3991666666666447,
          "durationTicks": 479,
          "midi": 70,
          "name": "A#4",
          "ticks": 156480,
          "time": 130.4,
          "velocity": 0.6299212598425197
        },
        {
          "duration": 0.3991666666666447,
          "durationTicks": 479,
          "midi": 67,
          "name": "G4",
          "ticks": 156480,
          "time": 130.4,
          "velocity": 0.6299212598425197
        },
        {
          "duration": 0.3991666666666447,
          "durationTicks": 479,
          "midi": 74,
          "name": "D5",
          "ticks": 156960,
          "time": 130.8,
          "velocity": 0.6299212598425197
        },
        {
          "duration": 0.3991666666666447,
          "durationTicks": 479,
          "midi": 70,
          "name": "A#4",
          "ticks": 156960,
          "time": 130.8,
          "velocity": 0.6299212598425197
        },
        {
          "duration": 0.3991666666666447,
          "durationTicks": 479,
          "midi": 65,
          "name": "F4",
          "ticks": 156960,
          "time": 130.8,
          "velocity": 0.6299212598425197
        },
        {
          "duration": 0.5991666666666333,
          "durationTicks": 719,
          "midi": 75,
          "name": "D#5",
          "ticks": 157440,
          "time": 131.20000000000002,
          "velocity": 0.6299212598425197
        },
        {
          "duration": 0.5991666666666333,
          "durationTicks": 719,
          "midi": 70,
          "name": "A#4",
          "ticks": 157440,
          "time": 131.20000000000002,
          "velocity": 0.6299212598425197
        },
        {
          "duration": 0.5991666666666333,
          "durationTicks": 719,
          "midi": 67,
          "name": "G4",
          "ticks": 157440,
          "time": 131.20000000000002,
          "velocity": 0.6299212598425197
        },
        {
          "duration": 0.19916666666665606,
          "durationTicks": 239,
          "midi": 75,
          "name": "D#5",
          "ticks": 158160,
          "time": 131.8,
          "velocity": 0.6299212598425197
        },
        {
          "duration": 0.19916666666665606,
          "durationTicks": 239,
          "midi": 70,
          "name": "A#4",
          "ticks": 158160,
          "time": 131.8,
          "velocity": 0.6299212598425197
        },
        {
          "duration": 0.19916666666665606,
          "durationTicks": 239,
          "midi": 67,
          "name": "G4",
          "ticks": 158160,
          "time": 131.8,
          "velocity": 0.6299212598425197
        },
        {
          "duration": 0.3991666666666447,
          "durationTicks": 479,
          "midi": 75,
          "name": "D#5",
          "ticks": 158640,
          "time": 132.20000000000002,
          "velocity": 0.6299212598425197
        },
        {
          "duration": 0.3991666666666447,
          "durationTicks": 479,
          "midi": 70,
          "name": "A#4",
          "ticks": 158640,
          "time": 132.20000000000002,
          "velocity": 0.6299212598425197
        },
        {
          "duration": 0.3991666666666447,
          "durationTicks": 479,
          "midi": 67,
          "name": "G4",
          "ticks": 158640,
          "time": 132.20000000000002,
          "velocity": 0.6299212598425197
        },
        {
          "duration": 0.3991666666666731,
          "durationTicks": 479,
          "midi": 75,
          "name": "D#5",
          "ticks": 159120,
          "time": 132.6,
          "velocity": 0.6299212598425197
        },
        {
          "duration": 0.3991666666666731,
          "durationTicks": 479,
          "midi": 70,
          "name": "A#4",
          "ticks": 159120,
          "time": 132.6,
          "velocity": 0.6299212598425197
        },
        {
          "duration": 0.3991666666666731,
          "durationTicks": 479,
          "midi": 67,
          "name": "G4",
          "ticks": 159120,
          "time": 132.6,
          "velocity": 0.6299212598425197
        },
        {
          "duration": 0.3991666666666731,
          "durationTicks": 479,
          "midi": 75,
          "name": "D#5",
          "ticks": 159600,
          "time": 133,
          "velocity": 0.6299212598425197
        },
        {
          "duration": 0.3991666666666731,
          "durationTicks": 479,
          "midi": 70,
          "name": "A#4",
          "ticks": 159600,
          "time": 133,
          "velocity": 0.6299212598425197
        },
        {
          "duration": 0.3991666666666731,
          "durationTicks": 479,
          "midi": 67,
          "name": "G4",
          "ticks": 159600,
          "time": 133,
          "velocity": 0.6299212598425197
        },
        {
          "duration": 0.19916666666665606,
          "durationTicks": 239,
          "midi": 75,
          "name": "D#5",
          "ticks": 160080,
          "time": 133.4,
          "velocity": 0.6299212598425197
        },
        {
          "duration": 0.19916666666665606,
          "durationTicks": 239,
          "midi": 70,
          "name": "A#4",
          "ticks": 160080,
          "time": 133.4,
          "velocity": 0.6299212598425197
        },
        {
          "duration": 0.19916666666665606,
          "durationTicks": 239,
          "midi": 67,
          "name": "G4",
          "ticks": 160080,
          "time": 133.4,
          "velocity": 0.6299212598425197
        },
        {
          "duration": 0.3991666666666731,
          "durationTicks": 479,
          "midi": 75,
          "name": "D#5",
          "ticks": 160320,
          "time": 133.6,
          "velocity": 0.6299212598425197
        },
        {
          "duration": 0.3991666666666731,
          "durationTicks": 479,
          "midi": 70,
          "name": "A#4",
          "ticks": 160320,
          "time": 133.6,
          "velocity": 0.6299212598425197
        },
        {
          "duration": 0.3991666666666731,
          "durationTicks": 479,
          "midi": 67,
          "name": "G4",
          "ticks": 160320,
          "time": 133.6,
          "velocity": 0.6299212598425197
        },
        {
          "duration": 0.3991666666666731,
          "durationTicks": 479,
          "midi": 74,
          "name": "D5",
          "ticks": 160800,
          "time": 134,
          "velocity": 0.6299212598425197
        },
        {
          "duration": 0.3991666666666731,
          "durationTicks": 479,
          "midi": 70,
          "name": "A#4",
          "ticks": 160800,
          "time": 134,
          "velocity": 0.6299212598425197
        },
        {
          "duration": 0.3991666666666731,
          "durationTicks": 479,
          "midi": 65,
          "name": "F4",
          "ticks": 160800,
          "time": 134,
          "velocity": 0.6299212598425197
        },
        {
          "duration": 0.5991666666666617,
          "durationTicks": 719,
          "midi": 75,
          "name": "D#5",
          "ticks": 161280,
          "time": 134.4,
          "velocity": 0.6299212598425197
        },
        {
          "duration": 0.5991666666666617,
          "durationTicks": 719,
          "midi": 70,
          "name": "A#4",
          "ticks": 161280,
          "time": 134.4,
          "velocity": 0.6299212598425197
        },
        {
          "duration": 0.5991666666666617,
          "durationTicks": 719,
          "midi": 67,
          "name": "G4",
          "ticks": 161280,
          "time": 134.4,
          "velocity": 0.6299212598425197
        },
        {
          "duration": 0.19916666666665606,
          "durationTicks": 239,
          "midi": 75,
          "name": "D#5",
          "ticks": 162000,
          "time": 135,
          "velocity": 0.6299212598425197
        },
        {
          "duration": 0.19916666666665606,
          "durationTicks": 239,
          "midi": 70,
          "name": "A#4",
          "ticks": 162000,
          "time": 135,
          "velocity": 0.6299212598425197
        },
        {
          "duration": 0.19916666666665606,
          "durationTicks": 239,
          "midi": 67,
          "name": "G4",
          "ticks": 162000,
          "time": 135,
          "velocity": 0.6299212598425197
        },
        {
          "duration": 0.3991666666666447,
          "durationTicks": 479,
          "midi": 75,
          "name": "D#5",
          "ticks": 162480,
          "time": 135.4,
          "velocity": 0.6299212598425197
        },
        {
          "duration": 0.3991666666666447,
          "durationTicks": 479,
          "midi": 70,
          "name": "A#4",
          "ticks": 162480,
          "time": 135.4,
          "velocity": 0.6299212598425197
        },
        {
          "duration": 0.3991666666666447,
          "durationTicks": 479,
          "midi": 67,
          "name": "G4",
          "ticks": 162480,
          "time": 135.4,
          "velocity": 0.6299212598425197
        },
        {
          "duration": 0.19916666666665606,
          "durationTicks": 239,
          "midi": 75,
          "name": "D#5",
          "ticks": 162960,
          "time": 135.8,
          "velocity": 0.6299212598425197
        },
        {
          "duration": 0.19916666666665606,
          "durationTicks": 239,
          "midi": 70,
          "name": "A#4",
          "ticks": 162960,
          "time": 135.8,
          "velocity": 0.6299212598425197
        },
        {
          "duration": 0.19916666666665606,
          "durationTicks": 239,
          "midi": 67,
          "name": "G4",
          "ticks": 162960,
          "time": 135.8,
          "velocity": 0.6299212598425197
        },
        {
          "duration": 0.19916666666665606,
          "durationTicks": 239,
          "midi": 70,
          "name": "A#4",
          "ticks": 163440,
          "time": 136.20000000000002,
          "velocity": 0.6299212598425197
        },
        {
          "duration": 0.19916666666665606,
          "durationTicks": 239,
          "midi": 65,
          "name": "F4",
          "ticks": 163440,
          "time": 136.20000000000002,
          "velocity": 0.6299212598425197
        },
        {
          "duration": 0.19916666666665606,
          "durationTicks": 239,
          "midi": 63,
          "name": "D#4",
          "ticks": 163440,
          "time": 136.20000000000002,
          "velocity": 0.6299212598425197
        },
        {
          "duration": 0.19916666666665606,
          "durationTicks": 239,
          "midi": 70,
          "name": "A#4",
          "ticks": 163680,
          "time": 136.4,
          "velocity": 0.6299212598425197
        },
        {
          "duration": 0.19916666666665606,
          "durationTicks": 239,
          "midi": 65,
          "name": "F4",
          "ticks": 163680,
          "time": 136.4,
          "velocity": 0.6299212598425197
        },
        {
          "duration": 0.19916666666665606,
          "durationTicks": 239,
          "midi": 63,
          "name": "D#4",
          "ticks": 163680,
          "time": 136.4,
          "velocity": 0.6299212598425197
        },
        {
          "duration": 0.19916666666665606,
          "durationTicks": 239,
          "midi": 70,
          "name": "A#4",
          "ticks": 163920,
          "time": 136.6,
          "velocity": 0.6299212598425197
        },
        {
          "duration": 0.19916666666665606,
          "durationTicks": 239,
          "midi": 65,
          "name": "F4",
          "ticks": 163920,
          "time": 136.6,
          "velocity": 0.6299212598425197
        },
        {
          "duration": 0.19916666666665606,
          "durationTicks": 239,
          "midi": 63,
          "name": "D#4",
          "ticks": 163920,
          "time": 136.6,
          "velocity": 0.6299212598425197
        },
        {
          "duration": 0.19916666666665606,
          "durationTicks": 239,
          "midi": 70,
          "name": "A#4",
          "ticks": 164160,
          "time": 136.8,
          "velocity": 0.6299212598425197
        },
        {
          "duration": 0.19916666666665606,
          "durationTicks": 239,
          "midi": 65,
          "name": "F4",
          "ticks": 164160,
          "time": 136.8,
          "velocity": 0.6299212598425197
        },
        {
          "duration": 0.19916666666665606,
          "durationTicks": 239,
          "midi": 63,
          "name": "D#4",
          "ticks": 164160,
          "time": 136.8,
          "velocity": 0.6299212598425197
        },
        {
          "duration": 0.19916666666665606,
          "durationTicks": 239,
          "midi": 70,
          "name": "A#4",
          "ticks": 164400,
          "time": 137,
          "velocity": 0.6299212598425197
        },
        {
          "duration": 0.19916666666665606,
          "durationTicks": 239,
          "midi": 65,
          "name": "F4",
          "ticks": 164400,
          "time": 137,
          "velocity": 0.6299212598425197
        },
        {
          "duration": 0.19916666666665606,
          "durationTicks": 239,
          "midi": 63,
          "name": "D#4",
          "ticks": 164400,
          "time": 137,
          "velocity": 0.6299212598425197
        },
        {
          "duration": 0.5991666666666617,
          "durationTicks": 719,
          "midi": 75,
          "name": "D#5",
          "ticks": 165120,
          "time": 137.6,
          "velocity": 0.6299212598425197
        },
        {
          "duration": 0.5991666666666617,
          "durationTicks": 719,
          "midi": 70,
          "name": "A#4",
          "ticks": 165120,
          "time": 137.6,
          "velocity": 0.6299212598425197
        },
        {
          "duration": 0.5991666666666617,
          "durationTicks": 719,
          "midi": 67,
          "name": "G4",
          "ticks": 165120,
          "time": 137.6,
          "velocity": 0.6299212598425197
        },
        {
          "duration": 0.19916666666665606,
          "durationTicks": 239,
          "midi": 75,
          "name": "D#5",
          "ticks": 165840,
          "time": 138.20000000000002,
          "velocity": 0.6299212598425197
        },
        {
          "duration": 0.19916666666665606,
          "durationTicks": 239,
          "midi": 70,
          "name": "A#4",
          "ticks": 165840,
          "time": 138.20000000000002,
          "velocity": 0.6299212598425197
        },
        {
          "duration": 0.19916666666665606,
          "durationTicks": 239,
          "midi": 67,
          "name": "G4",
          "ticks": 165840,
          "time": 138.20000000000002,
          "velocity": 0.6299212598425197
        },
        {
          "duration": 0.3991666666666731,
          "durationTicks": 479,
          "midi": 75,
          "name": "D#5",
          "ticks": 166320,
          "time": 138.6,
          "velocity": 0.6299212598425197
        },
        {
          "duration": 0.3991666666666731,
          "durationTicks": 479,
          "midi": 70,
          "name": "A#4",
          "ticks": 166320,
          "time": 138.6,
          "velocity": 0.6299212598425197
        },
        {
          "duration": 0.3991666666666731,
          "durationTicks": 479,
          "midi": 67,
          "name": "G4",
          "ticks": 166320,
          "time": 138.6,
          "velocity": 0.6299212598425197
        },
        {
          "duration": 0.3991666666666731,
          "durationTicks": 479,
          "midi": 75,
          "name": "D#5",
          "ticks": 166800,
          "time": 139,
          "velocity": 0.6299212598425197
        },
        {
          "duration": 0.3991666666666731,
          "durationTicks": 479,
          "midi": 70,
          "name": "A#4",
          "ticks": 166800,
          "time": 139,
          "velocity": 0.6299212598425197
        },
        {
          "duration": 0.3991666666666731,
          "durationTicks": 479,
          "midi": 67,
          "name": "G4",
          "ticks": 166800,
          "time": 139,
          "velocity": 0.6299212598425197
        },
        {
          "duration": 0.3991666666666447,
          "durationTicks": 479,
          "midi": 75,
          "name": "D#5",
          "ticks": 167280,
          "time": 139.4,
          "velocity": 0.6299212598425197
        },
        {
          "duration": 0.3991666666666447,
          "durationTicks": 479,
          "midi": 70,
          "name": "A#4",
          "ticks": 167280,
          "time": 139.4,
          "velocity": 0.6299212598425197
        },
        {
          "duration": 0.3991666666666447,
          "durationTicks": 479,
          "midi": 67,
          "name": "G4",
          "ticks": 167280,
          "time": 139.4,
          "velocity": 0.6299212598425197
        },
        {
          "duration": 0.19916666666665606,
          "durationTicks": 239,
          "midi": 75,
          "name": "D#5",
          "ticks": 167760,
          "time": 139.8,
          "velocity": 0.6299212598425197
        },
        {
          "duration": 0.19916666666665606,
          "durationTicks": 239,
          "midi": 70,
          "name": "A#4",
          "ticks": 167760,
          "time": 139.8,
          "velocity": 0.6299212598425197
        },
        {
          "duration": 0.19916666666665606,
          "durationTicks": 239,
          "midi": 67,
          "name": "G4",
          "ticks": 167760,
          "time": 139.8,
          "velocity": 0.6299212598425197
        },
        {
          "duration": 0.3991666666666731,
          "durationTicks": 479,
          "midi": 75,
          "name": "D#5",
          "ticks": 168000,
          "time": 140,
          "velocity": 0.6299212598425197
        },
        {
          "duration": 0.3991666666666731,
          "durationTicks": 479,
          "midi": 70,
          "name": "A#4",
          "ticks": 168000,
          "time": 140,
          "velocity": 0.6299212598425197
        },
        {
          "duration": 0.3991666666666731,
          "durationTicks": 479,
          "midi": 67,
          "name": "G4",
          "ticks": 168000,
          "time": 140,
          "velocity": 0.6299212598425197
        },
        {
          "duration": 0.3991666666666447,
          "durationTicks": 479,
          "midi": 74,
          "name": "D5",
          "ticks": 168480,
          "time": 140.4,
          "velocity": 0.6299212598425197
        },
        {
          "duration": 0.3991666666666447,
          "durationTicks": 479,
          "midi": 70,
          "name": "A#4",
          "ticks": 168480,
          "time": 140.4,
          "velocity": 0.6299212598425197
        },
        {
          "duration": 0.3991666666666447,
          "durationTicks": 479,
          "midi": 65,
          "name": "F4",
          "ticks": 168480,
          "time": 140.4,
          "velocity": 0.6299212598425197
        },
        {
          "duration": 0.5991666666666617,
          "durationTicks": 719,
          "midi": 75,
          "name": "D#5",
          "ticks": 168960,
          "time": 140.8,
          "velocity": 0.6299212598425197
        },
        {
          "duration": 0.5991666666666617,
          "durationTicks": 719,
          "midi": 70,
          "name": "A#4",
          "ticks": 168960,
          "time": 140.8,
          "velocity": 0.6299212598425197
        },
        {
          "duration": 0.5991666666666617,
          "durationTicks": 719,
          "midi": 67,
          "name": "G4",
          "ticks": 168960,
          "time": 140.8,
          "velocity": 0.6299212598425197
        },
        {
          "duration": 0.19916666666665606,
          "durationTicks": 239,
          "midi": 75,
          "name": "D#5",
          "ticks": 169680,
          "time": 141.4,
          "velocity": 0.6299212598425197
        },
        {
          "duration": 0.19916666666665606,
          "durationTicks": 239,
          "midi": 70,
          "name": "A#4",
          "ticks": 169680,
          "time": 141.4,
          "velocity": 0.6299212598425197
        },
        {
          "duration": 0.19916666666665606,
          "durationTicks": 239,
          "midi": 67,
          "name": "G4",
          "ticks": 169680,
          "time": 141.4,
          "velocity": 0.6299212598425197
        },
        {
          "duration": 0.3991666666666447,
          "durationTicks": 479,
          "midi": 75,
          "name": "D#5",
          "ticks": 170160,
          "time": 141.8,
          "velocity": 0.6299212598425197
        },
        {
          "duration": 0.3991666666666447,
          "durationTicks": 479,
          "midi": 70,
          "name": "A#4",
          "ticks": 170160,
          "time": 141.8,
          "velocity": 0.6299212598425197
        },
        {
          "duration": 0.3991666666666447,
          "durationTicks": 479,
          "midi": 67,
          "name": "G4",
          "ticks": 170160,
          "time": 141.8,
          "velocity": 0.6299212598425197
        },
        {
          "duration": 0.3991666666666447,
          "durationTicks": 479,
          "midi": 75,
          "name": "D#5",
          "ticks": 170640,
          "time": 142.20000000000002,
          "velocity": 0.6299212598425197
        },
        {
          "duration": 0.3991666666666447,
          "durationTicks": 479,
          "midi": 70,
          "name": "A#4",
          "ticks": 170640,
          "time": 142.20000000000002,
          "velocity": 0.6299212598425197
        },
        {
          "duration": 0.3991666666666447,
          "durationTicks": 479,
          "midi": 67,
          "name": "G4",
          "ticks": 170640,
          "time": 142.20000000000002,
          "velocity": 0.6299212598425197
        },
        {
          "duration": 0.3991666666666731,
          "durationTicks": 479,
          "midi": 75,
          "name": "D#5",
          "ticks": 171120,
          "time": 142.6,
          "velocity": 0.6299212598425197
        },
        {
          "duration": 0.3991666666666731,
          "durationTicks": 479,
          "midi": 70,
          "name": "A#4",
          "ticks": 171120,
          "time": 142.6,
          "velocity": 0.6299212598425197
        },
        {
          "duration": 0.3991666666666731,
          "durationTicks": 479,
          "midi": 67,
          "name": "G4",
          "ticks": 171120,
          "time": 142.6,
          "velocity": 0.6299212598425197
        },
        {
          "duration": 0.19916666666665606,
          "durationTicks": 239,
          "midi": 75,
          "name": "D#5",
          "ticks": 171600,
          "time": 143,
          "velocity": 0.6299212598425197
        },
        {
          "duration": 0.19916666666665606,
          "durationTicks": 239,
          "midi": 70,
          "name": "A#4",
          "ticks": 171600,
          "time": 143,
          "velocity": 0.6299212598425197
        },
        {
          "duration": 0.19916666666665606,
          "durationTicks": 239,
          "midi": 67,
          "name": "G4",
          "ticks": 171600,
          "time": 143,
          "velocity": 0.6299212598425197
        },
        {
          "duration": 0.3991666666666447,
          "durationTicks": 479,
          "midi": 75,
          "name": "D#5",
          "ticks": 171840,
          "time": 143.20000000000002,
          "velocity": 0.6299212598425197
        },
        {
          "duration": 0.3991666666666447,
          "durationTicks": 479,
          "midi": 70,
          "name": "A#4",
          "ticks": 171840,
          "time": 143.20000000000002,
          "velocity": 0.6299212598425197
        },
        {
          "duration": 0.3991666666666447,
          "durationTicks": 479,
          "midi": 67,
          "name": "G4",
          "ticks": 171840,
          "time": 143.20000000000002,
          "velocity": 0.6299212598425197
        },
        {
          "duration": 0.3991666666666731,
          "durationTicks": 479,
          "midi": 74,
          "name": "D5",
          "ticks": 172320,
          "time": 143.6,
          "velocity": 0.6299212598425197
        },
        {
          "duration": 0.3991666666666731,
          "durationTicks": 479,
          "midi": 70,
          "name": "A#4",
          "ticks": 172320,
          "time": 143.6,
          "velocity": 0.6299212598425197
        },
        {
          "duration": 0.3991666666666731,
          "durationTicks": 479,
          "midi": 65,
          "name": "F4",
          "ticks": 172320,
          "time": 143.6,
          "velocity": 0.6299212598425197
        },
        {
          "duration": 0.5991666666666617,
          "durationTicks": 719,
          "midi": 75,
          "name": "D#5",
          "ticks": 172800,
          "time": 144,
          "velocity": 0.6299212598425197
        },
        {
          "duration": 0.5991666666666617,
          "durationTicks": 719,
          "midi": 70,
          "name": "A#4",
          "ticks": 172800,
          "time": 144,
          "velocity": 0.6299212598425197
        },
        {
          "duration": 0.5991666666666617,
          "durationTicks": 719,
          "midi": 67,
          "name": "G4",
          "ticks": 172800,
          "time": 144,
          "velocity": 0.6299212598425197
        },
        {
          "duration": 0.19916666666665606,
          "durationTicks": 239,
          "midi": 75,
          "name": "D#5",
          "ticks": 173520,
          "time": 144.6,
          "velocity": 0.6299212598425197
        },
        {
          "duration": 0.19916666666665606,
          "durationTicks": 239,
          "midi": 70,
          "name": "A#4",
          "ticks": 173520,
          "time": 144.6,
          "velocity": 0.6299212598425197
        },
        {
          "duration": 0.19916666666665606,
          "durationTicks": 239,
          "midi": 67,
          "name": "G4",
          "ticks": 173520,
          "time": 144.6,
          "velocity": 0.6299212598425197
        },
        {
          "duration": 0.3991666666666731,
          "durationTicks": 479,
          "midi": 75,
          "name": "D#5",
          "ticks": 174000,
          "time": 145,
          "velocity": 0.6299212598425197
        },
        {
          "duration": 0.3991666666666731,
          "durationTicks": 479,
          "midi": 70,
          "name": "A#4",
          "ticks": 174000,
          "time": 145,
          "velocity": 0.6299212598425197
        },
        {
          "duration": 0.3991666666666731,
          "durationTicks": 479,
          "midi": 67,
          "name": "G4",
          "ticks": 174000,
          "time": 145,
          "velocity": 0.6299212598425197
        },
        {
          "duration": 0.3991666666666447,
          "durationTicks": 479,
          "midi": 75,
          "name": "D#5",
          "ticks": 174480,
          "time": 145.4,
          "velocity": 0.6299212598425197
        },
        {
          "duration": 0.3991666666666447,
          "durationTicks": 479,
          "midi": 70,
          "name": "A#4",
          "ticks": 174480,
          "time": 145.4,
          "velocity": 0.6299212598425197
        },
        {
          "duration": 0.3991666666666447,
          "durationTicks": 479,
          "midi": 67,
          "name": "G4",
          "ticks": 174480,
          "time": 145.4,
          "velocity": 0.6299212598425197
        },
        {
          "duration": 0.3991666666666447,
          "durationTicks": 479,
          "midi": 75,
          "name": "D#5",
          "ticks": 174960,
          "time": 145.8,
          "velocity": 0.6299212598425197
        },
        {
          "duration": 0.3991666666666447,
          "durationTicks": 479,
          "midi": 70,
          "name": "A#4",
          "ticks": 174960,
          "time": 145.8,
          "velocity": 0.6299212598425197
        },
        {
          "duration": 0.3991666666666447,
          "durationTicks": 479,
          "midi": 67,
          "name": "G4",
          "ticks": 174960,
          "time": 145.8,
          "velocity": 0.6299212598425197
        },
        {
          "duration": 0.19916666666665606,
          "durationTicks": 239,
          "midi": 75,
          "name": "D#5",
          "ticks": 175440,
          "time": 146.20000000000002,
          "velocity": 0.6299212598425197
        },
        {
          "duration": 0.19916666666665606,
          "durationTicks": 239,
          "midi": 70,
          "name": "A#4",
          "ticks": 175440,
          "time": 146.20000000000002,
          "velocity": 0.6299212598425197
        },
        {
          "duration": 0.19916666666665606,
          "durationTicks": 239,
          "midi": 67,
          "name": "G4",
          "ticks": 175440,
          "time": 146.20000000000002,
          "velocity": 0.6299212598425197
        },
        {
          "duration": 0.3991666666666447,
          "durationTicks": 479,
          "midi": 75,
          "name": "D#5",
          "ticks": 175680,
          "time": 146.4,
          "velocity": 0.6299212598425197
        },
        {
          "duration": 0.3991666666666447,
          "durationTicks": 479,
          "midi": 70,
          "name": "A#4",
          "ticks": 175680,
          "time": 146.4,
          "velocity": 0.6299212598425197
        },
        {
          "duration": 0.3991666666666447,
          "durationTicks": 479,
          "midi": 67,
          "name": "G4",
          "ticks": 175680,
          "time": 146.4,
          "velocity": 0.6299212598425197
        },
        {
          "duration": 0.3991666666666447,
          "durationTicks": 479,
          "midi": 74,
          "name": "D5",
          "ticks": 176160,
          "time": 146.8,
          "velocity": 0.6299212598425197
        },
        {
          "duration": 0.3991666666666447,
          "durationTicks": 479,
          "midi": 70,
          "name": "A#4",
          "ticks": 176160,
          "time": 146.8,
          "velocity": 0.6299212598425197
        },
        {
          "duration": 0.3991666666666447,
          "durationTicks": 479,
          "midi": 65,
          "name": "F4",
          "ticks": 176160,
          "time": 146.8,
          "velocity": 0.6299212598425197
        },
        {
          "duration": 0.5991666666666333,
          "durationTicks": 719,
          "midi": 75,
          "name": "D#5",
          "ticks": 176640,
          "time": 147.20000000000002,
          "velocity": 0.6299212598425197
        },
        {
          "duration": 0.5991666666666333,
          "durationTicks": 719,
          "midi": 70,
          "name": "A#4",
          "ticks": 176640,
          "time": 147.20000000000002,
          "velocity": 0.6299212598425197
        },
        {
          "duration": 0.5991666666666333,
          "durationTicks": 719,
          "midi": 67,
          "name": "G4",
          "ticks": 176640,
          "time": 147.20000000000002,
          "velocity": 0.6299212598425197
        },
        {
          "duration": 0.19916666666665606,
          "durationTicks": 239,
          "midi": 75,
          "name": "D#5",
          "ticks": 177360,
          "time": 147.8,
          "velocity": 0.6299212598425197
        },
        {
          "duration": 0.19916666666665606,
          "durationTicks": 239,
          "midi": 70,
          "name": "A#4",
          "ticks": 177360,
          "time": 147.8,
          "velocity": 0.6299212598425197
        },
        {
          "duration": 0.19916666666665606,
          "durationTicks": 239,
          "midi": 67,
          "name": "G4",
          "ticks": 177360,
          "time": 147.8,
          "velocity": 0.6299212598425197
        },
        {
          "duration": 0.3991666666666447,
          "durationTicks": 479,
          "midi": 75,
          "name": "D#5",
          "ticks": 177840,
          "time": 148.20000000000002,
          "velocity": 0.6299212598425197
        },
        {
          "duration": 0.3991666666666447,
          "durationTicks": 479,
          "midi": 70,
          "name": "A#4",
          "ticks": 177840,
          "time": 148.20000000000002,
          "velocity": 0.6299212598425197
        },
        {
          "duration": 0.3991666666666447,
          "durationTicks": 479,
          "midi": 67,
          "name": "G4",
          "ticks": 177840,
          "time": 148.20000000000002,
          "velocity": 0.6299212598425197
        },
        {
          "duration": 0.19916666666665606,
          "durationTicks": 239,
          "midi": 75,
          "name": "D#5",
          "ticks": 178320,
          "time": 148.6,
          "velocity": 0.6299212598425197
        },
        {
          "duration": 0.19916666666665606,
          "durationTicks": 239,
          "midi": 70,
          "name": "A#4",
          "ticks": 178320,
          "time": 148.6,
          "velocity": 0.6299212598425197
        },
        {
          "duration": 0.19916666666665606,
          "durationTicks": 239,
          "midi": 67,
          "name": "G4",
          "ticks": 178320,
          "time": 148.6,
          "velocity": 0.6299212598425197
        },
        {
          "duration": 0.19916666666665606,
          "durationTicks": 239,
          "midi": 70,
          "name": "A#4",
          "ticks": 178800,
          "time": 149,
          "velocity": 0.6299212598425197
        },
        {
          "duration": 0.19916666666665606,
          "durationTicks": 239,
          "midi": 65,
          "name": "F4",
          "ticks": 178800,
          "time": 149,
          "velocity": 0.6299212598425197
        },
        {
          "duration": 0.19916666666665606,
          "durationTicks": 239,
          "midi": 63,
          "name": "D#4",
          "ticks": 178800,
          "time": 149,
          "velocity": 0.6299212598425197
        },
        {
          "duration": 0.19916666666665606,
          "durationTicks": 239,
          "midi": 70,
          "name": "A#4",
          "ticks": 179040,
          "time": 149.20000000000002,
          "velocity": 0.6299212598425197
        },
        {
          "duration": 0.19916666666665606,
          "durationTicks": 239,
          "midi": 65,
          "name": "F4",
          "ticks": 179040,
          "time": 149.20000000000002,
          "velocity": 0.6299212598425197
        },
        {
          "duration": 0.19916666666665606,
          "durationTicks": 239,
          "midi": 63,
          "name": "D#4",
          "ticks": 179040,
          "time": 149.20000000000002,
          "velocity": 0.6299212598425197
        },
        {
          "duration": 0.19916666666665606,
          "durationTicks": 239,
          "midi": 70,
          "name": "A#4",
          "ticks": 179280,
          "time": 149.4,
          "velocity": 0.6299212598425197
        },
        {
          "duration": 0.19916666666665606,
          "durationTicks": 239,
          "midi": 65,
          "name": "F4",
          "ticks": 179280,
          "time": 149.4,
          "velocity": 0.6299212598425197
        },
        {
          "duration": 0.19916666666665606,
          "durationTicks": 239,
          "midi": 63,
          "name": "D#4",
          "ticks": 179280,
          "time": 149.4,
          "velocity": 0.6299212598425197
        },
        {
          "duration": 0.19916666666665606,
          "durationTicks": 239,
          "midi": 70,
          "name": "A#4",
          "ticks": 179520,
          "time": 149.6,
          "velocity": 0.6299212598425197
        },
        {
          "duration": 0.19916666666665606,
          "durationTicks": 239,
          "midi": 65,
          "name": "F4",
          "ticks": 179520,
          "time": 149.6,
          "velocity": 0.6299212598425197
        },
        {
          "duration": 0.19916666666665606,
          "durationTicks": 239,
          "midi": 63,
          "name": "D#4",
          "ticks": 179520,
          "time": 149.6,
          "velocity": 0.6299212598425197
        },
        {
          "duration": 0.19916666666665606,
          "durationTicks": 239,
          "midi": 70,
          "name": "A#4",
          "ticks": 179760,
          "time": 149.8,
          "velocity": 0.6299212598425197
        },
        {
          "duration": 0.19916666666665606,
          "durationTicks": 239,
          "midi": 65,
          "name": "F4",
          "ticks": 179760,
          "time": 149.8,
          "velocity": 0.6299212598425197
        },
        {
          "duration": 0.19916666666665606,
          "durationTicks": 239,
          "midi": 63,
          "name": "D#4",
          "ticks": 179760,
          "time": 149.8,
          "velocity": 0.6299212598425197
        },
        {
          "duration": 0.3991666666666447,
          "durationTicks": 479,
          "midi": 79,
          "name": "G5",
          "ticks": 180480,
          "time": 150.4,
          "velocity": 0.6299212598425197
        },
        {
          "duration": 0.3991666666666447,
          "durationTicks": 479,
          "midi": 75,
          "name": "D#5",
          "ticks": 180480,
          "time": 150.4,
          "velocity": 0.6299212598425197
        },
        {
          "duration": 0.3991666666666447,
          "durationTicks": 479,
          "midi": 70,
          "name": "A#4",
          "ticks": 180480,
          "time": 150.4,
          "velocity": 0.6299212598425197
        },
        {
          "duration": 0.19916666666665606,
          "durationTicks": 239,
          "midi": 79,
          "name": "G5",
          "ticks": 181200,
          "time": 151,
          "velocity": 0.6299212598425197
        },
        {
          "duration": 0.19916666666665606,
          "durationTicks": 239,
          "midi": 75,
          "name": "D#5",
          "ticks": 181200,
          "time": 151,
          "velocity": 0.6299212598425197
        },
        {
          "duration": 0.19916666666665606,
          "durationTicks": 239,
          "midi": 70,
          "name": "A#4",
          "ticks": 181200,
          "time": 151,
          "velocity": 0.6299212598425197
        },
        {
          "duration": 0.19916666666665606,
          "durationTicks": 239,
          "midi": 79,
          "name": "G5",
          "ticks": 181920,
          "time": 151.6,
          "velocity": 0.6299212598425197
        },
        {
          "duration": 0.19916666666665606,
          "durationTicks": 239,
          "midi": 75,
          "name": "D#5",
          "ticks": 181920,
          "time": 151.6,
          "velocity": 0.6299212598425197
        },
        {
          "duration": 0.19916666666665606,
          "durationTicks": 239,
          "midi": 70,
          "name": "A#4",
          "ticks": 181920,
          "time": 151.6,
          "velocity": 0.6299212598425197
        },
        {
          "duration": 0.19916666666665606,
          "durationTicks": 239,
          "midi": 79,
          "name": "G5",
          "ticks": 182160,
          "time": 151.8,
          "velocity": 0.6299212598425197
        },
        {
          "duration": 0.19916666666665606,
          "durationTicks": 239,
          "midi": 75,
          "name": "D#5",
          "ticks": 182160,
          "time": 151.8,
          "velocity": 0.6299212598425197
        },
        {
          "duration": 0.19916666666665606,
          "durationTicks": 239,
          "midi": 70,
          "name": "A#4",
          "ticks": 182160,
          "time": 151.8,
          "velocity": 0.6299212598425197
        },
        {
          "duration": 0.19916666666665606,
          "durationTicks": 239,
          "midi": 79,
          "name": "G5",
          "ticks": 182640,
          "time": 152.20000000000002,
          "velocity": 0.6299212598425197
        },
        {
          "duration": 0.19916666666665606,
          "durationTicks": 239,
          "midi": 75,
          "name": "D#5",
          "ticks": 182640,
          "time": 152.20000000000002,
          "velocity": 0.6299212598425197
        },
        {
          "duration": 0.19916666666665606,
          "durationTicks": 239,
          "midi": 70,
          "name": "A#4",
          "ticks": 182640,
          "time": 152.20000000000002,
          "velocity": 0.6299212598425197
        },
        {
          "duration": 0.3991666666666447,
          "durationTicks": 479,
          "midi": 75,
          "name": "D#5",
          "ticks": 183360,
          "time": 152.8,
          "velocity": 0.6299212598425197
        },
        {
          "duration": 0.3991666666666447,
          "durationTicks": 479,
          "midi": 70,
          "name": "A#4",
          "ticks": 183360,
          "time": 152.8,
          "velocity": 0.6299212598425197
        },
        {
          "duration": 0.3991666666666447,
          "durationTicks": 479,
          "midi": 67,
          "name": "G4",
          "ticks": 183360,
          "time": 152.8,
          "velocity": 0.6299212598425197
        },
        {
          "duration": 0.3991666666666447,
          "durationTicks": 479,
          "midi": 74,
          "name": "D5",
          "ticks": 183840,
          "time": 153.20000000000002,
          "velocity": 0.6299212598425197
        },
        {
          "duration": 0.3991666666666447,
          "durationTicks": 479,
          "midi": 70,
          "name": "A#4",
          "ticks": 183840,
          "time": 153.20000000000002,
          "velocity": 0.6299212598425197
        },
        {
          "duration": 0.3991666666666447,
          "durationTicks": 479,
          "midi": 65,
          "name": "F4",
          "ticks": 183840,
          "time": 153.20000000000002,
          "velocity": 0.6299212598425197
        },
        {
          "duration": 0.3991666666666447,
          "durationTicks": 479,
          "midi": 75,
          "name": "D#5",
          "ticks": 184320,
          "time": 153.60000000000002,
          "velocity": 0.6299212598425197
        },
        {
          "duration": 0.3991666666666447,
          "durationTicks": 479,
          "midi": 70,
          "name": "A#4",
          "ticks": 184320,
          "time": 153.60000000000002,
          "velocity": 0.6299212598425197
        },
        {
          "duration": 0.3991666666666447,
          "durationTicks": 479,
          "midi": 67,
          "name": "G4",
          "ticks": 184320,
          "time": 153.60000000000002,
          "velocity": 0.6299212598425197
        },
        {
          "duration": 0.19916666666665606,
          "durationTicks": 239,
          "midi": 75,
          "name": "D#5",
          "ticks": 185040,
          "time": 154.20000000000002,
          "velocity": 0.6299212598425197
        },
        {
          "duration": 0.19916666666665606,
          "durationTicks": 239,
          "midi": 70,
          "name": "A#4",
          "ticks": 185040,
          "time": 154.20000000000002,
          "velocity": 0.6299212598425197
        },
        {
          "duration": 0.19916666666665606,
          "durationTicks": 239,
          "midi": 67,
          "name": "G4",
          "ticks": 185040,
          "time": 154.20000000000002,
          "velocity": 0.6299212598425197
        },
        {
          "duration": 0.19916666666665606,
          "durationTicks": 239,
          "midi": 75,
          "name": "D#5",
          "ticks": 185760,
          "time": 154.8,
          "velocity": 0.6299212598425197
        },
        {
          "duration": 0.19916666666665606,
          "durationTicks": 239,
          "midi": 70,
          "name": "A#4",
          "ticks": 185760,
          "time": 154.8,
          "velocity": 0.6299212598425197
        },
        {
          "duration": 0.19916666666665606,
          "durationTicks": 239,
          "midi": 67,
          "name": "G4",
          "ticks": 185760,
          "time": 154.8,
          "velocity": 0.6299212598425197
        },
        {
          "duration": 0.19916666666665606,
          "durationTicks": 239,
          "midi": 75,
          "name": "D#5",
          "ticks": 186000,
          "time": 155,
          "velocity": 0.6299212598425197
        },
        {
          "duration": 0.19916666666665606,
          "durationTicks": 239,
          "midi": 70,
          "name": "A#4",
          "ticks": 186000,
          "time": 155,
          "velocity": 0.6299212598425197
        },
        {
          "duration": 0.19916666666665606,
          "durationTicks": 239,
          "midi": 67,
          "name": "G4",
          "ticks": 186000,
          "time": 155,
          "velocity": 0.6299212598425197
        },
        {
          "duration": 0.19916666666665606,
          "durationTicks": 239,
          "midi": 75,
          "name": "D#5",
          "ticks": 186480,
          "time": 155.4,
          "velocity": 0.6299212598425197
        },
        {
          "duration": 0.19916666666665606,
          "durationTicks": 239,
          "midi": 70,
          "name": "A#4",
          "ticks": 186480,
          "time": 155.4,
          "velocity": 0.6299212598425197
        },
        {
          "duration": 0.19916666666665606,
          "durationTicks": 239,
          "midi": 67,
          "name": "G4",
          "ticks": 186480,
          "time": 155.4,
          "velocity": 0.6299212598425197
        },
        {
          "duration": 0.3991666666666731,
          "durationTicks": 479,
          "midi": 75,
          "name": "D#5",
          "ticks": 187200,
          "time": 156,
          "velocity": 0.6299212598425197
        },
        {
          "duration": 0.3991666666666731,
          "durationTicks": 479,
          "midi": 70,
          "name": "A#4",
          "ticks": 187200,
          "time": 156,
          "velocity": 0.6299212598425197
        },
        {
          "duration": 0.3991666666666731,
          "durationTicks": 479,
          "midi": 67,
          "name": "G4",
          "ticks": 187200,
          "time": 156,
          "velocity": 0.6299212598425197
        },
        {
          "duration": 0.3991666666666731,
          "durationTicks": 479,
          "midi": 74,
          "name": "D5",
          "ticks": 187680,
          "time": 156.4,
          "velocity": 0.6299212598425197
        },
        {
          "duration": 0.3991666666666731,
          "durationTicks": 479,
          "midi": 70,
          "name": "A#4",
          "ticks": 187680,
          "time": 156.4,
          "velocity": 0.6299212598425197
        },
        {
          "duration": 0.3991666666666731,
          "durationTicks": 479,
          "midi": 65,
          "name": "F4",
          "ticks": 187680,
          "time": 156.4,
          "velocity": 0.6299212598425197
        },
        {
          "duration": 0.3991666666666447,
          "durationTicks": 479,
          "midi": 75,
          "name": "D#5",
          "ticks": 188160,
          "time": 156.8,
          "velocity": 0.6299212598425197
        },
        {
          "duration": 0.3991666666666447,
          "durationTicks": 479,
          "midi": 70,
          "name": "A#4",
          "ticks": 188160,
          "time": 156.8,
          "velocity": 0.6299212598425197
        },
        {
          "duration": 0.3991666666666447,
          "durationTicks": 479,
          "midi": 67,
          "name": "G4",
          "ticks": 188160,
          "time": 156.8,
          "velocity": 0.6299212598425197
        },
        {
          "duration": 0.19916666666665606,
          "durationTicks": 239,
          "midi": 75,
          "name": "D#5",
          "ticks": 188880,
          "time": 157.4,
          "velocity": 0.6299212598425197
        },
        {
          "duration": 0.19916666666665606,
          "durationTicks": 239,
          "midi": 70,
          "name": "A#4",
          "ticks": 188880,
          "time": 157.4,
          "velocity": 0.6299212598425197
        },
        {
          "duration": 0.19916666666665606,
          "durationTicks": 239,
          "midi": 67,
          "name": "G4",
          "ticks": 188880,
          "time": 157.4,
          "velocity": 0.6299212598425197
        },
        {
          "duration": 0.19916666666665606,
          "durationTicks": 239,
          "midi": 75,
          "name": "D#5",
          "ticks": 189600,
          "time": 158,
          "velocity": 0.6299212598425197
        },
        {
          "duration": 0.19916666666665606,
          "durationTicks": 239,
          "midi": 70,
          "name": "A#4",
          "ticks": 189600,
          "time": 158,
          "velocity": 0.6299212598425197
        },
        {
          "duration": 0.19916666666665606,
          "durationTicks": 239,
          "midi": 67,
          "name": "G4",
          "ticks": 189600,
          "time": 158,
          "velocity": 0.6299212598425197
        },
        {
          "duration": 0.19916666666665606,
          "durationTicks": 239,
          "midi": 75,
          "name": "D#5",
          "ticks": 189840,
          "time": 158.20000000000002,
          "velocity": 0.6299212598425197
        },
        {
          "duration": 0.19916666666665606,
          "durationTicks": 239,
          "midi": 70,
          "name": "A#4",
          "ticks": 189840,
          "time": 158.20000000000002,
          "velocity": 0.6299212598425197
        },
        {
          "duration": 0.19916666666665606,
          "durationTicks": 239,
          "midi": 67,
          "name": "G4",
          "ticks": 189840,
          "time": 158.20000000000002,
          "velocity": 0.6299212598425197
        },
        {
          "duration": 0.19916666666665606,
          "durationTicks": 239,
          "midi": 75,
          "name": "D#5",
          "ticks": 190320,
          "time": 158.60000000000002,
          "velocity": 0.6299212598425197
        },
        {
          "duration": 0.19916666666665606,
          "durationTicks": 239,
          "midi": 70,
          "name": "A#4",
          "ticks": 190320,
          "time": 158.60000000000002,
          "velocity": 0.6299212598425197
        },
        {
          "duration": 0.19916666666665606,
          "durationTicks": 239,
          "midi": 67,
          "name": "G4",
          "ticks": 190320,
          "time": 158.60000000000002,
          "velocity": 0.6299212598425197
        },
        {
          "duration": 0.3991666666666447,
          "durationTicks": 479,
          "midi": 75,
          "name": "D#5",
          "ticks": 191040,
          "time": 159.20000000000002,
          "velocity": 0.6299212598425197
        },
        {
          "duration": 0.3991666666666447,
          "durationTicks": 479,
          "midi": 70,
          "name": "A#4",
          "ticks": 191040,
          "time": 159.20000000000002,
          "velocity": 0.6299212598425197
        },
        {
          "duration": 0.3991666666666447,
          "durationTicks": 479,
          "midi": 67,
          "name": "G4",
          "ticks": 191040,
          "time": 159.20000000000002,
          "velocity": 0.6299212598425197
        },
        {
          "duration": 0.3991666666666447,
          "durationTicks": 479,
          "midi": 77,
          "name": "F5",
          "ticks": 191520,
          "time": 159.60000000000002,
          "velocity": 0.6299212598425197
        },
        {
          "duration": 0.3991666666666447,
          "durationTicks": 479,
          "midi": 70,
          "name": "A#4",
          "ticks": 191520,
          "time": 159.60000000000002,
          "velocity": 0.6299212598425197
        },
        {
          "duration": 0.3991666666666447,
          "durationTicks": 479,
          "midi": 67,
          "name": "G4",
          "ticks": 191520,
          "time": 159.60000000000002,
          "velocity": 0.6299212598425197
        },
        {
          "duration": 0.3991666666666731,
          "durationTicks": 479,
          "midi": 79,
          "name": "G5",
          "ticks": 192000,
          "time": 160,
          "velocity": 0.6299212598425197
        },
        {
          "duration": 0.3991666666666731,
          "durationTicks": 479,
          "midi": 75,
          "name": "D#5",
          "ticks": 192000,
          "time": 160,
          "velocity": 0.6299212598425197
        },
        {
          "duration": 0.3991666666666731,
          "durationTicks": 479,
          "midi": 70,
          "name": "A#4",
          "ticks": 192000,
          "time": 160,
          "velocity": 0.6299212598425197
        },
        {
          "duration": 0.19916666666665606,
          "durationTicks": 239,
          "midi": 79,
          "name": "G5",
          "ticks": 192720,
          "time": 160.60000000000002,
          "velocity": 0.6299212598425197
        },
        {
          "duration": 0.19916666666665606,
          "durationTicks": 239,
          "midi": 75,
          "name": "D#5",
          "ticks": 192720,
          "time": 160.60000000000002,
          "velocity": 0.6299212598425197
        },
        {
          "duration": 0.19916666666665606,
          "durationTicks": 239,
          "midi": 70,
          "name": "A#4",
          "ticks": 192720,
          "time": 160.60000000000002,
          "velocity": 0.6299212598425197
        },
        {
          "duration": 0.19916666666665606,
          "durationTicks": 239,
          "midi": 79,
          "name": "G5",
          "ticks": 193440,
          "time": 161.20000000000002,
          "velocity": 0.6299212598425197
        },
        {
          "duration": 0.19916666666665606,
          "durationTicks": 239,
          "midi": 75,
          "name": "D#5",
          "ticks": 193440,
          "time": 161.20000000000002,
          "velocity": 0.6299212598425197
        },
        {
          "duration": 0.19916666666665606,
          "durationTicks": 239,
          "midi": 70,
          "name": "A#4",
          "ticks": 193440,
          "time": 161.20000000000002,
          "velocity": 0.6299212598425197
        },
        {
          "duration": 0.19916666666665606,
          "durationTicks": 239,
          "midi": 79,
          "name": "G5",
          "ticks": 193680,
          "time": 161.4,
          "velocity": 0.6299212598425197
        },
        {
          "duration": 0.19916666666665606,
          "durationTicks": 239,
          "midi": 75,
          "name": "D#5",
          "ticks": 193680,
          "time": 161.4,
          "velocity": 0.6299212598425197
        },
        {
          "duration": 0.19916666666665606,
          "durationTicks": 239,
          "midi": 70,
          "name": "A#4",
          "ticks": 193680,
          "time": 161.4,
          "velocity": 0.6299212598425197
        },
        {
          "duration": 0.19916666666665606,
          "durationTicks": 239,
          "midi": 79,
          "name": "G5",
          "ticks": 194160,
          "time": 161.8,
          "velocity": 0.6299212598425197
        },
        {
          "duration": 0.19916666666665606,
          "durationTicks": 239,
          "midi": 75,
          "name": "D#5",
          "ticks": 194160,
          "time": 161.8,
          "velocity": 0.6299212598425197
        },
        {
          "duration": 0.19916666666665606,
          "durationTicks": 239,
          "midi": 70,
          "name": "A#4",
          "ticks": 194160,
          "time": 161.8,
          "velocity": 0.6299212598425197
        },
        {
          "duration": 0.3991666666666731,
          "durationTicks": 479,
          "midi": 77,
          "name": "F5",
          "ticks": 194880,
          "time": 162.4,
          "velocity": 0.6299212598425197
        },
        {
          "duration": 0.3991666666666731,
          "durationTicks": 479,
          "midi": 75,
          "name": "D#5",
          "ticks": 194880,
          "time": 162.4,
          "velocity": 0.6299212598425197
        },
        {
          "duration": 0.3991666666666731,
          "durationTicks": 479,
          "midi": 70,
          "name": "A#4",
          "ticks": 194880,
          "time": 162.4,
          "velocity": 0.6299212598425197
        },
        {
          "duration": 0.3991666666666447,
          "durationTicks": 479,
          "midi": 70,
          "name": "A#4",
          "ticks": 195360,
          "time": 162.8,
          "velocity": 0.6299212598425197
        },
        {
          "duration": 0.3991666666666447,
          "durationTicks": 479,
          "midi": 65,
          "name": "F4",
          "ticks": 195360,
          "time": 162.8,
          "velocity": 0.6299212598425197
        },
        {
          "duration": 0.3991666666666447,
          "durationTicks": 479,
          "midi": 63,
          "name": "D#4",
          "ticks": 195360,
          "time": 162.8,
          "velocity": 0.6299212598425197
        },
        {
          "duration": 0.3991666666666447,
          "durationTicks": 479,
          "midi": 67,
          "name": "G4",
          "ticks": 195840,
          "time": 163.20000000000002,
          "velocity": 0.6299212598425197
        },
        {
          "duration": 0.3991666666666447,
          "durationTicks": 479,
          "midi": 63,
          "name": "D#4",
          "ticks": 195840,
          "time": 163.20000000000002,
          "velocity": 0.6299212598425197
        },
        {
          "duration": 0.3991666666666447,
          "durationTicks": 479,
          "midi": 58,
          "name": "A#3",
          "ticks": 195840,
          "time": 163.20000000000002,
          "velocity": 0.6299212598425197
        },
        {
          "duration": 0.19916666666665606,
          "durationTicks": 239,
          "midi": 67,
          "name": "G4",
          "ticks": 196560,
          "time": 163.8,
          "velocity": 0.6299212598425197
        },
        {
          "duration": 0.19916666666665606,
          "durationTicks": 239,
          "midi": 63,
          "name": "D#4",
          "ticks": 196560,
          "time": 163.8,
          "velocity": 0.6299212598425197
        },
        {
          "duration": 0.19916666666665606,
          "durationTicks": 239,
          "midi": 58,
          "name": "A#3",
          "ticks": 196560,
          "time": 163.8,
          "velocity": 0.6299212598425197
        },
        {
          "duration": 0.19916666666665606,
          "durationTicks": 239,
          "midi": 67,
          "name": "G4",
          "ticks": 197280,
          "time": 164.4,
          "velocity": 0.6299212598425197
        },
        {
          "duration": 0.19916666666665606,
          "durationTicks": 239,
          "midi": 63,
          "name": "D#4",
          "ticks": 197280,
          "time": 164.4,
          "velocity": 0.6299212598425197
        },
        {
          "duration": 0.19916666666665606,
          "durationTicks": 239,
          "midi": 58,
          "name": "A#3",
          "ticks": 197280,
          "time": 164.4,
          "velocity": 0.6299212598425197
        },
        {
          "duration": 0.19916666666665606,
          "durationTicks": 239,
          "midi": 67,
          "name": "G4",
          "ticks": 197520,
          "time": 164.60000000000002,
          "velocity": 0.6299212598425197
        },
        {
          "duration": 0.19916666666665606,
          "durationTicks": 239,
          "midi": 63,
          "name": "D#4",
          "ticks": 197520,
          "time": 164.60000000000002,
          "velocity": 0.6299212598425197
        },
        {
          "duration": 0.19916666666665606,
          "durationTicks": 239,
          "midi": 58,
          "name": "A#3",
          "ticks": 197520,
          "time": 164.60000000000002,
          "velocity": 0.6299212598425197
        },
        {
          "duration": 0.19916666666665606,
          "durationTicks": 239,
          "midi": 67,
          "name": "G4",
          "ticks": 198000,
          "time": 165,
          "velocity": 0.6299212598425197
        },
        {
          "duration": 0.19916666666665606,
          "durationTicks": 239,
          "midi": 63,
          "name": "D#4",
          "ticks": 198000,
          "time": 165,
          "velocity": 0.6299212598425197
        },
        {
          "duration": 0.19916666666665606,
          "durationTicks": 239,
          "midi": 58,
          "name": "A#3",
          "ticks": 198000,
          "time": 165,
          "velocity": 0.6299212598425197
        },
        {
          "duration": 0.3991666666666447,
          "durationTicks": 479,
          "midi": 67,
          "name": "G4",
          "ticks": 198720,
          "time": 165.60000000000002,
          "velocity": 0.6299212598425197
        },
        {
          "duration": 0.3991666666666447,
          "durationTicks": 479,
          "midi": 63,
          "name": "D#4",
          "ticks": 198720,
          "time": 165.60000000000002,
          "velocity": 0.6299212598425197
        },
        {
          "duration": 0.3991666666666447,
          "durationTicks": 479,
          "midi": 58,
          "name": "A#3",
          "ticks": 198720,
          "time": 165.60000000000002,
          "velocity": 0.6299212598425197
        },
        {
          "duration": 0.3991666666666731,
          "durationTicks": 479,
          "midi": 65,
          "name": "F4",
          "ticks": 199200,
          "time": 166,
          "velocity": 0.6299212598425197
        },
        {
          "duration": 0.3991666666666731,
          "durationTicks": 479,
          "midi": 62,
          "name": "D4",
          "ticks": 199200,
          "time": 166,
          "velocity": 0.6299212598425197
        },
        {
          "duration": 0.3991666666666731,
          "durationTicks": 479,
          "midi": 58,
          "name": "A#3",
          "ticks": 199200,
          "time": 166,
          "velocity": 0.6299212598425197
        },
        {
          "duration": 0.3991666666666731,
          "durationTicks": 479,
          "midi": 67,
          "name": "G4",
          "ticks": 199680,
          "time": 166.4,
          "velocity": 0.6299212598425197
        },
        {
          "duration": 0.3991666666666731,
          "durationTicks": 479,
          "midi": 63,
          "name": "D#4",
          "ticks": 199680,
          "time": 166.4,
          "velocity": 0.6299212598425197
        },
        {
          "duration": 0.3991666666666731,
          "durationTicks": 479,
          "midi": 58,
          "name": "A#3",
          "ticks": 199680,
          "time": 166.4,
          "velocity": 0.6299212598425197
        },
        {
          "duration": 0.19916666666665606,
          "durationTicks": 239,
          "midi": 67,
          "name": "G4",
          "ticks": 200400,
          "time": 167,
          "velocity": 0.6299212598425197
        },
        {
          "duration": 0.19916666666665606,
          "durationTicks": 239,
          "midi": 63,
          "name": "D#4",
          "ticks": 200400,
          "time": 167,
          "velocity": 0.6299212598425197
        },
        {
          "duration": 0.19916666666665606,
          "durationTicks": 239,
          "midi": 58,
          "name": "A#3",
          "ticks": 200400,
          "time": 167,
          "velocity": 0.6299212598425197
        },
        {
          "duration": 0.19916666666665606,
          "durationTicks": 239,
          "midi": 67,
          "name": "G4",
          "ticks": 201120,
          "time": 167.60000000000002,
          "velocity": 0.6299212598425197
        },
        {
          "duration": 0.19916666666665606,
          "durationTicks": 239,
          "midi": 63,
          "name": "D#4",
          "ticks": 201120,
          "time": 167.60000000000002,
          "velocity": 0.6299212598425197
        },
        {
          "duration": 0.19916666666665606,
          "durationTicks": 239,
          "midi": 58,
          "name": "A#3",
          "ticks": 201120,
          "time": 167.60000000000002,
          "velocity": 0.6299212598425197
        },
        {
          "duration": 0.19916666666665606,
          "durationTicks": 239,
          "midi": 67,
          "name": "G4",
          "ticks": 201360,
          "time": 167.8,
          "velocity": 0.6299212598425197
        },
        {
          "duration": 0.19916666666665606,
          "durationTicks": 239,
          "midi": 63,
          "name": "D#4",
          "ticks": 201360,
          "time": 167.8,
          "velocity": 0.6299212598425197
        },
        {
          "duration": 0.19916666666665606,
          "durationTicks": 239,
          "midi": 58,
          "name": "A#3",
          "ticks": 201360,
          "time": 167.8,
          "velocity": 0.6299212598425197
        },
        {
          "duration": 0.19916666666665606,
          "durationTicks": 239,
          "midi": 67,
          "name": "G4",
          "ticks": 201840,
          "time": 168.20000000000002,
          "velocity": 0.6299212598425197
        },
        {
          "duration": 0.19916666666665606,
          "durationTicks": 239,
          "midi": 63,
          "name": "D#4",
          "ticks": 201840,
          "time": 168.20000000000002,
          "velocity": 0.6299212598425197
        },
        {
          "duration": 0.19916666666665606,
          "durationTicks": 239,
          "midi": 58,
          "name": "A#3",
          "ticks": 201840,
          "time": 168.20000000000002,
          "velocity": 0.6299212598425197
        },
        {
          "duration": 0.3991666666666447,
          "durationTicks": 479,
          "midi": 67,
          "name": "G4",
          "ticks": 202560,
          "time": 168.8,
          "velocity": 0.6299212598425197
        },
        {
          "duration": 0.3991666666666447,
          "durationTicks": 479,
          "midi": 63,
          "name": "D#4",
          "ticks": 202560,
          "time": 168.8,
          "velocity": 0.6299212598425197
        },
        {
          "duration": 0.3991666666666447,
          "durationTicks": 479,
          "midi": 58,
          "name": "A#3",
          "ticks": 202560,
          "time": 168.8,
          "velocity": 0.6299212598425197
        },
        {
          "duration": 0.3991666666666447,
          "durationTicks": 479,
          "midi": 65,
          "name": "F4",
          "ticks": 203040,
          "time": 169.20000000000002,
          "velocity": 0.6299212598425197
        },
        {
          "duration": 0.3991666666666447,
          "durationTicks": 479,
          "midi": 62,
          "name": "D4",
          "ticks": 203040,
          "time": 169.20000000000002,
          "velocity": 0.6299212598425197
        },
        {
          "duration": 0.3991666666666447,
          "durationTicks": 479,
          "midi": 58,
          "name": "A#3",
          "ticks": 203040,
          "time": 169.20000000000002,
          "velocity": 0.6299212598425197
        },
        {
          "duration": 0.3991666666666447,
          "durationTicks": 479,
          "midi": 67,
          "name": "G4",
          "ticks": 203520,
          "time": 169.60000000000002,
          "velocity": 0.6299212598425197
        },
        {
          "duration": 0.3991666666666447,
          "durationTicks": 479,
          "midi": 63,
          "name": "D#4",
          "ticks": 203520,
          "time": 169.60000000000002,
          "velocity": 0.6299212598425197
        },
        {
          "duration": 0.3991666666666447,
          "durationTicks": 479,
          "midi": 58,
          "name": "A#3",
          "ticks": 203520,
          "time": 169.60000000000002,
          "velocity": 0.6299212598425197
        },
        {
          "duration": 0.19916666666665606,
          "durationTicks": 239,
          "midi": 67,
          "name": "G4",
          "ticks": 204240,
          "time": 170.20000000000002,
          "velocity": 0.6299212598425197
        },
        {
          "duration": 0.19916666666665606,
          "durationTicks": 239,
          "midi": 63,
          "name": "D#4",
          "ticks": 204240,
          "time": 170.20000000000002,
          "velocity": 0.6299212598425197
        },
        {
          "duration": 0.19916666666665606,
          "durationTicks": 239,
          "midi": 58,
          "name": "A#3",
          "ticks": 204240,
          "time": 170.20000000000002,
          "velocity": 0.6299212598425197
        },
        {
          "duration": 0.19916666666665606,
          "durationTicks": 239,
          "midi": 67,
          "name": "G4",
          "ticks": 204960,
          "time": 170.8,
          "velocity": 0.6299212598425197
        },
        {
          "duration": 0.19916666666665606,
          "durationTicks": 239,
          "midi": 63,
          "name": "D#4",
          "ticks": 204960,
          "time": 170.8,
          "velocity": 0.6299212598425197
        },
        {
          "duration": 0.19916666666665606,
          "durationTicks": 239,
          "midi": 58,
          "name": "A#3",
          "ticks": 204960,
          "time": 170.8,
          "velocity": 0.6299212598425197
        },
        {
          "duration": 0.19916666666665606,
          "durationTicks": 239,
          "midi": 67,
          "name": "G4",
          "ticks": 205200,
          "time": 171,
          "velocity": 0.6299212598425197
        },
        {
          "duration": 0.19916666666665606,
          "durationTicks": 239,
          "midi": 63,
          "name": "D#4",
          "ticks": 205200,
          "time": 171,
          "velocity": 0.6299212598425197
        },
        {
          "duration": 0.19916666666665606,
          "durationTicks": 239,
          "midi": 58,
          "name": "A#3",
          "ticks": 205200,
          "time": 171,
          "velocity": 0.6299212598425197
        },
        {
          "duration": 0.19916666666665606,
          "durationTicks": 239,
          "midi": 67,
          "name": "G4",
          "ticks": 205680,
          "time": 171.4,
          "velocity": 0.6299212598425197
        },
        {
          "duration": 0.19916666666665606,
          "durationTicks": 239,
          "midi": 65,
          "name": "F4",
          "ticks": 205680,
          "time": 171.4,
          "velocity": 0.6299212598425197
        },
        {
          "duration": 0.19916666666665606,
          "durationTicks": 239,
          "midi": 58,
          "name": "A#3",
          "ticks": 205680,
          "time": 171.4,
          "velocity": 0.6299212598425197
        },
        {
          "duration": 0.3991666666666731,
          "durationTicks": 479,
          "midi": 67,
          "name": "G4",
          "ticks": 206400,
          "time": 172,
          "velocity": 0.6299212598425197
        },
        {
          "duration": 0.3991666666666731,
          "durationTicks": 479,
          "midi": 65,
          "name": "F4",
          "ticks": 206400,
          "time": 172,
          "velocity": 0.6299212598425197
        },
        {
          "duration": 0.3991666666666731,
          "durationTicks": 479,
          "midi": 58,
          "name": "A#3",
          "ticks": 206400,
          "time": 172,
          "velocity": 0.6299212598425197
        },
        {
          "duration": 0.3991666666666731,
          "durationTicks": 479,
          "midi": 67,
          "name": "G4",
          "ticks": 206880,
          "time": 172.4,
          "velocity": 0.6299212598425197
        },
        {
          "duration": 0.3991666666666731,
          "durationTicks": 479,
          "midi": 65,
          "name": "F4",
          "ticks": 206880,
          "time": 172.4,
          "velocity": 0.6299212598425197
        },
        {
          "duration": 0.3991666666666731,
          "durationTicks": 479,
          "midi": 58,
          "name": "A#3",
          "ticks": 206880,
          "time": 172.4,
          "velocity": 0.6299212598425197
        },
        {
          "duration": 0.3991666666666447,
          "durationTicks": 479,
          "midi": 67,
          "name": "G4",
          "ticks": 207360,
          "time": 172.8,
          "velocity": 0.6299212598425197
        },
        {
          "duration": 0.3991666666666447,
          "durationTicks": 479,
          "midi": 63,
          "name": "D#4",
          "ticks": 207360,
          "time": 172.8,
          "velocity": 0.6299212598425197
        },
        {
          "duration": 0.3991666666666447,
          "durationTicks": 479,
          "midi": 58,
          "name": "A#3",
          "ticks": 207360,
          "time": 172.8,
          "velocity": 0.6299212598425197
        },
        {
          "duration": 0.19916666666665606,
          "durationTicks": 239,
          "midi": 67,
          "name": "G4",
          "ticks": 208080,
          "time": 173.4,
          "velocity": 0.6299212598425197
        },
        {
          "duration": 0.19916666666665606,
          "durationTicks": 239,
          "midi": 63,
          "name": "D#4",
          "ticks": 208080,
          "time": 173.4,
          "velocity": 0.6299212598425197
        },
        {
          "duration": 0.19916666666665606,
          "durationTicks": 239,
          "midi": 58,
          "name": "A#3",
          "ticks": 208080,
          "time": 173.4,
          "velocity": 0.6299212598425197
        },
        {
          "duration": 0.19916666666665606,
          "durationTicks": 239,
          "midi": 67,
          "name": "G4",
          "ticks": 208800,
          "time": 174,
          "velocity": 0.6299212598425197
        },
        {
          "duration": 0.19916666666665606,
          "durationTicks": 239,
          "midi": 63,
          "name": "D#4",
          "ticks": 208800,
          "time": 174,
          "velocity": 0.6299212598425197
        },
        {
          "duration": 0.19916666666665606,
          "durationTicks": 239,
          "midi": 58,
          "name": "A#3",
          "ticks": 208800,
          "time": 174,
          "velocity": 0.6299212598425197
        },
        {
          "duration": 0.19916666666665606,
          "durationTicks": 239,
          "midi": 67,
          "name": "G4",
          "ticks": 209040,
          "time": 174.20000000000002,
          "velocity": 0.6299212598425197
        },
        {
          "duration": 0.19916666666665606,
          "durationTicks": 239,
          "midi": 63,
          "name": "D#4",
          "ticks": 209040,
          "time": 174.20000000000002,
          "velocity": 0.6299212598425197
        },
        {
          "duration": 0.19916666666665606,
          "durationTicks": 239,
          "midi": 58,
          "name": "A#3",
          "ticks": 209040,
          "time": 174.20000000000002,
          "velocity": 0.6299212598425197
        },
        {
          "duration": 0.19916666666665606,
          "durationTicks": 239,
          "midi": 67,
          "name": "G4",
          "ticks": 209520,
          "time": 174.60000000000002,
          "velocity": 0.6299212598425197
        },
        {
          "duration": 0.19916666666665606,
          "durationTicks": 239,
          "midi": 63,
          "name": "D#4",
          "ticks": 209520,
          "time": 174.60000000000002,
          "velocity": 0.6299212598425197
        },
        {
          "duration": 0.19916666666665606,
          "durationTicks": 239,
          "midi": 58,
          "name": "A#3",
          "ticks": 209520,
          "time": 174.60000000000002,
          "velocity": 0.6299212598425197
        },
        {
          "duration": 0.3991666666666447,
          "durationTicks": 479,
          "midi": 65,
          "name": "F4",
          "ticks": 210240,
          "time": 175.20000000000002,
          "velocity": 0.6299212598425197
        },
        {
          "duration": 0.3991666666666447,
          "durationTicks": 479,
          "midi": 63,
          "name": "D#4",
          "ticks": 210240,
          "time": 175.20000000000002,
          "velocity": 0.6299212598425197
        },
        {
          "duration": 0.3991666666666447,
          "durationTicks": 479,
          "midi": 58,
          "name": "A#3",
          "ticks": 210240,
          "time": 175.20000000000002,
          "velocity": 0.6299212598425197
        },
        {
          "duration": 0.3991666666666447,
          "durationTicks": 479,
          "midi": 65,
          "name": "F4",
          "ticks": 210720,
          "time": 175.60000000000002,
          "velocity": 0.6299212598425197
        },
        {
          "duration": 0.3991666666666447,
          "durationTicks": 479,
          "midi": 63,
          "name": "D#4",
          "ticks": 210720,
          "time": 175.60000000000002,
          "velocity": 0.6299212598425197
        },
        {
          "duration": 0.3991666666666447,
          "durationTicks": 479,
          "midi": 58,
          "name": "A#3",
          "ticks": 210720,
          "time": 175.60000000000002,
          "velocity": 0.6299212598425197
        },
        {
          "duration": 0.3991666666666731,
          "durationTicks": 479,
          "midi": 67,
          "name": "G4",
          "ticks": 211200,
          "time": 176,
          "velocity": 0.6299212598425197
        },
        {
          "duration": 0.3991666666666731,
          "durationTicks": 479,
          "midi": 63,
          "name": "D#4",
          "ticks": 211200,
          "time": 176,
          "velocity": 0.6299212598425197
        },
        {
          "duration": 0.3991666666666731,
          "durationTicks": 479,
          "midi": 58,
          "name": "A#3",
          "ticks": 211200,
          "time": 176,
          "velocity": 0.6299212598425197
        },
        {
          "duration": 0.19916666666665606,
          "durationTicks": 239,
          "midi": 67,
          "name": "G4",
          "ticks": 211920,
          "time": 176.60000000000002,
          "velocity": 0.6299212598425197
        },
        {
          "duration": 0.19916666666665606,
          "durationTicks": 239,
          "midi": 63,
          "name": "D#4",
          "ticks": 211920,
          "time": 176.60000000000002,
          "velocity": 0.6299212598425197
        },
        {
          "duration": 0.19916666666665606,
          "durationTicks": 239,
          "midi": 58,
          "name": "A#3",
          "ticks": 211920,
          "time": 176.60000000000002,
          "velocity": 0.6299212598425197
        },
        {
          "duration": 0.19916666666665606,
          "durationTicks": 239,
          "midi": 67,
          "name": "G4",
          "ticks": 212640,
          "time": 177.20000000000002,
          "velocity": 0.6299212598425197
        },
        {
          "duration": 0.19916666666665606,
          "durationTicks": 239,
          "midi": 63,
          "name": "D#4",
          "ticks": 212640,
          "time": 177.20000000000002,
          "velocity": 0.6299212598425197
        },
        {
          "duration": 0.19916666666665606,
          "durationTicks": 239,
          "midi": 58,
          "name": "A#3",
          "ticks": 212640,
          "time": 177.20000000000002,
          "velocity": 0.6299212598425197
        },
        {
          "duration": 0.19916666666665606,
          "durationTicks": 239,
          "midi": 67,
          "name": "G4",
          "ticks": 212880,
          "time": 177.4,
          "velocity": 0.6299212598425197
        },
        {
          "duration": 0.19916666666665606,
          "durationTicks": 239,
          "midi": 63,
          "name": "D#4",
          "ticks": 212880,
          "time": 177.4,
          "velocity": 0.6299212598425197
        },
        {
          "duration": 0.19916666666665606,
          "durationTicks": 239,
          "midi": 58,
          "name": "A#3",
          "ticks": 212880,
          "time": 177.4,
          "velocity": 0.6299212598425197
        },
        {
          "duration": 0.19916666666665606,
          "durationTicks": 239,
          "midi": 67,
          "name": "G4",
          "ticks": 213360,
          "time": 177.8,
          "velocity": 0.6299212598425197
        },
        {
          "duration": 0.19916666666665606,
          "durationTicks": 239,
          "midi": 63,
          "name": "D#4",
          "ticks": 213360,
          "time": 177.8,
          "velocity": 0.6299212598425197
        },
        {
          "duration": 0.19916666666665606,
          "durationTicks": 239,
          "midi": 58,
          "name": "A#3",
          "ticks": 213360,
          "time": 177.8,
          "velocity": 0.6299212598425197
        },
        {
          "duration": 0.3991666666666731,
          "durationTicks": 479,
          "midi": 67,
          "name": "G4",
          "ticks": 214080,
          "time": 178.4,
          "velocity": 0.6299212598425197
        },
        {
          "duration": 0.3991666666666731,
          "durationTicks": 479,
          "midi": 63,
          "name": "D#4",
          "ticks": 214080,
          "time": 178.4,
          "velocity": 0.6299212598425197
        },
        {
          "duration": 0.3991666666666731,
          "durationTicks": 479,
          "midi": 58,
          "name": "A#3",
          "ticks": 214080,
          "time": 178.4,
          "velocity": 0.6299212598425197
        },
        {
          "duration": 0.3991666666666447,
          "durationTicks": 479,
          "midi": 65,
          "name": "F4",
          "ticks": 214560,
          "time": 178.8,
          "velocity": 0.6299212598425197
        },
        {
          "duration": 0.3991666666666447,
          "durationTicks": 479,
          "midi": 62,
          "name": "D4",
          "ticks": 214560,
          "time": 178.8,
          "velocity": 0.6299212598425197
        },
        {
          "duration": 0.3991666666666447,
          "durationTicks": 479,
          "midi": 58,
          "name": "A#3",
          "ticks": 214560,
          "time": 178.8,
          "velocity": 0.6299212598425197
        },
        {
          "duration": 0.3991666666666447,
          "durationTicks": 479,
          "midi": 67,
          "name": "G4",
          "ticks": 215040,
          "time": 179.20000000000002,
          "velocity": 0.6299212598425197
        },
        {
          "duration": 0.3991666666666447,
          "durationTicks": 479,
          "midi": 63,
          "name": "D#4",
          "ticks": 215040,
          "time": 179.20000000000002,
          "velocity": 0.6299212598425197
        },
        {
          "duration": 0.3991666666666447,
          "durationTicks": 479,
          "midi": 58,
          "name": "A#3",
          "ticks": 215040,
          "time": 179.20000000000002,
          "velocity": 0.6299212598425197
        },
        {
          "duration": 0.19916666666665606,
          "durationTicks": 239,
          "midi": 67,
          "name": "G4",
          "ticks": 215760,
          "time": 179.8,
          "velocity": 0.6299212598425197
        },
        {
          "duration": 0.19916666666665606,
          "durationTicks": 239,
          "midi": 63,
          "name": "D#4",
          "ticks": 215760,
          "time": 179.8,
          "velocity": 0.6299212598425197
        },
        {
          "duration": 0.19916666666665606,
          "durationTicks": 239,
          "midi": 58,
          "name": "A#3",
          "ticks": 215760,
          "time": 179.8,
          "velocity": 0.6299212598425197
        },
        {
          "duration": 0.19916666666665606,
          "durationTicks": 239,
          "midi": 67,
          "name": "G4",
          "ticks": 216480,
          "time": 180.4,
          "velocity": 0.6299212598425197
        },
        {
          "duration": 0.19916666666665606,
          "durationTicks": 239,
          "midi": 63,
          "name": "D#4",
          "ticks": 216480,
          "time": 180.4,
          "velocity": 0.6299212598425197
        },
        {
          "duration": 0.19916666666665606,
          "durationTicks": 239,
          "midi": 58,
          "name": "A#3",
          "ticks": 216480,
          "time": 180.4,
          "velocity": 0.6299212598425197
        },
        {
          "duration": 0.19916666666665606,
          "durationTicks": 239,
          "midi": 67,
          "name": "G4",
          "ticks": 216720,
          "time": 180.60000000000002,
          "velocity": 0.6299212598425197
        },
        {
          "duration": 0.19916666666665606,
          "durationTicks": 239,
          "midi": 63,
          "name": "D#4",
          "ticks": 216720,
          "time": 180.60000000000002,
          "velocity": 0.6299212598425197
        },
        {
          "duration": 0.19916666666665606,
          "durationTicks": 239,
          "midi": 58,
          "name": "A#3",
          "ticks": 216720,
          "time": 180.60000000000002,
          "velocity": 0.6299212598425197
        },
        {
          "duration": 0.19916666666665606,
          "durationTicks": 239,
          "midi": 67,
          "name": "G4",
          "ticks": 217200,
          "time": 181,
          "velocity": 0.6299212598425197
        },
        {
          "duration": 0.19916666666665606,
          "durationTicks": 239,
          "midi": 63,
          "name": "D#4",
          "ticks": 217200,
          "time": 181,
          "velocity": 0.6299212598425197
        },
        {
          "duration": 0.19916666666665606,
          "durationTicks": 239,
          "midi": 58,
          "name": "A#3",
          "ticks": 217200,
          "time": 181,
          "velocity": 0.6299212598425197
        },
        {
          "duration": 0.3991666666666447,
          "durationTicks": 479,
          "midi": 67,
          "name": "G4",
          "ticks": 217920,
          "time": 181.60000000000002,
          "velocity": 0.6299212598425197
        },
        {
          "duration": 0.3991666666666447,
          "durationTicks": 479,
          "midi": 63,
          "name": "D#4",
          "ticks": 217920,
          "time": 181.60000000000002,
          "velocity": 0.6299212598425197
        },
        {
          "duration": 0.3991666666666447,
          "durationTicks": 479,
          "midi": 58,
          "name": "A#3",
          "ticks": 217920,
          "time": 181.60000000000002,
          "velocity": 0.6299212598425197
        },
        {
          "duration": 0.3991666666666731,
          "durationTicks": 479,
          "midi": 65,
          "name": "F4",
          "ticks": 218400,
          "time": 182,
          "velocity": 0.6299212598425197
        },
        {
          "duration": 0.3991666666666731,
          "durationTicks": 479,
          "midi": 62,
          "name": "D4",
          "ticks": 218400,
          "time": 182,
          "velocity": 0.6299212598425197
        },
        {
          "duration": 0.3991666666666731,
          "durationTicks": 479,
          "midi": 58,
          "name": "A#3",
          "ticks": 218400,
          "time": 182,
          "velocity": 0.6299212598425197
        },
        {
          "duration": 0.3991666666666731,
          "durationTicks": 479,
          "midi": 67,
          "name": "G4",
          "ticks": 218880,
          "time": 182.4,
          "velocity": 0.6299212598425197
        },
        {
          "duration": 0.3991666666666731,
          "durationTicks": 479,
          "midi": 63,
          "name": "D#4",
          "ticks": 218880,
          "time": 182.4,
          "velocity": 0.6299212598425197
        },
        {
          "duration": 0.3991666666666731,
          "durationTicks": 479,
          "midi": 58,
          "name": "A#3",
          "ticks": 218880,
          "time": 182.4,
          "velocity": 0.6299212598425197
        },
        {
          "duration": 0.19916666666665606,
          "durationTicks": 239,
          "midi": 67,
          "name": "G4",
          "ticks": 219600,
          "time": 183,
          "velocity": 0.6299212598425197
        },
        {
          "duration": 0.19916666666665606,
          "durationTicks": 239,
          "midi": 63,
          "name": "D#4",
          "ticks": 219600,
          "time": 183,
          "velocity": 0.6299212598425197
        },
        {
          "duration": 0.19916666666665606,
          "durationTicks": 239,
          "midi": 58,
          "name": "A#3",
          "ticks": 219600,
          "time": 183,
          "velocity": 0.6299212598425197
        },
        {
          "duration": 0.19916666666665606,
          "durationTicks": 239,
          "midi": 67,
          "name": "G4",
          "ticks": 220320,
          "time": 183.60000000000002,
          "velocity": 0.6299212598425197
        },
        {
          "duration": 0.19916666666665606,
          "durationTicks": 239,
          "midi": 63,
          "name": "D#4",
          "ticks": 220320,
          "time": 183.60000000000002,
          "velocity": 0.6299212598425197
        },
        {
          "duration": 0.19916666666665606,
          "durationTicks": 239,
          "midi": 58,
          "name": "A#3",
          "ticks": 220320,
          "time": 183.60000000000002,
          "velocity": 0.6299212598425197
        },
        {
          "duration": 0.19916666666665606,
          "durationTicks": 239,
          "midi": 67,
          "name": "G4",
          "ticks": 220560,
          "time": 183.8,
          "velocity": 0.6299212598425197
        },
        {
          "duration": 0.19916666666665606,
          "durationTicks": 239,
          "midi": 63,
          "name": "D#4",
          "ticks": 220560,
          "time": 183.8,
          "velocity": 0.6299212598425197
        },
        {
          "duration": 0.19916666666665606,
          "durationTicks": 239,
          "midi": 58,
          "name": "A#3",
          "ticks": 220560,
          "time": 183.8,
          "velocity": 0.6299212598425197
        },
        {
          "duration": 0.19916666666665606,
          "durationTicks": 239,
          "midi": 67,
          "name": "G4",
          "ticks": 221040,
          "time": 184.20000000000002,
          "velocity": 0.6299212598425197
        },
        {
          "duration": 0.19916666666665606,
          "durationTicks": 239,
          "midi": 65,
          "name": "F4",
          "ticks": 221040,
          "time": 184.20000000000002,
          "velocity": 0.6299212598425197
        },
        {
          "duration": 0.19916666666665606,
          "durationTicks": 239,
          "midi": 58,
          "name": "A#3",
          "ticks": 221040,
          "time": 184.20000000000002,
          "velocity": 0.6299212598425197
        },
        {
          "duration": 0.3991666666666447,
          "durationTicks": 479,
          "midi": 67,
          "name": "G4",
          "ticks": 221760,
          "time": 184.8,
          "velocity": 0.6299212598425197
        },
        {
          "duration": 0.3991666666666447,
          "durationTicks": 479,
          "midi": 65,
          "name": "F4",
          "ticks": 221760,
          "time": 184.8,
          "velocity": 0.6299212598425197
        },
        {
          "duration": 0.3991666666666447,
          "durationTicks": 479,
          "midi": 58,
          "name": "A#3",
          "ticks": 221760,
          "time": 184.8,
          "velocity": 0.6299212598425197
        },
        {
          "duration": 0.3991666666666447,
          "durationTicks": 479,
          "midi": 67,
          "name": "G4",
          "ticks": 222240,
          "time": 185.20000000000002,
          "velocity": 0.6299212598425197
        },
        {
          "duration": 0.3991666666666447,
          "durationTicks": 479,
          "midi": 65,
          "name": "F4",
          "ticks": 222240,
          "time": 185.20000000000002,
          "velocity": 0.6299212598425197
        },
        {
          "duration": 0.3991666666666447,
          "durationTicks": 479,
          "midi": 58,
          "name": "A#3",
          "ticks": 222240,
          "time": 185.20000000000002,
          "velocity": 0.6299212598425197
        },
        {
          "duration": 0.3991666666666447,
          "durationTicks": 479,
          "midi": 67,
          "name": "G4",
          "ticks": 222720,
          "time": 185.60000000000002,
          "velocity": 0.6299212598425197
        },
        {
          "duration": 0.3991666666666447,
          "durationTicks": 479,
          "midi": 63,
          "name": "D#4",
          "ticks": 222720,
          "time": 185.60000000000002,
          "velocity": 0.6299212598425197
        },
        {
          "duration": 0.3991666666666447,
          "durationTicks": 479,
          "midi": 58,
          "name": "A#3",
          "ticks": 222720,
          "time": 185.60000000000002,
          "velocity": 0.6299212598425197
        },
        {
          "duration": 0.19916666666665606,
          "durationTicks": 239,
          "midi": 67,
          "name": "G4",
          "ticks": 223440,
          "time": 186.20000000000002,
          "velocity": 0.6299212598425197
        },
        {
          "duration": 0.19916666666665606,
          "durationTicks": 239,
          "midi": 63,
          "name": "D#4",
          "ticks": 223440,
          "time": 186.20000000000002,
          "velocity": 0.6299212598425197
        },
        {
          "duration": 0.19916666666665606,
          "durationTicks": 239,
          "midi": 58,
          "name": "A#3",
          "ticks": 223440,
          "time": 186.20000000000002,
          "velocity": 0.6299212598425197
        },
        {
          "duration": 0.19916666666665606,
          "durationTicks": 239,
          "midi": 67,
          "name": "G4",
          "ticks": 224160,
          "time": 186.8,
          "velocity": 0.6299212598425197
        },
        {
          "duration": 0.19916666666665606,
          "durationTicks": 239,
          "midi": 63,
          "name": "D#4",
          "ticks": 224160,
          "time": 186.8,
          "velocity": 0.6299212598425197
        },
        {
          "duration": 0.19916666666665606,
          "durationTicks": 239,
          "midi": 58,
          "name": "A#3",
          "ticks": 224160,
          "time": 186.8,
          "velocity": 0.6299212598425197
        },
        {
          "duration": 0.19916666666665606,
          "durationTicks": 239,
          "midi": 67,
          "name": "G4",
          "ticks": 224400,
          "time": 187,
          "velocity": 0.6299212598425197
        },
        {
          "duration": 0.19916666666665606,
          "durationTicks": 239,
          "midi": 63,
          "name": "D#4",
          "ticks": 224400,
          "time": 187,
          "velocity": 0.6299212598425197
        },
        {
          "duration": 0.19916666666665606,
          "durationTicks": 239,
          "midi": 58,
          "name": "A#3",
          "ticks": 224400,
          "time": 187,
          "velocity": 0.6299212598425197
        },
        {
          "duration": 0.19916666666665606,
          "durationTicks": 239,
          "midi": 67,
          "name": "G4",
          "ticks": 224880,
          "time": 187.4,
          "velocity": 0.6299212598425197
        },
        {
          "duration": 0.19916666666665606,
          "durationTicks": 239,
          "midi": 63,
          "name": "D#4",
          "ticks": 224880,
          "time": 187.4,
          "velocity": 0.6299212598425197
        },
        {
          "duration": 0.19916666666665606,
          "durationTicks": 239,
          "midi": 58,
          "name": "A#3",
          "ticks": 224880,
          "time": 187.4,
          "velocity": 0.6299212598425197
        },
        {
          "duration": 0.7991666666666788,
          "durationTicks": 959,
          "midi": 67,
          "name": "G4",
          "ticks": 225600,
          "time": 188,
          "velocity": 0.6299212598425197
        },
        {
          "duration": 0.7991666666666788,
          "durationTicks": 959,
          "midi": 65,
          "name": "F4",
          "ticks": 225600,
          "time": 188,
          "velocity": 0.6299212598425197
        },
        {
          "duration": 0.7991666666666788,
          "durationTicks": 959,
          "midi": 58,
          "name": "A#3",
          "ticks": 225600,
          "time": 188,
          "velocity": 0.6299212598425197
        },
        {
          "duration": 1.5991666666666617,
          "durationTicks": 1919,
          "midi": 63,
          "name": "D#4",
          "ticks": 226560,
          "time": 188.8,
          "velocity": 0.6299212598425197
        },
        {
          "duration": 1.5991666666666617,
          "durationTicks": 1919,
          "midi": 58,
          "name": "A#3",
          "ticks": 226560,
          "time": 188.8,
          "velocity": 0.6299212598425197
        },
        {
          "duration": 0.7991666666666504,
          "durationTicks": 959,
          "midi": 75,
          "name": "D#5",
          "ticks": 228480,
          "time": 190.4,
          "velocity": 0.6299212598425197
        },
        {
          "duration": 0.7991666666666504,
          "durationTicks": 959,
          "midi": 82,
          "name": "A#5",
          "ticks": 228540,
          "time": 190.45000000000002,
          "velocity": 0.6299212598425197
        },
        {
          "duration": 0.5991666666666617,
          "durationTicks": 719,
          "midi": 75,
          "name": "D#5",
          "ticks": 230400,
          "time": 192,
          "velocity": 0.6299212598425197
        },
        {
          "duration": 0.5991666666666617,
          "durationTicks": 719,
          "midi": 70,
          "name": "A#4",
          "ticks": 230400,
          "time": 192,
          "velocity": 0.6299212598425197
        },
        {
          "duration": 0.5991666666666617,
          "durationTicks": 719,
          "midi": 67,
          "name": "G4",
          "ticks": 230400,
          "time": 192,
          "velocity": 0.6299212598425197
        },
        {
          "duration": 0.19916666666665606,
          "durationTicks": 239,
          "midi": 75,
          "name": "D#5",
          "ticks": 231120,
          "time": 192.60000000000002,
          "velocity": 0.6299212598425197
        },
        {
          "duration": 0.19916666666665606,
          "durationTicks": 239,
          "midi": 70,
          "name": "A#4",
          "ticks": 231120,
          "time": 192.60000000000002,
          "velocity": 0.6299212598425197
        },
        {
          "duration": 0.19916666666665606,
          "durationTicks": 239,
          "midi": 67,
          "name": "G4",
          "ticks": 231120,
          "time": 192.60000000000002,
          "velocity": 0.6299212598425197
        },
        {
          "duration": 0.3991666666666731,
          "durationTicks": 479,
          "midi": 75,
          "name": "D#5",
          "ticks": 231600,
          "time": 193,
          "velocity": 0.6299212598425197
        },
        {
          "duration": 0.3991666666666731,
          "durationTicks": 479,
          "midi": 70,
          "name": "A#4",
          "ticks": 231600,
          "time": 193,
          "velocity": 0.6299212598425197
        },
        {
          "duration": 0.3991666666666731,
          "durationTicks": 479,
          "midi": 67,
          "name": "G4",
          "ticks": 231600,
          "time": 193,
          "velocity": 0.6299212598425197
        },
        {
          "duration": 0.3991666666666731,
          "durationTicks": 479,
          "midi": 75,
          "name": "D#5",
          "ticks": 232080,
          "time": 193.4,
          "velocity": 0.6299212598425197
        },
        {
          "duration": 0.3991666666666731,
          "durationTicks": 479,
          "midi": 70,
          "name": "A#4",
          "ticks": 232080,
          "time": 193.4,
          "velocity": 0.6299212598425197
        },
        {
          "duration": 0.3991666666666731,
          "durationTicks": 479,
          "midi": 67,
          "name": "G4",
          "ticks": 232080,
          "time": 193.4,
          "velocity": 0.6299212598425197
        },
        {
          "duration": 0.3991666666666447,
          "durationTicks": 479,
          "midi": 75,
          "name": "D#5",
          "ticks": 232560,
          "time": 193.8,
          "velocity": 0.6299212598425197
        },
        {
          "duration": 0.3991666666666447,
          "durationTicks": 479,
          "midi": 70,
          "name": "A#4",
          "ticks": 232560,
          "time": 193.8,
          "velocity": 0.6299212598425197
        },
        {
          "duration": 0.3991666666666447,
          "durationTicks": 479,
          "midi": 67,
          "name": "G4",
          "ticks": 232560,
          "time": 193.8,
          "velocity": 0.6299212598425197
        },
        {
          "duration": 0.19916666666665606,
          "durationTicks": 239,
          "midi": 75,
          "name": "D#5",
          "ticks": 233040,
          "time": 194.20000000000002,
          "velocity": 0.6299212598425197
        },
        {
          "duration": 0.19916666666665606,
          "durationTicks": 239,
          "midi": 70,
          "name": "A#4",
          "ticks": 233040,
          "time": 194.20000000000002,
          "velocity": 0.6299212598425197
        },
        {
          "duration": 0.19916666666665606,
          "durationTicks": 239,
          "midi": 67,
          "name": "G4",
          "ticks": 233040,
          "time": 194.20000000000002,
          "velocity": 0.6299212598425197
        },
        {
          "duration": 0.3991666666666731,
          "durationTicks": 479,
          "midi": 75,
          "name": "D#5",
          "ticks": 233280,
          "time": 194.4,
          "velocity": 0.6299212598425197
        },
        {
          "duration": 0.3991666666666731,
          "durationTicks": 479,
          "midi": 70,
          "name": "A#4",
          "ticks": 233280,
          "time": 194.4,
          "velocity": 0.6299212598425197
        },
        {
          "duration": 0.3991666666666731,
          "durationTicks": 479,
          "midi": 67,
          "name": "G4",
          "ticks": 233280,
          "time": 194.4,
          "velocity": 0.6299212598425197
        },
        {
          "duration": 0.3991666666666447,
          "durationTicks": 479,
          "midi": 74,
          "name": "D5",
          "ticks": 233760,
          "time": 194.8,
          "velocity": 0.6299212598425197
        },
        {
          "duration": 0.3991666666666447,
          "durationTicks": 479,
          "midi": 70,
          "name": "A#4",
          "ticks": 233760,
          "time": 194.8,
          "velocity": 0.6299212598425197
        },
        {
          "duration": 0.3991666666666447,
          "durationTicks": 479,
          "midi": 65,
          "name": "F4",
          "ticks": 233760,
          "time": 194.8,
          "velocity": 0.6299212598425197
        },
        {
          "duration": 0.5991666666666617,
          "durationTicks": 719,
          "midi": 75,
          "name": "D#5",
          "ticks": 234240,
          "time": 195.20000000000002,
          "velocity": 0.6299212598425197
        },
        {
          "duration": 0.5991666666666617,
          "durationTicks": 719,
          "midi": 70,
          "name": "A#4",
          "ticks": 234240,
          "time": 195.20000000000002,
          "velocity": 0.6299212598425197
        },
        {
          "duration": 0.5991666666666617,
          "durationTicks": 719,
          "midi": 67,
          "name": "G4",
          "ticks": 234240,
          "time": 195.20000000000002,
          "velocity": 0.6299212598425197
        },
        {
          "duration": 0.19916666666665606,
          "durationTicks": 239,
          "midi": 75,
          "name": "D#5",
          "ticks": 234960,
          "time": 195.8,
          "velocity": 0.6299212598425197
        },
        {
          "duration": 0.19916666666665606,
          "durationTicks": 239,
          "midi": 70,
          "name": "A#4",
          "ticks": 234960,
          "time": 195.8,
          "velocity": 0.6299212598425197
        },
        {
          "duration": 0.19916666666665606,
          "durationTicks": 239,
          "midi": 67,
          "name": "G4",
          "ticks": 234960,
          "time": 195.8,
          "velocity": 0.6299212598425197
        },
        {
          "duration": 0.3991666666666447,
          "durationTicks": 479,
          "midi": 75,
          "name": "D#5",
          "ticks": 235440,
          "time": 196.20000000000002,
          "velocity": 0.6299212598425197
        },
        {
          "duration": 0.3991666666666447,
          "durationTicks": 479,
          "midi": 70,
          "name": "A#4",
          "ticks": 235440,
          "time": 196.20000000000002,
          "velocity": 0.6299212598425197
        },
        {
          "duration": 0.3991666666666447,
          "durationTicks": 479,
          "midi": 67,
          "name": "G4",
          "ticks": 235440,
          "time": 196.20000000000002,
          "velocity": 0.6299212598425197
        },
        {
          "duration": 0.3991666666666447,
          "durationTicks": 479,
          "midi": 75,
          "name": "D#5",
          "ticks": 235920,
          "time": 196.60000000000002,
          "velocity": 0.6299212598425197
        },
        {
          "duration": 0.3991666666666447,
          "durationTicks": 479,
          "midi": 70,
          "name": "A#4",
          "ticks": 235920,
          "time": 196.60000000000002,
          "velocity": 0.6299212598425197
        },
        {
          "duration": 0.3991666666666447,
          "durationTicks": 479,
          "midi": 67,
          "name": "G4",
          "ticks": 235920,
          "time": 196.60000000000002,
          "velocity": 0.6299212598425197
        },
        {
          "duration": 0.3991666666666731,
          "durationTicks": 479,
          "midi": 75,
          "name": "D#5",
          "ticks": 236400,
          "time": 197,
          "velocity": 0.6299212598425197
        },
        {
          "duration": 0.3991666666666731,
          "durationTicks": 479,
          "midi": 70,
          "name": "A#4",
          "ticks": 236400,
          "time": 197,
          "velocity": 0.6299212598425197
        },
        {
          "duration": 0.3991666666666731,
          "durationTicks": 479,
          "midi": 67,
          "name": "G4",
          "ticks": 236400,
          "time": 197,
          "velocity": 0.6299212598425197
        },
        {
          "duration": 0.19916666666665606,
          "durationTicks": 239,
          "midi": 75,
          "name": "D#5",
          "ticks": 236880,
          "time": 197.4,
          "velocity": 0.6299212598425197
        },
        {
          "duration": 0.19916666666665606,
          "durationTicks": 239,
          "midi": 70,
          "name": "A#4",
          "ticks": 236880,
          "time": 197.4,
          "velocity": 0.6299212598425197
        },
        {
          "duration": 0.19916666666665606,
          "durationTicks": 239,
          "midi": 67,
          "name": "G4",
          "ticks": 236880,
          "time": 197.4,
          "velocity": 0.6299212598425197
        },
        {
          "duration": 0.3991666666666447,
          "durationTicks": 479,
          "midi": 75,
          "name": "D#5",
          "ticks": 237120,
          "time": 197.60000000000002,
          "velocity": 0.6299212598425197
        },
        {
          "duration": 0.3991666666666447,
          "durationTicks": 479,
          "midi": 70,
          "name": "A#4",
          "ticks": 237120,
          "time": 197.60000000000002,
          "velocity": 0.6299212598425197
        },
        {
          "duration": 0.3991666666666447,
          "durationTicks": 479,
          "midi": 67,
          "name": "G4",
          "ticks": 237120,
          "time": 197.60000000000002,
          "velocity": 0.6299212598425197
        },
        {
          "duration": 0.3991666666666731,
          "durationTicks": 479,
          "midi": 74,
          "name": "D5",
          "ticks": 237600,
          "time": 198,
          "velocity": 0.6299212598425197
        },
        {
          "duration": 0.3991666666666731,
          "durationTicks": 479,
          "midi": 70,
          "name": "A#4",
          "ticks": 237600,
          "time": 198,
          "velocity": 0.6299212598425197
        },
        {
          "duration": 0.3991666666666731,
          "durationTicks": 479,
          "midi": 65,
          "name": "F4",
          "ticks": 237600,
          "time": 198,
          "velocity": 0.6299212598425197
        },
        {
          "duration": 0.5991666666666617,
          "durationTicks": 719,
          "midi": 75,
          "name": "D#5",
          "ticks": 238080,
          "time": 198.4,
          "velocity": 0.6299212598425197
        },
        {
          "duration": 0.5991666666666617,
          "durationTicks": 719,
          "midi": 70,
          "name": "A#4",
          "ticks": 238080,
          "time": 198.4,
          "velocity": 0.6299212598425197
        },
        {
          "duration": 0.5991666666666617,
          "durationTicks": 719,
          "midi": 67,
          "name": "G4",
          "ticks": 238080,
          "time": 198.4,
          "velocity": 0.6299212598425197
        },
        {
          "duration": 0.19916666666665606,
          "durationTicks": 239,
          "midi": 75,
          "name": "D#5",
          "ticks": 238800,
          "time": 199,
          "velocity": 0.6299212598425197
        },
        {
          "duration": 0.19916666666665606,
          "durationTicks": 239,
          "midi": 70,
          "name": "A#4",
          "ticks": 238800,
          "time": 199,
          "velocity": 0.6299212598425197
        },
        {
          "duration": 0.19916666666665606,
          "durationTicks": 239,
          "midi": 67,
          "name": "G4",
          "ticks": 238800,
          "time": 199,
          "velocity": 0.6299212598425197
        },
        {
          "duration": 0.3991666666666731,
          "durationTicks": 479,
          "midi": 75,
          "name": "D#5",
          "ticks": 239280,
          "time": 199.4,
          "velocity": 0.6299212598425197
        },
        {
          "duration": 0.3991666666666731,
          "durationTicks": 479,
          "midi": 70,
          "name": "A#4",
          "ticks": 239280,
          "time": 199.4,
          "velocity": 0.6299212598425197
        },
        {
          "duration": 0.3991666666666731,
          "durationTicks": 479,
          "midi": 67,
          "name": "G4",
          "ticks": 239280,
          "time": 199.4,
          "velocity": 0.6299212598425197
        },
        {
          "duration": 0.3991666666666447,
          "durationTicks": 479,
          "midi": 75,
          "name": "D#5",
          "ticks": 239760,
          "time": 199.8,
          "velocity": 0.6299212598425197
        },
        {
          "duration": 0.3991666666666447,
          "durationTicks": 479,
          "midi": 70,
          "name": "A#4",
          "ticks": 239760,
          "time": 199.8,
          "velocity": 0.6299212598425197
        },
        {
          "duration": 0.3991666666666447,
          "durationTicks": 479,
          "midi": 67,
          "name": "G4",
          "ticks": 239760,
          "time": 199.8,
          "velocity": 0.6299212598425197
        },
        {
          "duration": 0.3991666666666447,
          "durationTicks": 479,
          "midi": 75,
          "name": "D#5",
          "ticks": 240240,
          "time": 200.20000000000002,
          "velocity": 0.6299212598425197
        },
        {
          "duration": 0.3991666666666447,
          "durationTicks": 479,
          "midi": 70,
          "name": "A#4",
          "ticks": 240240,
          "time": 200.20000000000002,
          "velocity": 0.6299212598425197
        },
        {
          "duration": 0.3991666666666447,
          "durationTicks": 479,
          "midi": 67,
          "name": "G4",
          "ticks": 240240,
          "time": 200.20000000000002,
          "velocity": 0.6299212598425197
        },
        {
          "duration": 0.19916666666665606,
          "durationTicks": 239,
          "midi": 75,
          "name": "D#5",
          "ticks": 240720,
          "time": 200.60000000000002,
          "velocity": 0.6299212598425197
        },
        {
          "duration": 0.19916666666665606,
          "durationTicks": 239,
          "midi": 70,
          "name": "A#4",
          "ticks": 240720,
          "time": 200.60000000000002,
          "velocity": 0.6299212598425197
        },
        {
          "duration": 0.19916666666665606,
          "durationTicks": 239,
          "midi": 67,
          "name": "G4",
          "ticks": 240720,
          "time": 200.60000000000002,
          "velocity": 0.6299212598425197
        },
        {
          "duration": 0.3991666666666447,
          "durationTicks": 479,
          "midi": 75,
          "name": "D#5",
          "ticks": 240960,
          "time": 200.8,
          "velocity": 0.6299212598425197
        },
        {
          "duration": 0.3991666666666447,
          "durationTicks": 479,
          "midi": 70,
          "name": "A#4",
          "ticks": 240960,
          "time": 200.8,
          "velocity": 0.6299212598425197
        },
        {
          "duration": 0.3991666666666447,
          "durationTicks": 479,
          "midi": 67,
          "name": "G4",
          "ticks": 240960,
          "time": 200.8,
          "velocity": 0.6299212598425197
        },
        {
          "duration": 0.3991666666666447,
          "durationTicks": 479,
          "midi": 74,
          "name": "D5",
          "ticks": 241440,
          "time": 201.20000000000002,
          "velocity": 0.6299212598425197
        },
        {
          "duration": 0.3991666666666447,
          "durationTicks": 479,
          "midi": 70,
          "name": "A#4",
          "ticks": 241440,
          "time": 201.20000000000002,
          "velocity": 0.6299212598425197
        },
        {
          "duration": 0.3991666666666447,
          "durationTicks": 479,
          "midi": 65,
          "name": "F4",
          "ticks": 241440,
          "time": 201.20000000000002,
          "velocity": 0.6299212598425197
        },
        {
          "duration": 0.5991666666666333,
          "durationTicks": 719,
          "midi": 75,
          "name": "D#5",
          "ticks": 241920,
          "time": 201.60000000000002,
          "velocity": 0.6299212598425197
        },
        {
          "duration": 0.5991666666666333,
          "durationTicks": 719,
          "midi": 70,
          "name": "A#4",
          "ticks": 241920,
          "time": 201.60000000000002,
          "velocity": 0.6299212598425197
        },
        {
          "duration": 0.5991666666666333,
          "durationTicks": 719,
          "midi": 67,
          "name": "G4",
          "ticks": 241920,
          "time": 201.60000000000002,
          "velocity": 0.6299212598425197
        },
        {
          "duration": 0.19916666666665606,
          "durationTicks": 239,
          "midi": 75,
          "name": "D#5",
          "ticks": 242640,
          "time": 202.20000000000002,
          "velocity": 0.6299212598425197
        },
        {
          "duration": 0.19916666666665606,
          "durationTicks": 239,
          "midi": 70,
          "name": "A#4",
          "ticks": 242640,
          "time": 202.20000000000002,
          "velocity": 0.6299212598425197
        },
        {
          "duration": 0.19916666666665606,
          "durationTicks": 239,
          "midi": 67,
          "name": "G4",
          "ticks": 242640,
          "time": 202.20000000000002,
          "velocity": 0.6299212598425197
        },
        {
          "duration": 0.3991666666666447,
          "durationTicks": 479,
          "midi": 75,
          "name": "D#5",
          "ticks": 243120,
          "time": 202.60000000000002,
          "velocity": 0.6299212598425197
        },
        {
          "duration": 0.3991666666666447,
          "durationTicks": 479,
          "midi": 70,
          "name": "A#4",
          "ticks": 243120,
          "time": 202.60000000000002,
          "velocity": 0.6299212598425197
        },
        {
          "duration": 0.3991666666666447,
          "durationTicks": 479,
          "midi": 67,
          "name": "G4",
          "ticks": 243120,
          "time": 202.60000000000002,
          "velocity": 0.6299212598425197
        },
        {
          "duration": 0.19916666666665606,
          "durationTicks": 239,
          "midi": 75,
          "name": "D#5",
          "ticks": 243600,
          "time": 203,
          "velocity": 0.6299212598425197
        },
        {
          "duration": 0.19916666666665606,
          "durationTicks": 239,
          "midi": 70,
          "name": "A#4",
          "ticks": 243600,
          "time": 203,
          "velocity": 0.6299212598425197
        },
        {
          "duration": 0.19916666666665606,
          "durationTicks": 239,
          "midi": 67,
          "name": "G4",
          "ticks": 243600,
          "time": 203,
          "velocity": 0.6299212598425197
        },
        {
          "duration": 0.19916666666665606,
          "durationTicks": 239,
          "midi": 70,
          "name": "A#4",
          "ticks": 244080,
          "time": 203.4,
          "velocity": 0.6299212598425197
        },
        {
          "duration": 0.19916666666665606,
          "durationTicks": 239,
          "midi": 65,
          "name": "F4",
          "ticks": 244080,
          "time": 203.4,
          "velocity": 0.6299212598425197
        },
        {
          "duration": 0.19916666666665606,
          "durationTicks": 239,
          "midi": 63,
          "name": "D#4",
          "ticks": 244080,
          "time": 203.4,
          "velocity": 0.6299212598425197
        },
        {
          "duration": 0.19916666666665606,
          "durationTicks": 239,
          "midi": 70,
          "name": "A#4",
          "ticks": 244320,
          "time": 203.60000000000002,
          "velocity": 0.6299212598425197
        },
        {
          "duration": 0.19916666666665606,
          "durationTicks": 239,
          "midi": 65,
          "name": "F4",
          "ticks": 244320,
          "time": 203.60000000000002,
          "velocity": 0.6299212598425197
        },
        {
          "duration": 0.19916666666665606,
          "durationTicks": 239,
          "midi": 63,
          "name": "D#4",
          "ticks": 244320,
          "time": 203.60000000000002,
          "velocity": 0.6299212598425197
        },
        {
          "duration": 0.19916666666665606,
          "durationTicks": 239,
          "midi": 70,
          "name": "A#4",
          "ticks": 244560,
          "time": 203.8,
          "velocity": 0.6299212598425197
        },
        {
          "duration": 0.19916666666665606,
          "durationTicks": 239,
          "midi": 65,
          "name": "F4",
          "ticks": 244560,
          "time": 203.8,
          "velocity": 0.6299212598425197
        },
        {
          "duration": 0.19916666666665606,
          "durationTicks": 239,
          "midi": 63,
          "name": "D#4",
          "ticks": 244560,
          "time": 203.8,
          "velocity": 0.6299212598425197
        },
        {
          "duration": 0.19916666666665606,
          "durationTicks": 239,
          "midi": 70,
          "name": "A#4",
          "ticks": 244800,
          "time": 204,
          "velocity": 0.6299212598425197
        },
        {
          "duration": 0.19916666666665606,
          "durationTicks": 239,
          "midi": 65,
          "name": "F4",
          "ticks": 244800,
          "time": 204,
          "velocity": 0.6299212598425197
        },
        {
          "duration": 0.19916666666665606,
          "durationTicks": 239,
          "midi": 63,
          "name": "D#4",
          "ticks": 244800,
          "time": 204,
          "velocity": 0.6299212598425197
        },
        {
          "duration": 0.19916666666665606,
          "durationTicks": 239,
          "midi": 70,
          "name": "A#4",
          "ticks": 245040,
          "time": 204.20000000000002,
          "velocity": 0.6299212598425197
        },
        {
          "duration": 0.19916666666665606,
          "durationTicks": 239,
          "midi": 65,
          "name": "F4",
          "ticks": 245040,
          "time": 204.20000000000002,
          "velocity": 0.6299212598425197
        },
        {
          "duration": 0.19916666666665606,
          "durationTicks": 239,
          "midi": 63,
          "name": "D#4",
          "ticks": 245040,
          "time": 204.20000000000002,
          "velocity": 0.6299212598425197
        },
        {
          "duration": 0.5991666666666902,
          "durationTicks": 719,
          "midi": 75,
          "name": "D#5",
          "ticks": 245760,
          "time": 204.8,
          "velocity": 0.6299212598425197
        },
        {
          "duration": 0.5991666666666902,
          "durationTicks": 719,
          "midi": 70,
          "name": "A#4",
          "ticks": 245760,
          "time": 204.8,
          "velocity": 0.6299212598425197
        },
        {
          "duration": 0.5991666666666902,
          "durationTicks": 719,
          "midi": 67,
          "name": "G4",
          "ticks": 245760,
          "time": 204.8,
          "velocity": 0.6299212598425197
        },
        {
          "duration": 0.19916666666668448,
          "durationTicks": 239,
          "midi": 75,
          "name": "D#5",
          "ticks": 246480,
          "time": 205.4,
          "velocity": 0.6299212598425197
        },
        {
          "duration": 0.19916666666668448,
          "durationTicks": 239,
          "midi": 70,
          "name": "A#4",
          "ticks": 246480,
          "time": 205.4,
          "velocity": 0.6299212598425197
        },
        {
          "duration": 0.19916666666668448,
          "durationTicks": 239,
          "midi": 67,
          "name": "G4",
          "ticks": 246480,
          "time": 205.4,
          "velocity": 0.6299212598425197
        },
        {
          "duration": 0.3991666666666731,
          "durationTicks": 479,
          "midi": 75,
          "name": "D#5",
          "ticks": 246960,
          "time": 205.8,
          "velocity": 0.6299212598425197
        },
        {
          "duration": 0.3991666666666731,
          "durationTicks": 479,
          "midi": 70,
          "name": "A#4",
          "ticks": 246960,
          "time": 205.8,
          "velocity": 0.6299212598425197
        },
        {
          "duration": 0.3991666666666731,
          "durationTicks": 479,
          "midi": 67,
          "name": "G4",
          "ticks": 246960,
          "time": 205.8,
          "velocity": 0.6299212598425197
        },
        {
          "duration": 0.3991666666666731,
          "durationTicks": 479,
          "midi": 75,
          "name": "D#5",
          "ticks": 247440,
          "time": 206.20000000000002,
          "velocity": 0.6299212598425197
        },
        {
          "duration": 0.3991666666666731,
          "durationTicks": 479,
          "midi": 70,
          "name": "A#4",
          "ticks": 247440,
          "time": 206.20000000000002,
          "velocity": 0.6299212598425197
        },
        {
          "duration": 0.3991666666666731,
          "durationTicks": 479,
          "midi": 67,
          "name": "G4",
          "ticks": 247440,
          "time": 206.20000000000002,
          "velocity": 0.6299212598425197
        },
        {
          "duration": 0.3991666666666731,
          "durationTicks": 479,
          "midi": 75,
          "name": "D#5",
          "ticks": 247920,
          "time": 206.60000000000002,
          "velocity": 0.6299212598425197
        },
        {
          "duration": 0.3991666666666731,
          "durationTicks": 479,
          "midi": 70,
          "name": "A#4",
          "ticks": 247920,
          "time": 206.60000000000002,
          "velocity": 0.6299212598425197
        },
        {
          "duration": 0.3991666666666731,
          "durationTicks": 479,
          "midi": 67,
          "name": "G4",
          "ticks": 247920,
          "time": 206.60000000000002,
          "velocity": 0.6299212598425197
        },
        {
          "duration": 0.19916666666668448,
          "durationTicks": 239,
          "midi": 75,
          "name": "D#5",
          "ticks": 248400,
          "time": 207,
          "velocity": 0.6299212598425197
        },
        {
          "duration": 0.19916666666668448,
          "durationTicks": 239,
          "midi": 70,
          "name": "A#4",
          "ticks": 248400,
          "time": 207,
          "velocity": 0.6299212598425197
        },
        {
          "duration": 0.19916666666668448,
          "durationTicks": 239,
          "midi": 67,
          "name": "G4",
          "ticks": 248400,
          "time": 207,
          "velocity": 0.6299212598425197
        },
        {
          "duration": 0.3991666666666731,
          "durationTicks": 479,
          "midi": 75,
          "name": "D#5",
          "ticks": 248640,
          "time": 207.20000000000002,
          "velocity": 0.6299212598425197
        },
        {
          "duration": 0.3991666666666731,
          "durationTicks": 479,
          "midi": 70,
          "name": "A#4",
          "ticks": 248640,
          "time": 207.20000000000002,
          "velocity": 0.6299212598425197
        },
        {
          "duration": 0.3991666666666731,
          "durationTicks": 479,
          "midi": 67,
          "name": "G4",
          "ticks": 248640,
          "time": 207.20000000000002,
          "velocity": 0.6299212598425197
        },
        {
          "duration": 0.3991666666666731,
          "durationTicks": 479,
          "midi": 74,
          "name": "D5",
          "ticks": 249120,
          "time": 207.60000000000002,
          "velocity": 0.6299212598425197
        },
        {
          "duration": 0.3991666666666731,
          "durationTicks": 479,
          "midi": 70,
          "name": "A#4",
          "ticks": 249120,
          "time": 207.60000000000002,
          "velocity": 0.6299212598425197
        },
        {
          "duration": 0.3991666666666731,
          "durationTicks": 479,
          "midi": 65,
          "name": "F4",
          "ticks": 249120,
          "time": 207.60000000000002,
          "velocity": 0.6299212598425197
        },
        {
          "duration": 0.5991666666666902,
          "durationTicks": 719,
          "midi": 75,
          "name": "D#5",
          "ticks": 249600,
          "time": 208,
          "velocity": 0.6299212598425197
        },
        {
          "duration": 0.5991666666666902,
          "durationTicks": 719,
          "midi": 70,
          "name": "A#4",
          "ticks": 249600,
          "time": 208,
          "velocity": 0.6299212598425197
        },
        {
          "duration": 0.5991666666666902,
          "durationTicks": 719,
          "midi": 67,
          "name": "G4",
          "ticks": 249600,
          "time": 208,
          "velocity": 0.6299212598425197
        },
        {
          "duration": 0.19916666666665606,
          "durationTicks": 239,
          "midi": 75,
          "name": "D#5",
          "ticks": 250320,
          "time": 208.60000000000002,
          "velocity": 0.6299212598425197
        },
        {
          "duration": 0.19916666666665606,
          "durationTicks": 239,
          "midi": 70,
          "name": "A#4",
          "ticks": 250320,
          "time": 208.60000000000002,
          "velocity": 0.6299212598425197
        },
        {
          "duration": 0.19916666666665606,
          "durationTicks": 239,
          "midi": 67,
          "name": "G4",
          "ticks": 250320,
          "time": 208.60000000000002,
          "velocity": 0.6299212598425197
        },
        {
          "duration": 0.39916666666670153,
          "durationTicks": 479,
          "midi": 75,
          "name": "D#5",
          "ticks": 250800,
          "time": 209,
          "velocity": 0.6299212598425197
        },
        {
          "duration": 0.39916666666670153,
          "durationTicks": 479,
          "midi": 70,
          "name": "A#4",
          "ticks": 250800,
          "time": 209,
          "velocity": 0.6299212598425197
        },
        {
          "duration": 0.39916666666670153,
          "durationTicks": 479,
          "midi": 67,
          "name": "G4",
          "ticks": 250800,
          "time": 209,
          "velocity": 0.6299212598425197
        },
        {
          "duration": 0.3991666666666731,
          "durationTicks": 479,
          "midi": 75,
          "name": "D#5",
          "ticks": 251280,
          "time": 209.4,
          "velocity": 0.6299212598425197
        },
        {
          "duration": 0.3991666666666731,
          "durationTicks": 479,
          "midi": 70,
          "name": "A#4",
          "ticks": 251280,
          "time": 209.4,
          "velocity": 0.6299212598425197
        },
        {
          "duration": 0.3991666666666731,
          "durationTicks": 479,
          "midi": 67,
          "name": "G4",
          "ticks": 251280,
          "time": 209.4,
          "velocity": 0.6299212598425197
        },
        {
          "duration": 0.3991666666666731,
          "durationTicks": 479,
          "midi": 75,
          "name": "D#5",
          "ticks": 251760,
          "time": 209.8,
          "velocity": 0.6299212598425197
        },
        {
          "duration": 0.3991666666666731,
          "durationTicks": 479,
          "midi": 70,
          "name": "A#4",
          "ticks": 251760,
          "time": 209.8,
          "velocity": 0.6299212598425197
        },
        {
          "duration": 0.3991666666666731,
          "durationTicks": 479,
          "midi": 67,
          "name": "G4",
          "ticks": 251760,
          "time": 209.8,
          "velocity": 0.6299212598425197
        },
        {
          "duration": 0.19916666666668448,
          "durationTicks": 239,
          "midi": 75,
          "name": "D#5",
          "ticks": 252240,
          "time": 210.20000000000002,
          "velocity": 0.6299212598425197
        },
        {
          "duration": 0.19916666666668448,
          "durationTicks": 239,
          "midi": 70,
          "name": "A#4",
          "ticks": 252240,
          "time": 210.20000000000002,
          "velocity": 0.6299212598425197
        },
        {
          "duration": 0.19916666666668448,
          "durationTicks": 239,
          "midi": 67,
          "name": "G4",
          "ticks": 252240,
          "time": 210.20000000000002,
          "velocity": 0.6299212598425197
        },
        {
          "duration": 0.3991666666666731,
          "durationTicks": 479,
          "midi": 75,
          "name": "D#5",
          "ticks": 252480,
          "time": 210.4,
          "velocity": 0.6299212598425197
        },
        {
          "duration": 0.3991666666666731,
          "durationTicks": 479,
          "midi": 70,
          "name": "A#4",
          "ticks": 252480,
          "time": 210.4,
          "velocity": 0.6299212598425197
        },
        {
          "duration": 0.3991666666666731,
          "durationTicks": 479,
          "midi": 67,
          "name": "G4",
          "ticks": 252480,
          "time": 210.4,
          "velocity": 0.6299212598425197
        },
        {
          "duration": 0.3991666666666731,
          "durationTicks": 479,
          "midi": 74,
          "name": "D5",
          "ticks": 252960,
          "time": 210.8,
          "velocity": 0.6299212598425197
        },
        {
          "duration": 0.3991666666666731,
          "durationTicks": 479,
          "midi": 70,
          "name": "A#4",
          "ticks": 252960,
          "time": 210.8,
          "velocity": 0.6299212598425197
        },
        {
          "duration": 0.3991666666666731,
          "durationTicks": 479,
          "midi": 65,
          "name": "F4",
          "ticks": 252960,
          "time": 210.8,
          "velocity": 0.6299212598425197
        },
        {
          "duration": 0.5991666666666617,
          "durationTicks": 719,
          "midi": 75,
          "name": "D#5",
          "ticks": 253440,
          "time": 211.20000000000002,
          "velocity": 0.6299212598425197
        },
        {
          "duration": 0.5991666666666617,
          "durationTicks": 719,
          "midi": 70,
          "name": "A#4",
          "ticks": 253440,
          "time": 211.20000000000002,
          "velocity": 0.6299212598425197
        },
        {
          "duration": 0.5991666666666617,
          "durationTicks": 719,
          "midi": 67,
          "name": "G4",
          "ticks": 253440,
          "time": 211.20000000000002,
          "velocity": 0.6299212598425197
        },
        {
          "duration": 0.19916666666668448,
          "durationTicks": 239,
          "midi": 75,
          "name": "D#5",
          "ticks": 254160,
          "time": 211.8,
          "velocity": 0.6299212598425197
        },
        {
          "duration": 0.19916666666668448,
          "durationTicks": 239,
          "midi": 70,
          "name": "A#4",
          "ticks": 254160,
          "time": 211.8,
          "velocity": 0.6299212598425197
        },
        {
          "duration": 0.19916666666668448,
          "durationTicks": 239,
          "midi": 67,
          "name": "G4",
          "ticks": 254160,
          "time": 211.8,
          "velocity": 0.6299212598425197
        },
        {
          "duration": 0.3991666666666731,
          "durationTicks": 479,
          "midi": 75,
          "name": "D#5",
          "ticks": 254640,
          "time": 212.20000000000002,
          "velocity": 0.6299212598425197
        },
        {
          "duration": 0.3991666666666731,
          "durationTicks": 479,
          "midi": 70,
          "name": "A#4",
          "ticks": 254640,
          "time": 212.20000000000002,
          "velocity": 0.6299212598425197
        },
        {
          "duration": 0.3991666666666731,
          "durationTicks": 479,
          "midi": 67,
          "name": "G4",
          "ticks": 254640,
          "time": 212.20000000000002,
          "velocity": 0.6299212598425197
        },
        {
          "duration": 0.3991666666666731,
          "durationTicks": 479,
          "midi": 75,
          "name": "D#5",
          "ticks": 255120,
          "time": 212.60000000000002,
          "velocity": 0.6299212598425197
        },
        {
          "duration": 0.3991666666666731,
          "durationTicks": 479,
          "midi": 70,
          "name": "A#4",
          "ticks": 255120,
          "time": 212.60000000000002,
          "velocity": 0.6299212598425197
        },
        {
          "duration": 0.3991666666666731,
          "durationTicks": 479,
          "midi": 67,
          "name": "G4",
          "ticks": 255120,
          "time": 212.60000000000002,
          "velocity": 0.6299212598425197
        },
        {
          "duration": 0.39916666666670153,
          "durationTicks": 479,
          "midi": 75,
          "name": "D#5",
          "ticks": 255600,
          "time": 213,
          "velocity": 0.6299212598425197
        },
        {
          "duration": 0.39916666666670153,
          "durationTicks": 479,
          "midi": 70,
          "name": "A#4",
          "ticks": 255600,
          "time": 213,
          "velocity": 0.6299212598425197
        },
        {
          "duration": 0.39916666666670153,
          "durationTicks": 479,
          "midi": 67,
          "name": "G4",
          "ticks": 255600,
          "time": 213,
          "velocity": 0.6299212598425197
        },
        {
          "duration": 0.19916666666668448,
          "durationTicks": 239,
          "midi": 75,
          "name": "D#5",
          "ticks": 256080,
          "time": 213.4,
          "velocity": 0.6299212598425197
        },
        {
          "duration": 0.19916666666668448,
          "durationTicks": 239,
          "midi": 70,
          "name": "A#4",
          "ticks": 256080,
          "time": 213.4,
          "velocity": 0.6299212598425197
        },
        {
          "duration": 0.19916666666668448,
          "durationTicks": 239,
          "midi": 67,
          "name": "G4",
          "ticks": 256080,
          "time": 213.4,
          "velocity": 0.6299212598425197
        },
        {
          "duration": 0.3991666666666731,
          "durationTicks": 479,
          "midi": 75,
          "name": "D#5",
          "ticks": 256320,
          "time": 213.60000000000002,
          "velocity": 0.6299212598425197
        },
        {
          "duration": 0.3991666666666731,
          "durationTicks": 479,
          "midi": 70,
          "name": "A#4",
          "ticks": 256320,
          "time": 213.60000000000002,
          "velocity": 0.6299212598425197
        },
        {
          "duration": 0.3991666666666731,
          "durationTicks": 479,
          "midi": 67,
          "name": "G4",
          "ticks": 256320,
          "time": 213.60000000000002,
          "velocity": 0.6299212598425197
        },
        {
          "duration": 0.39916666666670153,
          "durationTicks": 479,
          "midi": 74,
          "name": "D5",
          "ticks": 256800,
          "time": 214,
          "velocity": 0.6299212598425197
        },
        {
          "duration": 0.39916666666670153,
          "durationTicks": 479,
          "midi": 70,
          "name": "A#4",
          "ticks": 256800,
          "time": 214,
          "velocity": 0.6299212598425197
        },
        {
          "duration": 0.39916666666670153,
          "durationTicks": 479,
          "midi": 65,
          "name": "F4",
          "ticks": 256800,
          "time": 214,
          "velocity": 0.6299212598425197
        },
        {
          "duration": 0.5991666666666902,
          "durationTicks": 719,
          "midi": 75,
          "name": "D#5",
          "ticks": 257280,
          "time": 214.4,
          "velocity": 0.6299212598425197
        },
        {
          "duration": 0.5991666666666902,
          "durationTicks": 719,
          "midi": 70,
          "name": "A#4",
          "ticks": 257280,
          "time": 214.4,
          "velocity": 0.6299212598425197
        },
        {
          "duration": 0.5991666666666902,
          "durationTicks": 719,
          "midi": 67,
          "name": "G4",
          "ticks": 257280,
          "time": 214.4,
          "velocity": 0.6299212598425197
        },
        {
          "duration": 0.19916666666668448,
          "durationTicks": 239,
          "midi": 75,
          "name": "D#5",
          "ticks": 258000,
          "time": 215,
          "velocity": 0.6299212598425197
        },
        {
          "duration": 0.19916666666668448,
          "durationTicks": 239,
          "midi": 70,
          "name": "A#4",
          "ticks": 258000,
          "time": 215,
          "velocity": 0.6299212598425197
        },
        {
          "duration": 0.19916666666668448,
          "durationTicks": 239,
          "midi": 67,
          "name": "G4",
          "ticks": 258000,
          "time": 215,
          "velocity": 0.6299212598425197
        },
        {
          "duration": 0.3991666666666731,
          "durationTicks": 479,
          "midi": 75,
          "name": "D#5",
          "ticks": 258480,
          "time": 215.4,
          "velocity": 0.6299212598425197
        },
        {
          "duration": 0.3991666666666731,
          "durationTicks": 479,
          "midi": 70,
          "name": "A#4",
          "ticks": 258480,
          "time": 215.4,
          "velocity": 0.6299212598425197
        },
        {
          "duration": 0.3991666666666731,
          "durationTicks": 479,
          "midi": 67,
          "name": "G4",
          "ticks": 258480,
          "time": 215.4,
          "velocity": 0.6299212598425197
        },
        {
          "duration": 0.19916666666668448,
          "durationTicks": 239,
          "midi": 75,
          "name": "D#5",
          "ticks": 258960,
          "time": 215.8,
          "velocity": 0.6299212598425197
        },
        {
          "duration": 0.19916666666668448,
          "durationTicks": 239,
          "midi": 70,
          "name": "A#4",
          "ticks": 258960,
          "time": 215.8,
          "velocity": 0.6299212598425197
        },
        {
          "duration": 0.19916666666668448,
          "durationTicks": 239,
          "midi": 67,
          "name": "G4",
          "ticks": 258960,
          "time": 215.8,
          "velocity": 0.6299212598425197
        },
        {
          "duration": 0.19916666666668448,
          "durationTicks": 239,
          "midi": 70,
          "name": "A#4",
          "ticks": 259440,
          "time": 216.20000000000002,
          "velocity": 0.6299212598425197
        },
        {
          "duration": 0.19916666666668448,
          "durationTicks": 239,
          "midi": 65,
          "name": "F4",
          "ticks": 259440,
          "time": 216.20000000000002,
          "velocity": 0.6299212598425197
        },
        {
          "duration": 0.19916666666668448,
          "durationTicks": 239,
          "midi": 63,
          "name": "D#4",
          "ticks": 259440,
          "time": 216.20000000000002,
          "velocity": 0.6299212598425197
        },
        {
          "duration": 0.19916666666668448,
          "durationTicks": 239,
          "midi": 70,
          "name": "A#4",
          "ticks": 259680,
          "time": 216.4,
          "velocity": 0.6299212598425197
        },
        {
          "duration": 0.19916666666668448,
          "durationTicks": 239,
          "midi": 65,
          "name": "F4",
          "ticks": 259680,
          "time": 216.4,
          "velocity": 0.6299212598425197
        },
        {
          "duration": 0.19916666666668448,
          "durationTicks": 239,
          "midi": 63,
          "name": "D#4",
          "ticks": 259680,
          "time": 216.4,
          "velocity": 0.6299212598425197
        },
        {
          "duration": 0.19916666666665606,
          "durationTicks": 239,
          "midi": 70,
          "name": "A#4",
          "ticks": 259920,
          "time": 216.60000000000002,
          "velocity": 0.6299212598425197
        },
        {
          "duration": 0.19916666666665606,
          "durationTicks": 239,
          "midi": 65,
          "name": "F4",
          "ticks": 259920,
          "time": 216.60000000000002,
          "velocity": 0.6299212598425197
        },
        {
          "duration": 0.19916666666665606,
          "durationTicks": 239,
          "midi": 63,
          "name": "D#4",
          "ticks": 259920,
          "time": 216.60000000000002,
          "velocity": 0.6299212598425197
        },
        {
          "duration": 0.19916666666668448,
          "durationTicks": 239,
          "midi": 70,
          "name": "A#4",
          "ticks": 260160,
          "time": 216.8,
          "velocity": 0.6299212598425197
        },
        {
          "duration": 0.19916666666668448,
          "durationTicks": 239,
          "midi": 65,
          "name": "F4",
          "ticks": 260160,
          "time": 216.8,
          "velocity": 0.6299212598425197
        },
        {
          "duration": 0.19916666666668448,
          "durationTicks": 239,
          "midi": 63,
          "name": "D#4",
          "ticks": 260160,
          "time": 216.8,
          "velocity": 0.6299212598425197
        },
        {
          "duration": 0.19916666666668448,
          "durationTicks": 239,
          "midi": 70,
          "name": "A#4",
          "ticks": 260400,
          "time": 217,
          "velocity": 0.6299212598425197
        },
        {
          "duration": 0.19916666666668448,
          "durationTicks": 239,
          "midi": 65,
          "name": "F4",
          "ticks": 260400,
          "time": 217,
          "velocity": 0.6299212598425197
        },
        {
          "duration": 0.19916666666668448,
          "durationTicks": 239,
          "midi": 63,
          "name": "D#4",
          "ticks": 260400,
          "time": 217,
          "velocity": 0.6299212598425197
        },
        {
          "duration": 0.5991666666666617,
          "durationTicks": 719,
          "midi": 75,
          "name": "D#5",
          "ticks": 261120,
          "time": 217.60000000000002,
          "velocity": 0.6299212598425197
        },
        {
          "duration": 0.5991666666666617,
          "durationTicks": 719,
          "midi": 70,
          "name": "A#4",
          "ticks": 261120,
          "time": 217.60000000000002,
          "velocity": 0.6299212598425197
        },
        {
          "duration": 0.5991666666666617,
          "durationTicks": 719,
          "midi": 67,
          "name": "G4",
          "ticks": 261120,
          "time": 217.60000000000002,
          "velocity": 0.6299212598425197
        },
        {
          "duration": 0.19916666666668448,
          "durationTicks": 239,
          "midi": 75,
          "name": "D#5",
          "ticks": 261840,
          "time": 218.20000000000002,
          "velocity": 0.6299212598425197
        },
        {
          "duration": 0.19916666666668448,
          "durationTicks": 239,
          "midi": 70,
          "name": "A#4",
          "ticks": 261840,
          "time": 218.20000000000002,
          "velocity": 0.6299212598425197
        },
        {
          "duration": 0.19916666666668448,
          "durationTicks": 239,
          "midi": 67,
          "name": "G4",
          "ticks": 261840,
          "time": 218.20000000000002,
          "velocity": 0.6299212598425197
        },
        {
          "duration": 0.3991666666666731,
          "durationTicks": 479,
          "midi": 75,
          "name": "D#5",
          "ticks": 262320,
          "time": 218.60000000000002,
          "velocity": 0.6299212598425197
        },
        {
          "duration": 0.3991666666666731,
          "durationTicks": 479,
          "midi": 70,
          "name": "A#4",
          "ticks": 262320,
          "time": 218.60000000000002,
          "velocity": 0.6299212598425197
        },
        {
          "duration": 0.3991666666666731,
          "durationTicks": 479,
          "midi": 67,
          "name": "G4",
          "ticks": 262320,
          "time": 218.60000000000002,
          "velocity": 0.6299212598425197
        },
        {
          "duration": 0.39916666666670153,
          "durationTicks": 479,
          "midi": 75,
          "name": "D#5",
          "ticks": 262800,
          "time": 219,
          "velocity": 0.6299212598425197
        },
        {
          "duration": 0.39916666666670153,
          "durationTicks": 479,
          "midi": 70,
          "name": "A#4",
          "ticks": 262800,
          "time": 219,
          "velocity": 0.6299212598425197
        },
        {
          "duration": 0.39916666666670153,
          "durationTicks": 479,
          "midi": 67,
          "name": "G4",
          "ticks": 262800,
          "time": 219,
          "velocity": 0.6299212598425197
        },
        {
          "duration": 0.3991666666666731,
          "durationTicks": 479,
          "midi": 75,
          "name": "D#5",
          "ticks": 263280,
          "time": 219.4,
          "velocity": 0.6299212598425197
        },
        {
          "duration": 0.3991666666666731,
          "durationTicks": 479,
          "midi": 70,
          "name": "A#4",
          "ticks": 263280,
          "time": 219.4,
          "velocity": 0.6299212598425197
        },
        {
          "duration": 0.3991666666666731,
          "durationTicks": 479,
          "midi": 67,
          "name": "G4",
          "ticks": 263280,
          "time": 219.4,
          "velocity": 0.6299212598425197
        },
        {
          "duration": 0.19916666666668448,
          "durationTicks": 239,
          "midi": 75,
          "name": "D#5",
          "ticks": 263760,
          "time": 219.8,
          "velocity": 0.6299212598425197
        },
        {
          "duration": 0.19916666666668448,
          "durationTicks": 239,
          "midi": 70,
          "name": "A#4",
          "ticks": 263760,
          "time": 219.8,
          "velocity": 0.6299212598425197
        },
        {
          "duration": 0.19916666666668448,
          "durationTicks": 239,
          "midi": 67,
          "name": "G4",
          "ticks": 263760,
          "time": 219.8,
          "velocity": 0.6299212598425197
        },
        {
          "duration": 0.39916666666670153,
          "durationTicks": 479,
          "midi": 75,
          "name": "D#5",
          "ticks": 264000,
          "time": 220,
          "velocity": 0.6299212598425197
        },
        {
          "duration": 0.39916666666670153,
          "durationTicks": 479,
          "midi": 70,
          "name": "A#4",
          "ticks": 264000,
          "time": 220,
          "velocity": 0.6299212598425197
        },
        {
          "duration": 0.39916666666670153,
          "durationTicks": 479,
          "midi": 67,
          "name": "G4",
          "ticks": 264000,
          "time": 220,
          "velocity": 0.6299212598425197
        },
        {
          "duration": 0.3991666666666731,
          "durationTicks": 479,
          "midi": 74,
          "name": "D5",
          "ticks": 264480,
          "time": 220.4,
          "velocity": 0.6299212598425197
        },
        {
          "duration": 0.3991666666666731,
          "durationTicks": 479,
          "midi": 70,
          "name": "A#4",
          "ticks": 264480,
          "time": 220.4,
          "velocity": 0.6299212598425197
        },
        {
          "duration": 0.3991666666666731,
          "durationTicks": 479,
          "midi": 65,
          "name": "F4",
          "ticks": 264480,
          "time": 220.4,
          "velocity": 0.6299212598425197
        },
        {
          "duration": 0.5991666666666902,
          "durationTicks": 719,
          "midi": 75,
          "name": "D#5",
          "ticks": 264960,
          "time": 220.8,
          "velocity": 0.6299212598425197
        },
        {
          "duration": 0.5991666666666902,
          "durationTicks": 719,
          "midi": 70,
          "name": "A#4",
          "ticks": 264960,
          "time": 220.8,
          "velocity": 0.6299212598425197
        },
        {
          "duration": 0.5991666666666902,
          "durationTicks": 719,
          "midi": 67,
          "name": "G4",
          "ticks": 264960,
          "time": 220.8,
          "velocity": 0.6299212598425197
        },
        {
          "duration": 0.19916666666668448,
          "durationTicks": 239,
          "midi": 75,
          "name": "D#5",
          "ticks": 265680,
          "time": 221.4,
          "velocity": 0.6299212598425197
        },
        {
          "duration": 0.19916666666668448,
          "durationTicks": 239,
          "midi": 70,
          "name": "A#4",
          "ticks": 265680,
          "time": 221.4,
          "velocity": 0.6299212598425197
        },
        {
          "duration": 0.19916666666668448,
          "durationTicks": 239,
          "midi": 67,
          "name": "G4",
          "ticks": 265680,
          "time": 221.4,
          "velocity": 0.6299212598425197
        },
        {
          "duration": 0.3991666666666731,
          "durationTicks": 479,
          "midi": 75,
          "name": "D#5",
          "ticks": 266160,
          "time": 221.8,
          "velocity": 0.6299212598425197
        },
        {
          "duration": 0.3991666666666731,
          "durationTicks": 479,
          "midi": 70,
          "name": "A#4",
          "ticks": 266160,
          "time": 221.8,
          "velocity": 0.6299212598425197
        },
        {
          "duration": 0.3991666666666731,
          "durationTicks": 479,
          "midi": 67,
          "name": "G4",
          "ticks": 266160,
          "time": 221.8,
          "velocity": 0.6299212598425197
        },
        {
          "duration": 0.3991666666666731,
          "durationTicks": 479,
          "midi": 75,
          "name": "D#5",
          "ticks": 266640,
          "time": 222.20000000000002,
          "velocity": 0.6299212598425197
        },
        {
          "duration": 0.3991666666666731,
          "durationTicks": 479,
          "midi": 70,
          "name": "A#4",
          "ticks": 266640,
          "time": 222.20000000000002,
          "velocity": 0.6299212598425197
        },
        {
          "duration": 0.3991666666666731,
          "durationTicks": 479,
          "midi": 67,
          "name": "G4",
          "ticks": 266640,
          "time": 222.20000000000002,
          "velocity": 0.6299212598425197
        },
        {
          "duration": 0.3991666666666731,
          "durationTicks": 479,
          "midi": 75,
          "name": "D#5",
          "ticks": 267120,
          "time": 222.60000000000002,
          "velocity": 0.6299212598425197
        },
        {
          "duration": 0.3991666666666731,
          "durationTicks": 479,
          "midi": 70,
          "name": "A#4",
          "ticks": 267120,
          "time": 222.60000000000002,
          "velocity": 0.6299212598425197
        },
        {
          "duration": 0.3991666666666731,
          "durationTicks": 479,
          "midi": 67,
          "name": "G4",
          "ticks": 267120,
          "time": 222.60000000000002,
          "velocity": 0.6299212598425197
        },
        {
          "duration": 0.19916666666668448,
          "durationTicks": 239,
          "midi": 75,
          "name": "D#5",
          "ticks": 267600,
          "time": 223,
          "velocity": 0.6299212598425197
        },
        {
          "duration": 0.19916666666668448,
          "durationTicks": 239,
          "midi": 70,
          "name": "A#4",
          "ticks": 267600,
          "time": 223,
          "velocity": 0.6299212598425197
        },
        {
          "duration": 0.19916666666668448,
          "durationTicks": 239,
          "midi": 67,
          "name": "G4",
          "ticks": 267600,
          "time": 223,
          "velocity": 0.6299212598425197
        },
        {
          "duration": 0.3991666666666731,
          "durationTicks": 479,
          "midi": 75,
          "name": "D#5",
          "ticks": 267840,
          "time": 223.20000000000002,
          "velocity": 0.6299212598425197
        },
        {
          "duration": 0.3991666666666731,
          "durationTicks": 479,
          "midi": 70,
          "name": "A#4",
          "ticks": 267840,
          "time": 223.20000000000002,
          "velocity": 0.6299212598425197
        },
        {
          "duration": 0.3991666666666731,
          "durationTicks": 479,
          "midi": 67,
          "name": "G4",
          "ticks": 267840,
          "time": 223.20000000000002,
          "velocity": 0.6299212598425197
        },
        {
          "duration": 0.3991666666666731,
          "durationTicks": 479,
          "midi": 74,
          "name": "D5",
          "ticks": 268320,
          "time": 223.60000000000002,
          "velocity": 0.6299212598425197
        },
        {
          "duration": 0.3991666666666731,
          "durationTicks": 479,
          "midi": 70,
          "name": "A#4",
          "ticks": 268320,
          "time": 223.60000000000002,
          "velocity": 0.6299212598425197
        },
        {
          "duration": 0.3991666666666731,
          "durationTicks": 479,
          "midi": 65,
          "name": "F4",
          "ticks": 268320,
          "time": 223.60000000000002,
          "velocity": 0.6299212598425197
        },
        {
          "duration": 0.39916666666670153,
          "durationTicks": 479,
          "midi": 75,
          "name": "D#5",
          "ticks": 268800,
          "time": 224,
          "velocity": 0.6299212598425197
        },
        {
          "duration": 0.39916666666670153,
          "durationTicks": 479,
          "midi": 70,
          "name": "A#4",
          "ticks": 268800,
          "time": 224,
          "velocity": 0.6299212598425197
        },
        {
          "duration": 0.39916666666670153,
          "durationTicks": 479,
          "midi": 67,
          "name": "G4",
          "ticks": 268800,
          "time": 224,
          "velocity": 0.6299212598425197
        },
        {
          "duration": 0.3991666666666731,
          "durationTicks": 479,
          "midi": 75,
          "name": "D#5",
          "ticks": 269520,
          "time": 224.60000000000002,
          "velocity": 0.6299212598425197
        },
        {
          "duration": 0.3991666666666731,
          "durationTicks": 479,
          "midi": 70,
          "name": "A#4",
          "ticks": 269520,
          "time": 224.60000000000002,
          "velocity": 0.6299212598425197
        },
        {
          "duration": 0.3991666666666731,
          "durationTicks": 479,
          "midi": 67,
          "name": "G4",
          "ticks": 269520,
          "time": 224.60000000000002,
          "velocity": 0.6299212598425197
        },
        {
          "duration": 0.19916666666668448,
          "durationTicks": 239,
          "midi": 75,
          "name": "D#5",
          "ticks": 270000,
          "time": 225,
          "velocity": 0.6299212598425197
        },
        {
          "duration": 0.19916666666668448,
          "durationTicks": 239,
          "midi": 70,
          "name": "A#4",
          "ticks": 270000,
          "time": 225,
          "velocity": 0.6299212598425197
        },
        {
          "duration": 0.19916666666668448,
          "durationTicks": 239,
          "midi": 67,
          "name": "G4",
          "ticks": 270000,
          "time": 225,
          "velocity": 0.6299212598425197
        },
        {
          "duration": 0.3991666666666731,
          "durationTicks": 479,
          "midi": 75,
          "name": "D#5",
          "ticks": 270240,
          "time": 225.20000000000002,
          "velocity": 0.6299212598425197
        },
        {
          "duration": 0.3991666666666731,
          "durationTicks": 479,
          "midi": 70,
          "name": "A#4",
          "ticks": 270240,
          "time": 225.20000000000002,
          "velocity": 0.6299212598425197
        },
        {
          "duration": 0.3991666666666731,
          "durationTicks": 479,
          "midi": 67,
          "name": "G4",
          "ticks": 270240,
          "time": 225.20000000000002,
          "velocity": 0.6299212598425197
        },
        {
          "duration": 0.3991666666666731,
          "durationTicks": 479,
          "midi": 77,
          "name": "F5",
          "ticks": 270960,
          "time": 225.8,
          "velocity": 0.6299212598425197
        },
        {
          "duration": 0.3991666666666731,
          "durationTicks": 479,
          "midi": 70,
          "name": "A#4",
          "ticks": 270960,
          "time": 225.8,
          "velocity": 0.6299212598425197
        },
        {
          "duration": 0.3991666666666731,
          "durationTicks": 479,
          "midi": 67,
          "name": "G4",
          "ticks": 270960,
          "time": 225.8,
          "velocity": 0.6299212598425197
        },
        {
          "duration": 0.19916666666668448,
          "durationTicks": 239,
          "midi": 77,
          "name": "F5",
          "ticks": 271440,
          "time": 226.20000000000002,
          "velocity": 0.6299212598425197
        },
        {
          "duration": 0.19916666666668448,
          "durationTicks": 239,
          "midi": 70,
          "name": "A#4",
          "ticks": 271440,
          "time": 226.20000000000002,
          "velocity": 0.6299212598425197
        },
        {
          "duration": 0.19916666666668448,
          "durationTicks": 239,
          "midi": 67,
          "name": "G4",
          "ticks": 271440,
          "time": 226.20000000000002,
          "velocity": 0.6299212598425197
        },
        {
          "duration": 0.3991666666666731,
          "durationTicks": 479,
          "midi": 77,
          "name": "F5",
          "ticks": 271680,
          "time": 226.4,
          "velocity": 0.6299212598425197
        },
        {
          "duration": 0.3991666666666731,
          "durationTicks": 479,
          "midi": 70,
          "name": "A#4",
          "ticks": 271680,
          "time": 226.4,
          "velocity": 0.6299212598425197
        },
        {
          "duration": 0.3991666666666731,
          "durationTicks": 479,
          "midi": 67,
          "name": "G4",
          "ticks": 271680,
          "time": 226.4,
          "velocity": 0.6299212598425197
        },
        {
          "duration": 0.19916666666668448,
          "durationTicks": 239,
          "midi": 75,
          "name": "D#5",
          "ticks": 272160,
          "time": 226.8,
          "velocity": 0.6299212598425197
        },
        {
          "duration": 0.19916666666668448,
          "durationTicks": 239,
          "midi": 77,
          "name": "F5",
          "ticks": 272400,
          "time": 227,
          "velocity": 0.6299212598425197
        },
        {
          "duration": 0.3991666666666731,
          "durationTicks": 479,
          "midi": 79,
          "name": "G5",
          "ticks": 272640,
          "time": 227.20000000000002,
          "velocity": 0.6299212598425197
        },
        {
          "duration": 0.3991666666666731,
          "durationTicks": 479,
          "midi": 75,
          "name": "D#5",
          "ticks": 272640,
          "time": 227.20000000000002,
          "velocity": 0.6299212598425197
        },
        {
          "duration": 0.3991666666666731,
          "durationTicks": 479,
          "midi": 70,
          "name": "A#4",
          "ticks": 272640,
          "time": 227.20000000000002,
          "velocity": 0.6299212598425197
        },
        {
          "duration": 0.3991666666666731,
          "durationTicks": 479,
          "midi": 79,
          "name": "G5",
          "ticks": 273360,
          "time": 227.8,
          "velocity": 0.6299212598425197
        },
        {
          "duration": 0.19916666666668448,
          "durationTicks": 239,
          "midi": 75,
          "name": "D#5",
          "ticks": 273360,
          "time": 227.8,
          "velocity": 0.6299212598425197
        },
        {
          "duration": 0.19916666666668448,
          "durationTicks": 239,
          "midi": 70,
          "name": "A#4",
          "ticks": 273360,
          "time": 227.8,
          "velocity": 0.6299212598425197
        },
        {
          "duration": 0.19916666666668448,
          "durationTicks": 239,
          "midi": 75,
          "name": "D#5",
          "ticks": 273600,
          "time": 228,
          "velocity": 0.6299212598425197
        },
        {
          "duration": 0.19916666666668448,
          "durationTicks": 239,
          "midi": 70,
          "name": "A#4",
          "ticks": 273600,
          "time": 228,
          "velocity": 0.6299212598425197
        },
        {
          "duration": 0.19916666666668448,
          "durationTicks": 239,
          "midi": 79,
          "name": "G5",
          "ticks": 273840,
          "time": 228.20000000000002,
          "velocity": 0.6299212598425197
        },
        {
          "duration": 0.19916666666668448,
          "durationTicks": 239,
          "midi": 75,
          "name": "D#5",
          "ticks": 273840,
          "time": 228.20000000000002,
          "velocity": 0.6299212598425197
        },
        {
          "duration": 0.19916666666668448,
          "durationTicks": 239,
          "midi": 70,
          "name": "A#4",
          "ticks": 273840,
          "time": 228.20000000000002,
          "velocity": 0.6299212598425197
        },
        {
          "duration": 0.3991666666666731,
          "durationTicks": 479,
          "midi": 79,
          "name": "G5",
          "ticks": 274080,
          "time": 228.4,
          "velocity": 0.6299212598425197
        },
        {
          "duration": 0.3991666666666731,
          "durationTicks": 479,
          "midi": 75,
          "name": "D#5",
          "ticks": 274080,
          "time": 228.4,
          "velocity": 0.6299212598425197
        },
        {
          "duration": 0.3991666666666731,
          "durationTicks": 479,
          "midi": 70,
          "name": "A#4",
          "ticks": 274080,
          "time": 228.4,
          "velocity": 0.6299212598425197
        },
        {
          "duration": 0.39916666666670153,
          "durationTicks": 479,
          "midi": 79,
          "name": "G5",
          "ticks": 274800,
          "time": 229,
          "velocity": 0.6299212598425197
        },
        {
          "duration": 0.39916666666670153,
          "durationTicks": 479,
          "midi": 75,
          "name": "D#5",
          "ticks": 274800,
          "time": 229,
          "velocity": 0.6299212598425197
        },
        {
          "duration": 0.39916666666670153,
          "durationTicks": 479,
          "midi": 70,
          "name": "A#4",
          "ticks": 274800,
          "time": 229,
          "velocity": 0.6299212598425197
        },
        {
          "duration": 0.19916666666668448,
          "durationTicks": 239,
          "midi": 79,
          "name": "G5",
          "ticks": 275280,
          "time": 229.4,
          "velocity": 0.6299212598425197
        },
        {
          "duration": 0.9991666666666958,
          "durationTicks": 1199,
          "midi": 75,
          "name": "D#5",
          "ticks": 275280,
          "time": 229.4,
          "velocity": 0.6299212598425197
        },
        {
          "duration": 0.9991666666666958,
          "durationTicks": 1199,
          "midi": 71,
          "name": "B4",
          "ticks": 275280,
          "time": 229.4,
          "velocity": 0.6299212598425197
        },
        {
          "duration": 0.7991666666666788,
          "durationTicks": 959,
          "midi": 77,
          "name": "F5",
          "ticks": 275520,
          "time": 229.60000000000002,
          "velocity": 0.6299212598425197
        },
        {
          "duration": 0.19916666666668448,
          "durationTicks": 239,
          "midi": 70,
          "name": "A#4",
          "ticks": 276480,
          "time": 230.4,
          "velocity": 0.6299212598425197
        },
        {
          "duration": 0.19916666666668448,
          "durationTicks": 239,
          "midi": 63,
          "name": "D#4",
          "ticks": 276480,
          "time": 230.4,
          "velocity": 0.6299212598425197
        },
        {
          "duration": 0.19916666666665606,
          "durationTicks": 239,
          "midi": 58,
          "name": "A#3",
          "ticks": 276720,
          "time": 230.60000000000002,
          "velocity": 0.6299212598425197
        },
        {
          "duration": 0.19916666666668448,
          "durationTicks": 239,
          "midi": 65,
          "name": "F4",
          "ticks": 276960,
          "time": 230.8,
          "velocity": 0.6299212598425197
        },
        {
          "duration": 0.39916666666670153,
          "durationTicks": 479,
          "midi": 70,
          "name": "A#4",
          "ticks": 277200,
          "time": 231,
          "velocity": 0.6299212598425197
        },
        {
          "duration": 0.19916666666668448,
          "durationTicks": 239,
          "midi": 63,
          "name": "D#4",
          "ticks": 277680,
          "time": 231.4,
          "velocity": 0.6299212598425197
        },
        {
          "duration": 0.19916666666668448,
          "durationTicks": 239,
          "midi": 58,
          "name": "A#3",
          "ticks": 277680,
          "time": 231.4,
          "velocity": 0.6299212598425197
        },
        {
          "duration": 0.19916666666665606,
          "durationTicks": 239,
          "midi": 65,
          "name": "F4",
          "ticks": 277920,
          "time": 231.60000000000002,
          "velocity": 0.6299212598425197
        },
        {
          "duration": 0.3991666666666731,
          "durationTicks": 479,
          "midi": 70,
          "name": "A#4",
          "ticks": 278160,
          "time": 231.8,
          "velocity": 0.6299212598425197
        },
        {
          "duration": 0.19916666666668448,
          "durationTicks": 239,
          "midi": 63,
          "name": "D#4",
          "ticks": 278640,
          "time": 232.20000000000002,
          "velocity": 0.6299212598425197
        },
        {
          "duration": 0.19916666666668448,
          "durationTicks": 239,
          "midi": 58,
          "name": "A#3",
          "ticks": 278640,
          "time": 232.20000000000002,
          "velocity": 0.6299212598425197
        },
        {
          "duration": 0.19916666666668448,
          "durationTicks": 239,
          "midi": 65,
          "name": "F4",
          "ticks": 278880,
          "time": 232.4,
          "velocity": 0.6299212598425197
        },
        {
          "duration": 0.3991666666666731,
          "durationTicks": 479,
          "midi": 70,
          "name": "A#4",
          "ticks": 279120,
          "time": 232.60000000000002,
          "velocity": 0.6299212598425197
        },
        {
          "duration": 0.19916666666668448,
          "durationTicks": 239,
          "midi": 63,
          "name": "D#4",
          "ticks": 279600,
          "time": 233,
          "velocity": 0.6299212598425197
        },
        {
          "duration": 0.19916666666668448,
          "durationTicks": 239,
          "midi": 58,
          "name": "A#3",
          "ticks": 279600,
          "time": 233,
          "velocity": 0.6299212598425197
        },
        {
          "duration": 0.19916666666668448,
          "durationTicks": 239,
          "midi": 65,
          "name": "F4",
          "ticks": 279840,
          "time": 233.20000000000002,
          "velocity": 0.6299212598425197
        },
        {
          "duration": 0.19916666666668448,
          "durationTicks": 239,
          "midi": 70,
          "name": "A#4",
          "ticks": 280080,
          "time": 233.4,
          "velocity": 0.6299212598425197
        },
        {
          "duration": 0.19916666666665606,
          "durationTicks": 239,
          "midi": 70,
          "name": "A#4",
          "ticks": 280320,
          "time": 233.60000000000002,
          "velocity": 0.6299212598425197
        },
        {
          "duration": 0.19916666666665606,
          "durationTicks": 239,
          "midi": 63,
          "name": "D#4",
          "ticks": 280320,
          "time": 233.60000000000002,
          "velocity": 0.6299212598425197
        },
        {
          "duration": 0.19916666666668448,
          "durationTicks": 239,
          "midi": 63,
          "name": "D#4",
          "ticks": 280560,
          "time": 233.8,
          "velocity": 0.6299212598425197
        },
        {
          "duration": 0.19916666666668448,
          "durationTicks": 239,
          "midi": 65,
          "name": "F4",
          "ticks": 280800,
          "time": 234,
          "velocity": 0.6299212598425197
        },
        {
          "duration": 0.3991666666666731,
          "durationTicks": 479,
          "midi": 70,
          "name": "A#4",
          "ticks": 281040,
          "time": 234.20000000000002,
          "velocity": 0.6299212598425197
        },
        {
          "duration": 0.19916666666665606,
          "durationTicks": 239,
          "midi": 63,
          "name": "D#4",
          "ticks": 281520,
          "time": 234.60000000000002,
          "velocity": 0.6299212598425197
        },
        {
          "duration": 0.19916666666665606,
          "durationTicks": 239,
          "midi": 58,
          "name": "A#3",
          "ticks": 281520,
          "time": 234.60000000000002,
          "velocity": 0.6299212598425197
        },
        {
          "duration": 0.19916666666668448,
          "durationTicks": 239,
          "midi": 65,
          "name": "F4",
          "ticks": 281760,
          "time": 234.8,
          "velocity": 0.6299212598425197
        },
        {
          "duration": 0.39916666666670153,
          "durationTicks": 479,
          "midi": 70,
          "name": "A#4",
          "ticks": 282000,
          "time": 235,
          "velocity": 0.6299212598425197
        },
        {
          "duration": 0.19916666666668448,
          "durationTicks": 239,
          "midi": 63,
          "name": "D#4",
          "ticks": 282480,
          "time": 235.4,
          "velocity": 0.6299212598425197
        },
        {
          "duration": 0.19916666666668448,
          "durationTicks": 239,
          "midi": 58,
          "name": "A#3",
          "ticks": 282480,
          "time": 235.4,
          "velocity": 0.6299212598425197
        },
        {
          "duration": 0.19916666666665606,
          "durationTicks": 239,
          "midi": 65,
          "name": "F4",
          "ticks": 282720,
          "time": 235.60000000000002,
          "velocity": 0.6299212598425197
        },
        {
          "duration": 0.3991666666666731,
          "durationTicks": 479,
          "midi": 70,
          "name": "A#4",
          "ticks": 282960,
          "time": 235.8,
          "velocity": 0.6299212598425197
        },
        {
          "duration": 0.19916666666668448,
          "durationTicks": 239,
          "midi": 63,
          "name": "D#4",
          "ticks": 283440,
          "time": 236.20000000000002,
          "velocity": 0.6299212598425197
        },
        {
          "duration": 0.19916666666668448,
          "durationTicks": 239,
          "midi": 58,
          "name": "A#3",
          "ticks": 283440,
          "time": 236.20000000000002,
          "velocity": 0.6299212598425197
        },
        {
          "duration": 0.19916666666668448,
          "durationTicks": 239,
          "midi": 65,
          "name": "F4",
          "ticks": 283680,
          "time": 236.4,
          "velocity": 0.6299212598425197
        },
        {
          "duration": 0.19916666666665606,
          "durationTicks": 239,
          "midi": 70,
          "name": "A#4",
          "ticks": 283920,
          "time": 236.60000000000002,
          "velocity": 0.6299212598425197
        },
        {
          "duration": 0.19916666666668448,
          "durationTicks": 239,
          "midi": 70,
          "name": "A#4",
          "ticks": 284160,
          "time": 236.8,
          "velocity": 0.6299212598425197
        },
        {
          "duration": 0.19916666666668448,
          "durationTicks": 239,
          "midi": 63,
          "name": "D#4",
          "ticks": 284160,
          "time": 236.8,
          "velocity": 0.6299212598425197
        },
        {
          "duration": 0.19916666666668448,
          "durationTicks": 239,
          "midi": 63,
          "name": "D#4",
          "ticks": 284400,
          "time": 237,
          "velocity": 0.6299212598425197
        },
        {
          "duration": 0.19916666666668448,
          "durationTicks": 239,
          "midi": 65,
          "name": "F4",
          "ticks": 284640,
          "time": 237.20000000000002,
          "velocity": 0.6299212598425197
        },
        {
          "duration": 0.3991666666666731,
          "durationTicks": 479,
          "midi": 70,
          "name": "A#4",
          "ticks": 284880,
          "time": 237.4,
          "velocity": 0.6299212598425197
        },
        {
          "duration": 0.19916666666668448,
          "durationTicks": 239,
          "midi": 63,
          "name": "D#4",
          "ticks": 285360,
          "time": 237.8,
          "velocity": 0.6299212598425197
        },
        {
          "duration": 0.19916666666668448,
          "durationTicks": 239,
          "midi": 65,
          "name": "F4",
          "ticks": 285600,
          "time": 238,
          "velocity": 0.6299212598425197
        },
        {
          "duration": 0.3991666666666731,
          "durationTicks": 479,
          "midi": 70,
          "name": "A#4",
          "ticks": 285840,
          "time": 238.20000000000002,
          "velocity": 0.6299212598425197
        },
        {
          "duration": 0.19916666666665606,
          "durationTicks": 239,
          "midi": 63,
          "name": "D#4",
          "ticks": 286320,
          "time": 238.60000000000002,
          "velocity": 0.6299212598425197
        },
        {
          "duration": 0.19916666666665606,
          "durationTicks": 239,
          "midi": 58,
          "name": "A#3",
          "ticks": 286320,
          "time": 238.60000000000002,
          "velocity": 0.6299212598425197
        },
        {
          "duration": 0.19916666666668448,
          "durationTicks": 239,
          "midi": 65,
          "name": "F4",
          "ticks": 286560,
          "time": 238.8,
          "velocity": 0.6299212598425197
        },
        {
          "duration": 0.39916666666670153,
          "durationTicks": 479,
          "midi": 70,
          "name": "A#4",
          "ticks": 286800,
          "time": 239,
          "velocity": 0.6299212598425197
        },
        {
          "duration": 0.19916666666668448,
          "durationTicks": 239,
          "midi": 63,
          "name": "D#4",
          "ticks": 287280,
          "time": 239.4,
          "velocity": 0.6299212598425197
        },
        {
          "duration": 0.19916666666668448,
          "durationTicks": 239,
          "midi": 58,
          "name": "A#3",
          "ticks": 287280,
          "time": 239.4,
          "velocity": 0.6299212598425197
        },
        {
          "duration": 0.19916666666665606,
          "durationTicks": 239,
          "midi": 65,
          "name": "F4",
          "ticks": 287520,
          "time": 239.60000000000002,
          "velocity": 0.6299212598425197
        },
        {
          "duration": 0.19916666666668448,
          "durationTicks": 239,
          "midi": 70,
          "name": "A#4",
          "ticks": 287760,
          "time": 239.8,
          "velocity": 0.6299212598425197
        },
        {
          "duration": 0.19916666666668448,
          "durationTicks": 239,
          "midi": 70,
          "name": "A#4",
          "ticks": 288000,
          "time": 240,
          "velocity": 0.6299212598425197
        },
        {
          "duration": 0.19916666666668448,
          "durationTicks": 239,
          "midi": 63,
          "name": "D#4",
          "ticks": 288000,
          "time": 240,
          "velocity": 0.6299212598425197
        },
        {
          "duration": 0.19916666666668448,
          "durationTicks": 239,
          "midi": 63,
          "name": "D#4",
          "ticks": 288240,
          "time": 240.20000000000002,
          "velocity": 0.6299212598425197
        },
        {
          "duration": 0.19916666666668448,
          "durationTicks": 239,
          "midi": 65,
          "name": "F4",
          "ticks": 288480,
          "time": 240.4,
          "velocity": 0.6299212598425197
        },
        {
          "duration": 0.3991666666666731,
          "durationTicks": 479,
          "midi": 70,
          "name": "A#4",
          "ticks": 288720,
          "time": 240.60000000000002,
          "velocity": 0.6299212598425197
        },
        {
          "duration": 0.19916666666668448,
          "durationTicks": 239,
          "midi": 63,
          "name": "D#4",
          "ticks": 289200,
          "time": 241,
          "velocity": 0.6299212598425197
        },
        {
          "duration": 0.19916666666668448,
          "durationTicks": 239,
          "midi": 65,
          "name": "F4",
          "ticks": 289440,
          "time": 241.20000000000002,
          "velocity": 0.6299212598425197
        },
        {
          "duration": 0.3991666666666731,
          "durationTicks": 479,
          "midi": 70,
          "name": "A#4",
          "ticks": 289680,
          "time": 241.4,
          "velocity": 0.6299212598425197
        },
        {
          "duration": 0.19916666666668448,
          "durationTicks": 239,
          "midi": 63,
          "name": "D#4",
          "ticks": 290160,
          "time": 241.8,
          "velocity": 0.6299212598425197
        },
        {
          "duration": 0.19916666666668448,
          "durationTicks": 239,
          "midi": 58,
          "name": "A#3",
          "ticks": 290160,
          "time": 241.8,
          "velocity": 0.6299212598425197
        },
        {
          "duration": 0.19916666666668448,
          "durationTicks": 239,
          "midi": 65,
          "name": "F4",
          "ticks": 290400,
          "time": 242,
          "velocity": 0.6299212598425197
        },
        {
          "duration": 0.19916666666668448,
          "durationTicks": 239,
          "midi": 70,
          "name": "A#4",
          "ticks": 290640,
          "time": 242.20000000000002,
          "velocity": 0.6299212598425197
        },
        {
          "duration": 0.19916666666668448,
          "durationTicks": 239,
          "midi": 75,
          "name": "D#5",
          "ticks": 290880,
          "time": 242.4,
          "velocity": 0.6299212598425197
        },
        {
          "duration": 0.19916666666665606,
          "durationTicks": 239,
          "midi": 77,
          "name": "F5",
          "ticks": 291120,
          "time": 242.60000000000002,
          "velocity": 0.6299212598425197
        },
        {
          "duration": 0.19916666666668448,
          "durationTicks": 239,
          "midi": 82,
          "name": "A#5",
          "ticks": 291360,
          "time": 242.8,
          "velocity": 0.6299212598425197
        },
        {
          "duration": 0.19916666666668448,
          "durationTicks": 239,
          "midi": 87,
          "name": "D#6",
          "ticks": 291600,
          "time": 243,
          "velocity": 0.6299212598425197
        },
        {
          "duration": 1.5991666666666617,
          "durationTicks": 1919,
          "midi": 82,
          "name": "A#5",
          "ticks": 291840,
          "time": 243.20000000000002,
          "velocity": 0.6299212598425197
        },
        {
          "duration": 1.5991666666666902,
          "durationTicks": 1919,
          "midi": 87,
          "name": "D#6",
          "ticks": 291900,
          "time": 243.25,
          "velocity": 0.6299212598425197
        },
        {
          "duration": 1.5991666666666902,
          "durationTicks": 1919,
          "midi": 89,
          "name": "F6",
          "ticks": 291960,
          "time": 243.3,
          "velocity": 0.6299212598425197
        },
        {
          "duration": 1.5991666666666617,
          "durationTicks": 1919,
          "midi": 94,
          "name": "A#6",
          "ticks": 292020,
          "time": 243.35000000000002,
          "velocity": 0.6299212598425197
        }
      ],
      "endOfTrackTicks": 293940
    },
    {
      "channel": 1,
      "controlChanges": {},
      "pitchBends": [],
      "instrument": {
        "family": "piano",
        "name": "acoustic grand piano",
        "number": 0
      },
      "name": "",
      "notes": [
        {
          "duration": 3.1991666666666667,
          "durationTicks": 3839,
          "midi": 63,
          "name": "D#4",
          "ticks": 0,
          "time": 0,
          "velocity": 0.5039370078740157
        },
        {
          "duration": 3.1991666666666667,
          "durationTicks": 3839,
          "midi": 51,
          "name": "D#3",
          "ticks": 0,
          "time": 0,
          "velocity": 0.5039370078740157
        },
        {
          "duration": 3.1991666666666667,
          "durationTicks": 3839,
          "midi": 63,
          "name": "D#4",
          "ticks": 3840,
          "time": 3.2,
          "velocity": 0.5039370078740157
        },
        {
          "duration": 3.1991666666666667,
          "durationTicks": 3839,
          "midi": 56,
          "name": "G#3",
          "ticks": 3840,
          "time": 3.2,
          "velocity": 0.5039370078740157
        },
        {
          "duration": 3.1991666666666667,
          "durationTicks": 3839,
          "midi": 60,
          "name": "C4",
          "ticks": 7680,
          "time": 6.4,
          "velocity": 0.5039370078740157
        },
        {
          "duration": 3.1991666666666667,
          "durationTicks": 3839,
          "midi": 53,
          "name": "F3",
          "ticks": 7680,
          "time": 6.4,
          "velocity": 0.5039370078740157
        },
        {
          "duration": 3.199166666666665,
          "durationTicks": 3839,
          "midi": 63,
          "name": "D#4",
          "ticks": 11520,
          "time": 9.600000000000001,
          "velocity": 0.5039370078740157
        },
        {
          "duration": 3.199166666666665,
          "durationTicks": 3839,
          "midi": 56,
          "name": "G#3",
          "ticks": 11520,
          "time": 9.600000000000001,
          "velocity": 0.5039370078740157
        },
        {
          "duration": 3.1991666666666667,
          "durationTicks": 3839,
          "midi": 63,
          "name": "D#4",
          "ticks": 15360,
          "time": 12.8,
          "velocity": 0.5039370078740157
        },
        {
          "duration": 3.1991666666666667,
          "durationTicks": 3839,
          "midi": 56,
          "name": "G#3",
          "ticks": 15360,
          "time": 12.8,
          "velocity": 0.5039370078740157
        },
        {
          "duration": 0.1991666666666685,
          "durationTicks": 239,
          "midi": 70,
          "name": "A#4",
          "ticks": 15600,
          "time": 13,
          "velocity": 0.5039370078740157
        },
        {
          "duration": 0.19916666666666671,
          "durationTicks": 239,
          "midi": 75,
          "name": "D#5",
          "ticks": 15840,
          "time": 13.200000000000001,
          "velocity": 0.5039370078740157
        },
        {
          "duration": 0.3991666666666678,
          "durationTicks": 479,
          "midi": 79,
          "name": "G5",
          "ticks": 16080,
          "time": 13.4,
          "velocity": 0.5039370078740157
        },
        {
          "duration": 0.19916666666666671,
          "durationTicks": 239,
          "midi": 70,
          "name": "A#4",
          "ticks": 16560,
          "time": 13.8,
          "velocity": 0.5039370078740157
        },
        {
          "duration": 0.1991666666666685,
          "durationTicks": 239,
          "midi": 74,
          "name": "D5",
          "ticks": 16800,
          "time": 14,
          "velocity": 0.5039370078740157
        },
        {
          "duration": 0.3991666666666678,
          "durationTicks": 479,
          "midi": 79,
          "name": "G5",
          "ticks": 17040,
          "time": 14.200000000000001,
          "velocity": 0.5039370078740157
        },
        {
          "duration": 0.19916666666666671,
          "durationTicks": 239,
          "midi": 70,
          "name": "A#4",
          "ticks": 17520,
          "time": 14.600000000000001,
          "velocity": 0.5039370078740157
        },
        {
          "duration": 0.19916666666666671,
          "durationTicks": 239,
          "midi": 75,
          "name": "D#5",
          "ticks": 17760,
          "time": 14.8,
          "velocity": 0.5039370078740157
        },
        {
          "duration": 0.3991666666666678,
          "durationTicks": 479,
          "midi": 79,
          "name": "G5",
          "ticks": 18000,
          "time": 15,
          "velocity": 0.5039370078740157
        },
        {
          "duration": 0.1991666666666685,
          "durationTicks": 239,
          "midi": 70,
          "name": "A#4",
          "ticks": 18480,
          "time": 15.4,
          "velocity": 0.5039370078740157
        },
        {
          "duration": 0.19916666666666671,
          "durationTicks": 239,
          "midi": 75,
          "name": "D#5",
          "ticks": 18720,
          "time": 15.600000000000001,
          "velocity": 0.5039370078740157
        },
        {
          "duration": 0.19916666666666671,
          "durationTicks": 239,
          "midi": 79,
          "name": "G5",
          "ticks": 18960,
          "time": 15.8,
          "velocity": 0.5039370078740157
        },
        {
          "duration": 3.1991666666666667,
          "durationTicks": 3839,
          "midi": 63,
          "name": "D#4",
          "ticks": 19200,
          "time": 16,
          "velocity": 0.5039370078740157
        },
        {
          "duration": 3.1991666666666667,
          "durationTicks": 3839,
          "midi": 56,
          "name": "G#3",
          "ticks": 19200,
          "time": 16,
          "velocity": 0.5039370078740157
        },
        {
          "duration": 0.19916666666667027,
          "durationTicks": 239,
          "midi": 70,
          "name": "A#4",
          "ticks": 19440,
          "time": 16.2,
          "velocity": 0.5039370078740157
        },
        {
          "duration": 0.19916666666666671,
          "durationTicks": 239,
          "midi": 75,
          "name": "D#5",
          "ticks": 19680,
          "time": 16.400000000000002,
          "velocity": 0.5039370078740157
        },
        {
          "duration": 0.399166666666666,
          "durationTicks": 479,
          "midi": 79,
          "name": "G5",
          "ticks": 19920,
          "time": 16.6,
          "velocity": 0.5039370078740157
        },
        {
          "duration": 0.19916666666666671,
          "durationTicks": 239,
          "midi": 70,
          "name": "A#4",
          "ticks": 20400,
          "time": 17,
          "velocity": 0.5039370078740157
        },
        {
          "duration": 0.19916666666667027,
          "durationTicks": 239,
          "midi": 75,
          "name": "D#5",
          "ticks": 20640,
          "time": 17.2,
          "velocity": 0.5039370078740157
        },
        {
          "duration": 0.399166666666666,
          "durationTicks": 479,
          "midi": 79,
          "name": "G5",
          "ticks": 20880,
          "time": 17.400000000000002,
          "velocity": 0.5039370078740157
        },
        {
          "duration": 0.19916666666666671,
          "durationTicks": 239,
          "midi": 70,
          "name": "A#4",
          "ticks": 21360,
          "time": 17.8,
          "velocity": 0.5039370078740157
        },
        {
          "duration": 0.19916666666666671,
          "durationTicks": 239,
          "midi": 75,
          "name": "D#5",
          "ticks": 21600,
          "time": 18,
          "velocity": 0.5039370078740157
        },
        {
          "duration": 0.39916666666666956,
          "durationTicks": 479,
          "midi": 79,
          "name": "G5",
          "ticks": 21840,
          "time": 18.2,
          "velocity": 0.5039370078740157
        },
        {
          "duration": 0.19916666666666671,
          "durationTicks": 239,
          "midi": 70,
          "name": "A#4",
          "ticks": 22320,
          "time": 18.6,
          "velocity": 0.5039370078740157
        },
        {
          "duration": 0.19916666666666671,
          "durationTicks": 239,
          "midi": 75,
          "name": "D#5",
          "ticks": 22560,
          "time": 18.8,
          "velocity": 0.5039370078740157
        },
        {
          "duration": 0.19916666666666671,
          "durationTicks": 239,
          "midi": 79,
          "name": "G5",
          "ticks": 22800,
          "time": 19,
          "velocity": 0.5039370078740157
        },
        {
          "duration": 3.1991666666666667,
          "durationTicks": 3839,
          "midi": 60,
          "name": "C4",
          "ticks": 23040,
          "time": 19.200000000000003,
          "velocity": 0.5039370078740157
        },
        {
          "duration": 3.1991666666666667,
          "durationTicks": 3839,
          "midi": 53,
          "name": "F3",
          "ticks": 23040,
          "time": 19.200000000000003,
          "velocity": 0.5039370078740157
        },
        {
          "duration": 0.19916666666666671,
          "durationTicks": 239,
          "midi": 70,
          "name": "A#4",
          "ticks": 23280,
          "time": 19.400000000000002,
          "velocity": 0.5039370078740157
        },
        {
          "duration": 0.19916666666666671,
          "durationTicks": 239,
          "midi": 75,
          "name": "D#5",
          "ticks": 23520,
          "time": 19.6,
          "velocity": 0.5039370078740157
        },
        {
          "duration": 0.39916666666666956,
          "durationTicks": 479,
          "midi": 79,
          "name": "G5",
          "ticks": 23760,
          "time": 19.8,
          "velocity": 0.5039370078740157
        },
        {
          "duration": 0.19916666666666671,
          "durationTicks": 239,
          "midi": 70,
          "name": "A#4",
          "ticks": 24240,
          "time": 20.200000000000003,
          "velocity": 0.5039370078740157
        },
        {
          "duration": 0.19916666666666671,
          "durationTicks": 239,
          "midi": 75,
          "name": "D#5",
          "ticks": 24480,
          "time": 20.400000000000002,
          "velocity": 0.5039370078740157
        },
        {
          "duration": 0.399166666666666,
          "durationTicks": 479,
          "midi": 79,
          "name": "G5",
          "ticks": 24720,
          "time": 20.6,
          "velocity": 0.5039370078740157
        },
        {
          "duration": 0.19916666666667027,
          "durationTicks": 239,
          "midi": 70,
          "name": "A#4",
          "ticks": 25200,
          "time": 21,
          "velocity": 0.5039370078740157
        },
        {
          "duration": 0.19916666666666671,
          "durationTicks": 239,
          "midi": 75,
          "name": "D#5",
          "ticks": 25440,
          "time": 21.200000000000003,
          "velocity": 0.5039370078740157
        },
        {
          "duration": 0.399166666666666,
          "durationTicks": 479,
          "midi": 79,
          "name": "G5",
          "ticks": 25680,
          "time": 21.400000000000002,
          "velocity": 0.5039370078740157
        },
        {
          "duration": 0.19916666666666671,
          "durationTicks": 239,
          "midi": 70,
          "name": "A#4",
          "ticks": 26160,
          "time": 21.8,
          "velocity": 0.5039370078740157
        },
        {
          "duration": 0.19916666666667027,
          "durationTicks": 239,
          "midi": 75,
          "name": "D#5",
          "ticks": 26400,
          "time": 22,
          "velocity": 0.5039370078740157
        },
        {
          "duration": 0.19916666666666671,
          "durationTicks": 239,
          "midi": 79,
          "name": "G5",
          "ticks": 26640,
          "time": 22.200000000000003,
          "velocity": 0.5039370078740157
        },
        {
          "duration": 3.1991666666666667,
          "durationTicks": 3839,
          "midi": 60,
          "name": "C4",
          "ticks": 26880,
          "time": 22.400000000000002,
          "velocity": 0.5039370078740157
        },
        {
          "duration": 3.1991666666666667,
          "durationTicks": 3839,
          "midi": 53,
          "name": "F3",
          "ticks": 26880,
          "time": 22.400000000000002,
          "velocity": 0.5039370078740157
        },
        {
          "duration": 0.19916666666666671,
          "durationTicks": 239,
          "midi": 70,
          "name": "A#4",
          "ticks": 27120,
          "time": 22.6,
          "velocity": 0.5039370078740157
        },
        {
          "duration": 0.19916666666666671,
          "durationTicks": 239,
          "midi": 75,
          "name": "D#5",
          "ticks": 27360,
          "time": 22.8,
          "velocity": 0.5039370078740157
        },
        {
          "duration": 0.39916666666666956,
          "durationTicks": 479,
          "midi": 79,
          "name": "G5",
          "ticks": 27600,
          "time": 23,
          "velocity": 0.5039370078740157
        },
        {
          "duration": 0.19916666666666671,
          "durationTicks": 239,
          "midi": 82,
          "name": "A#5",
          "ticks": 28080,
          "time": 23.400000000000002,
          "velocity": 0.5039370078740157
        },
        {
          "duration": 0.19916666666666671,
          "durationTicks": 239,
          "midi": 87,
          "name": "D#6",
          "ticks": 28320,
          "time": 23.6,
          "velocity": 0.5039370078740157
        },
        {
          "duration": 0.19916666666666671,
          "durationTicks": 239,
          "midi": 87,
          "name": "D#6",
          "ticks": 28560,
          "time": 23.8,
          "velocity": 0.5039370078740157
        },
        {
          "duration": 1.5991666666666688,
          "durationTicks": 1919,
          "midi": 87,
          "name": "D#6",
          "ticks": 28800,
          "time": 24,
          "velocity": 0.5039370078740157
        },
        {
          "duration": 0.399166666666666,
          "durationTicks": 479,
          "midi": 51,
          "name": "D#3",
          "ticks": 30720,
          "time": 25.6,
          "velocity": 0.5039370078740157
        },
        {
          "duration": 3.1991666666666667,
          "durationTicks": 3839,
          "midi": 58,
          "name": "A#3",
          "ticks": 30720,
          "time": 25.6,
          "velocity": 0.5039370078740157
        },
        {
          "duration": 0.39916666666666956,
          "durationTicks": 479,
          "midi": 51,
          "name": "D#3",
          "ticks": 31200,
          "time": 26,
          "velocity": 0.5039370078740157
        },
        {
          "duration": 0.399166666666666,
          "durationTicks": 479,
          "midi": 51,
          "name": "D#3",
          "ticks": 31680,
          "time": 26.400000000000002,
          "velocity": 0.5039370078740157
        },
        {
          "duration": 0.39916666666666956,
          "durationTicks": 479,
          "midi": 51,
          "name": "D#3",
          "ticks": 32160,
          "time": 26.8,
          "velocity": 0.5039370078740157
        },
        {
          "duration": 0.399166666666666,
          "durationTicks": 479,
          "midi": 51,
          "name": "D#3",
          "ticks": 32640,
          "time": 27.200000000000003,
          "velocity": 0.5039370078740157
        },
        {
          "duration": 0.399166666666666,
          "durationTicks": 479,
          "midi": 51,
          "name": "D#3",
          "ticks": 33120,
          "time": 27.6,
          "velocity": 0.5039370078740157
        },
        {
          "duration": 0.39916666666666956,
          "durationTicks": 479,
          "midi": 51,
          "name": "D#3",
          "ticks": 33600,
          "time": 28,
          "velocity": 0.5039370078740157
        },
        {
          "duration": 0.399166666666666,
          "durationTicks": 479,
          "midi": 51,
          "name": "D#3",
          "ticks": 34080,
          "time": 28.400000000000002,
          "velocity": 0.5039370078740157
        },
        {
          "duration": 0.39916666666666956,
          "durationTicks": 479,
          "midi": 56,
          "name": "G#3",
          "ticks": 34560,
          "time": 28.8,
          "velocity": 0.5039370078740157
        },
        {
          "duration": 3.1991666666666667,
          "durationTicks": 3839,
          "midi": 63,
          "name": "D#4",
          "ticks": 34560,
          "time": 28.8,
          "velocity": 0.5039370078740157
        },
        {
          "duration": 0.399166666666666,
          "durationTicks": 479,
          "midi": 56,
          "name": "G#3",
          "ticks": 35040,
          "time": 29.200000000000003,
          "velocity": 0.5039370078740157
        },
        {
          "duration": 0.399166666666666,
          "durationTicks": 479,
          "midi": 56,
          "name": "G#3",
          "ticks": 35520,
          "time": 29.6,
          "velocity": 0.5039370078740157
        },
        {
          "duration": 0.39916666666666956,
          "durationTicks": 479,
          "midi": 56,
          "name": "G#3",
          "ticks": 36000,
          "time": 30,
          "velocity": 0.5039370078740157
        },
        {
          "duration": 0.399166666666666,
          "durationTicks": 479,
          "midi": 56,
          "name": "G#3",
          "ticks": 36480,
          "time": 30.400000000000002,
          "velocity": 0.5039370078740157
        },
        {
          "duration": 0.39916666666666956,
          "durationTicks": 479,
          "midi": 56,
          "name": "G#3",
          "ticks": 36960,
          "time": 30.8,
          "velocity": 0.5039370078740157
        },
        {
          "duration": 0.399166666666666,
          "durationTicks": 479,
          "midi": 56,
          "name": "G#3",
          "ticks": 37440,
          "time": 31.200000000000003,
          "velocity": 0.5039370078740157
        },
        {
          "duration": 0.399166666666666,
          "durationTicks": 479,
          "midi": 56,
          "name": "G#3",
          "ticks": 37920,
          "time": 31.6,
          "velocity": 0.5039370078740157
        },
        {
          "duration": 0.399166666666666,
          "durationTicks": 479,
          "midi": 53,
          "name": "F3",
          "ticks": 38400,
          "time": 32,
          "velocity": 0.5039370078740157
        },
        {
          "duration": 1.5991666666666688,
          "durationTicks": 1919,
          "midi": 60,
          "name": "C4",
          "ticks": 38400,
          "time": 32,
          "velocity": 0.5039370078740157
        },
        {
          "duration": 0.3991666666666731,
          "durationTicks": 479,
          "midi": 53,
          "name": "F3",
          "ticks": 38880,
          "time": 32.4,
          "velocity": 0.5039370078740157
        },
        {
          "duration": 0.399166666666666,
          "durationTicks": 479,
          "midi": 53,
          "name": "F3",
          "ticks": 39360,
          "time": 32.800000000000004,
          "velocity": 0.5039370078740157
        },
        {
          "duration": 0.399166666666666,
          "durationTicks": 479,
          "midi": 53,
          "name": "F3",
          "ticks": 39840,
          "time": 33.2,
          "velocity": 0.5039370078740157
        },
        {
          "duration": 0.399166666666666,
          "durationTicks": 479,
          "midi": 55,
          "name": "G3",
          "ticks": 40320,
          "time": 33.6,
          "velocity": 0.5039370078740157
        },
        {
          "duration": 1.5991666666666688,
          "durationTicks": 1919,
          "midi": 63,
          "name": "D#4",
          "ticks": 40320,
          "time": 33.6,
          "velocity": 0.5039370078740157
        },
        {
          "duration": 0.399166666666666,
          "durationTicks": 479,
          "midi": 55,
          "name": "G3",
          "ticks": 40800,
          "time": 34,
          "velocity": 0.5039370078740157
        },
        {
          "duration": 0.3991666666666731,
          "durationTicks": 479,
          "midi": 55,
          "name": "G3",
          "ticks": 41280,
          "time": 34.4,
          "velocity": 0.5039370078740157
        },
        {
          "duration": 0.399166666666666,
          "durationTicks": 479,
          "midi": 55,
          "name": "G3",
          "ticks": 41760,
          "time": 34.800000000000004,
          "velocity": 0.5039370078740157
        },
        {
          "duration": 0.399166666666666,
          "durationTicks": 479,
          "midi": 56,
          "name": "G#3",
          "ticks": 42240,
          "time": 35.2,
          "velocity": 0.5039370078740157
        },
        {
          "duration": 1.5991666666666688,
          "durationTicks": 1919,
          "midi": 63,
          "name": "D#4",
          "ticks": 42240,
          "time": 35.2,
          "velocity": 0.5039370078740157
        },
        {
          "duration": 0.399166666666666,
          "durationTicks": 479,
          "midi": 56,
          "name": "G#3",
          "ticks": 42720,
          "time": 35.6,
          "velocity": 0.5039370078740157
        },
        {
          "duration": 0.399166666666666,
          "durationTicks": 479,
          "midi": 56,
          "name": "G#3",
          "ticks": 43200,
          "time": 36,
          "velocity": 0.5039370078740157
        },
        {
          "duration": 0.3991666666666731,
          "durationTicks": 479,
          "midi": 56,
          "name": "G#3",
          "ticks": 43680,
          "time": 36.4,
          "velocity": 0.5039370078740157
        },
        {
          "duration": 0.399166666666666,
          "durationTicks": 479,
          "midi": 58,
          "name": "A#3",
          "ticks": 44160,
          "time": 36.800000000000004,
          "velocity": 0.5039370078740157
        },
        {
          "duration": 1.5991666666666617,
          "durationTicks": 1919,
          "midi": 63,
          "name": "D#4",
          "ticks": 44160,
          "time": 36.800000000000004,
          "velocity": 0.5039370078740157
        },
        {
          "duration": 0.399166666666666,
          "durationTicks": 479,
          "midi": 58,
          "name": "A#3",
          "ticks": 44640,
          "time": 37.2,
          "velocity": 0.5039370078740157
        },
        {
          "duration": 0.399166666666666,
          "durationTicks": 479,
          "midi": 58,
          "name": "A#3",
          "ticks": 45120,
          "time": 37.6,
          "velocity": 0.5039370078740157
        },
        {
          "duration": 0.399166666666666,
          "durationTicks": 479,
          "midi": 58,
          "name": "A#3",
          "ticks": 45600,
          "time": 38,
          "velocity": 0.5039370078740157
        },
        {
          "duration": 0.399166666666666,
          "durationTicks": 479,
          "midi": 51,
          "name": "D#3",
          "ticks": 46080,
          "time": 38.400000000000006,
          "velocity": 0.5039370078740157
        },
        {
          "duration": 3.199166666666663,
          "durationTicks": 3839,
          "midi": 58,
          "name": "A#3",
          "ticks": 46080,
          "time": 38.400000000000006,
          "velocity": 0.5039370078740157
        },
        {
          "duration": 0.399166666666666,
          "durationTicks": 479,
          "midi": 51,
          "name": "D#3",
          "ticks": 46560,
          "time": 38.800000000000004,
          "velocity": 0.5039370078740157
        },
        {
          "duration": 0.399166666666666,
          "durationTicks": 479,
          "midi": 51,
          "name": "D#3",
          "ticks": 47040,
          "time": 39.2,
          "velocity": 0.5039370078740157
        },
        {
          "duration": 0.399166666666666,
          "durationTicks": 479,
          "midi": 51,
          "name": "D#3",
          "ticks": 47520,
          "time": 39.6,
          "velocity": 0.5039370078740157
        },
        {
          "duration": 0.3991666666666731,
          "durationTicks": 479,
          "midi": 51,
          "name": "D#3",
          "ticks": 48000,
          "time": 40,
          "velocity": 0.5039370078740157
        },
        {
          "duration": 0.399166666666666,
          "durationTicks": 479,
          "midi": 51,
          "name": "D#3",
          "ticks": 48480,
          "time": 40.400000000000006,
          "velocity": 0.5039370078740157
        },
        {
          "duration": 0.399166666666666,
          "durationTicks": 479,
          "midi": 51,
          "name": "D#3",
          "ticks": 48960,
          "time": 40.800000000000004,
          "velocity": 0.5039370078740157
        },
        {
          "duration": 0.399166666666666,
          "durationTicks": 479,
          "midi": 51,
          "name": "D#3",
          "ticks": 49440,
          "time": 41.2,
          "velocity": 0.5039370078740157
        },
        {
          "duration": 0.399166666666666,
          "durationTicks": 479,
          "midi": 56,
          "name": "G#3",
          "ticks": 49920,
          "time": 41.6,
          "velocity": 0.5039370078740157
        },
        {
          "duration": 3.1991666666666703,
          "durationTicks": 3839,
          "midi": 63,
          "name": "D#4",
          "ticks": 49920,
          "time": 41.6,
          "velocity": 0.5039370078740157
        },
        {
          "duration": 0.3991666666666731,
          "durationTicks": 479,
          "midi": 56,
          "name": "G#3",
          "ticks": 50400,
          "time": 42,
          "velocity": 0.5039370078740157
        },
        {
          "duration": 0.399166666666666,
          "durationTicks": 479,
          "midi": 56,
          "name": "G#3",
          "ticks": 50880,
          "time": 42.400000000000006,
          "velocity": 0.5039370078740157
        },
        {
          "duration": 0.399166666666666,
          "durationTicks": 479,
          "midi": 56,
          "name": "G#3",
          "ticks": 51360,
          "time": 42.800000000000004,
          "velocity": 0.5039370078740157
        },
        {
          "duration": 0.399166666666666,
          "durationTicks": 479,
          "midi": 56,
          "name": "G#3",
          "ticks": 51840,
          "time": 43.2,
          "velocity": 0.5039370078740157
        },
        {
          "duration": 0.399166666666666,
          "durationTicks": 479,
          "midi": 56,
          "name": "G#3",
          "ticks": 52320,
          "time": 43.6,
          "velocity": 0.5039370078740157
        },
        {
          "duration": 0.3991666666666731,
          "durationTicks": 479,
          "midi": 56,
          "name": "G#3",
          "ticks": 52800,
          "time": 44,
          "velocity": 0.5039370078740157
        },
        {
          "duration": 0.399166666666666,
          "durationTicks": 479,
          "midi": 56,
          "name": "G#3",
          "ticks": 53280,
          "time": 44.400000000000006,
          "velocity": 0.5039370078740157
        },
        {
          "duration": 0.399166666666666,
          "durationTicks": 479,
          "midi": 53,
          "name": "F3",
          "ticks": 53760,
          "time": 44.800000000000004,
          "velocity": 0.5039370078740157
        },
        {
          "duration": 1.5991666666666688,
          "durationTicks": 1919,
          "midi": 60,
          "name": "C4",
          "ticks": 53760,
          "time": 44.800000000000004,
          "velocity": 0.5039370078740157
        },
        {
          "duration": 0.399166666666666,
          "durationTicks": 479,
          "midi": 53,
          "name": "F3",
          "ticks": 54240,
          "time": 45.2,
          "velocity": 0.5039370078740157
        },
        {
          "duration": 0.399166666666666,
          "durationTicks": 479,
          "midi": 53,
          "name": "F3",
          "ticks": 54720,
          "time": 45.6,
          "velocity": 0.5039370078740157
        },
        {
          "duration": 0.3991666666666731,
          "durationTicks": 479,
          "midi": 53,
          "name": "F3",
          "ticks": 55200,
          "time": 46,
          "velocity": 0.5039370078740157
        },
        {
          "duration": 0.399166666666666,
          "durationTicks": 479,
          "midi": 55,
          "name": "G3",
          "ticks": 55680,
          "time": 46.400000000000006,
          "velocity": 0.5039370078740157
        },
        {
          "duration": 1.5991666666666617,
          "durationTicks": 1919,
          "midi": 63,
          "name": "D#4",
          "ticks": 55680,
          "time": 46.400000000000006,
          "velocity": 0.5039370078740157
        },
        {
          "duration": 0.399166666666666,
          "durationTicks": 479,
          "midi": 55,
          "name": "G3",
          "ticks": 56160,
          "time": 46.800000000000004,
          "velocity": 0.5039370078740157
        },
        {
          "duration": 0.399166666666666,
          "durationTicks": 479,
          "midi": 55,
          "name": "G3",
          "ticks": 56640,
          "time": 47.2,
          "velocity": 0.5039370078740157
        },
        {
          "duration": 0.399166666666666,
          "durationTicks": 479,
          "midi": 55,
          "name": "G3",
          "ticks": 57120,
          "time": 47.6,
          "velocity": 0.5039370078740157
        },
        {
          "duration": 0.3991666666666731,
          "durationTicks": 479,
          "midi": 56,
          "name": "G#3",
          "ticks": 57600,
          "time": 48,
          "velocity": 0.5039370078740157
        },
        {
          "duration": 1.5991666666666688,
          "durationTicks": 1919,
          "midi": 63,
          "name": "D#4",
          "ticks": 57600,
          "time": 48,
          "velocity": 0.5039370078740157
        },
        {
          "duration": 0.399166666666666,
          "durationTicks": 479,
          "midi": 56,
          "name": "G#3",
          "ticks": 58080,
          "time": 48.400000000000006,
          "velocity": 0.5039370078740157
        },
        {
          "duration": 0.399166666666666,
          "durationTicks": 479,
          "midi": 56,
          "name": "G#3",
          "ticks": 58560,
          "time": 48.800000000000004,
          "velocity": 0.5039370078740157
        },
        {
          "duration": 0.399166666666666,
          "durationTicks": 479,
          "midi": 56,
          "name": "G#3",
          "ticks": 59040,
          "time": 49.2,
          "velocity": 0.5039370078740157
        },
        {
          "duration": 0.399166666666666,
          "durationTicks": 479,
          "midi": 58,
          "name": "A#3",
          "ticks": 59520,
          "time": 49.6,
          "velocity": 0.5039370078740157
        },
        {
          "duration": 1.9991666666666674,
          "durationTicks": 2399,
          "midi": 63,
          "name": "D#4",
          "ticks": 59520,
          "time": 49.6,
          "velocity": 0.5039370078740157
        },
        {
          "duration": 0.3991666666666731,
          "durationTicks": 479,
          "midi": 58,
          "name": "A#3",
          "ticks": 60000,
          "time": 50,
          "velocity": 0.5039370078740157
        },
        {
          "duration": 0.399166666666666,
          "durationTicks": 479,
          "midi": 58,
          "name": "A#3",
          "ticks": 60480,
          "time": 50.400000000000006,
          "velocity": 0.5039370078740157
        },
        {
          "duration": 0.399166666666666,
          "durationTicks": 479,
          "midi": 58,
          "name": "A#3",
          "ticks": 60960,
          "time": 50.800000000000004,
          "velocity": 0.5039370078740157
        },
        {
          "duration": 0.399166666666666,
          "durationTicks": 479,
          "midi": 58,
          "name": "A#3",
          "ticks": 61440,
          "time": 51.2,
          "velocity": 0.5039370078740157
        },
        {
          "duration": 0.19916666666666316,
          "durationTicks": 239,
          "midi": 44,
          "name": "G#2",
          "ticks": 63360,
          "time": 52.800000000000004,
          "velocity": 0.7559055118110236
        },
        {
          "duration": 0.19916666666667027,
          "durationTicks": 239,
          "midi": 51,
          "name": "D#3",
          "ticks": 63600,
          "time": 53,
          "velocity": 0.7559055118110236
        },
        {
          "duration": 0.399166666666666,
          "durationTicks": 479,
          "midi": 44,
          "name": "G#2",
          "ticks": 63840,
          "time": 53.2,
          "velocity": 0.7559055118110236
        },
        {
          "duration": 0.19916666666667027,
          "durationTicks": 239,
          "midi": 44,
          "name": "G#2",
          "ticks": 64320,
          "time": 53.6,
          "velocity": 0.7559055118110236
        },
        {
          "duration": 0.19916666666666316,
          "durationTicks": 239,
          "midi": 51,
          "name": "D#3",
          "ticks": 64560,
          "time": 53.800000000000004,
          "velocity": 0.7559055118110236
        },
        {
          "duration": 0.3991666666666731,
          "durationTicks": 479,
          "midi": 44,
          "name": "G#2",
          "ticks": 64800,
          "time": 54,
          "velocity": 0.7559055118110236
        },
        {
          "duration": 0.19916666666666316,
          "durationTicks": 239,
          "midi": 44,
          "name": "G#2",
          "ticks": 65280,
          "time": 54.400000000000006,
          "velocity": 0.7559055118110236
        },
        {
          "duration": 0.19916666666667027,
          "durationTicks": 239,
          "midi": 51,
          "name": "D#3",
          "ticks": 65520,
          "time": 54.6,
          "velocity": 0.7559055118110236
        },
        {
          "duration": 0.399166666666666,
          "durationTicks": 479,
          "midi": 44,
          "name": "G#2",
          "ticks": 65760,
          "time": 54.800000000000004,
          "velocity": 0.7559055118110236
        },
        {
          "duration": 0.399166666666666,
          "durationTicks": 479,
          "midi": 44,
          "name": "G#2",
          "ticks": 66240,
          "time": 55.2,
          "velocity": 0.7559055118110236
        },
        {
          "duration": 0.399166666666666,
          "durationTicks": 479,
          "midi": 53,
          "name": "F3",
          "ticks": 66720,
          "time": 55.6,
          "velocity": 0.7559055118110236
        },
        {
          "duration": 0.399166666666666,
          "durationTicks": 479,
          "midi": 43,
          "name": "G2",
          "ticks": 66720,
          "time": 55.6,
          "velocity": 0.7559055118110236
        },
        {
          "duration": 0.19916666666667027,
          "durationTicks": 239,
          "midi": 48,
          "name": "C3",
          "ticks": 67200,
          "time": 56,
          "velocity": 0.7559055118110236
        },
        {
          "duration": 0.19916666666667027,
          "durationTicks": 239,
          "midi": 55,
          "name": "G3",
          "ticks": 67440,
          "time": 56.2,
          "velocity": 0.7559055118110236
        },
        {
          "duration": 0.399166666666666,
          "durationTicks": 479,
          "midi": 48,
          "name": "C3",
          "ticks": 67680,
          "time": 56.400000000000006,
          "velocity": 0.7559055118110236
        },
        {
          "duration": 0.19916666666666316,
          "durationTicks": 239,
          "midi": 48,
          "name": "C3",
          "ticks": 68160,
          "time": 56.800000000000004,
          "velocity": 0.7559055118110236
        },
        {
          "duration": 0.19916666666667027,
          "durationTicks": 239,
          "midi": 55,
          "name": "G3",
          "ticks": 68400,
          "time": 57,
          "velocity": 0.7559055118110236
        },
        {
          "duration": 0.399166666666666,
          "durationTicks": 479,
          "midi": 48,
          "name": "C3",
          "ticks": 68640,
          "time": 57.2,
          "velocity": 0.7559055118110236
        },
        {
          "duration": 0.19916666666667027,
          "durationTicks": 239,
          "midi": 48,
          "name": "C3",
          "ticks": 69120,
          "time": 57.6,
          "velocity": 0.7559055118110236
        },
        {
          "duration": 0.19916666666666316,
          "durationTicks": 239,
          "midi": 55,
          "name": "G3",
          "ticks": 69360,
          "time": 57.800000000000004,
          "velocity": 0.7559055118110236
        },
        {
          "duration": 0.3991666666666731,
          "durationTicks": 479,
          "midi": 48,
          "name": "C3",
          "ticks": 69600,
          "time": 58,
          "velocity": 0.7559055118110236
        },
        {
          "duration": 0.399166666666666,
          "durationTicks": 479,
          "midi": 48,
          "name": "C3",
          "ticks": 70080,
          "time": 58.400000000000006,
          "velocity": 0.7559055118110236
        },
        {
          "duration": 0.399166666666666,
          "durationTicks": 479,
          "midi": 53,
          "name": "F3",
          "ticks": 70560,
          "time": 58.800000000000004,
          "velocity": 0.7559055118110236
        },
        {
          "duration": 0.399166666666666,
          "durationTicks": 479,
          "midi": 46,
          "name": "A#2",
          "ticks": 70560,
          "time": 58.800000000000004,
          "velocity": 0.7559055118110236
        },
        {
          "duration": 0.19916666666667027,
          "durationTicks": 239,
          "midi": 41,
          "name": "F2",
          "ticks": 71040,
          "time": 59.2,
          "velocity": 0.7559055118110236
        },
        {
          "duration": 0.19916666666666316,
          "durationTicks": 239,
          "midi": 51,
          "name": "D#3",
          "ticks": 71280,
          "time": 59.400000000000006,
          "velocity": 0.7559055118110236
        },
        {
          "duration": 0.399166666666666,
          "durationTicks": 479,
          "midi": 41,
          "name": "F2",
          "ticks": 71520,
          "time": 59.6,
          "velocity": 0.7559055118110236
        },
        {
          "duration": 0.19916666666667027,
          "durationTicks": 239,
          "midi": 41,
          "name": "F2",
          "ticks": 72000,
          "time": 60,
          "velocity": 0.7559055118110236
        },
        {
          "duration": 0.19916666666667027,
          "durationTicks": 239,
          "midi": 51,
          "name": "D#3",
          "ticks": 72240,
          "time": 60.2,
          "velocity": 0.7559055118110236
        },
        {
          "duration": 0.399166666666666,
          "durationTicks": 479,
          "midi": 41,
          "name": "F2",
          "ticks": 72480,
          "time": 60.400000000000006,
          "velocity": 0.7559055118110236
        },
        {
          "duration": 0.19916666666666316,
          "durationTicks": 239,
          "midi": 41,
          "name": "F2",
          "ticks": 72960,
          "time": 60.800000000000004,
          "velocity": 0.7559055118110236
        },
        {
          "duration": 0.19916666666667027,
          "durationTicks": 239,
          "midi": 51,
          "name": "D#3",
          "ticks": 73200,
          "time": 61,
          "velocity": 0.7559055118110236
        },
        {
          "duration": 0.399166666666666,
          "durationTicks": 479,
          "midi": 41,
          "name": "F2",
          "ticks": 73440,
          "time": 61.2,
          "velocity": 0.7559055118110236
        },
        {
          "duration": 0.399166666666666,
          "durationTicks": 479,
          "midi": 41,
          "name": "F2",
          "ticks": 73920,
          "time": 61.6,
          "velocity": 0.7559055118110236
        },
        {
          "duration": 0.3991666666666731,
          "durationTicks": 479,
          "midi": 53,
          "name": "F3",
          "ticks": 74400,
          "time": 62,
          "velocity": 0.7559055118110236
        },
        {
          "duration": 0.3991666666666731,
          "durationTicks": 479,
          "midi": 43,
          "name": "G2",
          "ticks": 74400,
          "time": 62,
          "velocity": 0.7559055118110236
        },
        {
          "duration": 0.19916666666666316,
          "durationTicks": 239,
          "midi": 44,
          "name": "G#2",
          "ticks": 74880,
          "time": 62.400000000000006,
          "velocity": 0.7559055118110236
        },
        {
          "duration": 0.19916666666667027,
          "durationTicks": 239,
          "midi": 51,
          "name": "D#3",
          "ticks": 75120,
          "time": 62.6,
          "velocity": 0.7559055118110236
        },
        {
          "duration": 0.399166666666666,
          "durationTicks": 479,
          "midi": 44,
          "name": "G#2",
          "ticks": 75360,
          "time": 62.800000000000004,
          "velocity": 0.7559055118110236
        },
        {
          "duration": 0.19916666666667027,
          "durationTicks": 239,
          "midi": 44,
          "name": "G#2",
          "ticks": 75840,
          "time": 63.2,
          "velocity": 0.7559055118110236
        },
        {
          "duration": 0.19916666666666316,
          "durationTicks": 239,
          "midi": 51,
          "name": "D#3",
          "ticks": 76080,
          "time": 63.400000000000006,
          "velocity": 0.7559055118110236
        },
        {
          "duration": 0.399166666666666,
          "durationTicks": 479,
          "midi": 44,
          "name": "G#2",
          "ticks": 76320,
          "time": 63.6,
          "velocity": 0.7559055118110236
        },
        {
          "duration": 0.19916666666667027,
          "durationTicks": 239,
          "midi": 46,
          "name": "A#2",
          "ticks": 76800,
          "time": 64,
          "velocity": 0.7559055118110236
        },
        {
          "duration": 0.19916666666667027,
          "durationTicks": 239,
          "midi": 53,
          "name": "F3",
          "ticks": 77040,
          "time": 64.2,
          "velocity": 0.7559055118110236
        },
        {
          "duration": 0.19916666666667027,
          "durationTicks": 239,
          "midi": 46,
          "name": "A#2",
          "ticks": 77040,
          "time": 64.2,
          "velocity": 0.7559055118110236
        },
        {
          "duration": 0.19916666666667027,
          "durationTicks": 239,
          "midi": 53,
          "name": "F3",
          "ticks": 77280,
          "time": 64.4,
          "velocity": 0.7559055118110236
        },
        {
          "duration": 0.19916666666667027,
          "durationTicks": 239,
          "midi": 46,
          "name": "A#2",
          "ticks": 77280,
          "time": 64.4,
          "velocity": 0.7559055118110236
        },
        {
          "duration": 0.19916666666665606,
          "durationTicks": 239,
          "midi": 53,
          "name": "F3",
          "ticks": 77520,
          "time": 64.60000000000001,
          "velocity": 0.7559055118110236
        },
        {
          "duration": 0.19916666666665606,
          "durationTicks": 239,
          "midi": 46,
          "name": "A#2",
          "ticks": 77520,
          "time": 64.60000000000001,
          "velocity": 0.7559055118110236
        },
        {
          "duration": 0.19916666666667027,
          "durationTicks": 239,
          "midi": 53,
          "name": "F3",
          "ticks": 77760,
          "time": 64.8,
          "velocity": 0.7559055118110236
        },
        {
          "duration": 0.19916666666667027,
          "durationTicks": 239,
          "midi": 46,
          "name": "A#2",
          "ticks": 77760,
          "time": 64.8,
          "velocity": 0.7559055118110236
        },
        {
          "duration": 0.19916666666667027,
          "durationTicks": 239,
          "midi": 53,
          "name": "F3",
          "ticks": 78000,
          "time": 65,
          "velocity": 0.7559055118110236
        },
        {
          "duration": 0.19916666666667027,
          "durationTicks": 239,
          "midi": 46,
          "name": "A#2",
          "ticks": 78000,
          "time": 65,
          "velocity": 0.7559055118110236
        },
        {
          "duration": 0.19916666666667027,
          "durationTicks": 239,
          "midi": 46,
          "name": "A#2",
          "ticks": 78480,
          "time": 65.4,
          "velocity": 0.7559055118110236
        },
        {
          "duration": 0.19916666666665606,
          "durationTicks": 239,
          "midi": 44,
          "name": "G#2",
          "ticks": 78720,
          "time": 65.60000000000001,
          "velocity": 0.7559055118110236
        },
        {
          "duration": 0.19916666666667027,
          "durationTicks": 239,
          "midi": 51,
          "name": "D#3",
          "ticks": 78960,
          "time": 65.8,
          "velocity": 0.7559055118110236
        },
        {
          "duration": 0.3991666666666731,
          "durationTicks": 479,
          "midi": 44,
          "name": "G#2",
          "ticks": 79200,
          "time": 66,
          "velocity": 0.7559055118110236
        },
        {
          "duration": 0.19916666666667027,
          "durationTicks": 239,
          "midi": 44,
          "name": "G#2",
          "ticks": 79680,
          "time": 66.4,
          "velocity": 0.7559055118110236
        },
        {
          "duration": 0.19916666666665606,
          "durationTicks": 239,
          "midi": 51,
          "name": "D#3",
          "ticks": 79920,
          "time": 66.60000000000001,
          "velocity": 0.7559055118110236
        },
        {
          "duration": 0.3991666666666731,
          "durationTicks": 479,
          "midi": 44,
          "name": "G#2",
          "ticks": 80160,
          "time": 66.8,
          "velocity": 0.7559055118110236
        },
        {
          "duration": 0.19916666666667027,
          "durationTicks": 239,
          "midi": 44,
          "name": "G#2",
          "ticks": 80640,
          "time": 67.2,
          "velocity": 0.7559055118110236
        },
        {
          "duration": 0.19916666666667027,
          "durationTicks": 239,
          "midi": 51,
          "name": "D#3",
          "ticks": 80880,
          "time": 67.4,
          "velocity": 0.7559055118110236
        },
        {
          "duration": 0.3991666666666589,
          "durationTicks": 479,
          "midi": 44,
          "name": "G#2",
          "ticks": 81120,
          "time": 67.60000000000001,
          "velocity": 0.7559055118110236
        },
        {
          "duration": 0.3991666666666731,
          "durationTicks": 479,
          "midi": 44,
          "name": "G#2",
          "ticks": 81600,
          "time": 68,
          "velocity": 0.7559055118110236
        },
        {
          "duration": 0.3991666666666589,
          "durationTicks": 479,
          "midi": 53,
          "name": "F3",
          "ticks": 82080,
          "time": 68.4,
          "velocity": 0.7559055118110236
        },
        {
          "duration": 0.3991666666666589,
          "durationTicks": 479,
          "midi": 43,
          "name": "G2",
          "ticks": 82080,
          "time": 68.4,
          "velocity": 0.7559055118110236
        },
        {
          "duration": 0.19916666666667027,
          "durationTicks": 239,
          "midi": 48,
          "name": "C3",
          "ticks": 82560,
          "time": 68.8,
          "velocity": 0.7559055118110236
        },
        {
          "duration": 0.19916666666667027,
          "durationTicks": 239,
          "midi": 55,
          "name": "G3",
          "ticks": 82800,
          "time": 69,
          "velocity": 0.7559055118110236
        },
        {
          "duration": 0.3991666666666731,
          "durationTicks": 479,
          "midi": 48,
          "name": "C3",
          "ticks": 83040,
          "time": 69.2,
          "velocity": 0.7559055118110236
        },
        {
          "duration": 0.19916666666665606,
          "durationTicks": 239,
          "midi": 48,
          "name": "C3",
          "ticks": 83520,
          "time": 69.60000000000001,
          "velocity": 0.7559055118110236
        },
        {
          "duration": 0.19916666666667027,
          "durationTicks": 239,
          "midi": 55,
          "name": "G3",
          "ticks": 83760,
          "time": 69.8,
          "velocity": 0.7559055118110236
        },
        {
          "duration": 0.3991666666666731,
          "durationTicks": 479,
          "midi": 48,
          "name": "C3",
          "ticks": 84000,
          "time": 70,
          "velocity": 0.7559055118110236
        },
        {
          "duration": 0.19916666666667027,
          "durationTicks": 239,
          "midi": 48,
          "name": "C3",
          "ticks": 84480,
          "time": 70.4,
          "velocity": 0.7559055118110236
        },
        {
          "duration": 0.19916666666665606,
          "durationTicks": 239,
          "midi": 55,
          "name": "G3",
          "ticks": 84720,
          "time": 70.60000000000001,
          "velocity": 0.7559055118110236
        },
        {
          "duration": 0.3991666666666731,
          "durationTicks": 479,
          "midi": 48,
          "name": "C3",
          "ticks": 84960,
          "time": 70.8,
          "velocity": 0.7559055118110236
        },
        {
          "duration": 0.3991666666666731,
          "durationTicks": 479,
          "midi": 48,
          "name": "C3",
          "ticks": 85440,
          "time": 71.2,
          "velocity": 0.7559055118110236
        },
        {
          "duration": 0.3991666666666589,
          "durationTicks": 479,
          "midi": 53,
          "name": "F3",
          "ticks": 85920,
          "time": 71.60000000000001,
          "velocity": 0.7559055118110236
        },
        {
          "duration": 0.3991666666666589,
          "durationTicks": 479,
          "midi": 46,
          "name": "A#2",
          "ticks": 85920,
          "time": 71.60000000000001,
          "velocity": 0.7559055118110236
        },
        {
          "duration": 0.19916666666667027,
          "durationTicks": 239,
          "midi": 41,
          "name": "F2",
          "ticks": 86400,
          "time": 72,
          "velocity": 0.7559055118110236
        },
        {
          "duration": 0.19916666666667027,
          "durationTicks": 239,
          "midi": 51,
          "name": "D#3",
          "ticks": 86640,
          "time": 72.2,
          "velocity": 0.7559055118110236
        },
        {
          "duration": 0.3991666666666589,
          "durationTicks": 479,
          "midi": 41,
          "name": "F2",
          "ticks": 86880,
          "time": 72.4,
          "velocity": 0.7559055118110236
        },
        {
          "duration": 0.19916666666667027,
          "durationTicks": 239,
          "midi": 41,
          "name": "F2",
          "ticks": 87360,
          "time": 72.8,
          "velocity": 0.7559055118110236
        },
        {
          "duration": 0.19916666666667027,
          "durationTicks": 239,
          "midi": 51,
          "name": "D#3",
          "ticks": 87600,
          "time": 73,
          "velocity": 0.7559055118110236
        },
        {
          "duration": 0.3991666666666731,
          "durationTicks": 479,
          "midi": 41,
          "name": "F2",
          "ticks": 87840,
          "time": 73.2,
          "velocity": 0.7559055118110236
        },
        {
          "duration": 0.19916666666665606,
          "durationTicks": 239,
          "midi": 41,
          "name": "F2",
          "ticks": 88320,
          "time": 73.60000000000001,
          "velocity": 0.7559055118110236
        },
        {
          "duration": 0.19916666666667027,
          "durationTicks": 239,
          "midi": 51,
          "name": "D#3",
          "ticks": 88560,
          "time": 73.8,
          "velocity": 0.7559055118110236
        },
        {
          "duration": 0.3991666666666731,
          "durationTicks": 479,
          "midi": 41,
          "name": "F2",
          "ticks": 88800,
          "time": 74,
          "velocity": 0.7559055118110236
        },
        {
          "duration": 0.3991666666666589,
          "durationTicks": 479,
          "midi": 41,
          "name": "F2",
          "ticks": 89280,
          "time": 74.4,
          "velocity": 0.7559055118110236
        },
        {
          "duration": 0.3991666666666731,
          "durationTicks": 479,
          "midi": 53,
          "name": "F3",
          "ticks": 89760,
          "time": 74.8,
          "velocity": 0.7559055118110236
        },
        {
          "duration": 0.3991666666666731,
          "durationTicks": 479,
          "midi": 43,
          "name": "G2",
          "ticks": 89760,
          "time": 74.8,
          "velocity": 0.7559055118110236
        },
        {
          "duration": 0.19916666666667027,
          "durationTicks": 239,
          "midi": 44,
          "name": "G#2",
          "ticks": 90240,
          "time": 75.2,
          "velocity": 0.7559055118110236
        },
        {
          "duration": 0.19916666666667027,
          "durationTicks": 239,
          "midi": 51,
          "name": "D#3",
          "ticks": 90480,
          "time": 75.4,
          "velocity": 0.7559055118110236
        },
        {
          "duration": 0.3991666666666589,
          "durationTicks": 479,
          "midi": 44,
          "name": "G#2",
          "ticks": 90720,
          "time": 75.60000000000001,
          "velocity": 0.7559055118110236
        },
        {
          "duration": 0.19916666666667027,
          "durationTicks": 239,
          "midi": 44,
          "name": "G#2",
          "ticks": 91200,
          "time": 76,
          "velocity": 0.7559055118110236
        },
        {
          "duration": 0.19916666666667027,
          "durationTicks": 239,
          "midi": 51,
          "name": "D#3",
          "ticks": 91440,
          "time": 76.2,
          "velocity": 0.7559055118110236
        },
        {
          "duration": 0.3991666666666589,
          "durationTicks": 479,
          "midi": 44,
          "name": "G#2",
          "ticks": 91680,
          "time": 76.4,
          "velocity": 0.7559055118110236
        },
        {
          "duration": 0.19916666666665606,
          "durationTicks": 239,
          "midi": 46,
          "name": "A#2",
          "ticks": 92160,
          "time": 76.80000000000001,
          "velocity": 0.7559055118110236
        },
        {
          "duration": 0.19916666666667027,
          "durationTicks": 239,
          "midi": 53,
          "name": "F3",
          "ticks": 92400,
          "time": 77,
          "velocity": 0.7559055118110236
        },
        {
          "duration": 0.19916666666667027,
          "durationTicks": 239,
          "midi": 46,
          "name": "A#2",
          "ticks": 92400,
          "time": 77,
          "velocity": 0.7559055118110236
        },
        {
          "duration": 0.19916666666667027,
          "durationTicks": 239,
          "midi": 53,
          "name": "F3",
          "ticks": 92640,
          "time": 77.2,
          "velocity": 0.7559055118110236
        },
        {
          "duration": 0.19916666666667027,
          "durationTicks": 239,
          "midi": 46,
          "name": "A#2",
          "ticks": 92640,
          "time": 77.2,
          "velocity": 0.7559055118110236
        },
        {
          "duration": 0.19916666666667027,
          "durationTicks": 239,
          "midi": 53,
          "name": "F3",
          "ticks": 92880,
          "time": 77.4,
          "velocity": 0.7559055118110236
        },
        {
          "duration": 0.19916666666667027,
          "durationTicks": 239,
          "midi": 46,
          "name": "A#2",
          "ticks": 92880,
          "time": 77.4,
          "velocity": 0.7559055118110236
        },
        {
          "duration": 0.19916666666667027,
          "durationTicks": 239,
          "midi": 53,
          "name": "F3",
          "ticks": 93120,
          "time": 77.60000000000001,
          "velocity": 0.7559055118110236
        },
        {
          "duration": 0.19916666666667027,
          "durationTicks": 239,
          "midi": 46,
          "name": "A#2",
          "ticks": 93120,
          "time": 77.60000000000001,
          "velocity": 0.7559055118110236
        },
        {
          "duration": 0.19916666666665606,
          "durationTicks": 239,
          "midi": 53,
          "name": "F3",
          "ticks": 93360,
          "time": 77.80000000000001,
          "velocity": 0.7559055118110236
        },
        {
          "duration": 0.19916666666665606,
          "durationTicks": 239,
          "midi": 46,
          "name": "A#2",
          "ticks": 93360,
          "time": 77.80000000000001,
          "velocity": 0.7559055118110236
        },
        {
          "duration": 0.19916666666667027,
          "durationTicks": 239,
          "midi": 46,
          "name": "A#2",
          "ticks": 93840,
          "time": 78.2,
          "velocity": 0.7559055118110236
        },
        {
          "duration": 0.19916666666667027,
          "durationTicks": 239,
          "midi": 44,
          "name": "G#2",
          "ticks": 94080,
          "time": 78.4,
          "velocity": 0.7559055118110236
        },
        {
          "duration": 0.19916666666667027,
          "durationTicks": 239,
          "midi": 51,
          "name": "D#3",
          "ticks": 94320,
          "time": 78.60000000000001,
          "velocity": 0.7559055118110236
        },
        {
          "duration": 0.3991666666666589,
          "durationTicks": 479,
          "midi": 44,
          "name": "G#2",
          "ticks": 94560,
          "time": 78.80000000000001,
          "velocity": 0.7559055118110236
        },
        {
          "duration": 0.19916666666667027,
          "durationTicks": 239,
          "midi": 44,
          "name": "G#2",
          "ticks": 95040,
          "time": 79.2,
          "velocity": 0.7559055118110236
        },
        {
          "duration": 0.19916666666667027,
          "durationTicks": 239,
          "midi": 51,
          "name": "D#3",
          "ticks": 95280,
          "time": 79.4,
          "velocity": 0.7559055118110236
        },
        {
          "duration": 0.3991666666666589,
          "durationTicks": 479,
          "midi": 44,
          "name": "G#2",
          "ticks": 95520,
          "time": 79.60000000000001,
          "velocity": 0.7559055118110236
        },
        {
          "duration": 0.19916666666667027,
          "durationTicks": 239,
          "midi": 44,
          "name": "G#2",
          "ticks": 96000,
          "time": 80,
          "velocity": 0.7559055118110236
        },
        {
          "duration": 0.19916666666667027,
          "durationTicks": 239,
          "midi": 51,
          "name": "D#3",
          "ticks": 96240,
          "time": 80.2,
          "velocity": 0.7559055118110236
        },
        {
          "duration": 0.3991666666666731,
          "durationTicks": 479,
          "midi": 44,
          "name": "G#2",
          "ticks": 96480,
          "time": 80.4,
          "velocity": 0.7559055118110236
        },
        {
          "duration": 0.3991666666666589,
          "durationTicks": 479,
          "midi": 44,
          "name": "G#2",
          "ticks": 96960,
          "time": 80.80000000000001,
          "velocity": 0.7559055118110236
        },
        {
          "duration": 0.3991666666666731,
          "durationTicks": 479,
          "midi": 53,
          "name": "F3",
          "ticks": 97440,
          "time": 81.2,
          "velocity": 0.7559055118110236
        },
        {
          "duration": 0.3991666666666731,
          "durationTicks": 479,
          "midi": 43,
          "name": "G2",
          "ticks": 97440,
          "time": 81.2,
          "velocity": 0.7559055118110236
        },
        {
          "duration": 0.19916666666667027,
          "durationTicks": 239,
          "midi": 48,
          "name": "C3",
          "ticks": 97920,
          "time": 81.60000000000001,
          "velocity": 0.7559055118110236
        },
        {
          "duration": 0.19916666666665606,
          "durationTicks": 239,
          "midi": 55,
          "name": "G3",
          "ticks": 98160,
          "time": 81.80000000000001,
          "velocity": 0.7559055118110236
        },
        {
          "duration": 0.3991666666666731,
          "durationTicks": 479,
          "midi": 48,
          "name": "C3",
          "ticks": 98400,
          "time": 82,
          "velocity": 0.7559055118110236
        },
        {
          "duration": 0.19916666666667027,
          "durationTicks": 239,
          "midi": 48,
          "name": "C3",
          "ticks": 98880,
          "time": 82.4,
          "velocity": 0.7559055118110236
        },
        {
          "duration": 0.19916666666667027,
          "durationTicks": 239,
          "midi": 55,
          "name": "G3",
          "ticks": 99120,
          "time": 82.60000000000001,
          "velocity": 0.7559055118110236
        },
        {
          "duration": 0.3991666666666589,
          "durationTicks": 479,
          "midi": 48,
          "name": "C3",
          "ticks": 99360,
          "time": 82.80000000000001,
          "velocity": 0.7559055118110236
        },
        {
          "duration": 0.19916666666667027,
          "durationTicks": 239,
          "midi": 48,
          "name": "C3",
          "ticks": 99840,
          "time": 83.2,
          "velocity": 0.7559055118110236
        },
        {
          "duration": 0.19916666666667027,
          "durationTicks": 239,
          "midi": 55,
          "name": "G3",
          "ticks": 100080,
          "time": 83.4,
          "velocity": 0.7559055118110236
        },
        {
          "duration": 0.3991666666666589,
          "durationTicks": 479,
          "midi": 48,
          "name": "C3",
          "ticks": 100320,
          "time": 83.60000000000001,
          "velocity": 0.7559055118110236
        },
        {
          "duration": 0.3991666666666731,
          "durationTicks": 479,
          "midi": 48,
          "name": "C3",
          "ticks": 100800,
          "time": 84,
          "velocity": 0.7559055118110236
        },
        {
          "duration": 0.3991666666666731,
          "durationTicks": 479,
          "midi": 53,
          "name": "F3",
          "ticks": 101280,
          "time": 84.4,
          "velocity": 0.7559055118110236
        },
        {
          "duration": 0.3991666666666731,
          "durationTicks": 479,
          "midi": 46,
          "name": "A#2",
          "ticks": 101280,
          "time": 84.4,
          "velocity": 0.7559055118110236
        },
        {
          "duration": 0.19916666666665606,
          "durationTicks": 239,
          "midi": 41,
          "name": "F2",
          "ticks": 101760,
          "time": 84.80000000000001,
          "velocity": 0.7559055118110236
        },
        {
          "duration": 0.19916666666667027,
          "durationTicks": 239,
          "midi": 51,
          "name": "D#3",
          "ticks": 102000,
          "time": 85,
          "velocity": 0.7559055118110236
        },
        {
          "duration": 0.3991666666666731,
          "durationTicks": 479,
          "midi": 41,
          "name": "F2",
          "ticks": 102240,
          "time": 85.2,
          "velocity": 0.7559055118110236
        },
        {
          "duration": 0.19916666666667027,
          "durationTicks": 239,
          "midi": 41,
          "name": "F2",
          "ticks": 102720,
          "time": 85.60000000000001,
          "velocity": 0.7559055118110236
        },
        {
          "duration": 0.19916666666665606,
          "durationTicks": 239,
          "midi": 51,
          "name": "D#3",
          "ticks": 102960,
          "time": 85.80000000000001,
          "velocity": 0.7559055118110236
        },
        {
          "duration": 0.3991666666666731,
          "durationTicks": 479,
          "midi": 41,
          "name": "F2",
          "ticks": 103200,
          "time": 86,
          "velocity": 0.7559055118110236
        },
        {
          "duration": 0.19916666666667027,
          "durationTicks": 239,
          "midi": 43,
          "name": "G2",
          "ticks": 103680,
          "time": 86.4,
          "velocity": 0.7559055118110236
        },
        {
          "duration": 0.19916666666667027,
          "durationTicks": 239,
          "midi": 53,
          "name": "F3",
          "ticks": 103920,
          "time": 86.60000000000001,
          "velocity": 0.7559055118110236
        },
        {
          "duration": 0.3991666666666589,
          "durationTicks": 479,
          "midi": 43,
          "name": "G2",
          "ticks": 104160,
          "time": 86.80000000000001,
          "velocity": 0.7559055118110236
        },
        {
          "duration": 0.19916666666667027,
          "durationTicks": 239,
          "midi": 43,
          "name": "G2",
          "ticks": 104640,
          "time": 87.2,
          "velocity": 0.7559055118110236
        },
        {
          "duration": 0.19916666666667027,
          "durationTicks": 239,
          "midi": 53,
          "name": "F3",
          "ticks": 104880,
          "time": 87.4,
          "velocity": 0.7559055118110236
        },
        {
          "duration": 0.3991666666666589,
          "durationTicks": 479,
          "midi": 43,
          "name": "G2",
          "ticks": 105120,
          "time": 87.60000000000001,
          "velocity": 0.7559055118110236
        },
        {
          "duration": 0.19916666666667027,
          "durationTicks": 239,
          "midi": 44,
          "name": "G#2",
          "ticks": 105600,
          "time": 88,
          "velocity": 0.7559055118110236
        },
        {
          "duration": 0.19916666666667027,
          "durationTicks": 239,
          "midi": 51,
          "name": "D#3",
          "ticks": 105840,
          "time": 88.2,
          "velocity": 0.7559055118110236
        },
        {
          "duration": 0.3991666666666731,
          "durationTicks": 479,
          "midi": 44,
          "name": "G#2",
          "ticks": 106080,
          "time": 88.4,
          "velocity": 0.7559055118110236
        },
        {
          "duration": 0.19916666666665606,
          "durationTicks": 239,
          "midi": 44,
          "name": "G#2",
          "ticks": 106560,
          "time": 88.80000000000001,
          "velocity": 0.7559055118110236
        },
        {
          "duration": 0.19916666666667027,
          "durationTicks": 239,
          "midi": 51,
          "name": "D#3",
          "ticks": 106800,
          "time": 89,
          "velocity": 0.7559055118110236
        },
        {
          "duration": 0.3991666666666731,
          "durationTicks": 479,
          "midi": 44,
          "name": "G#2",
          "ticks": 107040,
          "time": 89.2,
          "velocity": 0.7559055118110236
        },
        {
          "duration": 0.19916666666667027,
          "durationTicks": 239,
          "midi": 44,
          "name": "G#2",
          "ticks": 107520,
          "time": 89.60000000000001,
          "velocity": 0.7559055118110236
        },
        {
          "duration": 0.19916666666665606,
          "durationTicks": 239,
          "midi": 51,
          "name": "D#3",
          "ticks": 107760,
          "time": 89.80000000000001,
          "velocity": 0.7559055118110236
        },
        {
          "duration": 0.3991666666666731,
          "durationTicks": 479,
          "midi": 44,
          "name": "G#2",
          "ticks": 108000,
          "time": 90,
          "velocity": 0.7559055118110236
        },
        {
          "duration": 0.19916666666667027,
          "durationTicks": 239,
          "midi": 44,
          "name": "G#2",
          "ticks": 108480,
          "time": 90.4,
          "velocity": 0.7559055118110236
        },
        {
          "duration": 0.19916666666667027,
          "durationTicks": 239,
          "midi": 51,
          "name": "D#3",
          "ticks": 108720,
          "time": 90.60000000000001,
          "velocity": 0.7559055118110236
        },
        {
          "duration": 0.19916666666665606,
          "durationTicks": 239,
          "midi": 44,
          "name": "G#2",
          "ticks": 108960,
          "time": 90.80000000000001,
          "velocity": 0.7559055118110236
        },
        {
          "duration": 0.19916666666667027,
          "durationTicks": 239,
          "midi": 51,
          "name": "D#3",
          "ticks": 109200,
          "time": 91,
          "velocity": 0.7559055118110236
        },
        {
          "duration": 2.9991666666666674,
          "durationTicks": 3599,
          "midi": 39,
          "name": "D#2",
          "ticks": 109440,
          "time": 91.2,
          "velocity": 0.7559055118110236
        },
        {
          "duration": 0.19916666666667027,
          "durationTicks": 239,
          "midi": 39,
          "name": "D#2",
          "ticks": 113040,
          "time": 94.2,
          "velocity": 0.7559055118110236
        },
        {
          "duration": 2.1991666666666703,
          "durationTicks": 2639,
          "midi": 39,
          "name": "D#2",
          "ticks": 113280,
          "time": 94.4,
          "velocity": 0.7559055118110236
        },
        {
          "duration": 0.3991666666666589,
          "durationTicks": 479,
          "midi": 39,
          "name": "D#2",
          "ticks": 117120,
          "time": 97.60000000000001,
          "velocity": 0.6299212598425197
        },
        {
          "duration": 0.3991666666666731,
          "durationTicks": 479,
          "midi": 39,
          "name": "D#2",
          "ticks": 117600,
          "time": 98,
          "velocity": 0.6299212598425197
        },
        {
          "duration": 0.3991666666666731,
          "durationTicks": 479,
          "midi": 39,
          "name": "D#2",
          "ticks": 118080,
          "time": 98.4,
          "velocity": 0.6299212598425197
        },
        {
          "duration": 0.3991666666666589,
          "durationTicks": 479,
          "midi": 39,
          "name": "D#2",
          "ticks": 118560,
          "time": 98.80000000000001,
          "velocity": 0.6299212598425197
        },
        {
          "duration": 0.3991666666666731,
          "durationTicks": 479,
          "midi": 39,
          "name": "D#2",
          "ticks": 119040,
          "time": 99.2,
          "velocity": 0.6299212598425197
        },
        {
          "duration": 0.3991666666666589,
          "durationTicks": 479,
          "midi": 39,
          "name": "D#2",
          "ticks": 119520,
          "time": 99.60000000000001,
          "velocity": 0.6299212598425197
        },
        {
          "duration": 0.3991666666666731,
          "durationTicks": 479,
          "midi": 39,
          "name": "D#2",
          "ticks": 120000,
          "time": 100,
          "velocity": 0.6299212598425197
        },
        {
          "duration": 0.3991666666666731,
          "durationTicks": 479,
          "midi": 39,
          "name": "D#2",
          "ticks": 120480,
          "time": 100.4,
          "velocity": 0.6299212598425197
        },
        {
          "duration": 0.3991666666666589,
          "durationTicks": 479,
          "midi": 44,
          "name": "G#2",
          "ticks": 120960,
          "time": 100.80000000000001,
          "velocity": 0.6299212598425197
        },
        {
          "duration": 0.3991666666666731,
          "durationTicks": 479,
          "midi": 44,
          "name": "G#2",
          "ticks": 121440,
          "time": 101.2,
          "velocity": 0.6299212598425197
        },
        {
          "duration": 0.3991666666666589,
          "durationTicks": 479,
          "midi": 44,
          "name": "G#2",
          "ticks": 121920,
          "time": 101.60000000000001,
          "velocity": 0.6299212598425197
        },
        {
          "duration": 0.3991666666666731,
          "durationTicks": 479,
          "midi": 44,
          "name": "G#2",
          "ticks": 122400,
          "time": 102,
          "velocity": 0.6299212598425197
        },
        {
          "duration": 0.3991666666666589,
          "durationTicks": 479,
          "midi": 44,
          "name": "G#2",
          "ticks": 122880,
          "time": 102.4,
          "velocity": 0.6299212598425197
        },
        {
          "duration": 0.3991666666666447,
          "durationTicks": 479,
          "midi": 44,
          "name": "G#2",
          "ticks": 123360,
          "time": 102.80000000000001,
          "velocity": 0.6299212598425197
        },
        {
          "duration": 0.3991666666666589,
          "durationTicks": 479,
          "midi": 44,
          "name": "G#2",
          "ticks": 123840,
          "time": 103.2,
          "velocity": 0.6299212598425197
        },
        {
          "duration": 0.3991666666666589,
          "durationTicks": 479,
          "midi": 44,
          "name": "G#2",
          "ticks": 124320,
          "time": 103.60000000000001,
          "velocity": 0.6299212598425197
        },
        {
          "duration": 0.3991666666666589,
          "durationTicks": 479,
          "midi": 41,
          "name": "F2",
          "ticks": 124800,
          "time": 104,
          "velocity": 0.6299212598425197
        },
        {
          "duration": 0.3991666666666589,
          "durationTicks": 479,
          "midi": 41,
          "name": "F2",
          "ticks": 125280,
          "time": 104.4,
          "velocity": 0.6299212598425197
        },
        {
          "duration": 0.3991666666666447,
          "durationTicks": 479,
          "midi": 41,
          "name": "F2",
          "ticks": 125760,
          "time": 104.80000000000001,
          "velocity": 0.6299212598425197
        },
        {
          "duration": 0.3991666666666589,
          "durationTicks": 479,
          "midi": 41,
          "name": "F2",
          "ticks": 126240,
          "time": 105.2,
          "velocity": 0.6299212598425197
        },
        {
          "duration": 0.3991666666666589,
          "durationTicks": 479,
          "midi": 43,
          "name": "G2",
          "ticks": 126720,
          "time": 105.60000000000001,
          "velocity": 0.6299212598425197
        },
        {
          "duration": 0.3991666666666589,
          "durationTicks": 479,
          "midi": 43,
          "name": "G2",
          "ticks": 127200,
          "time": 106,
          "velocity": 0.6299212598425197
        },
        {
          "duration": 0.3991666666666589,
          "durationTicks": 479,
          "midi": 43,
          "name": "G2",
          "ticks": 127680,
          "time": 106.4,
          "velocity": 0.6299212598425197
        },
        {
          "duration": 0.3991666666666447,
          "durationTicks": 479,
          "midi": 43,
          "name": "G2",
          "ticks": 128160,
          "time": 106.80000000000001,
          "velocity": 0.6299212598425197
        },
        {
          "duration": 0.3991666666666589,
          "durationTicks": 479,
          "midi": 44,
          "name": "G#2",
          "ticks": 128640,
          "time": 107.2,
          "velocity": 0.6299212598425197
        },
        {
          "duration": 0.3991666666666589,
          "durationTicks": 479,
          "midi": 44,
          "name": "G#2",
          "ticks": 129120,
          "time": 107.60000000000001,
          "velocity": 0.6299212598425197
        },
        {
          "duration": 0.3991666666666589,
          "durationTicks": 479,
          "midi": 44,
          "name": "G#2",
          "ticks": 129600,
          "time": 108,
          "velocity": 0.6299212598425197
        },
        {
          "duration": 0.3991666666666589,
          "durationTicks": 479,
          "midi": 44,
          "name": "G#2",
          "ticks": 130080,
          "time": 108.4,
          "velocity": 0.6299212598425197
        },
        {
          "duration": 0.3991666666666447,
          "durationTicks": 479,
          "midi": 46,
          "name": "A#2",
          "ticks": 130560,
          "time": 108.80000000000001,
          "velocity": 0.6299212598425197
        },
        {
          "duration": 0.3991666666666589,
          "durationTicks": 479,
          "midi": 46,
          "name": "A#2",
          "ticks": 131040,
          "time": 109.2,
          "velocity": 0.6299212598425197
        },
        {
          "duration": 0.19916666666665606,
          "durationTicks": 239,
          "midi": 46,
          "name": "A#2",
          "ticks": 131520,
          "time": 109.60000000000001,
          "velocity": 0.6299212598425197
        },
        {
          "duration": 0.19916666666665606,
          "durationTicks": 239,
          "midi": 53,
          "name": "F3",
          "ticks": 131760,
          "time": 109.80000000000001,
          "velocity": 0.6299212598425197
        },
        {
          "duration": 0.3991666666666589,
          "durationTicks": 479,
          "midi": 46,
          "name": "A#2",
          "ticks": 132000,
          "time": 110,
          "velocity": 0.6299212598425197
        },
        {
          "duration": 3.199166666666656,
          "durationTicks": 3839,
          "midi": 39,
          "name": "D#2",
          "ticks": 132480,
          "time": 110.4,
          "velocity": 0.6299212598425197
        },
        {
          "duration": 3.199166666666656,
          "durationTicks": 3839,
          "midi": 51,
          "name": "D#3",
          "ticks": 136320,
          "time": 113.60000000000001,
          "velocity": 0.6299212598425197
        },
        {
          "duration": 3.199166666666656,
          "durationTicks": 3839,
          "midi": 44,
          "name": "G#2",
          "ticks": 136320,
          "time": 113.60000000000001,
          "velocity": 0.6299212598425197
        },
        {
          "duration": 0.5991666666666475,
          "durationTicks": 719,
          "midi": 41,
          "name": "F2",
          "ticks": 140160,
          "time": 116.80000000000001,
          "velocity": 0.6299212598425197
        },
        {
          "duration": 1.5991666666666475,
          "durationTicks": 1919,
          "midi": 48,
          "name": "C3",
          "ticks": 140160,
          "time": 116.80000000000001,
          "velocity": 0.6299212598425197
        },
        {
          "duration": 0.19916666666665606,
          "durationTicks": 239,
          "midi": 41,
          "name": "F2",
          "ticks": 140880,
          "time": 117.4,
          "velocity": 0.6299212598425197
        },
        {
          "duration": 0.7991666666666504,
          "durationTicks": 959,
          "midi": 41,
          "name": "F2",
          "ticks": 141120,
          "time": 117.60000000000001,
          "velocity": 0.6299212598425197
        },
        {
          "duration": 0.5991666666666617,
          "durationTicks": 719,
          "midi": 43,
          "name": "G2",
          "ticks": 142080,
          "time": 118.4,
          "velocity": 0.6299212598425197
        },
        {
          "duration": 1.5991666666666617,
          "durationTicks": 1919,
          "midi": 51,
          "name": "D#3",
          "ticks": 142080,
          "time": 118.4,
          "velocity": 0.6299212598425197
        },
        {
          "duration": 0.19916666666665606,
          "durationTicks": 239,
          "midi": 43,
          "name": "G2",
          "ticks": 142800,
          "time": 119,
          "velocity": 0.6299212598425197
        },
        {
          "duration": 0.7991666666666646,
          "durationTicks": 959,
          "midi": 43,
          "name": "G2",
          "ticks": 143040,
          "time": 119.2,
          "velocity": 0.6299212598425197
        },
        {
          "duration": 0.5991666666666617,
          "durationTicks": 719,
          "midi": 44,
          "name": "G#2",
          "ticks": 144000,
          "time": 120,
          "velocity": 0.6299212598425197
        },
        {
          "duration": 1.5991666666666617,
          "durationTicks": 1919,
          "midi": 51,
          "name": "D#3",
          "ticks": 144000,
          "time": 120,
          "velocity": 0.6299212598425197
        },
        {
          "duration": 0.5991666666666475,
          "durationTicks": 719,
          "midi": 44,
          "name": "G#2",
          "ticks": 144720,
          "time": 120.60000000000001,
          "velocity": 0.6299212598425197
        },
        {
          "duration": 0.3991666666666589,
          "durationTicks": 479,
          "midi": 44,
          "name": "G#2",
          "ticks": 145440,
          "time": 121.2,
          "velocity": 0.6299212598425197
        },
        {
          "duration": 1.5991666666666475,
          "durationTicks": 1919,
          "midi": 53,
          "name": "F3",
          "ticks": 145920,
          "time": 121.60000000000001,
          "velocity": 0.6299212598425197
        },
        {
          "duration": 1.5991666666666475,
          "durationTicks": 1919,
          "midi": 46,
          "name": "A#2",
          "ticks": 145920,
          "time": 121.60000000000001,
          "velocity": 0.6299212598425197
        },
        {
          "duration": 0.3991666666666589,
          "durationTicks": 479,
          "midi": 55,
          "name": "G3",
          "ticks": 147840,
          "time": 123.2,
          "velocity": 0.6299212598425197
        },
        {
          "duration": 0.3991666666666589,
          "durationTicks": 479,
          "midi": 60,
          "name": "C4",
          "ticks": 147900,
          "time": 123.25,
          "velocity": 0.6299212598425197
        },
        {
          "duration": 0.3991666666666447,
          "durationTicks": 479,
          "midi": 62,
          "name": "D4",
          "ticks": 147960,
          "time": 123.30000000000001,
          "velocity": 0.6299212598425197
        },
        {
          "duration": 0.19916666666665606,
          "durationTicks": 239,
          "midi": 34,
          "name": "A#1",
          "ticks": 149040,
          "time": 124.2,
          "velocity": 0.6299212598425197
        },
        {
          "duration": 0.3991666666666589,
          "durationTicks": 479,
          "midi": 46,
          "name": "A#2",
          "ticks": 149280,
          "time": 124.4,
          "velocity": 0.6299212598425197
        },
        {
          "duration": 0.19916666666665606,
          "durationTicks": 239,
          "midi": 44,
          "name": "G#2",
          "ticks": 149760,
          "time": 124.80000000000001,
          "velocity": 0.6299212598425197
        },
        {
          "duration": 0.19916666666665606,
          "durationTicks": 239,
          "midi": 51,
          "name": "D#3",
          "ticks": 150000,
          "time": 125,
          "velocity": 0.6299212598425197
        },
        {
          "duration": 0.3991666666666589,
          "durationTicks": 479,
          "midi": 44,
          "name": "G#2",
          "ticks": 150240,
          "time": 125.2,
          "velocity": 0.6299212598425197
        },
        {
          "duration": 0.19916666666665606,
          "durationTicks": 239,
          "midi": 44,
          "name": "G#2",
          "ticks": 150720,
          "time": 125.60000000000001,
          "velocity": 0.6299212598425197
        },
        {
          "duration": 0.19916666666665606,
          "durationTicks": 239,
          "midi": 51,
          "name": "D#3",
          "ticks": 150960,
          "time": 125.80000000000001,
          "velocity": 0.6299212598425197
        },
        {
          "duration": 0.3991666666666589,
          "durationTicks": 479,
          "midi": 44,
          "name": "G#2",
          "ticks": 151200,
          "time": 126,
          "velocity": 0.6299212598425197
        },
        {
          "duration": 0.19916666666665606,
          "durationTicks": 239,
          "midi": 44,
          "name": "G#2",
          "ticks": 151680,
          "time": 126.4,
          "velocity": 0.6299212598425197
        },
        {
          "duration": 0.19916666666665606,
          "durationTicks": 239,
          "midi": 51,
          "name": "D#3",
          "ticks": 151920,
          "time": 126.60000000000001,
          "velocity": 0.6299212598425197
        },
        {
          "duration": 0.3991666666666447,
          "durationTicks": 479,
          "midi": 44,
          "name": "G#2",
          "ticks": 152160,
          "time": 126.80000000000001,
          "velocity": 0.6299212598425197
        },
        {
          "duration": 0.3991666666666589,
          "durationTicks": 479,
          "midi": 44,
          "name": "G#2",
          "ticks": 152640,
          "time": 127.2,
          "velocity": 0.6299212598425197
        },
        {
          "duration": 0.3991666666666589,
          "durationTicks": 479,
          "midi": 53,
          "name": "F3",
          "ticks": 153120,
          "time": 127.60000000000001,
          "velocity": 0.6299212598425197
        },
        {
          "duration": 0.3991666666666589,
          "durationTicks": 479,
          "midi": 43,
          "name": "G2",
          "ticks": 153120,
          "time": 127.60000000000001,
          "velocity": 0.6299212598425197
        },
        {
          "duration": 0.19916666666665606,
          "durationTicks": 239,
          "midi": 48,
          "name": "C3",
          "ticks": 153600,
          "time": 128,
          "velocity": 0.6299212598425197
        },
        {
          "duration": 0.19916666666665606,
          "durationTicks": 239,
          "midi": 55,
          "name": "G3",
          "ticks": 153840,
          "time": 128.20000000000002,
          "velocity": 0.6299212598425197
        },
        {
          "duration": 0.3991666666666447,
          "durationTicks": 479,
          "midi": 48,
          "name": "C3",
          "ticks": 154080,
          "time": 128.4,
          "velocity": 0.6299212598425197
        },
        {
          "duration": 0.19916666666665606,
          "durationTicks": 239,
          "midi": 48,
          "name": "C3",
          "ticks": 154560,
          "time": 128.8,
          "velocity": 0.6299212598425197
        },
        {
          "duration": 0.19916666666665606,
          "durationTicks": 239,
          "midi": 55,
          "name": "G3",
          "ticks": 154800,
          "time": 129,
          "velocity": 0.6299212598425197
        },
        {
          "duration": 0.3991666666666447,
          "durationTicks": 479,
          "midi": 48,
          "name": "C3",
          "ticks": 155040,
          "time": 129.20000000000002,
          "velocity": 0.6299212598425197
        },
        {
          "duration": 0.19916666666665606,
          "durationTicks": 239,
          "midi": 48,
          "name": "C3",
          "ticks": 155520,
          "time": 129.6,
          "velocity": 0.6299212598425197
        },
        {
          "duration": 0.19916666666665606,
          "durationTicks": 239,
          "midi": 55,
          "name": "G3",
          "ticks": 155760,
          "time": 129.8,
          "velocity": 0.6299212598425197
        },
        {
          "duration": 0.3991666666666731,
          "durationTicks": 479,
          "midi": 48,
          "name": "C3",
          "ticks": 156000,
          "time": 130,
          "velocity": 0.6299212598425197
        },
        {
          "duration": 0.3991666666666447,
          "durationTicks": 479,
          "midi": 48,
          "name": "C3",
          "ticks": 156480,
          "time": 130.4,
          "velocity": 0.6299212598425197
        },
        {
          "duration": 0.3991666666666447,
          "durationTicks": 479,
          "midi": 53,
          "name": "F3",
          "ticks": 156960,
          "time": 130.8,
          "velocity": 0.6299212598425197
        },
        {
          "duration": 0.3991666666666447,
          "durationTicks": 479,
          "midi": 46,
          "name": "A#2",
          "ticks": 156960,
          "time": 130.8,
          "velocity": 0.6299212598425197
        },
        {
          "duration": 0.19916666666665606,
          "durationTicks": 239,
          "midi": 41,
          "name": "F2",
          "ticks": 157440,
          "time": 131.20000000000002,
          "velocity": 0.6299212598425197
        },
        {
          "duration": 0.19916666666665606,
          "durationTicks": 239,
          "midi": 51,
          "name": "D#3",
          "ticks": 157680,
          "time": 131.4,
          "velocity": 0.6299212598425197
        },
        {
          "duration": 0.3991666666666731,
          "durationTicks": 479,
          "midi": 41,
          "name": "F2",
          "ticks": 157920,
          "time": 131.6,
          "velocity": 0.6299212598425197
        },
        {
          "duration": 0.19916666666665606,
          "durationTicks": 239,
          "midi": 41,
          "name": "F2",
          "ticks": 158400,
          "time": 132,
          "velocity": 0.6299212598425197
        },
        {
          "duration": 0.19916666666665606,
          "durationTicks": 239,
          "midi": 51,
          "name": "D#3",
          "ticks": 158640,
          "time": 132.20000000000002,
          "velocity": 0.6299212598425197
        },
        {
          "duration": 0.3991666666666447,
          "durationTicks": 479,
          "midi": 41,
          "name": "F2",
          "ticks": 158880,
          "time": 132.4,
          "velocity": 0.6299212598425197
        },
        {
          "duration": 0.19916666666665606,
          "durationTicks": 239,
          "midi": 41,
          "name": "F2",
          "ticks": 159360,
          "time": 132.8,
          "velocity": 0.6299212598425197
        },
        {
          "duration": 0.19916666666665606,
          "durationTicks": 239,
          "midi": 51,
          "name": "D#3",
          "ticks": 159600,
          "time": 133,
          "velocity": 0.6299212598425197
        },
        {
          "duration": 0.3991666666666447,
          "durationTicks": 479,
          "midi": 41,
          "name": "F2",
          "ticks": 159840,
          "time": 133.20000000000002,
          "velocity": 0.6299212598425197
        },
        {
          "duration": 0.3991666666666731,
          "durationTicks": 479,
          "midi": 41,
          "name": "F2",
          "ticks": 160320,
          "time": 133.6,
          "velocity": 0.6299212598425197
        },
        {
          "duration": 0.3991666666666731,
          "durationTicks": 479,
          "midi": 53,
          "name": "F3",
          "ticks": 160800,
          "time": 134,
          "velocity": 0.6299212598425197
        },
        {
          "duration": 0.3991666666666731,
          "durationTicks": 479,
          "midi": 43,
          "name": "G2",
          "ticks": 160800,
          "time": 134,
          "velocity": 0.6299212598425197
        },
        {
          "duration": 0.19916666666665606,
          "durationTicks": 239,
          "midi": 44,
          "name": "G#2",
          "ticks": 161280,
          "time": 134.4,
          "velocity": 0.6299212598425197
        },
        {
          "duration": 0.19916666666665606,
          "durationTicks": 239,
          "midi": 51,
          "name": "D#3",
          "ticks": 161520,
          "time": 134.6,
          "velocity": 0.6299212598425197
        },
        {
          "duration": 0.3991666666666447,
          "durationTicks": 479,
          "midi": 44,
          "name": "G#2",
          "ticks": 161760,
          "time": 134.8,
          "velocity": 0.6299212598425197
        },
        {
          "duration": 0.19916666666665606,
          "durationTicks": 239,
          "midi": 44,
          "name": "G#2",
          "ticks": 162240,
          "time": 135.20000000000002,
          "velocity": 0.6299212598425197
        },
        {
          "duration": 0.19916666666665606,
          "durationTicks": 239,
          "midi": 51,
          "name": "D#3",
          "ticks": 162480,
          "time": 135.4,
          "velocity": 0.6299212598425197
        },
        {
          "duration": 0.3991666666666731,
          "durationTicks": 479,
          "midi": 44,
          "name": "G#2",
          "ticks": 162720,
          "time": 135.6,
          "velocity": 0.6299212598425197
        },
        {
          "duration": 0.19916666666665606,
          "durationTicks": 239,
          "midi": 46,
          "name": "A#2",
          "ticks": 163200,
          "time": 136,
          "velocity": 0.6299212598425197
        },
        {
          "duration": 0.19916666666665606,
          "durationTicks": 239,
          "midi": 53,
          "name": "F3",
          "ticks": 163440,
          "time": 136.20000000000002,
          "velocity": 0.6299212598425197
        },
        {
          "duration": 0.19916666666665606,
          "durationTicks": 239,
          "midi": 46,
          "name": "A#2",
          "ticks": 163440,
          "time": 136.20000000000002,
          "velocity": 0.6299212598425197
        },
        {
          "duration": 0.19916666666665606,
          "durationTicks": 239,
          "midi": 53,
          "name": "F3",
          "ticks": 163680,
          "time": 136.4,
          "velocity": 0.6299212598425197
        },
        {
          "duration": 0.19916666666665606,
          "durationTicks": 239,
          "midi": 46,
          "name": "A#2",
          "ticks": 163680,
          "time": 136.4,
          "velocity": 0.6299212598425197
        },
        {
          "duration": 0.19916666666665606,
          "durationTicks": 239,
          "midi": 53,
          "name": "F3",
          "ticks": 163920,
          "time": 136.6,
          "velocity": 0.6299212598425197
        },
        {
          "duration": 0.19916666666665606,
          "durationTicks": 239,
          "midi": 46,
          "name": "A#2",
          "ticks": 163920,
          "time": 136.6,
          "velocity": 0.6299212598425197
        },
        {
          "duration": 0.19916666666665606,
          "durationTicks": 239,
          "midi": 53,
          "name": "F3",
          "ticks": 164160,
          "time": 136.8,
          "velocity": 0.6299212598425197
        },
        {
          "duration": 0.19916666666665606,
          "durationTicks": 239,
          "midi": 46,
          "name": "A#2",
          "ticks": 164160,
          "time": 136.8,
          "velocity": 0.6299212598425197
        },
        {
          "duration": 0.19916666666665606,
          "durationTicks": 239,
          "midi": 53,
          "name": "F3",
          "ticks": 164400,
          "time": 137,
          "velocity": 0.6299212598425197
        },
        {
          "duration": 0.19916666666665606,
          "durationTicks": 239,
          "midi": 46,
          "name": "A#2",
          "ticks": 164400,
          "time": 137,
          "velocity": 0.6299212598425197
        },
        {
          "duration": 0.19916666666665606,
          "durationTicks": 239,
          "midi": 46,
          "name": "A#2",
          "ticks": 164880,
          "time": 137.4,
          "velocity": 0.6299212598425197
        },
        {
          "duration": 0.19916666666665606,
          "durationTicks": 239,
          "midi": 44,
          "name": "G#2",
          "ticks": 165120,
          "time": 137.6,
          "velocity": 0.6299212598425197
        },
        {
          "duration": 0.19916666666665606,
          "durationTicks": 239,
          "midi": 51,
          "name": "D#3",
          "ticks": 165360,
          "time": 137.8,
          "velocity": 0.6299212598425197
        },
        {
          "duration": 0.3991666666666731,
          "durationTicks": 479,
          "midi": 44,
          "name": "G#2",
          "ticks": 165600,
          "time": 138,
          "velocity": 0.6299212598425197
        },
        {
          "duration": 0.19916666666665606,
          "durationTicks": 239,
          "midi": 44,
          "name": "G#2",
          "ticks": 166080,
          "time": 138.4,
          "velocity": 0.6299212598425197
        },
        {
          "duration": 0.19916666666665606,
          "durationTicks": 239,
          "midi": 51,
          "name": "D#3",
          "ticks": 166320,
          "time": 138.6,
          "velocity": 0.6299212598425197
        },
        {
          "duration": 0.3991666666666447,
          "durationTicks": 479,
          "midi": 44,
          "name": "G#2",
          "ticks": 166560,
          "time": 138.8,
          "velocity": 0.6299212598425197
        },
        {
          "duration": 0.19916666666665606,
          "durationTicks": 239,
          "midi": 44,
          "name": "G#2",
          "ticks": 167040,
          "time": 139.20000000000002,
          "velocity": 0.6299212598425197
        },
        {
          "duration": 0.19916666666665606,
          "durationTicks": 239,
          "midi": 51,
          "name": "D#3",
          "ticks": 167280,
          "time": 139.4,
          "velocity": 0.6299212598425197
        },
        {
          "duration": 0.3991666666666731,
          "durationTicks": 479,
          "midi": 44,
          "name": "G#2",
          "ticks": 167520,
          "time": 139.6,
          "velocity": 0.6299212598425197
        },
        {
          "duration": 0.3991666666666731,
          "durationTicks": 479,
          "midi": 44,
          "name": "G#2",
          "ticks": 168000,
          "time": 140,
          "velocity": 0.6299212598425197
        },
        {
          "duration": 0.3991666666666447,
          "durationTicks": 479,
          "midi": 53,
          "name": "F3",
          "ticks": 168480,
          "time": 140.4,
          "velocity": 0.6299212598425197
        },
        {
          "duration": 0.3991666666666447,
          "durationTicks": 479,
          "midi": 43,
          "name": "G2",
          "ticks": 168480,
          "time": 140.4,
          "velocity": 0.6299212598425197
        },
        {
          "duration": 0.19916666666665606,
          "durationTicks": 239,
          "midi": 48,
          "name": "C3",
          "ticks": 168960,
          "time": 140.8,
          "velocity": 0.6299212598425197
        },
        {
          "duration": 0.19916666666665606,
          "durationTicks": 239,
          "midi": 55,
          "name": "G3",
          "ticks": 169200,
          "time": 141,
          "velocity": 0.6299212598425197
        },
        {
          "duration": 0.3991666666666447,
          "durationTicks": 479,
          "midi": 48,
          "name": "C3",
          "ticks": 169440,
          "time": 141.20000000000002,
          "velocity": 0.6299212598425197
        },
        {
          "duration": 0.19916666666665606,
          "durationTicks": 239,
          "midi": 48,
          "name": "C3",
          "ticks": 169920,
          "time": 141.6,
          "velocity": 0.6299212598425197
        },
        {
          "duration": 0.19916666666665606,
          "durationTicks": 239,
          "midi": 55,
          "name": "G3",
          "ticks": 170160,
          "time": 141.8,
          "velocity": 0.6299212598425197
        },
        {
          "duration": 0.3991666666666731,
          "durationTicks": 479,
          "midi": 48,
          "name": "C3",
          "ticks": 170400,
          "time": 142,
          "velocity": 0.6299212598425197
        },
        {
          "duration": 0.19916666666665606,
          "durationTicks": 239,
          "midi": 48,
          "name": "C3",
          "ticks": 170880,
          "time": 142.4,
          "velocity": 0.6299212598425197
        },
        {
          "duration": 0.19916666666665606,
          "durationTicks": 239,
          "midi": 55,
          "name": "G3",
          "ticks": 171120,
          "time": 142.6,
          "velocity": 0.6299212598425197
        },
        {
          "duration": 0.3991666666666447,
          "durationTicks": 479,
          "midi": 48,
          "name": "C3",
          "ticks": 171360,
          "time": 142.8,
          "velocity": 0.6299212598425197
        },
        {
          "duration": 0.3991666666666447,
          "durationTicks": 479,
          "midi": 48,
          "name": "C3",
          "ticks": 171840,
          "time": 143.20000000000002,
          "velocity": 0.6299212598425197
        },
        {
          "duration": 0.3991666666666731,
          "durationTicks": 479,
          "midi": 53,
          "name": "F3",
          "ticks": 172320,
          "time": 143.6,
          "velocity": 0.6299212598425197
        },
        {
          "duration": 0.3991666666666731,
          "durationTicks": 479,
          "midi": 46,
          "name": "A#2",
          "ticks": 172320,
          "time": 143.6,
          "velocity": 0.6299212598425197
        },
        {
          "duration": 0.19916666666665606,
          "durationTicks": 239,
          "midi": 41,
          "name": "F2",
          "ticks": 172800,
          "time": 144,
          "velocity": 0.6299212598425197
        },
        {
          "duration": 0.19916666666665606,
          "durationTicks": 239,
          "midi": 51,
          "name": "D#3",
          "ticks": 173040,
          "time": 144.20000000000002,
          "velocity": 0.6299212598425197
        },
        {
          "duration": 0.3991666666666447,
          "durationTicks": 479,
          "midi": 41,
          "name": "F2",
          "ticks": 173280,
          "time": 144.4,
          "velocity": 0.6299212598425197
        },
        {
          "duration": 0.19916666666665606,
          "durationTicks": 239,
          "midi": 41,
          "name": "F2",
          "ticks": 173760,
          "time": 144.8,
          "velocity": 0.6299212598425197
        },
        {
          "duration": 0.19916666666665606,
          "durationTicks": 239,
          "midi": 51,
          "name": "D#3",
          "ticks": 174000,
          "time": 145,
          "velocity": 0.6299212598425197
        },
        {
          "duration": 0.3991666666666447,
          "durationTicks": 479,
          "midi": 41,
          "name": "F2",
          "ticks": 174240,
          "time": 145.20000000000002,
          "velocity": 0.6299212598425197
        },
        {
          "duration": 0.19916666666665606,
          "durationTicks": 239,
          "midi": 41,
          "name": "F2",
          "ticks": 174720,
          "time": 145.6,
          "velocity": 0.6299212598425197
        },
        {
          "duration": 0.19916666666665606,
          "durationTicks": 239,
          "midi": 51,
          "name": "D#3",
          "ticks": 174960,
          "time": 145.8,
          "velocity": 0.6299212598425197
        },
        {
          "duration": 0.3991666666666731,
          "durationTicks": 479,
          "midi": 41,
          "name": "F2",
          "ticks": 175200,
          "time": 146,
          "velocity": 0.6299212598425197
        },
        {
          "duration": 0.3991666666666447,
          "durationTicks": 479,
          "midi": 41,
          "name": "F2",
          "ticks": 175680,
          "time": 146.4,
          "velocity": 0.6299212598425197
        },
        {
          "duration": 0.3991666666666447,
          "durationTicks": 479,
          "midi": 53,
          "name": "F3",
          "ticks": 176160,
          "time": 146.8,
          "velocity": 0.6299212598425197
        },
        {
          "duration": 0.3991666666666447,
          "durationTicks": 479,
          "midi": 43,
          "name": "G2",
          "ticks": 176160,
          "time": 146.8,
          "velocity": 0.6299212598425197
        },
        {
          "duration": 0.19916666666665606,
          "durationTicks": 239,
          "midi": 44,
          "name": "G#2",
          "ticks": 176640,
          "time": 147.20000000000002,
          "velocity": 0.6299212598425197
        },
        {
          "duration": 0.19916666666665606,
          "durationTicks": 239,
          "midi": 51,
          "name": "D#3",
          "ticks": 176880,
          "time": 147.4,
          "velocity": 0.6299212598425197
        },
        {
          "duration": 0.3991666666666731,
          "durationTicks": 479,
          "midi": 44,
          "name": "G#2",
          "ticks": 177120,
          "time": 147.6,
          "velocity": 0.6299212598425197
        },
        {
          "duration": 0.19916666666665606,
          "durationTicks": 239,
          "midi": 44,
          "name": "G#2",
          "ticks": 177600,
          "time": 148,
          "velocity": 0.6299212598425197
        },
        {
          "duration": 0.19916666666665606,
          "durationTicks": 239,
          "midi": 51,
          "name": "D#3",
          "ticks": 177840,
          "time": 148.20000000000002,
          "velocity": 0.6299212598425197
        },
        {
          "duration": 0.3991666666666447,
          "durationTicks": 479,
          "midi": 44,
          "name": "G#2",
          "ticks": 178080,
          "time": 148.4,
          "velocity": 0.6299212598425197
        },
        {
          "duration": 0.19916666666665606,
          "durationTicks": 239,
          "midi": 46,
          "name": "A#2",
          "ticks": 178560,
          "time": 148.8,
          "velocity": 0.6299212598425197
        },
        {
          "duration": 0.19916666666665606,
          "durationTicks": 239,
          "midi": 53,
          "name": "F3",
          "ticks": 178800,
          "time": 149,
          "velocity": 0.6299212598425197
        },
        {
          "duration": 0.19916666666665606,
          "durationTicks": 239,
          "midi": 46,
          "name": "A#2",
          "ticks": 178800,
          "time": 149,
          "velocity": 0.6299212598425197
        },
        {
          "duration": 0.19916666666665606,
          "durationTicks": 239,
          "midi": 53,
          "name": "F3",
          "ticks": 179040,
          "time": 149.20000000000002,
          "velocity": 0.6299212598425197
        },
        {
          "duration": 0.19916666666665606,
          "durationTicks": 239,
          "midi": 46,
          "name": "A#2",
          "ticks": 179040,
          "time": 149.20000000000002,
          "velocity": 0.6299212598425197
        },
        {
          "duration": 0.19916666666665606,
          "durationTicks": 239,
          "midi": 53,
          "name": "F3",
          "ticks": 179280,
          "time": 149.4,
          "velocity": 0.6299212598425197
        },
        {
          "duration": 0.19916666666665606,
          "durationTicks": 239,
          "midi": 46,
          "name": "A#2",
          "ticks": 179280,
          "time": 149.4,
          "velocity": 0.6299212598425197
        },
        {
          "duration": 0.19916666666665606,
          "durationTicks": 239,
          "midi": 53,
          "name": "F3",
          "ticks": 179520,
          "time": 149.6,
          "velocity": 0.6299212598425197
        },
        {
          "duration": 0.19916666666665606,
          "durationTicks": 239,
          "midi": 46,
          "name": "A#2",
          "ticks": 179520,
          "time": 149.6,
          "velocity": 0.6299212598425197
        },
        {
          "duration": 0.19916666666665606,
          "durationTicks": 239,
          "midi": 53,
          "name": "F3",
          "ticks": 179760,
          "time": 149.8,
          "velocity": 0.6299212598425197
        },
        {
          "duration": 0.19916666666665606,
          "durationTicks": 239,
          "midi": 46,
          "name": "A#2",
          "ticks": 179760,
          "time": 149.8,
          "velocity": 0.6299212598425197
        },
        {
          "duration": 2.3991666666666447,
          "durationTicks": 2879,
          "midi": 63,
          "name": "D#4",
          "ticks": 180480,
          "time": 150.4,
          "velocity": 0.6299212598425197
        },
        {
          "duration": 2.3991666666666447,
          "durationTicks": 2879,
          "midi": 56,
          "name": "G#3",
          "ticks": 180480,
          "time": 150.4,
          "velocity": 0.6299212598425197
        },
        {
          "duration": 0.3991666666666447,
          "durationTicks": 479,
          "midi": 56,
          "name": "G#3",
          "ticks": 183360,
          "time": 152.8,
          "velocity": 0.6299212598425197
        },
        {
          "duration": 0.3991666666666447,
          "durationTicks": 479,
          "midi": 55,
          "name": "G3",
          "ticks": 183840,
          "time": 153.20000000000002,
          "velocity": 0.6299212598425197
        },
        {
          "duration": 2.3991666666666447,
          "durationTicks": 2879,
          "midi": 60,
          "name": "C4",
          "ticks": 184320,
          "time": 153.60000000000002,
          "velocity": 0.6299212598425197
        },
        {
          "duration": 0.3991666666666731,
          "durationTicks": 479,
          "midi": 60,
          "name": "C4",
          "ticks": 187200,
          "time": 156,
          "velocity": 0.6299212598425197
        },
        {
          "duration": 0.3991666666666731,
          "durationTicks": 479,
          "midi": 58,
          "name": "A#3",
          "ticks": 187680,
          "time": 156.4,
          "velocity": 0.6299212598425197
        },
        {
          "duration": 1.7991666666666504,
          "durationTicks": 2159,
          "midi": 60,
          "name": "C4",
          "ticks": 188160,
          "time": 156.8,
          "velocity": 0.6299212598425197
        },
        {
          "duration": 1.7991666666666504,
          "durationTicks": 2159,
          "midi": 53,
          "name": "F3",
          "ticks": 188160,
          "time": 156.8,
          "velocity": 0.6299212598425197
        },
        {
          "duration": 1.3991666666666447,
          "durationTicks": 1679,
          "midi": 65,
          "name": "F4",
          "ticks": 190320,
          "time": 158.60000000000002,
          "velocity": 0.6299212598425197
        },
        {
          "duration": 1.3991666666666447,
          "durationTicks": 1679,
          "midi": 55,
          "name": "G3",
          "ticks": 190320,
          "time": 158.60000000000002,
          "velocity": 0.6299212598425197
        },
        {
          "duration": 2.399166666666673,
          "durationTicks": 2879,
          "midi": 60,
          "name": "C4",
          "ticks": 192000,
          "time": 160,
          "velocity": 0.6299212598425197
        },
        {
          "duration": 0.3991666666666731,
          "durationTicks": 479,
          "midi": 58,
          "name": "A#3",
          "ticks": 194880,
          "time": 162.4,
          "velocity": 0.6299212598425197
        },
        {
          "duration": 0.3991666666666447,
          "durationTicks": 479,
          "midi": 46,
          "name": "A#2",
          "ticks": 195360,
          "time": 162.8,
          "velocity": 0.6299212598425197
        },
        {
          "duration": 2.3991666666666447,
          "durationTicks": 2879,
          "midi": 51,
          "name": "D#3",
          "ticks": 195840,
          "time": 163.20000000000002,
          "velocity": 0.6299212598425197
        },
        {
          "duration": 2.3991666666666447,
          "durationTicks": 2879,
          "midi": 44,
          "name": "G#2",
          "ticks": 195840,
          "time": 163.20000000000002,
          "velocity": 0.6299212598425197
        },
        {
          "duration": 0.3991666666666447,
          "durationTicks": 479,
          "midi": 44,
          "name": "G#2",
          "ticks": 198720,
          "time": 165.60000000000002,
          "velocity": 0.6299212598425197
        },
        {
          "duration": 0.3991666666666731,
          "durationTicks": 479,
          "midi": 43,
          "name": "G2",
          "ticks": 199200,
          "time": 166,
          "velocity": 0.6299212598425197
        },
        {
          "duration": 1.5991666666666617,
          "durationTicks": 1919,
          "midi": 39,
          "name": "D#2",
          "ticks": 199680,
          "time": 166.4,
          "velocity": 0.6299212598425197
        },
        {
          "duration": 2.399166666666673,
          "durationTicks": 2879,
          "midi": 48,
          "name": "C3",
          "ticks": 199680,
          "time": 166.4,
          "velocity": 0.6299212598425197
        },
        {
          "duration": 0.3991666666666447,
          "durationTicks": 479,
          "midi": 48,
          "name": "C3",
          "ticks": 202560,
          "time": 168.8,
          "velocity": 0.6299212598425197
        },
        {
          "duration": 0.3991666666666447,
          "durationTicks": 479,
          "midi": 46,
          "name": "A#2",
          "ticks": 203040,
          "time": 169.20000000000002,
          "velocity": 0.6299212598425197
        },
        {
          "duration": 1.7991666666666504,
          "durationTicks": 2159,
          "midi": 41,
          "name": "F2",
          "ticks": 203520,
          "time": 169.60000000000002,
          "velocity": 0.6299212598425197
        },
        {
          "duration": 1.399166666666673,
          "durationTicks": 1679,
          "midi": 43,
          "name": "G2",
          "ticks": 205680,
          "time": 171.4,
          "velocity": 0.6299212598425197
        },
        {
          "duration": 2.3991666666666447,
          "durationTicks": 2879,
          "midi": 48,
          "name": "C3",
          "ticks": 207360,
          "time": 172.8,
          "velocity": 0.6299212598425197
        },
        {
          "duration": 0.7991666666666504,
          "durationTicks": 959,
          "midi": 46,
          "name": "A#2",
          "ticks": 210240,
          "time": 175.20000000000002,
          "velocity": 0.6299212598425197
        },
        {
          "duration": 2.399166666666673,
          "durationTicks": 2879,
          "midi": 51,
          "name": "D#3",
          "ticks": 211200,
          "time": 176,
          "velocity": 0.6299212598425197
        },
        {
          "duration": 2.399166666666673,
          "durationTicks": 2879,
          "midi": 44,
          "name": "G#2",
          "ticks": 211200,
          "time": 176,
          "velocity": 0.6299212598425197
        },
        {
          "duration": 0.3991666666666731,
          "durationTicks": 479,
          "midi": 44,
          "name": "G#2",
          "ticks": 214080,
          "time": 178.4,
          "velocity": 0.6299212598425197
        },
        {
          "duration": 0.3991666666666447,
          "durationTicks": 479,
          "midi": 43,
          "name": "G2",
          "ticks": 214560,
          "time": 178.8,
          "velocity": 0.6299212598425197
        },
        {
          "duration": 2.3991666666666447,
          "durationTicks": 2879,
          "midi": 48,
          "name": "C3",
          "ticks": 215040,
          "time": 179.20000000000002,
          "velocity": 0.6299212598425197
        },
        {
          "duration": 0.3991666666666447,
          "durationTicks": 479,
          "midi": 48,
          "name": "C3",
          "ticks": 217920,
          "time": 181.60000000000002,
          "velocity": 0.6299212598425197
        },
        {
          "duration": 0.3991666666666731,
          "durationTicks": 479,
          "midi": 46,
          "name": "A#2",
          "ticks": 218400,
          "time": 182,
          "velocity": 0.6299212598425197
        },
        {
          "duration": 1.7991666666666504,
          "durationTicks": 2159,
          "midi": 41,
          "name": "F2",
          "ticks": 218880,
          "time": 182.4,
          "velocity": 0.6299212598425197
        },
        {
          "duration": 1.3991666666666447,
          "durationTicks": 1679,
          "midi": 43,
          "name": "G2",
          "ticks": 221040,
          "time": 184.20000000000002,
          "velocity": 0.6299212598425197
        },
        {
          "duration": 2.3991666666666447,
          "durationTicks": 2879,
          "midi": 48,
          "name": "C3",
          "ticks": 222720,
          "time": 185.60000000000002,
          "velocity": 0.6299212598425197
        },
        {
          "duration": 0.3991666666666731,
          "durationTicks": 479,
          "midi": 46,
          "name": "A#2",
          "ticks": 225600,
          "time": 188,
          "velocity": 0.6299212598425197
        },
        {
          "duration": 0.3991666666666731,
          "durationTicks": 479,
          "midi": 46,
          "name": "A#2",
          "ticks": 226080,
          "time": 188.4,
          "velocity": 0.6299212598425197
        },
        {
          "duration": 1.5991666666666617,
          "durationTicks": 1919,
          "midi": 39,
          "name": "D#2",
          "ticks": 226560,
          "time": 188.8,
          "velocity": 0.6299212598425197
        },
        {
          "duration": 0.7991666666666504,
          "durationTicks": 959,
          "midi": 46,
          "name": "A#2",
          "ticks": 226560,
          "time": 188.8,
          "velocity": 0.6299212598425197
        },
        {
          "duration": 0.7991666666666504,
          "durationTicks": 959,
          "midi": 50,
          "name": "D3",
          "ticks": 227520,
          "time": 189.60000000000002,
          "velocity": 0.6299212598425197
        },
        {
          "duration": 0.19916666666665606,
          "durationTicks": 239,
          "midi": 32,
          "name": "G#1",
          "ticks": 229680,
          "time": 191.4,
          "velocity": 0.6299212598425197
        },
        {
          "duration": 0.3991666666666447,
          "durationTicks": 479,
          "midi": 46,
          "name": "A#2",
          "ticks": 229920,
          "time": 191.60000000000002,
          "velocity": 0.6299212598425197
        },
        {
          "duration": 0.19916666666665606,
          "durationTicks": 239,
          "midi": 44,
          "name": "G#2",
          "ticks": 230400,
          "time": 192,
          "velocity": 0.6299212598425197
        },
        {
          "duration": 0.19916666666665606,
          "durationTicks": 239,
          "midi": 51,
          "name": "D#3",
          "ticks": 230640,
          "time": 192.20000000000002,
          "velocity": 0.6299212598425197
        },
        {
          "duration": 0.3991666666666731,
          "durationTicks": 479,
          "midi": 44,
          "name": "G#2",
          "ticks": 230880,
          "time": 192.4,
          "velocity": 0.6299212598425197
        },
        {
          "duration": 0.19916666666665606,
          "durationTicks": 239,
          "midi": 44,
          "name": "G#2",
          "ticks": 231360,
          "time": 192.8,
          "velocity": 0.6299212598425197
        },
        {
          "duration": 0.19916666666665606,
          "durationTicks": 239,
          "midi": 51,
          "name": "D#3",
          "ticks": 231600,
          "time": 193,
          "velocity": 0.6299212598425197
        },
        {
          "duration": 0.3991666666666447,
          "durationTicks": 479,
          "midi": 44,
          "name": "G#2",
          "ticks": 231840,
          "time": 193.20000000000002,
          "velocity": 0.6299212598425197
        },
        {
          "duration": 0.19916666666665606,
          "durationTicks": 239,
          "midi": 44,
          "name": "G#2",
          "ticks": 232320,
          "time": 193.60000000000002,
          "velocity": 0.6299212598425197
        },
        {
          "duration": 0.19916666666665606,
          "durationTicks": 239,
          "midi": 51,
          "name": "D#3",
          "ticks": 232560,
          "time": 193.8,
          "velocity": 0.6299212598425197
        },
        {
          "duration": 0.3991666666666731,
          "durationTicks": 479,
          "midi": 44,
          "name": "G#2",
          "ticks": 232800,
          "time": 194,
          "velocity": 0.6299212598425197
        },
        {
          "duration": 0.3991666666666731,
          "durationTicks": 479,
          "midi": 44,
          "name": "G#2",
          "ticks": 233280,
          "time": 194.4,
          "velocity": 0.6299212598425197
        },
        {
          "duration": 0.3991666666666447,
          "durationTicks": 479,
          "midi": 53,
          "name": "F3",
          "ticks": 233760,
          "time": 194.8,
          "velocity": 0.6299212598425197
        },
        {
          "duration": 0.3991666666666447,
          "durationTicks": 479,
          "midi": 43,
          "name": "G2",
          "ticks": 233760,
          "time": 194.8,
          "velocity": 0.6299212598425197
        },
        {
          "duration": 0.19916666666665606,
          "durationTicks": 239,
          "midi": 48,
          "name": "C3",
          "ticks": 234240,
          "time": 195.20000000000002,
          "velocity": 0.6299212598425197
        },
        {
          "duration": 0.19916666666665606,
          "durationTicks": 239,
          "midi": 55,
          "name": "G3",
          "ticks": 234480,
          "time": 195.4,
          "velocity": 0.6299212598425197
        },
        {
          "duration": 0.3991666666666447,
          "durationTicks": 479,
          "midi": 48,
          "name": "C3",
          "ticks": 234720,
          "time": 195.60000000000002,
          "velocity": 0.6299212598425197
        },
        {
          "duration": 0.19916666666665606,
          "durationTicks": 239,
          "midi": 48,
          "name": "C3",
          "ticks": 235200,
          "time": 196,
          "velocity": 0.6299212598425197
        },
        {
          "duration": 0.19916666666665606,
          "durationTicks": 239,
          "midi": 55,
          "name": "G3",
          "ticks": 235440,
          "time": 196.20000000000002,
          "velocity": 0.6299212598425197
        },
        {
          "duration": 0.3991666666666731,
          "durationTicks": 479,
          "midi": 48,
          "name": "C3",
          "ticks": 235680,
          "time": 196.4,
          "velocity": 0.6299212598425197
        },
        {
          "duration": 0.19916666666665606,
          "durationTicks": 239,
          "midi": 48,
          "name": "C3",
          "ticks": 236160,
          "time": 196.8,
          "velocity": 0.6299212598425197
        },
        {
          "duration": 0.19916666666665606,
          "durationTicks": 239,
          "midi": 55,
          "name": "G3",
          "ticks": 236400,
          "time": 197,
          "velocity": 0.6299212598425197
        },
        {
          "duration": 0.3991666666666447,
          "durationTicks": 479,
          "midi": 48,
          "name": "C3",
          "ticks": 236640,
          "time": 197.20000000000002,
          "velocity": 0.6299212598425197
        },
        {
          "duration": 0.3991666666666447,
          "durationTicks": 479,
          "midi": 48,
          "name": "C3",
          "ticks": 237120,
          "time": 197.60000000000002,
          "velocity": 0.6299212598425197
        },
        {
          "duration": 0.3991666666666731,
          "durationTicks": 479,
          "midi": 53,
          "name": "F3",
          "ticks": 237600,
          "time": 198,
          "velocity": 0.6299212598425197
        },
        {
          "duration": 0.3991666666666731,
          "durationTicks": 479,
          "midi": 46,
          "name": "A#2",
          "ticks": 237600,
          "time": 198,
          "velocity": 0.6299212598425197
        },
        {
          "duration": 0.19916666666665606,
          "durationTicks": 239,
          "midi": 41,
          "name": "F2",
          "ticks": 238080,
          "time": 198.4,
          "velocity": 0.6299212598425197
        },
        {
          "duration": 0.19916666666665606,
          "durationTicks": 239,
          "midi": 51,
          "name": "D#3",
          "ticks": 238320,
          "time": 198.60000000000002,
          "velocity": 0.6299212598425197
        },
        {
          "duration": 0.3991666666666447,
          "durationTicks": 479,
          "midi": 41,
          "name": "F2",
          "ticks": 238560,
          "time": 198.8,
          "velocity": 0.6299212598425197
        },
        {
          "duration": 0.19916666666665606,
          "durationTicks": 239,
          "midi": 41,
          "name": "F2",
          "ticks": 239040,
          "time": 199.20000000000002,
          "velocity": 0.6299212598425197
        },
        {
          "duration": 0.19916666666665606,
          "durationTicks": 239,
          "midi": 51,
          "name": "D#3",
          "ticks": 239280,
          "time": 199.4,
          "velocity": 0.6299212598425197
        },
        {
          "duration": 0.3991666666666447,
          "durationTicks": 479,
          "midi": 41,
          "name": "F2",
          "ticks": 239520,
          "time": 199.60000000000002,
          "velocity": 0.6299212598425197
        },
        {
          "duration": 0.19916666666665606,
          "durationTicks": 239,
          "midi": 41,
          "name": "F2",
          "ticks": 240000,
          "time": 200,
          "velocity": 0.6299212598425197
        },
        {
          "duration": 0.19916666666665606,
          "durationTicks": 239,
          "midi": 51,
          "name": "D#3",
          "ticks": 240240,
          "time": 200.20000000000002,
          "velocity": 0.6299212598425197
        },
        {
          "duration": 0.3991666666666731,
          "durationTicks": 479,
          "midi": 41,
          "name": "F2",
          "ticks": 240480,
          "time": 200.4,
          "velocity": 0.6299212598425197
        },
        {
          "duration": 0.3991666666666447,
          "durationTicks": 479,
          "midi": 41,
          "name": "F2",
          "ticks": 240960,
          "time": 200.8,
          "velocity": 0.6299212598425197
        },
        {
          "duration": 0.3991666666666447,
          "durationTicks": 479,
          "midi": 53,
          "name": "F3",
          "ticks": 241440,
          "time": 201.20000000000002,
          "velocity": 0.6299212598425197
        },
        {
          "duration": 0.3991666666666447,
          "durationTicks": 479,
          "midi": 43,
          "name": "G2",
          "ticks": 241440,
          "time": 201.20000000000002,
          "velocity": 0.6299212598425197
        },
        {
          "duration": 0.19916666666665606,
          "durationTicks": 239,
          "midi": 44,
          "name": "G#2",
          "ticks": 241920,
          "time": 201.60000000000002,
          "velocity": 0.6299212598425197
        },
        {
          "duration": 0.19916666666665606,
          "durationTicks": 239,
          "midi": 51,
          "name": "D#3",
          "ticks": 242160,
          "time": 201.8,
          "velocity": 0.6299212598425197
        },
        {
          "duration": 0.3991666666666731,
          "durationTicks": 479,
          "midi": 44,
          "name": "G#2",
          "ticks": 242400,
          "time": 202,
          "velocity": 0.6299212598425197
        },
        {
          "duration": 0.19916666666665606,
          "durationTicks": 239,
          "midi": 44,
          "name": "G#2",
          "ticks": 242880,
          "time": 202.4,
          "velocity": 0.6299212598425197
        },
        {
          "duration": 0.19916666666665606,
          "durationTicks": 239,
          "midi": 51,
          "name": "D#3",
          "ticks": 243120,
          "time": 202.60000000000002,
          "velocity": 0.6299212598425197
        },
        {
          "duration": 0.3991666666666447,
          "durationTicks": 479,
          "midi": 44,
          "name": "G#2",
          "ticks": 243360,
          "time": 202.8,
          "velocity": 0.6299212598425197
        },
        {
          "duration": 0.19916666666665606,
          "durationTicks": 239,
          "midi": 46,
          "name": "A#2",
          "ticks": 243840,
          "time": 203.20000000000002,
          "velocity": 0.6299212598425197
        },
        {
          "duration": 0.19916666666665606,
          "durationTicks": 239,
          "midi": 53,
          "name": "F3",
          "ticks": 244080,
          "time": 203.4,
          "velocity": 0.6299212598425197
        },
        {
          "duration": 0.19916666666665606,
          "durationTicks": 239,
          "midi": 46,
          "name": "A#2",
          "ticks": 244080,
          "time": 203.4,
          "velocity": 0.6299212598425197
        },
        {
          "duration": 0.19916666666665606,
          "durationTicks": 239,
          "midi": 53,
          "name": "F3",
          "ticks": 244320,
          "time": 203.60000000000002,
          "velocity": 0.6299212598425197
        },
        {
          "duration": 0.19916666666665606,
          "durationTicks": 239,
          "midi": 46,
          "name": "A#2",
          "ticks": 244320,
          "time": 203.60000000000002,
          "velocity": 0.6299212598425197
        },
        {
          "duration": 0.19916666666665606,
          "durationTicks": 239,
          "midi": 53,
          "name": "F3",
          "ticks": 244560,
          "time": 203.8,
          "velocity": 0.6299212598425197
        },
        {
          "duration": 0.19916666666665606,
          "durationTicks": 239,
          "midi": 46,
          "name": "A#2",
          "ticks": 244560,
          "time": 203.8,
          "velocity": 0.6299212598425197
        },
        {
          "duration": 0.19916666666665606,
          "durationTicks": 239,
          "midi": 53,
          "name": "F3",
          "ticks": 244800,
          "time": 204,
          "velocity": 0.6299212598425197
        },
        {
          "duration": 0.19916666666665606,
          "durationTicks": 239,
          "midi": 46,
          "name": "A#2",
          "ticks": 244800,
          "time": 204,
          "velocity": 0.6299212598425197
        },
        {
          "duration": 0.19916666666665606,
          "durationTicks": 239,
          "midi": 53,
          "name": "F3",
          "ticks": 245040,
          "time": 204.20000000000002,
          "velocity": 0.6299212598425197
        },
        {
          "duration": 0.19916666666665606,
          "durationTicks": 239,
          "midi": 46,
          "name": "A#2",
          "ticks": 245040,
          "time": 204.20000000000002,
          "velocity": 0.6299212598425197
        },
        {
          "duration": 0.19916666666665606,
          "durationTicks": 239,
          "midi": 46,
          "name": "A#2",
          "ticks": 245520,
          "time": 204.60000000000002,
          "velocity": 0.6299212598425197
        },
        {
          "duration": 0.19916666666668448,
          "durationTicks": 239,
          "midi": 44,
          "name": "G#2",
          "ticks": 245760,
          "time": 204.8,
          "velocity": 0.6299212598425197
        },
        {
          "duration": 0.19916666666668448,
          "durationTicks": 239,
          "midi": 51,
          "name": "D#3",
          "ticks": 246000,
          "time": 205,
          "velocity": 0.6299212598425197
        },
        {
          "duration": 0.3991666666666731,
          "durationTicks": 479,
          "midi": 44,
          "name": "G#2",
          "ticks": 246240,
          "time": 205.20000000000002,
          "velocity": 0.6299212598425197
        },
        {
          "duration": 0.19916666666665606,
          "durationTicks": 239,
          "midi": 44,
          "name": "G#2",
          "ticks": 246720,
          "time": 205.60000000000002,
          "velocity": 0.6299212598425197
        },
        {
          "duration": 0.19916666666668448,
          "durationTicks": 239,
          "midi": 51,
          "name": "D#3",
          "ticks": 246960,
          "time": 205.8,
          "velocity": 0.6299212598425197
        },
        {
          "duration": 0.39916666666670153,
          "durationTicks": 479,
          "midi": 44,
          "name": "G#2",
          "ticks": 247200,
          "time": 206,
          "velocity": 0.6299212598425197
        },
        {
          "duration": 0.19916666666668448,
          "durationTicks": 239,
          "midi": 44,
          "name": "G#2",
          "ticks": 247680,
          "time": 206.4,
          "velocity": 0.6299212598425197
        },
        {
          "duration": 0.19916666666665606,
          "durationTicks": 239,
          "midi": 51,
          "name": "D#3",
          "ticks": 247920,
          "time": 206.60000000000002,
          "velocity": 0.6299212598425197
        },
        {
          "duration": 0.3991666666666731,
          "durationTicks": 479,
          "midi": 44,
          "name": "G#2",
          "ticks": 248160,
          "time": 206.8,
          "velocity": 0.6299212598425197
        },
        {
          "duration": 0.3991666666666731,
          "durationTicks": 479,
          "midi": 44,
          "name": "G#2",
          "ticks": 248640,
          "time": 207.20000000000002,
          "velocity": 0.6299212598425197
        },
        {
          "duration": 0.3991666666666731,
          "durationTicks": 479,
          "midi": 53,
          "name": "F3",
          "ticks": 249120,
          "time": 207.60000000000002,
          "velocity": 0.6299212598425197
        },
        {
          "duration": 0.3991666666666731,
          "durationTicks": 479,
          "midi": 43,
          "name": "G2",
          "ticks": 249120,
          "time": 207.60000000000002,
          "velocity": 0.6299212598425197
        },
        {
          "duration": 0.19916666666668448,
          "durationTicks": 239,
          "midi": 48,
          "name": "C3",
          "ticks": 249600,
          "time": 208,
          "velocity": 0.6299212598425197
        },
        {
          "duration": 0.19916666666668448,
          "durationTicks": 239,
          "midi": 55,
          "name": "G3",
          "ticks": 249840,
          "time": 208.20000000000002,
          "velocity": 0.6299212598425197
        },
        {
          "duration": 0.3991666666666731,
          "durationTicks": 479,
          "midi": 48,
          "name": "C3",
          "ticks": 250080,
          "time": 208.4,
          "velocity": 0.6299212598425197
        },
        {
          "duration": 0.19916666666668448,
          "durationTicks": 239,
          "midi": 48,
          "name": "C3",
          "ticks": 250560,
          "time": 208.8,
          "velocity": 0.6299212598425197
        },
        {
          "duration": 0.19916666666668448,
          "durationTicks": 239,
          "midi": 55,
          "name": "G3",
          "ticks": 250800,
          "time": 209,
          "velocity": 0.6299212598425197
        },
        {
          "duration": 0.3991666666666731,
          "durationTicks": 479,
          "midi": 48,
          "name": "C3",
          "ticks": 251040,
          "time": 209.20000000000002,
          "velocity": 0.6299212598425197
        },
        {
          "duration": 0.19916666666665606,
          "durationTicks": 239,
          "midi": 48,
          "name": "C3",
          "ticks": 251520,
          "time": 209.60000000000002,
          "velocity": 0.6299212598425197
        },
        {
          "duration": 0.19916666666668448,
          "durationTicks": 239,
          "midi": 55,
          "name": "G3",
          "ticks": 251760,
          "time": 209.8,
          "velocity": 0.6299212598425197
        },
        {
          "duration": 0.39916666666670153,
          "durationTicks": 479,
          "midi": 48,
          "name": "C3",
          "ticks": 252000,
          "time": 210,
          "velocity": 0.6299212598425197
        },
        {
          "duration": 0.3991666666666731,
          "durationTicks": 479,
          "midi": 48,
          "name": "C3",
          "ticks": 252480,
          "time": 210.4,
          "velocity": 0.6299212598425197
        },
        {
          "duration": 0.3991666666666731,
          "durationTicks": 479,
          "midi": 53,
          "name": "F3",
          "ticks": 252960,
          "time": 210.8,
          "velocity": 0.6299212598425197
        },
        {
          "duration": 0.3991666666666731,
          "durationTicks": 479,
          "midi": 46,
          "name": "A#2",
          "ticks": 252960,
          "time": 210.8,
          "velocity": 0.6299212598425197
        },
        {
          "duration": 0.19916666666668448,
          "durationTicks": 239,
          "midi": 41,
          "name": "F2",
          "ticks": 253440,
          "time": 211.20000000000002,
          "velocity": 0.6299212598425197
        },
        {
          "duration": 0.19916666666668448,
          "durationTicks": 239,
          "midi": 51,
          "name": "D#3",
          "ticks": 253680,
          "time": 211.4,
          "velocity": 0.6299212598425197
        },
        {
          "duration": 0.3991666666666731,
          "durationTicks": 479,
          "midi": 41,
          "name": "F2",
          "ticks": 253920,
          "time": 211.60000000000002,
          "velocity": 0.6299212598425197
        },
        {
          "duration": 0.19916666666668448,
          "durationTicks": 239,
          "midi": 41,
          "name": "F2",
          "ticks": 254400,
          "time": 212,
          "velocity": 0.6299212598425197
        },
        {
          "duration": 0.19916666666668448,
          "durationTicks": 239,
          "midi": 51,
          "name": "D#3",
          "ticks": 254640,
          "time": 212.20000000000002,
          "velocity": 0.6299212598425197
        },
        {
          "duration": 0.3991666666666731,
          "durationTicks": 479,
          "midi": 41,
          "name": "F2",
          "ticks": 254880,
          "time": 212.4,
          "velocity": 0.6299212598425197
        },
        {
          "duration": 0.19916666666668448,
          "durationTicks": 239,
          "midi": 41,
          "name": "F2",
          "ticks": 255360,
          "time": 212.8,
          "velocity": 0.6299212598425197
        },
        {
          "duration": 0.19916666666668448,
          "durationTicks": 239,
          "midi": 51,
          "name": "D#3",
          "ticks": 255600,
          "time": 213,
          "velocity": 0.6299212598425197
        },
        {
          "duration": 0.3991666666666731,
          "durationTicks": 479,
          "midi": 41,
          "name": "F2",
          "ticks": 255840,
          "time": 213.20000000000002,
          "velocity": 0.6299212598425197
        },
        {
          "duration": 0.3991666666666731,
          "durationTicks": 479,
          "midi": 41,
          "name": "F2",
          "ticks": 256320,
          "time": 213.60000000000002,
          "velocity": 0.6299212598425197
        },
        {
          "duration": 0.39916666666670153,
          "durationTicks": 479,
          "midi": 53,
          "name": "F3",
          "ticks": 256800,
          "time": 214,
          "velocity": 0.6299212598425197
        },
        {
          "duration": 0.39916666666670153,
          "durationTicks": 479,
          "midi": 43,
          "name": "G2",
          "ticks": 256800,
          "time": 214,
          "velocity": 0.6299212598425197
        },
        {
          "duration": 0.19916666666668448,
          "durationTicks": 239,
          "midi": 44,
          "name": "G#2",
          "ticks": 257280,
          "time": 214.4,
          "velocity": 0.6299212598425197
        },
        {
          "duration": 0.19916666666665606,
          "durationTicks": 239,
          "midi": 51,
          "name": "D#3",
          "ticks": 257520,
          "time": 214.60000000000002,
          "velocity": 0.6299212598425197
        },
        {
          "duration": 0.3991666666666731,
          "durationTicks": 479,
          "midi": 44,
          "name": "G#2",
          "ticks": 257760,
          "time": 214.8,
          "velocity": 0.6299212598425197
        },
        {
          "duration": 0.19916666666668448,
          "durationTicks": 239,
          "midi": 44,
          "name": "G#2",
          "ticks": 258240,
          "time": 215.20000000000002,
          "velocity": 0.6299212598425197
        },
        {
          "duration": 0.19916666666668448,
          "durationTicks": 239,
          "midi": 51,
          "name": "D#3",
          "ticks": 258480,
          "time": 215.4,
          "velocity": 0.6299212598425197
        },
        {
          "duration": 0.3991666666666731,
          "durationTicks": 479,
          "midi": 44,
          "name": "G#2",
          "ticks": 258720,
          "time": 215.60000000000002,
          "velocity": 0.6299212598425197
        },
        {
          "duration": 0.19916666666668448,
          "durationTicks": 239,
          "midi": 46,
          "name": "A#2",
          "ticks": 259200,
          "time": 216,
          "velocity": 0.6299212598425197
        },
        {
          "duration": 0.19916666666668448,
          "durationTicks": 239,
          "midi": 53,
          "name": "F3",
          "ticks": 259440,
          "time": 216.20000000000002,
          "velocity": 0.6299212598425197
        },
        {
          "duration": 0.19916666666668448,
          "durationTicks": 239,
          "midi": 46,
          "name": "A#2",
          "ticks": 259440,
          "time": 216.20000000000002,
          "velocity": 0.6299212598425197
        },
        {
          "duration": 0.19916666666668448,
          "durationTicks": 239,
          "midi": 53,
          "name": "F3",
          "ticks": 259680,
          "time": 216.4,
          "velocity": 0.6299212598425197
        },
        {
          "duration": 0.19916666666668448,
          "durationTicks": 239,
          "midi": 46,
          "name": "A#2",
          "ticks": 259680,
          "time": 216.4,
          "velocity": 0.6299212598425197
        },
        {
          "duration": 0.19916666666665606,
          "durationTicks": 239,
          "midi": 53,
          "name": "F3",
          "ticks": 259920,
          "time": 216.60000000000002,
          "velocity": 0.6299212598425197
        },
        {
          "duration": 0.19916666666665606,
          "durationTicks": 239,
          "midi": 46,
          "name": "A#2",
          "ticks": 259920,
          "time": 216.60000000000002,
          "velocity": 0.6299212598425197
        },
        {
          "duration": 0.19916666666668448,
          "durationTicks": 239,
          "midi": 53,
          "name": "F3",
          "ticks": 260160,
          "time": 216.8,
          "velocity": 0.6299212598425197
        },
        {
          "duration": 0.19916666666668448,
          "durationTicks": 239,
          "midi": 46,
          "name": "A#2",
          "ticks": 260160,
          "time": 216.8,
          "velocity": 0.6299212598425197
        },
        {
          "duration": 0.19916666666668448,
          "durationTicks": 239,
          "midi": 53,
          "name": "F3",
          "ticks": 260400,
          "time": 217,
          "velocity": 0.6299212598425197
        },
        {
          "duration": 0.19916666666668448,
          "durationTicks": 239,
          "midi": 46,
          "name": "A#2",
          "ticks": 260400,
          "time": 217,
          "velocity": 0.6299212598425197
        },
        {
          "duration": 0.19916666666668448,
          "durationTicks": 239,
          "midi": 46,
          "name": "A#2",
          "ticks": 260880,
          "time": 217.4,
          "velocity": 0.6299212598425197
        },
        {
          "duration": 0.19916666666665606,
          "durationTicks": 239,
          "midi": 44,
          "name": "G#2",
          "ticks": 261120,
          "time": 217.60000000000002,
          "velocity": 0.6299212598425197
        },
        {
          "duration": 0.19916666666668448,
          "durationTicks": 239,
          "midi": 51,
          "name": "D#3",
          "ticks": 261360,
          "time": 217.8,
          "velocity": 0.6299212598425197
        },
        {
          "duration": 0.39916666666670153,
          "durationTicks": 479,
          "midi": 44,
          "name": "G#2",
          "ticks": 261600,
          "time": 218,
          "velocity": 0.6299212598425197
        },
        {
          "duration": 0.19916666666668448,
          "durationTicks": 239,
          "midi": 44,
          "name": "G#2",
          "ticks": 262080,
          "time": 218.4,
          "velocity": 0.6299212598425197
        },
        {
          "duration": 0.19916666666665606,
          "durationTicks": 239,
          "midi": 51,
          "name": "D#3",
          "ticks": 262320,
          "time": 218.60000000000002,
          "velocity": 0.6299212598425197
        },
        {
          "duration": 0.3991666666666731,
          "durationTicks": 479,
          "midi": 44,
          "name": "G#2",
          "ticks": 262560,
          "time": 218.8,
          "velocity": 0.6299212598425197
        },
        {
          "duration": 0.19916666666668448,
          "durationTicks": 239,
          "midi": 44,
          "name": "G#2",
          "ticks": 263040,
          "time": 219.20000000000002,
          "velocity": 0.6299212598425197
        },
        {
          "duration": 0.19916666666668448,
          "durationTicks": 239,
          "midi": 51,
          "name": "D#3",
          "ticks": 263280,
          "time": 219.4,
          "velocity": 0.6299212598425197
        },
        {
          "duration": 0.3991666666666731,
          "durationTicks": 479,
          "midi": 44,
          "name": "G#2",
          "ticks": 263520,
          "time": 219.60000000000002,
          "velocity": 0.6299212598425197
        },
        {
          "duration": 0.39916666666670153,
          "durationTicks": 479,
          "midi": 44,
          "name": "G#2",
          "ticks": 264000,
          "time": 220,
          "velocity": 0.6299212598425197
        },
        {
          "duration": 0.3991666666666731,
          "durationTicks": 479,
          "midi": 53,
          "name": "F3",
          "ticks": 264480,
          "time": 220.4,
          "velocity": 0.6299212598425197
        },
        {
          "duration": 0.3991666666666731,
          "durationTicks": 479,
          "midi": 43,
          "name": "G2",
          "ticks": 264480,
          "time": 220.4,
          "velocity": 0.6299212598425197
        },
        {
          "duration": 0.19916666666668448,
          "durationTicks": 239,
          "midi": 48,
          "name": "C3",
          "ticks": 264960,
          "time": 220.8,
          "velocity": 0.6299212598425197
        },
        {
          "duration": 0.19916666666668448,
          "durationTicks": 239,
          "midi": 55,
          "name": "G3",
          "ticks": 265200,
          "time": 221,
          "velocity": 0.6299212598425197
        },
        {
          "duration": 0.3991666666666731,
          "durationTicks": 479,
          "midi": 48,
          "name": "C3",
          "ticks": 265440,
          "time": 221.20000000000002,
          "velocity": 0.6299212598425197
        },
        {
          "duration": 0.19916666666665606,
          "durationTicks": 239,
          "midi": 48,
          "name": "C3",
          "ticks": 265920,
          "time": 221.60000000000002,
          "velocity": 0.6299212598425197
        },
        {
          "duration": 0.19916666666668448,
          "durationTicks": 239,
          "midi": 55,
          "name": "G3",
          "ticks": 266160,
          "time": 221.8,
          "velocity": 0.6299212598425197
        },
        {
          "duration": 0.39916666666670153,
          "durationTicks": 479,
          "midi": 48,
          "name": "C3",
          "ticks": 266400,
          "time": 222,
          "velocity": 0.6299212598425197
        },
        {
          "duration": 0.19916666666668448,
          "durationTicks": 239,
          "midi": 48,
          "name": "C3",
          "ticks": 266880,
          "time": 222.4,
          "velocity": 0.6299212598425197
        },
        {
          "duration": 0.19916666666665606,
          "durationTicks": 239,
          "midi": 55,
          "name": "G3",
          "ticks": 267120,
          "time": 222.60000000000002,
          "velocity": 0.6299212598425197
        },
        {
          "duration": 0.3991666666666731,
          "durationTicks": 479,
          "midi": 48,
          "name": "C3",
          "ticks": 267360,
          "time": 222.8,
          "velocity": 0.6299212598425197
        },
        {
          "duration": 0.3991666666666731,
          "durationTicks": 479,
          "midi": 48,
          "name": "C3",
          "ticks": 267840,
          "time": 223.20000000000002,
          "velocity": 0.6299212598425197
        },
        {
          "duration": 0.3991666666666731,
          "durationTicks": 479,
          "midi": 53,
          "name": "F3",
          "ticks": 268320,
          "time": 223.60000000000002,
          "velocity": 0.6299212598425197
        },
        {
          "duration": 0.3991666666666731,
          "durationTicks": 479,
          "midi": 46,
          "name": "A#2",
          "ticks": 268320,
          "time": 223.60000000000002,
          "velocity": 0.6299212598425197
        },
        {
          "duration": 0.19916666666668448,
          "durationTicks": 239,
          "midi": 41,
          "name": "F2",
          "ticks": 268800,
          "time": 224,
          "velocity": 0.6299212598425197
        },
        {
          "duration": 0.19916666666668448,
          "durationTicks": 239,
          "midi": 51,
          "name": "D#3",
          "ticks": 269040,
          "time": 224.20000000000002,
          "velocity": 0.6299212598425197
        },
        {
          "duration": 0.3991666666666731,
          "durationTicks": 479,
          "midi": 41,
          "name": "F2",
          "ticks": 269280,
          "time": 224.4,
          "velocity": 0.6299212598425197
        },
        {
          "duration": 0.19916666666668448,
          "durationTicks": 239,
          "midi": 41,
          "name": "F2",
          "ticks": 269760,
          "time": 224.8,
          "velocity": 0.6299212598425197
        },
        {
          "duration": 0.19916666666668448,
          "durationTicks": 239,
          "midi": 51,
          "name": "D#3",
          "ticks": 270000,
          "time": 225,
          "velocity": 0.6299212598425197
        },
        {
          "duration": 0.3991666666666731,
          "durationTicks": 479,
          "midi": 41,
          "name": "F2",
          "ticks": 270240,
          "time": 225.20000000000002,
          "velocity": 0.6299212598425197
        },
        {
          "duration": 0.19916666666665606,
          "durationTicks": 239,
          "midi": 43,
          "name": "G2",
          "ticks": 270720,
          "time": 225.60000000000002,
          "velocity": 0.6299212598425197
        },
        {
          "duration": 0.19916666666668448,
          "durationTicks": 239,
          "midi": 53,
          "name": "F3",
          "ticks": 270960,
          "time": 225.8,
          "velocity": 0.6299212598425197
        },
        {
          "duration": 0.39916666666670153,
          "durationTicks": 479,
          "midi": 43,
          "name": "G2",
          "ticks": 271200,
          "time": 226,
          "velocity": 0.6299212598425197
        },
        {
          "duration": 0.19916666666668448,
          "durationTicks": 239,
          "midi": 43,
          "name": "G2",
          "ticks": 271680,
          "time": 226.4,
          "velocity": 0.6299212598425197
        },
        {
          "duration": 0.19916666666665606,
          "durationTicks": 239,
          "midi": 53,
          "name": "F3",
          "ticks": 271920,
          "time": 226.60000000000002,
          "velocity": 0.6299212598425197
        },
        {
          "duration": 0.3991666666666731,
          "durationTicks": 479,
          "midi": 43,
          "name": "G2",
          "ticks": 272160,
          "time": 226.8,
          "velocity": 0.6299212598425197
        },
        {
          "duration": 0.19916666666668448,
          "durationTicks": 239,
          "midi": 44,
          "name": "G#2",
          "ticks": 272640,
          "time": 227.20000000000002,
          "velocity": 0.6299212598425197
        },
        {
          "duration": 0.19916666666668448,
          "durationTicks": 239,
          "midi": 51,
          "name": "D#3",
          "ticks": 272880,
          "time": 227.4,
          "velocity": 0.6299212598425197
        },
        {
          "duration": 0.3991666666666731,
          "durationTicks": 479,
          "midi": 44,
          "name": "G#2",
          "ticks": 273120,
          "time": 227.60000000000002,
          "velocity": 0.6299212598425197
        },
        {
          "duration": 0.19916666666668448,
          "durationTicks": 239,
          "midi": 44,
          "name": "G#2",
          "ticks": 273600,
          "time": 228,
          "velocity": 0.6299212598425197
        },
        {
          "duration": 0.19916666666668448,
          "durationTicks": 239,
          "midi": 51,
          "name": "D#3",
          "ticks": 273840,
          "time": 228.20000000000002,
          "velocity": 0.6299212598425197
        },
        {
          "duration": 0.3991666666666731,
          "durationTicks": 479,
          "midi": 44,
          "name": "G#2",
          "ticks": 274080,
          "time": 228.4,
          "velocity": 0.6299212598425197
        },
        {
          "duration": 0.19916666666668448,
          "durationTicks": 239,
          "midi": 44,
          "name": "G#2",
          "ticks": 274560,
          "time": 228.8,
          "velocity": 0.6299212598425197
        },
        {
          "duration": 0.19916666666668448,
          "durationTicks": 239,
          "midi": 51,
          "name": "D#3",
          "ticks": 274800,
          "time": 229,
          "velocity": 0.6299212598425197
        },
        {
          "duration": 0.3991666666666731,
          "durationTicks": 479,
          "midi": 44,
          "name": "G#2",
          "ticks": 275040,
          "time": 229.20000000000002,
          "velocity": 0.6299212598425197
        },
        {
          "duration": 0.19916666666665606,
          "durationTicks": 239,
          "midi": 44,
          "name": "G#2",
          "ticks": 275520,
          "time": 229.60000000000002,
          "velocity": 0.6299212598425197
        },
        {
          "duration": 0.19916666666668448,
          "durationTicks": 239,
          "midi": 51,
          "name": "D#3",
          "ticks": 275760,
          "time": 229.8,
          "velocity": 0.6299212598425197
        },
        {
          "duration": 0.19916666666668448,
          "durationTicks": 239,
          "midi": 44,
          "name": "G#2",
          "ticks": 276000,
          "time": 230,
          "velocity": 0.6299212598425197
        },
        {
          "duration": 0.19916666666668448,
          "durationTicks": 239,
          "midi": 51,
          "name": "D#3",
          "ticks": 276240,
          "time": 230.20000000000002,
          "velocity": 0.6299212598425197
        },
        {
          "duration": 2.999166666666696,
          "durationTicks": 3599,
          "midi": 39,
          "name": "D#2",
          "ticks": 276480,
          "time": 230.4,
          "velocity": 0.6299212598425197
        },
        {
          "duration": 0.19916666666668448,
          "durationTicks": 239,
          "midi": 39,
          "name": "D#2",
          "ticks": 280080,
          "time": 233.4,
          "velocity": 0.6299212598425197
        },
        {
          "duration": 3.199166666666656,
          "durationTicks": 3839,
          "midi": 39,
          "name": "D#2",
          "ticks": 280320,
          "time": 233.60000000000002,
          "velocity": 0.6299212598425197
        },
        {
          "duration": 3.1991666666666845,
          "durationTicks": 3839,
          "midi": 51,
          "name": "D#3",
          "ticks": 284160,
          "time": 236.8,
          "velocity": 0.6299212598425197
        },
        {
          "duration": 3.1991666666666845,
          "durationTicks": 3839,
          "midi": 44,
          "name": "G#2",
          "ticks": 284160,
          "time": 236.8,
          "velocity": 0.6299212598425197
        },
        {
          "duration": 1.5991666666666902,
          "durationTicks": 1919,
          "midi": 43,
          "name": "G2",
          "ticks": 288000,
          "time": 240,
          "velocity": 0.6299212598425197
        },
        {
          "duration": 1.5991666666666617,
          "durationTicks": 1919,
          "midi": 41,
          "name": "F2",
          "ticks": 289920,
          "time": 241.60000000000002,
          "velocity": 0.6299212598425197
        },
        {
          "duration": 1.5991666666666617,
          "durationTicks": 1919,
          "midi": 39,
          "name": "D#2",
          "ticks": 291840,
          "time": 243.20000000000002,
          "velocity": 0.6299212598425197
        }
      ],
      "endOfTrackTicks": 293760
    }
  ]
}